<?xml version="1.0" encoding="utf-8"?>
<svg version="1.1"
	 xmlns="http://www.w3.org/2000/svg" xmlns:xlink="http://www.w3.org/1999/xlink" x="0px" y="0px" viewBox="0 0 238.55 238.55">
<style type="text/css">
	.st0{fill:none;stroke:#541932;stroke-width:5;stroke-linecap:round;stroke-miterlimit:10;}
	.st1{fill:#FBF0E5;}
	.st2{fill:#F5F6F8;}
	.st3{fill:#EE8240;}
	.st4{fill:#F2B440;}
	.st5{fill:#666666;}
	.st6{fill:#8A8D91;}
	.st7{fill:#212121;}
	.st8{fill:#541932;}
	.st9{fill:none;stroke:#541932;stroke-width:8;stroke-linecap:round;stroke-miterlimit:10;}
	.st10{fill:none;stroke:#541932;stroke-width:5;stroke-linecap:round;stroke-linejoin:round;stroke-miterlimit:10;}
	.st11{fill:#F5F3EF;}
	.st12{fill:#F2DBC7;}
	.st13{opacity:0.25;fill:#FFFFFF;}
	.st14{opacity:0.05;fill:#541932;}
	.st15{opacity:0.25;fill:#541932;}
	.st16{opacity:0.5;}
	.st17{fill:#FFFFFF;}
	.st18{opacity:0.5;fill:#FFFFFF;}
	.st19{opacity:0.5;fill:#541932;}
	.st20{opacity:0.75;}
	.st21{fill:#E3EDFC;}
	.st22{opacity:0.25;}
	.st23{opacity:0.75;fill:#FFFFFF;}
	.st24{opacity:0.2;fill:#541932;}
	.st25{opacity:0.5;fill:#F5F3EF;}
	.st26{opacity:0.25;fill:#F5F3EF;}
</style>
<switch>
	
	<g>
		<g id="Layer_1">
		</g>
		<g id="Layer_2">
			<g>
				<circle class="st11" cx="119.27" cy="119.27" r="119.27"/>
				<g>
					<path class="st8" d="M187.15,115.84l-17.9-25.06c2.68-2.25,4.26-5.56,4.26-9.1c0-6.55-5.33-11.88-11.88-11.88
						c-2.17,0-4.29,0.61-6.13,1.72l-17.47-24.46c-0.29-0.4-0.75-0.64-1.24-0.65c-0.01,0-0.01,0-0.02,0c-0.49,0-0.95,0.23-1.24,0.62
						l-51.3,68.6l-15.12,10.89c-7.91,5.69-9.71,16.75-4.02,24.66c3.45,4.79,8.87,7.34,14.36,7.34c3.57,0,7.18-1.08,10.3-3.32
						l0.17-0.12l18.83,26.85c1.67,2.38,4.33,3.65,7.03,3.65c1.7,0,3.42-0.5,4.91-1.55c1.87-1.31,3.12-3.28,3.52-5.54
						c0.4-2.25-0.11-4.53-1.42-6.4l-18.95-27.02l1.04-0.75l81.5-26.09c0.47-0.15,0.84-0.52,1-0.99
						C187.52,116.76,187.44,116.24,187.15,115.84z"/>
					<path class="st4" d="M161.63,72.89c4.84,0,8.78,3.94,8.78,8.78c0,2.54-1.09,4.92-2.96,6.57L157.3,74.03
						C158.61,73.28,160.09,72.89,161.63,72.89z"/>
					<path class="st4" d="M87.94,152.67c-6.52,4.69-15.64,3.21-20.34-3.31c-4.69-6.52-3.21-15.64,3.31-20.34l14.06-10.12L102,142.55
						L87.94,152.67z"/>
					<path class="st6" d="M120.25,173.85c0.84,1.2,1.16,2.65,0.91,4.09c-0.25,1.44-1.05,2.7-2.25,3.54
						c-2.47,1.73-5.89,1.13-7.63-1.34l-18.68-26.63l8.96-6.29L120.25,173.85z"/>
					<polygon class="st3" points="104.76,141.09 87.25,116.76 136.74,50.57 183.4,115.91 					"/>
				</g>
				<path class="st19" d="M90.88,150.5c-6.52,4.69-15.64,3.21-20.34-3.31c-4.51-6.27-3.3-14.94,2.61-19.77l-2.23,1.61
					c-6.52,4.69-8.01,13.82-3.31,20.34c4.69,6.52,13.82,8.01,20.34,3.31L102,142.55l-0.03-0.04L90.88,150.5z"/>
				<path class="st26" d="M81.42,139.16c4.69,6.52,13.82,8.01,20.34,3.31l0.12-0.09l-16.9-23.49l-2.02,1.45
					C77.99,125.31,77.19,133.29,81.42,139.16z"/>
				<path class="st19" d="M106.99,129.43c-8.63-19.3,8.47-49.09,20.13-65.99l-39.87,53.32l17.51,24.33l11.08-3.55
					C111.76,135.82,108.67,133.2,106.99,129.43z"/>
				<path class="st26" d="M136.74,50.57c0,0,40.46,58.05,32.93,63.28c-5.62,3.9-21.95,12.1-29.9,16.02l43.63-13.97L136.74,50.57z"/>
				<path class="st15" d="M158.32,75.38c-0.02,0-0.04,0-0.05,0l8.34,11.68c0.32-0.92,0.5-1.9,0.5-2.9
					C167.1,79.32,163.16,75.38,158.32,75.38z"/>
				<path class="st19" d="M103.79,169.45c-7.82-14.43-2.22-22.23-2.22-22.23l-8.96,6.29L103.79,169.45z"/>
				<path class="st26" d="M121.16,177.94c0.25-1.44-0.07-2.89-0.91-4.09l-13.06-18.63l0,0c0,0-0.59,18.25,10.76,26.79
					c0.33-0.14,0.66-0.33,0.97-0.54C120.11,180.63,120.91,179.38,121.16,177.94z"/>
			</g>
		</g>
	</g>
</switch>
</svg>
