<?xml version="1.0" encoding="utf-8"?>
<!-- Generator: Adobe Illustrator 26.1.0, SVG Export Plug-In . SVG Version: 6.00 Build 0)  -->
<svg version="1.1" id="Layer_1" xmlns="http://www.w3.org/2000/svg" xmlns:xlink="http://www.w3.org/1999/xlink" x="0px" y="0px"
	 viewBox="0 0 714.77 714.77" style="enable-background:new 0 0 714.77 714.77;" xml:space="preserve">
<style type="text/css">
	.st0{opacity:0.61;}
	.st1{fill:#FBF0E5;}
	.st2{opacity:0.61;fill:#FBF0E5;}
	.st3{fill:#EE8240;}
	.st4{fill:#DBA675;}
	.st5{opacity:0.22;fill:#9A521C;}
	.st6{fill:#F2CCA9;}
	.st7{opacity:0.39;fill:#9A521C;}
	.st8{fill:#DFB68E;}
	.st9{fill:#8A8D91;}
	.st10{opacity:0.09;}
	.st11{fill:#E0AE80;}
	.st12{opacity:0.25;fill:#9A521C;}
	.st13{opacity:0.28;fill:#919FB2;}
	.st14{fill:#541932;}
	.st15{opacity:0.34;fill:#933616;}
	.st16{fill:#F5F6F8;}
	.st17{fill:#8B6578;}
	.st18{fill:#E6CBAE;}
	.st19{fill:#E87B59;}
	.st20{fill:#ECC0B3;}
	.st21{opacity:0.25;fill:#541932;}
	.st22{fill:#FFFFFF;}
	.st23{opacity:0.25;fill:#FFFFFF;}
	.st24{fill:url(#SVGID_1_);}
	.st25{fill:#7AEB90;}
	.st26{fill:#BAFB89;}
	.st27{fill:#F6F5FF;}
	.st28{fill:#549F56;}
	.st29{opacity:0.5;fill:#FFFFFF;}
	.st30{opacity:0.5;fill:#A1F6FD;}
	.st31{fill:#F7CDC6;}
	.st32{fill:#F8D34E;}
	.st33{fill:#5BC3EA;}
	.st34{fill:none;stroke:#541932;stroke-width:7;stroke-linecap:round;stroke-miterlimit:10;}
	.st35{opacity:0.2;fill:#541932;}
	.st36{fill:#D76730;}
	.st37{fill:url(#SVGID_00000137825384222781261840000002717172870490481840_);}
	.st38{fill:url(#SVGID_00000051382778827957757130000005839863964158473129_);}
	.st39{fill:url(#SVGID_00000129894280370090071810000000203578586474156715_);}
	.st40{fill:url(#SVGID_00000071520145014104458480000010936634490912575637_);}
	.st41{fill:url(#SVGID_00000168079090097624097490000016821495538349486464_);}
	.st42{fill:url(#SVGID_00000034778728663959532070000004179361619261344645_);}
	.st43{fill:url(#SVGID_00000083780836358671578000000015081400638779132325_);}
	.st44{fill:url(#SVGID_00000134962774154331267820000009631178085971661753_);}
	.st45{fill:url(#SVGID_00000053506546152164410220000013658194186540951184_);}
	.st46{fill:url(#SVGID_00000132770633457475107780000016213050631603927228_);}
	.st47{fill:url(#SVGID_00000173874578083793412800000001776453816186224565_);}
	.st48{fill:url(#SVGID_00000155849592901701174300000006038704100590305980_);}
	.st49{fill:url(#SVGID_00000110443764924204903360000012341794156591610769_);}
	.st50{fill:url(#SVGID_00000142163224817218643460000011281913436429163406_);}
	.st51{fill:url(#SVGID_00000022527753544790429630000006549558231864102289_);}
	.st52{fill:url(#SVGID_00000108281280329074417100000017593798049789476739_);}
	.st53{fill:url(#SVGID_00000131364244990900318710000012076695742235462038_);}
	.st54{fill:url(#SVGID_00000050659622366450826940000003947771533770199226_);}
	.st55{fill:url(#SVGID_00000043418246063296962260000000254669910663663507_);}
	.st56{opacity:0.1;fill:#541932;}
	.st57{opacity:0.25;fill:#549F56;}
	.st58{fill:url(#SVGID_00000030479588014699913460000007191276290344761737_);}
	.st59{fill:#666666;}
	.st60{opacity:0.25;}
	.st61{fill:url(#SVGID_00000173871921879824255490000007061393673077869987_);}
	.st62{fill:#212121;}
	.st63{fill:#DF6B33;}
	.st64{fill:#E06B33;}
	.st65{fill:#BCC0C4;}
	.st66{fill:#E4E4E4;}
	.st67{clip-path:url(#SVGID_00000081633375883193169240000005035010206231119764_);}
	.st68{fill-rule:evenodd;clip-rule:evenodd;fill:#FFFFFF;}
	.st69{fill-rule:evenodd;clip-rule:evenodd;}
	.st70{fill-rule:evenodd;clip-rule:evenodd;fill:url(#SVGID_00000181784221118318729370000015205877959072428952_);}
	.st71{fill-rule:evenodd;clip-rule:evenodd;fill:url(#SVGID_00000025437390614655890150000011185287722302357689_);}
	.st72{fill:#3F5963;}
	.st73{opacity:0.3;}
	.st74{fill:#1E2E34;}
	.st75{fill:url(#SVGID_00000086678946185034432350000000154540026796553916_);}
	.st76{fill:url(#SVGID_00000124128042946782442330000002288624440985385137_);}
	.st77{fill:url(#SVGID_00000053529369905265796510000007373894819598605455_);}
	.st78{fill:url(#SVGID_00000132795737751127238830000011586293253882812314_);}
	.st79{fill:url(#SVGID_00000023976617222756585460000015916845092806454463_);}
	.st80{fill:#C0CFF6;}
	.st81{fill:url(#SVGID_00000158009218911431031640000000467922991088317847_);}
	.st82{fill:url(#SVGID_00000088118036379133515210000016423874870133235606_);}
	.st83{fill:url(#SVGID_00000014632625232388342070000011597477786700364477_);}
	.st84{fill:url(#SVGID_00000111898654760815598630000003944837623263456671_);}
	.st85{fill:url(#SVGID_00000113312685120678352000000011760203819202646424_);}
	.st86{fill:url(#SVGID_00000008124576296532024590000015594848919621365909_);}
	.st87{fill:url(#SVGID_00000114057382146763373910000005935426116261669534_);}
	.st88{fill:#31A24C;}
	.st89{fill:#141414;}
	.st90{fill:#EDC2A1;}
	.st91{opacity:0.2;fill:#EDC2A1;}
	.st92{fill:#EA9A57;}
	.st93{fill:#E49C69;}
	.st94{fill:#E7AA7D;}
	.st95{fill:none;stroke:#541932;stroke-width:7;stroke-linecap:round;stroke-linejoin:round;stroke-miterlimit:10;}
	.st96{fill:none;stroke:#FFFFFF;stroke-width:7;stroke-linecap:round;stroke-linejoin:round;stroke-miterlimit:10;}
</style>
<g>
	<circle class="st3" cx="357.39" cy="357.39" r="357.39"/>
	<circle class="st16" cx="357.39" cy="357.39" r="291.73"/>
	<g>
		<path class="st14" d="M487.54,313.57h-86.34v-86.34c0-10.77-8.76-19.53-19.53-19.53H227.23c-10.77,0-19.53,8.76-19.53,19.53
			v154.44c0,10.77,8.76,19.53,19.53,19.53h86.34v86.34c0,10.77,8.76,19.53,19.53,19.53h154.43c10.77,0,19.53-8.76,19.53-19.53V333.1
			C507.06,322.34,498.3,313.57,487.54,313.57z"/>
		<radialGradient id="SVGID_1_" cx="303.9385" cy="213.9787" r="148.4379" gradientUnits="userSpaceOnUse">
			<stop  offset="0" style="stop-color:#F5DA98"/>
			<stop  offset="1" style="stop-color:#F1CA6B"/>
		</radialGradient>
		<path class="st24" d="M227.23,396.91c-8.4,0-15.24-6.84-15.24-15.24V227.23c0-8.4,6.84-15.24,15.24-15.24h154.43
			c8.4,0,15.24,6.84,15.24,15.24v86.34H333.1c-10.2,0-18.49,7.89-19.36,17.86c-3.72-0.73-7.44-1.56-11.05-2.38
			c-18.24-4.2-35.48-8.16-52.66,2.76c-1,0.64-1.29,1.96-0.66,2.96c0.63,1,1.95,1.28,2.96,0.66c15.67-9.96,32.05-6.18,49.4-2.2
			c3.86,0.89,7.83,1.77,11.84,2.55v61.14H227.23z"/>
		<path class="st25" d="M502.78,487.54c0,8.4-6.84,15.24-15.24,15.24H333.1c-8.4,0-15.24-6.84-15.24-15.24V333.1
			c0-8.41,6.84-15.25,15.24-15.25h154.43c8.4,0,15.24,6.84,15.24,15.25V487.54z"/>
		<path class="st14" d="M252.33,262.4c15.66-9.96,32.05-6.19,49.41-2.2c9.98,2.3,20.14,4.63,30.64,4.63
			c10.01,0,20.32-2.13,31.07-8.45c1.02-0.6,1.36-1.91,0.76-2.93c-0.6-1.03-1.92-1.36-2.93-0.76c-20.55,12.06-39.89,7.62-58.59,3.33
			c-18.25-4.2-35.49-8.16-52.67,2.76c-1,0.64-1.29,1.96-0.66,2.96C250,262.74,251.32,263.03,252.33,262.4z"/>
		<path class="st21" d="M502.77,434.5c0,0,0.95,57.85-89.13,57.85c-95.78,0-95.78-57.85-95.78-57.85v53.04
			c0,8.42,6.82,15.24,15.24,15.24h154.43c8.42,0,15.24-6.82,15.24-15.24L502.77,434.5C502.78,434.5,502.78,434.5,502.77,434.5z"/>
		<path class="st21" d="M313.58,387.76c-3.23,0.17-6.59,0.25-10.08,0.25c-95.78,0-95.78-57.85-95.78-57.85v53.04
			c0,8.42,6.82,15.24,15.24,15.24h90.46"/>
		<path class="st22" d="M467.08,403.14H419.6v-47.49c0-3.28-2.67-5.95-5.96-5.95c-3.28,0-5.95,2.67-5.95,5.95v47.49h-47.48
			c-3.29,0-5.96,2.67-5.96,5.95c0,3.28,2.67,5.95,5.96,5.95h47.48v47.48c0,3.28,2.67,5.95,5.95,5.95c3.29,0,5.96-2.67,5.96-5.95
			v-47.48h47.48c3.29,0,5.96-2.67,5.96-5.95C473.03,405.81,470.36,403.14,467.08,403.14z"/>
		<path class="st21" d="M254.24,264.31c15.66-9.96,32.05-6.19,49.41-2.2c9.98,2.3,20.14,4.63,30.64,4.63
			c10.01,0,20.32-2.13,31.07-8.45c1.02-0.6,1.36-1.91,0.76-2.93c-0.6-1.03-1.92-1.36-2.93-0.76c-20.55,12.06-39.89,7.62-58.59,3.33
			c-18.25-4.2-35.49-8.16-52.67,2.76c-1,0.64-1.29,1.96-0.66,2.96C251.91,264.65,253.23,264.94,254.24,264.31z"/>
		<path class="st21" d="M313.63,333.29c-3.03-0.63-6.03-1.32-9.02-2c-18.25-4.2-35.49-8.16-52.67,2.76c-1,0.64-1.29,1.96-0.66,2.96
			c0.63,1,1.95,1.29,2.96,0.66c15.66-9.96,32.05-6.19,49.41-2.2c3.29,0.76,6.6,1.52,9.93,2.2"/>
		<path class="st23" d="M396.91,227.23c0-8.4-6.84-15.24-15.24-15.24H227.23c-5.45,0-10.2,2.9-12.9,7.2
			c2.34-1.46,5.08-2.35,8.04-2.35h154.43c8.4,0,15.24,6.84,15.24,15.24v81.48h4.86V227.23z"/>
		<path class="st26" d="M487.54,317.86H333.1c-8.4,0-15.24,6.84-15.24,15.25v6.54c0-8.41,6.84-15.25,15.24-15.25h154.43
			c8.4,0,15.24,6.84,15.24,15.25v-6.54C502.78,324.7,495.94,317.86,487.54,317.86z"/>
		<g>
			<path class="st21" d="M407.69,415.04h-47.48c-0.76,0-1.47-0.17-2.14-0.43c0.86,2.22,3,3.82,5.52,3.82h44.09V415.04z"/>
			<path class="st21" d="M419.6,355.65v47.49h3.38v-44.1c0-2.52-1.59-4.65-3.82-5.52C419.42,354.18,419.6,354.89,419.6,355.65z"/>
			<path class="st21" d="M472.6,406.95c0.26,0.67,0.43,1.38,0.43,2.14c0,3.28-2.67,5.95-5.96,5.95H419.6v47.48
				c0,3.28-2.67,5.95-5.96,5.95c-0.76,0-1.47-0.17-2.14-0.43c0.86,2.22,3,3.81,5.52,3.81c3.29,0,5.96-2.67,5.96-5.95v-47.48h47.48
				c3.29,0,5.96-2.67,5.96-5.95C476.42,409.95,474.82,407.82,472.6,406.95z"/>
		</g>
	</g>
</g>
</svg>
