<?xml version="1.0" encoding="utf-8"?>
<!-- Generator: Adobe Illustrator 26.1.0, SVG Export Plug-In . SVG Version: 6.00 Build 0)  -->
<svg version="1.1" id="Layer_1" xmlns="http://www.w3.org/2000/svg" xmlns:xlink="http://www.w3.org/1999/xlink" x="0px" y="0px"
	 viewBox="0 0 714.77 714.77" style="enable-background:new 0 0 714.77 714.77;" xml:space="preserve">
<style type="text/css">
	.st0{opacity:0.61;}
	.st1{fill:#FBF0E5;}
	.st2{opacity:0.61;fill:#FBF0E5;}
	.st3{fill:#EE8240;}
	.st4{fill:#DBA675;}
	.st5{opacity:0.22;fill:#9A521C;}
	.st6{fill:#F2CCA9;}
	.st7{opacity:0.39;fill:#9A521C;}
	.st8{fill:#DFB68E;}
	.st9{fill:#8A8D91;}
	.st10{opacity:0.09;}
	.st11{fill:#E0AE80;}
	.st12{opacity:0.25;fill:#9A521C;}
	.st13{opacity:0.28;fill:#919FB2;}
	.st14{fill:#541932;}
	.st15{opacity:0.34;fill:#933616;}
	.st16{fill:#F5F6F8;}
	.st17{fill:#8B6578;}
	.st18{fill:#E6CBAE;}
	.st19{fill:#E87B59;}
	.st20{fill:#ECC0B3;}
	.st21{opacity:0.25;fill:#541932;}
	.st22{fill:#FFFFFF;}
	.st23{opacity:0.25;fill:#FFFFFF;}
	.st24{fill:url(#SVGID_1_);}
	.st25{fill:#7AEB90;}
	.st26{fill:#BAFB89;}
	.st27{fill:#F6F5FF;}
	.st28{fill:#549F56;}
	.st29{opacity:0.5;fill:#FFFFFF;}
	.st30{opacity:0.5;fill:#A1F6FD;}
	.st31{fill:#F7CDC6;}
	.st32{fill:#F8D34E;}
	.st33{fill:#5BC3EA;}
	.st34{fill:none;stroke:#541932;stroke-width:7;stroke-linecap:round;stroke-miterlimit:10;}
	.st35{opacity:0.2;fill:#541932;}
	.st36{fill:#D76730;}
	.st37{fill:url(#SVGID_00000119831602438076937110000003443359499113780124_);}
	.st38{fill:url(#SVGID_00000118395410257992708060000015538075078822314417_);}
	.st39{fill:url(#SVGID_00000003796723033916412950000009774961028358457760_);}
	.st40{fill:url(#SVGID_00000009576625582198687430000003652244487216195201_);}
	.st41{fill:url(#SVGID_00000022526588105941557380000011760047641174109847_);}
	.st42{fill:url(#SVGID_00000060729361539891382890000014287416457851910296_);}
	.st43{fill:url(#SVGID_00000158711839935628514510000013205308013571667328_);}
	.st44{fill:url(#SVGID_00000183215917489738885170000005460200575472468872_);}
	.st45{fill:url(#SVGID_00000064331919971259717990000010489655186628503727_);}
	.st46{fill:url(#SVGID_00000157267239332692997270000015916966819596381070_);}
	.st47{fill:url(#SVGID_00000029011431638939796690000017653712825723261109_);}
	.st48{fill:url(#SVGID_00000047029020622888322380000010941698420205042070_);}
	.st49{fill:url(#SVGID_00000006675087049902666080000014954014665758182559_);}
	.st50{fill:url(#SVGID_00000096750136121762247990000005470255416929112960_);}
	.st51{fill:url(#SVGID_00000129186867176235381010000008248216454199692719_);}
	.st52{fill:url(#SVGID_00000118384759249580489260000004967257528615695286_);}
	.st53{fill:url(#SVGID_00000155865988419197451370000006862506295632013467_);}
	.st54{fill:url(#SVGID_00000006697251126786455060000016694911454832000673_);}
	.st55{fill:url(#SVGID_00000173133003938416927520000011303541662765454493_);}
	.st56{opacity:0.1;fill:#541932;}
	.st57{opacity:0.25;fill:#549F56;}
	.st58{fill:url(#SVGID_00000000198338601510008130000016999462212038448823_);}
	.st59{fill:#666666;}
	.st60{opacity:0.25;}
	.st61{fill:url(#SVGID_00000025440568653806552190000011115182983322958010_);}
	.st62{fill:#212121;}
	.st63{fill:#DF6B33;}
	.st64{fill:#E06B33;}
	.st65{fill:#BCC0C4;}
	.st66{fill:#E4E4E4;}
	.st67{clip-path:url(#SVGID_00000183939642157216731210000006373680586522775709_);}
	.st68{fill-rule:evenodd;clip-rule:evenodd;fill:#FFFFFF;}
	.st69{fill-rule:evenodd;clip-rule:evenodd;}
	.st70{fill-rule:evenodd;clip-rule:evenodd;fill:url(#SVGID_00000182530506935345300590000006385582373042277271_);}
	.st71{fill-rule:evenodd;clip-rule:evenodd;fill:url(#SVGID_00000015347979956946828790000014668947168932561321_);}
	.st72{fill:#3F5963;}
	.st73{opacity:0.3;}
	.st74{fill:#1E2E34;}
	.st75{fill:url(#SVGID_00000039826213621499658600000013041567228166992786_);}
	.st76{fill:url(#SVGID_00000180358271700358335520000014015084043230946993_);}
	.st77{fill:url(#SVGID_00000168819501350472129990000005595113967883000450_);}
	.st78{fill:url(#SVGID_00000152251593129430057730000018392435107476936628_);}
	.st79{fill:url(#SVGID_00000090267723313449601310000006588295986619265935_);}
	.st80{fill:#C0CFF6;}
	.st81{fill:url(#SVGID_00000135684340946828368530000010670798576057468292_);}
	.st82{fill:url(#SVGID_00000181069730071768395460000012939556866974521243_);}
	.st83{fill:url(#SVGID_00000005263650703616564470000016638254832885346695_);}
	.st84{fill:url(#SVGID_00000094613173577627571960000009608632003157715380_);}
	.st85{fill:url(#SVGID_00000043447735149606609760000010923742296961949062_);}
	.st86{fill:url(#SVGID_00000170998960187666712830000015625069115527461250_);}
	.st87{fill:url(#SVGID_00000076576431353944687130000016039359430063351172_);}
	.st88{fill:#31A24C;}
	.st89{fill:#141414;}
	.st90{fill:#EDC2A1;}
	.st91{opacity:0.2;fill:#EDC2A1;}
	.st92{fill:#EA9A57;}
	.st93{fill:#E49C69;}
	.st94{fill:#E7AA7D;}
	.st95{fill:none;stroke:#541932;stroke-width:7;stroke-linecap:round;stroke-linejoin:round;stroke-miterlimit:10;}
	.st96{fill:none;stroke:#FFFFFF;stroke-width:7;stroke-linecap:round;stroke-linejoin:round;stroke-miterlimit:10;}
</style>
<g>
	<circle class="st3" cx="357.39" cy="357.39" r="357.39"/>
	<circle class="st16" cx="357.39" cy="357.39" r="291.73"/>
	<g>
		<path class="st14" d="M357.98,363.24c0-0.01-0.01-0.02-0.01-0.03c-5.88-48.04-44.96-87.03-95.04-90.93
			c-52.47-4.09-98.91,31.78-109.58,81.92c-0.17,0.33-0.28,0.69-0.27,1.08c0,0.02,0.01,0.03,0.01,0.05
			c-0.82,4.07-1.48,8.2-1.81,12.44c-4.45,57.11,38.39,107.2,95.5,111.65c57.11,4.45,107.2-38.39,111.65-95.5
			c0.55-7.02,0.36-13.93-0.46-20.67C357.98,363.25,357.98,363.25,357.98,363.24z"/>
		<path class="st17" d="M262.57,277.09c46.71,3.64,83.32,39.33,90.13,83.77l-86.57,0.51l-14.93-19.09
			c-0.41-0.52-1.01-0.85-1.66-0.91c-0.65-0.08-1.31,0.14-1.81,0.57l-11.91,10.21l-77.17,0.66
			C169.76,306.27,213.37,273.25,262.57,277.09z"/>
		<path class="st18" d="M247.16,474.61c-54.46-4.25-95.31-52.01-91.06-106.46c0.28-3.56,0.76-7.06,1.4-10.49l79.23-0.68
			c0.57,0,1.12-0.21,1.55-0.58l10.67-9.14l14.1,18.03c0.46,0.59,1.2,0.94,1.92,0.93l88.35-0.52c0.6,5.85,0.77,11.81,0.3,17.87
			C349.37,438.01,301.62,478.86,247.16,474.61z"/>
		<path class="st14" d="M538.48,448.06c0.04-1.12,0.17-2.22,0.17-3.35c0-48.33-39.32-87.65-87.65-87.65s-87.65,39.32-87.65,87.65
			c0,1.26,0.14,2.48,0.19,3.72c-0.07,0.39-0.06,0.78,0.06,1.16c2.55,46.06,40.72,82.77,87.41,82.77c46.58,0,84.68-36.55,87.39-82.46
			C538.66,449.33,538.7,448.67,538.48,448.06z"/>
		<path class="st19" d="M451,361.88c44.62,0,81.01,35.49,82.67,79.71l-14.84-19.19c-0.46-0.59-1.16-0.94-1.91-0.94H390.47
			c-0.65,0-1.26,0.26-1.72,0.72l-20.49,20.8C369.19,398.12,405.91,361.88,451,361.88z"/>
		<path class="st20" d="M451,527.53c-43.98,0-79.97-34.49-82.57-77.83l23.06-23.4h124.24l17.86,23.08
			C531.14,492.87,495.09,527.53,451,527.53z"/>
		<path class="st14" d="M299.27,390.14c-1.33,0.01-2.41,1.1-2.4,2.43c0.08,11.6-4.36,22.53-12.51,30.79
			c-8.15,8.26-19.02,12.85-30.61,12.93c-23.98,0.13-43.56-19.19-43.72-43.12c-0.01-1.33-1.06-2.39-2.43-2.4
			c-1.33,0.01-2.41,1.1-2.4,2.43c0.17,25.22,19.76,45.85,44.46,47.78c1.36,0.11,2.74,0.16,4.12,0.15
			c12.89-0.08,24.97-5.19,34.02-14.36c9.05-9.18,13.99-21.33,13.9-34.22C301.69,391.2,300.47,390.13,299.27,390.14z"/>
		<path class="st21" d="M300.55,392.43c-1.33,0.01-2.41,1.1-2.4,2.43c0.08,11.6-4.36,22.53-12.51,30.79
			c-8.15,8.26-19.02,12.85-30.61,12.93c-23.98,0.13-43.56-19.19-43.72-43.12c-0.01-1.33-1.06-2.39-2.43-2.4
			c-1.33,0.01-2.41,1.1-2.4,2.43c0.17,25.22,19.76,45.85,44.46,47.78c1.36,0.11,2.74,0.16,4.12,0.15
			c12.89-0.08,24.97-5.19,34.02-14.36c9.05-9.18,13.99-21.33,13.9-34.22C302.97,393.49,301.75,392.42,300.55,392.43z"/>
		<path class="st14" d="M498.29,454.19c-1.33,0.06-2.37,1.18-2.32,2.51c0.96,23.92-17.73,44.17-41.65,45.13
			c-11.59,0.46-22.66-3.61-31.19-11.48c-8.52-7.87-13.47-18.58-13.94-30.18c-0.05-1.33-1.18-2.28-2.51-2.32
			c-1.33,0.06-2.37,1.18-2.32,2.51c0.52,12.88,6.02,24.79,15.49,33.53c8.98,8.29,20.52,12.79,32.68,12.79
			c0.66,0,1.32-0.01,1.98-0.04c26.59-1.07,47.35-23.56,46.29-50.15C500.75,455.17,499.63,454.3,498.29,454.19z"/>
		<path class="st21" d="M500.28,456.34c-1.33,0.06-2.37,1.18-2.32,2.51c0.96,23.92-17.73,44.17-41.65,45.13
			c-11.59,0.46-22.66-3.61-31.19-11.48c-8.52-7.87-13.47-18.58-13.94-30.18c-0.05-1.33-1.18-2.28-2.51-2.32
			c-1.33,0.06-2.37,1.18-2.32,2.51c0.52,12.88,6.02,24.79,15.49,33.53c8.98,8.29,20.52,12.79,32.68,12.79
			c0.66,0,1.32-0.01,1.98-0.04c26.59-1.07,47.35-23.56,46.29-50.15C502.74,457.32,501.62,456.45,500.28,456.34z"/>
		<path class="st14" d="M339.04,280.25l44.2,7.38c5.33,2.46,10.99,4.2,16.83,5.17c5.58,0.93,11.09,1.05,16.49,0.59
			c9.83,22.99,33.89,38.07,59.57,35.86l12.01,16.82c1.05,1.48,2.62,2.44,4.35,2.73c0.68,0.11,1.38,0.13,2.09,0.02
			c2.5-0.37,4.57-2.08,5.38-4.48l9.98-29.38c10.4-9.02,17.35-21.4,19.62-34.97c5.39-32.25-16.47-62.86-48.71-68.25
			c-1.95-0.33-3.96-0.46-5.96-0.59c-6.35-24.49-26.52-44.26-53.05-48.69c-35.94-6-70.06,18.35-76.07,54.29
			c-1.46,8.77-1.17,17.55,0.86,26.12l-14.19,22.79c-1.71,2.74-1.93,6.13-0.6,9.07C333.17,277.65,335.86,279.72,339.04,280.25z"/>
		<path class="st1" d="M480.05,216.5c29.62,4.95,49.69,33.07,44.74,62.69c-2.12,12.7-8.72,24.28-18.59,32.6
			c-0.48,0.4-0.75,0.95-0.82,1.54l-10,29.46c-0.34,0.99-1.17,1.21-1.52,1.26c-0.34,0.05-1.21,0.08-1.81-0.77l-12.27-17.19
			c-0.31-1.16-1.42-1.93-2.6-1.78c-23.66,2.65-46.06-10.69-55.62-31.51c14.62-2.39,27.92-9.63,37.83-20.29
			c0.93,4.75,4.68,8.66,9.72,9.51c6.5,1.09,12.67-3.32,13.76-9.82c1.09-6.5-3.32-12.67-9.82-13.76c-1.26-0.21-2.5-0.16-3.7,0.02
			c3.22-6.1,5.58-12.77,6.78-19.94c1.28-7.65,1.11-15.19-0.18-22.42C477.32,216.22,478.71,216.28,480.05,216.5z"/>
		<circle class="st22" cx="471.08" cy="270.22" r="7.12"/>
		<path class="st1" d="M336.54,268.2l14.73-23.65c0.35-0.56,0.45-1.23,0.29-1.87c-2.1-8.23-2.44-16.69-1.03-25.14
			c5.56-33.31,37.19-55.88,70.51-50.32c24.91,4.16,43.81,22.9,49.43,46.02c0,0.02-0.01,0.03-0.01,0.05
			c-0.01,0.38,0.09,0.73,0.24,1.06c1.67,7.47,2,15.37,0.66,23.38c-5.56,33.31-37.19,55.89-70.5,50.33
			c-5.51-0.92-10.84-2.58-15.86-4.92c-0.05-0.03-0.11-0.05-0.17-0.07c-0.15-0.06-0.32-0.11-0.48-0.13l-44.51-7.44
			c-1.61-0.27-2.92-1.28-3.59-2.77C335.57,271.24,335.68,269.59,336.54,268.2z"/>
		<circle class="st14" cx="500.41" cy="275.12" r="11.95"/>
		<circle class="st22" cx="500.41" cy="275.12" r="7.12"/>
		<circle class="st14" cx="376.5" cy="221.88" r="13.61"/>
		<circle class="st22" cx="376.5" cy="221.88" r="8.79"/>
		<path class="st14" d="M408.71,241.06c7.4,1.24,14.43-3.78,15.67-11.19c1.24-7.4-3.78-14.43-11.18-15.67
			c-7.4-1.24-14.43,3.78-15.67,11.19C396.29,232.79,401.3,239.82,408.71,241.06z"/>
		<path class="st22" d="M412.4,218.96c4.78,0.8,8.01,5.34,7.21,10.11c-0.8,4.78-5.33,8.02-10.11,7.22s-8.02-5.34-7.22-10.11
			C403.09,221.41,407.62,218.17,412.4,218.96z"/>
		<circle class="st14" cx="445.4" cy="233.38" r="13.61"/>
		<circle class="st22" cx="445.4" cy="233.38" r="8.79"/>
		
			<ellipse transform="matrix(0.76 -0.65 0.65 0.76 -153.5996 212.8265)" class="st23" cx="211.34" cy="314.36" rx="21.11" ry="11.86"/>
		
			<ellipse transform="matrix(0.5 -0.866 0.866 0.5 -100.5134 614.9577)" class="st23" cx="482.31" cy="394.53" rx="11.86" ry="21.11"/>
		<path class="st23" d="M158.63,352.82l4.79-0.04c5.66-33.98,30.72-54.77,36.31-59.01C179.6,307.36,164.53,328.15,158.63,352.82z"/>
		<path class="st23" d="M156.1,368.15c-4.25,54.46,36.6,102.22,91.06,106.46c8.88,0.69,17.54,0.07,25.9-1.49
			c-33.47-0.49-64.39-10.2-84.32-37.07c-22.64-30.51-28.33-56.91-26.05-78.44l-5.18,0.04C156.86,361.09,156.38,364.59,156.1,368.15z
			"/>
		<path class="st23" d="M464.17,363.03c-4.3-0.69-8.68-1.14-13.17-1.14c-45.09,0-81.81,36.24-82.74,81.1
			C368.26,442.99,390.44,353.08,464.17,363.03z"/>
		<path class="st21" d="M391.48,426.29l-23.06,23.4c0,0,21.57-21.49,30.56-21.49c8.99,0,101.75-1.48,113.01,3.96
			c6.13,2.96,13.78,8.93,19.96,15.11l-16.23-20.98H391.48z"/>
		<path class="st21" d="M271.38,278.18c2.67,0.6,59.88,14.38,69.56,82.75l11.75-0.07C346.32,319.26,313.83,285.34,271.38,278.18z"/>
		<path class="st21" d="M353.62,383.56c0.47-6.06,0.3-12.02-0.3-17.87l-11.79,0.07c1.72,18.43-0.72,50.96-24.72,87.21
			C337.38,436.44,351.41,411.88,353.62,383.56z"/>
	</g>
</g>
</svg>
