<?xml version="1.0" encoding="UTF-8"?><svg xmlns="http://www.w3.org/2000/svg" viewBox="0 0 238.55 238.55"><defs><style>.c{fill:#f94343;}.d{fill:#f5f3ef;}.e{fill:#f2b440;}.f{fill:#ee8240;}.g{fill:#fbf0e5;}.h,.i{fill:#541932;}.i,.j{opacity:.25;}.j{fill:#fff;}</style></defs><g id="a"/><g id="b"><g><circle class="d" cx="119.27" cy="119.27" r="119.27"/><g><g><path class="h" d="M136.39,79.5c-3.95,0-7.6-.55-10.41-1.14,2.75-.86,6.08-2.52,9.24-5.68,6.59-6.59,11.79-10.59,11.84-10.63,.55-.42,.65-1.21,.23-1.76-.42-.55-1.21-.66-1.76-.23-.22,.17-5.38,4.14-12.09,10.85-4.82,4.82-10.15,5.69-12.34,5.84-.28-1.42-1-2.72-2.09-3.7-.89-.8-1.96-1.33-3.11-1.57l5.18-10.73c.76-1.56,.64-3.44-.3-4.9l-.39-.61c-1.44-2.23-4.37-2.96-6.69-1.65l-1.08,.61c-.93,.52-2.09,.4-2.89-.3l-2.36-2.07c-1.72-1.51-4.24-1.67-6.13-.39l-3.28,2.22c-.82,.56-1.9,.58-2.75,.04l-2.94-1.85c-1.92-1.22-4.43-.98-6.1,.57l-1.59,1.48c-.77,.72-1.91,.87-2.84,.4l-2.21-1.12c-1.26-.64-2.74-.72-4.06-.22-1.32,.5-2.37,1.55-2.89,2.86-.5,1.28-.45,2.72,.13,3.96l5.64,12c-.78,.29-1.51,.72-2.13,1.28-1.41,1.27-2.22,3.08-2.22,4.98,0,1.63,.58,3.13,1.56,4.29-3.74,3.91-23.19,25.72-23.19,56.18,0,19.58,17.17,36.75,36.75,36.75h16.93c19.58,0,36.75-17.17,36.75-36.75,0-30.4-19.38-52.2-23.17-56.16,.64-.76,1.11-1.66,1.36-2.65,2.64,.81,8.52,2.33,15.38,2.33,7.95,0,10.39,7.69,10.49,8.01,.16,.54,.66,.9,1.2,.9,.12,0,.24-.02,.36-.05,.66-.2,1.04-.9,.84-1.56-.03-.1-3.05-9.8-12.89-9.8Z"/><path class="g" d="M74.93,56.71c.26-.67,.77-1.18,1.44-1.43,.67-.26,1.39-.22,2.03,.11l2.21,1.12c1.87,.95,4.16,.63,5.69-.8l1.59-1.48c.83-.77,2.09-.89,3.05-.28l2.94,1.85c1.69,1.07,3.84,1.03,5.5-.09l3.28-2.22c.94-.64,2.21-.56,3.06,.19l2.36,2.07c1.6,1.41,3.92,1.65,5.78,.6l1.08-.61c1.16-.65,2.62-.29,3.34,.83l.39,.61c.47,.73,.53,1.67,.15,2.45l-5.69,11.79-11.73,1.23c-2.5,.26-5.04,.26-7.55,0l-12.43-1.3c-.16-.02-.32-.02-.48-.02l-5.94-12.64c-.29-.62-.32-1.34-.07-1.98Z"/><path class="f" d="M77.91,74.9c.78-.7,1.76-1.08,2.79-1.08,.15,0,.3,0,.45,.02l12.43,1.3c2.68,.28,5.39,.28,8.07,0l12.43-1.3c1.19-.13,2.35,.25,3.24,1.05,.89,.81,1.39,1.91,1.39,3.12,0,1.6-.89,2.99-2.22,3.7-.82,.2-1.63,.4-2.45,.57l-12.65,1.33c-2.5,.26-5.04,.26-7.55,0l-11.86-1.24c-1.38-.25-2.48-.48-3.26-.66-1.32-.71-2.2-2.1-2.2-3.68,0-1.2,.49-2.31,1.39-3.12Z"/><path class="g" d="M106.07,172.74h-16.93c-18.24,0-34.24-16-34.24-34.24,0-29.77,19.22-51.05,22.55-54.51,.13,.03,.28,.07,.45,.11,.66,.3,1.37,.51,2.13,.59l1.33,.14c6.6,1.24,19.42,2.8,33.1-.06l.77-.08c.76-.08,1.48-.29,2.13-.6,.14-.03,.27-.07,.41-.1,3.34,3.47,22.54,24.74,22.54,54.51,0,18.24-16,34.24-34.24,34.24Z"/><path class="f" d="M108.21,126.36c-1.87-1-4.28-1.86-7.22-2.58-2.48-.6-4.43-1.11-5.85-1.53-1.42-.42-2.54-.95-3.38-1.58-.84-.64-1.25-1.46-1.25-2.46,0-1.09,.57-2,1.71-2.73,1.14-.73,2.56-1.1,4.28-1.1s2.99,.28,3.97,.84c.97,.56,1.82,1.3,2.54,2.23,.88,1.11,1.67,1.95,2.35,2.51,.68,.56,1.51,.84,2.49,.84,1.35,0,2.39-.35,3.12-1.04,.73-.7,1.1-1.59,1.1-2.68,0-1-.34-2.02-1.03-3.06-.69-1.04-1.68-2-2.99-2.85-1.31-.86-2.95-1.54-4.91-2.05-1.26-.33-2.64-.54-4.11-.66v-5.85c0-1.16-.94-2.09-2.09-2.09s-2.09,.94-2.09,2.09v5.82c-2.42,.15-4.55,.62-6.36,1.45-2.22,1.01-3.89,2.36-5.03,4.06-1.14,1.7-1.71,3.49-1.71,5.4,0,2.14,.61,3.93,1.85,5.4,1.23,1.46,2.87,2.64,4.93,3.53,2.05,.89,4.72,1.75,7.99,2.56,2.9,.7,4.98,1.43,6.25,2.19,1.26,.77,1.9,1.98,1.9,3.66,0,1.09-.61,2.06-1.83,2.91-1.22,.85-2.78,1.27-4.68,1.27-2.34,0-4.2-.42-5.55-1.25-1.36-.84-2.52-2.1-3.5-3.79-.49-.88-1-1.57-1.53-2.05-.53-.49-1.3-.73-2.3-.73-1.14,0-2.08,.37-2.82,1.11s-1.11,1.64-1.11,2.68c0,1.58,.58,3.15,1.74,4.72,1.16,1.57,2.96,2.87,5.4,3.92,1.85,.79,3.97,1.28,6.37,1.47v5.47c0,1.16,.94,2.09,2.09,2.09s2.09-.94,2.09-2.09v-5.42c2.81-.14,5.25-.6,7.32-1.4,2.5-.96,4.38-2.38,5.66-4.25,1.28-1.87,1.92-4.11,1.92-6.74,0-1.74-.48-3.29-1.45-4.65-.96-1.36-2.38-2.54-4.25-3.53Z"/></g><path class="i" d="M118.82,59.64c.38-.78,.32-1.72-.15-2.45l-.39-.61c-.72-1.12-2.18-1.48-3.34-.83l-1.08,.61c-1.86,1.05-4.18,.81-5.78-.6l-2.36-2.07c-.86-.75-2.12-.83-3.06-.19l-3.28,2.22c-1.65,1.12-3.81,1.16-5.5,.09l-2.94-1.85c-.96-.61-2.22-.49-3.05,.28l-1.59,1.48c-1.54,1.43-3.82,1.75-5.69,.8l-1.71-.87c.73,1.11,1.86,2.02,3.63,2.33,6.04,1.06,5.36-3.74,12.24,1.41,6.88,5.14,13.47-.93,15.95,3.1,2.48,4.03-9.33,10.18-9.33,10.18l11.73-1.23,5.69-11.79Z"/><path class="i" d="M116.49,81.72c1.33-.71,2.22-2.1,2.22-3.7,0-1.2-.49-2.31-1.39-3.12-.9-.81-2.05-1.18-3.24-1.05l-12.43,1.3c4.03,1.45,14.2,.56,10.11,7.37l2.28-.24c.81-.17,1.63-.36,2.45-.57Z"/><path class="i" d="M106.07,172.74c18.24,0,34.24-16,34.24-34.24,0-29.76-19.21-51.03-22.54-54.51-.14,.04-.27,.07-.41,.1-.66,.31-1.37,.52-2.13,.6l-.77,.08c-.76,.16-1.51,.3-2.26,.43,5.87,10.99,21.76,30.21,17.55,50.93-4.13,20.3-19.46,34.34-44.51,36.35,1.29,.16,2.6,.26,3.92,.26h16.93Z"/><path class="h" d="M145.9,123.14c-11.83,0-21.1,4.72-21.1,10.76v38.41c0,6.03,9.27,10.76,21.1,10.76s21.1-4.72,21.1-10.76v-38.41c0-6.03-9.27-10.76-21.1-10.76Z"/><path class="e" d="M145.9,125.65c11.12,0,18.59,4.26,18.59,8.24,0,1.89-1.6,3.76-4.51,5.29h0c-3.58,1.88-8.71,2.95-14.07,2.95s-10.49-1.08-14.07-2.95h0c-2.91-1.53-4.51-3.41-4.51-5.29,0-3.98,7.47-8.24,18.59-8.24Z"/><path class="e" d="M159.97,164.79h0c-3.58,1.88-8.71,2.95-14.07,2.95s-10.49-1.08-14.07-2.95h0c-2.91-1.53-4.51-3.41-4.51-5.29v-7.63c.89,.85,2.01,1.64,3.34,2.34h0c3.98,2.09,9.4,3.24,15.24,3.24s11.25-1.15,15.24-3.24h0c1.33-.7,2.45-1.49,3.34-2.34v7.63c0,1.89-1.6,3.76-4.51,5.29Z"/><path class="e" d="M159.97,151.99h0c-3.58,1.88-8.71,2.95-14.07,2.95s-10.49-1.08-14.07-2.95h0c-2.91-1.53-4.51-3.41-4.51-5.29v-7.63c.89,.85,2.01,1.64,3.34,2.34h0c3.98,2.09,9.4,3.24,15.24,3.24s11.25-1.15,15.24-3.24h0c1.33-.7,2.45-1.49,3.34-2.34v7.63c0,1.89-1.6,3.76-4.51,5.29Z"/><path class="e" d="M145.9,180.55c-11.12,0-18.59-4.26-18.59-8.24v-7.63c.89,.85,2.01,1.64,3.34,2.34h0c3.98,2.09,9.4,3.24,15.24,3.24s11.25-1.15,15.24-3.24h0c1.33-.7,2.45-1.49,3.34-2.34v7.63c0,3.98-7.47,8.24-18.59,8.24Z"/><path class="j" d="M80.04,73.89c-.78,.13-1.51,.47-2.12,1.02-.89,.81-1.39,1.91-1.39,3.12,0,1.59,.88,2.97,2.2,3.68,.78,.18,1.88,.41,3.26,.66l11.86,1.24c2.5,.26,5.04,.26,7.55,0l1.33-.14c.52-3.21-12.3-7.28-22.69-9.58Z"/><path class="j" d="M101.88,65.45c-5.57,1.4-10.09-5.22-14.98-3.23-4.9,1.99-9.84-1.61-10.52-6.95-.67,.26-1.18,.76-1.44,1.43-.25,.64-.23,1.36,.07,1.98l5.94,12.64c.16,0,.32,0,.48,.02l9.72,1.02c7.93-1.03,15.61-8.14,10.75-6.92Z"/><path class="j" d="M102.74,86.26h0c-8.97,.47-16.73-.56-21.39-1.44l-1.33-.14c-.76-.08-1.47-.29-2.13-.59-.16-.04-.32-.08-.45-.11-3.33,3.46-22.55,24.74-22.55,54.51,0,11.12,5.95,21.4,14.73,27.74-31.74-41.28,12.45-75.14,33.11-79.97Z"/><path class="j" d="M150.9,137.13c-5.37,0-10.49-1.08-14.07-2.95h0c-2.91-1.53-4.51-3.41-4.51-5.29,0-.19,.03-.39,.07-.58-3.22,1.56-5.07,3.61-5.07,5.59s1.6,3.76,4.51,5.29h0c3.58,1.88,8.71,2.95,14.07,2.95s10.49-1.08,14.07-2.95h0c2.63-1.38,4.18-3.05,4.45-4.75-3.55,1.71-8.42,2.69-13.52,2.69Z"/><path class="j" d="M161.89,162.88h0c-3.58,1.88-8.71,2.95-14.07,2.95s-10.49-1.08-14.07-2.95h0c-2.91-1.53-4.51-3.41-4.51-5.29v-4.22c-.72-.47-1.36-.97-1.92-1.49v7.63c0,1.89,1.6,3.76,4.51,5.29h0c3.58,1.88,8.71,2.95,14.07,2.95s10.49-1.08,14.07-2.95h0c1.75-.92,3.01-1.96,3.75-3.06-.54,.4-1.15,.78-1.83,1.14Z"/><path class="j" d="M161.89,150.07h0c-3.58,1.88-8.71,2.95-14.07,2.95s-10.49-1.08-14.07-2.95h0c-2.91-1.53-4.51-3.41-4.51-5.29v-4.22c-.72-.47-1.36-.97-1.92-1.49v7.63c0,1.89,1.6,3.76,4.51,5.29h0c3.58,1.88,8.71,2.95,14.07,2.95s10.49-1.08,14.07-2.95h0c1.75-.92,3.01-1.96,3.75-3.06-.54,.4-1.15,.78-1.83,1.14Z"/><path class="j" d="M147.81,178.64c-11.12,0-18.59-4.26-18.59-8.24v-4.22c-.72-.47-1.36-.97-1.92-1.49v7.63c0,3.98,7.47,8.24,18.59,8.24,9.05,0,15.67-2.82,17.83-6.02-3.11,2.33-8.75,4.1-15.92,4.1Z"/><path class="i" d="M145.9,125.65c-2.43,0-4.66,.21-6.7,.57,.76,.85,1.84,1.65,3.22,2.38h0c3.58,1.88,8.71,2.95,14.07,2.95,2.31,0,4.57-.21,6.69-.59-2.6-2.89-8.9-5.31-17.27-5.31Z"/><path class="i" d="M161.14,141.41h0c-3.98,2.09-9.4,3.24-15.24,3.24-4.85,0-9.39-.8-13.08-2.27h-.02s13,8.88,31.68,1.89v-5.2c-.89,.85-2.01,1.64-3.34,2.34Z"/><path class="i" d="M161.14,154.21h0c-3.98,2.09-9.4,3.24-15.24,3.24-4.52,0-8.77-.69-12.31-1.97h-.01s12.3,7.71,30.91-.45v-3.15c-.89,.85-2.01,1.64-3.34,2.34Z"/><path class="i" d="M161.14,167.02h0c-3.98,2.09-9.4,3.24-15.24,3.24-4.52,0-8.77-.69-12.31-1.97h-.01s12.15,9.03,30.91,.96v-4.57c-.89,.85-2.01,1.64-3.34,2.34Z"/><g><path class="h" d="M167,87.98c-12.66,0-22.95,10.3-22.95,22.95s10.3,22.95,22.95,22.95,22.95-10.3,22.95-22.95-10.3-22.95-22.95-22.95Z"/><path class="g" d="M167,131.43c-11.3,0-20.49-9.19-20.49-20.49s9.19-20.49,20.49-20.49,20.49,9.19,20.49,20.49-9.19,20.49-20.49,20.49Z"/><g><path class="h" d="M178.52,108.02c.52,0,.95,.43,.95,.95v3.93c0,.52-.43,.95-.95,.95h-23.05c-.52,0-.95-.43-.95-.95v-3.93c0-.52,.43-.95,.95-.95h23.05m0-1.88h-23.05c-1.56,0-2.83,1.27-2.83,2.83v3.93c0,1.56,1.27,2.83,2.83,2.83h23.05c1.56,0,2.83-1.27,2.83-2.83v-3.93c0-1.56-1.27-2.83-2.83-2.83h0Z"/><rect class="c" x="154.52" y="108.02" width="24.95" height="5.83" rx=".95" ry=".95"/></g><path class="i" d="M153.46,95.59c-4.25,3.76-6.96,9.24-6.96,15.35,0,11.3,9.19,20.49,20.49,20.49,1.7,0,3.34-.23,4.91-.62-17.52-7.37-18.9-26.09-18.45-35.22Z"/></g></g></g></g></svg>