<?xml version="1.0" encoding="UTF-8"?><svg xmlns="http://www.w3.org/2000/svg" viewBox="0 0 238.55 238.55"><defs><style>.c{fill:#f5f3ef;}.d{fill:#f2b440;}.e{fill:#ee8240;}.f,.g{fill:#541932;}.g,.h{opacity:.25;}.h{fill:#fff;}</style></defs><g id="a"/><g id="b"><g><circle class="c" cx="119.27" cy="119.27" r="119.27"/><g><circle class="f" cx="152.33" cy="119.27" r="39.85"/><g><path class="d" d="M152.33,82.42c-20.32,0-36.85,16.53-36.85,36.85s16.53,36.85,36.85,36.85V82.42Z"/><path class="e" d="M189.19,119.27c0-20.32-16.53-36.85-36.85-36.85v73.71c20.32,0,36.85-16.53,36.85-36.85Z"/></g><g><path class="f" d="M152.33,98.68c-.83,0-1.5,.67-1.5,1.5v20.78l-19.05-8.37c-.76-.34-1.64,.01-1.98,.77-.33,.76,.01,1.64,.77,1.98l21.15,9.29c.19,.08,.4,.13,.6,.13,.29,0,.57-.08,.82-.24,.42-.28,.68-.75,.68-1.26v-23.07c0-.83-.67-1.5-1.5-1.5Z"/><path class="g" d="M153.19,99.54c-.83,0-1.5,.67-1.5,1.5v20.78l-19.05-8.37c-.76-.34-1.64,.01-1.98,.77-.33,.76,.01,1.64,.77,1.98l21.15,9.29c.19,.08,.4,.13,.6,.13,.29,0,.57-.08,.82-.24,.42-.28,.68-.75,.68-1.26v-23.07c0-.83-.67-1.5-1.5-1.5Z"/></g><path class="f" d="M59.13,106.56h37.29c.83,0,1.5-.67,1.5-1.5s-.67-1.5-1.5-1.5H59.13c-.83,0-1.5,.67-1.5,1.5s.67,1.5,1.5,1.5Z"/><path class="f" d="M93.28,121.44c0-.83-.67-1.5-1.5-1.5H47.86c-.83,0-1.5,.67-1.5,1.5s.67,1.5,1.5,1.5h43.92c.83,0,1.5-.67,1.5-1.5Z"/><path class="f" d="M98.64,136.9H59.13c-.83,0-1.5,.67-1.5,1.5s.67,1.5,1.5,1.5h39.5c.83,0,1.5-.67,1.5-1.5s-.67-1.5-1.5-1.5Z"/><path class="h" d="M152.33,83.69v-1.27c-20.32,0-36.85,16.53-36.85,36.85,0,10.48,4.4,19.94,11.44,26.65-6.31-6.62-10.2-15.57-10.2-25.42,0-19.91,15.87-36.17,35.62-36.82Z"/><g><g><path class="f" d="M150.83,80.92v5.14c0,.83,.67,1.5,1.5,1.5s1.5-.67,1.5-1.5v-5.14c0-.83-.67-1.5-1.5-1.5s-1.5,.67-1.5,1.5Z"/><path class="f" d="M150.83,152.48v4.52c0,.83,.67,1.5,1.5,1.5s1.5-.67,1.5-1.5v-4.52c0-.83-.67-1.5-1.5-1.5s-1.5,.67-1.5,1.5Z"/></g><g><path class="f" d="M190.69,117.77h-5.14c-.83,0-1.5,.67-1.5,1.5s.67,1.5,1.5,1.5h5.14c.83,0,1.5-.67,1.5-1.5s-.67-1.5-1.5-1.5Z"/><path class="f" d="M119.12,117.77h-4.49c-.83,0-1.5,.67-1.5,1.5s.67,1.5,1.5,1.5h4.49c.83,0,1.5-.67,1.5-1.5s-.67-1.5-1.5-1.5Z"/></g></g></g></g></g></svg>