<?xml version="1.0" encoding="UTF-8"?><svg xmlns="http://www.w3.org/2000/svg" viewBox="0 0 238.55 238.55"><defs><style>.c{fill:#f5f3ef;}.d,.e{fill:#fff;}.f{fill:#f2b440;}.g{fill:#ee8240;}.h{fill:#666;}.i,.j{fill:#541932;}.k,.j,.e{opacity:.25;}</style></defs><g id="a"/><g id="b"><g><circle class="c" cx="119.27" cy="119.27" r="119.27"/><g><path class="i" d="M119.08,47.32c-39.96,0-72.47,32.51-72.47,72.47s32.51,72.47,72.47,72.47c.83,0,1.5-.67,1.5-1.5v-26.16c0-.49-.24-.95-.64-1.23s-.92-.35-1.37-.18c-1.58,.58-3.2,.87-4.82,.87-7.77,0-14.1-6.32-14.1-14.1s6.32-14.1,14.1-14.1c1.62,0,3.25,.29,4.82,.87,.46,.17,.97,.1,1.37-.18,.4-.28,.64-.74,.64-1.23v-14.03h12.58c-.37,1.42-.56,2.87-.56,4.34,0,9.43,7.67,17.1,17.1,17.1s17.1-7.67,17.1-17.1c0-1.47-.19-2.93-.56-4.34h23.82c.83,0,1.5-.67,1.5-1.5,0-39.96-32.51-72.47-72.47-72.47Z"/><path class="f" d="M117.58,50.36v24.07c0,.49,.24,.94,.63,1.22,.4,.28,.9,.35,1.36,.19,1.52-.53,3.08-.8,4.63-.8,7.77,0,14.1,6.32,14.1,14.1s-6.32,14.1-14.1,14.1c-1.56,0-3.11-.27-4.63-.8-.46-.16-.97-.09-1.36,.19-.4,.28-.63,.74-.63,1.22v14.43h-12.23c.31-1.29,.46-2.59,.46-3.91,0-9.43-7.67-17.1-17.1-17.1s-17.1,7.67-17.1,17.1c0,1.31,.15,2.62,.46,3.91h-22.44c.79-37.11,30.82-67.14,67.93-67.93Z"/><path class="h" d="M113.74,132.87c-9.43,0-17.1,7.67-17.1,17.1s7.67,17.1,17.1,17.1c1.29,0,2.57-.15,3.84-.45v22.63c-37.12-.79-67.14-30.84-67.93-67.96h24.46c.49,0,.95-.24,1.23-.64,.28-.4,.35-.92,.18-1.38-.59-1.59-.89-3.24-.89-4.89,0-7.77,6.32-14.1,14.1-14.1s14.1,6.32,14.1,14.1c0,1.65-.3,3.29-.89,4.89-.17,.46-.1,.97,.18,1.38,.28,.4,.74,.64,1.23,.64h14.25v12.02c-1.27-.3-2.55-.45-3.84-.45Z"/><path class="g" d="M164.14,118.29c-.5,0-.96,.25-1.24,.66-.28,.41-.33,.94-.15,1.4,.69,1.69,1.03,3.47,1.03,5.28,0,7.77-6.32,14.1-14.1,14.1s-14.1-6.32-14.1-14.1c0-1.81,.35-3.59,1.03-5.28,.19-.46,.13-.99-.15-1.4-.28-.41-.74-.66-1.24-.66h-14.66v-12.45c1.2,.26,2.41,.4,3.62,.4,9.43,0,17.1-7.67,17.1-17.1s-7.67-17.1-17.1-17.1c-1.21,0-2.43,.13-3.62,.4v-22.09c37.12,.79,67.17,30.82,67.96,67.93h-24.39Z"/><circle class="i" cx="130.16" cy="188.83" r="3.73"/><circle class="i" cx="140.66" cy="186.16" r="3.73"/><circle class="i" cx="150.98" cy="182.43" r="3.73"/><circle class="i" cx="160.43" cy="176.6" r="3.73"/><circle class="i" cx="168.74" cy="169.14" r="3.73"/><circle class="i" cx="175.53" cy="160.77" r="3.73"/><circle class="i" cx="181.5" cy="151.63" r="3.73"/><circle class="i" cx="186.32" cy="141.38" r="3.73"/><circle class="i" cx="188.21" cy="131.13" r="3.73"/></g><path class="j" d="M88.39,95.04c-19.69,0-20.15,19.48-20.15,19.48h-18.41c-.09,1.25-.16,2.5-.19,3.77h22.44c-.31-1.29-.46-2.59-.46-3.91,0-9.43,7.67-17.1,17.1-17.1s17.1,7.67,17.1,17.1c0,1.31-.15,2.62-.46,3.91h12.23v-4h-8.36c0-2.35-1.14-19.25-20.83-19.25Z"/><path class="e" d="M138.3,89.14c0-7.77-6.32-14.1-14.1-14.1-1.56,0-3.11,.27-4.63,.8-.46,.16-.97,.09-1.36-.19-.4-.28-.63-.74-.63-1.22v-24.07c-1.74,.04-3.46,.16-5.17,.32v31.45s7.26-6.65,16.62,.18c9.36,6.82,2.03,19.31-7.57,20.63,.91,.18,1.83,.29,2.74,.29,7.77,0,14.1-6.32,14.1-14.1Z"/><g class="k"><path class="d" d="M111.73,133c-.67-.08-1.35-.13-2.03-.13-9.43,0-17.1,7.67-17.1,17.1s7.67,17.1,17.1,17.1c.68,0,1.35-.05,2.03-.13-8.48-1-15.08-8.22-15.08-16.97s6.6-15.97,15.08-16.97Z"/><path class="d" d="M98.77,114.39c0,1.65-.3,3.29-.89,4.89-.17,.46-.1,.97,.18,1.38,.28,.4,.74,.64,1.23,.64h4.04c-.49,0-.95-.24-1.23-.64-.28-.4-.35-.92-.18-1.38,.59-1.59,.89-3.24,.89-4.89,0-7.77-6.32-14.1-14.1-14.1-.69,0-1.36,.07-2.02,.16,6.82,.98,12.08,6.85,12.08,13.93Z"/><path class="d" d="M113.54,167.05v21.98c1.34,.11,2.68,.19,4.04,.21v-22.63c-1.27,.3-2.55,.45-3.84,.45-.07,0-.13,0-.2-.01Z"/><path class="d" d="M113.54,121.29v11.59c.07,0,.13-.01,.2-.01,1.29,0,2.57,.15,3.84,.45v-12.02h-4.04Z"/></g><path class="j" d="M53.68,130.16c-.58-7.42,10.3-8.69,15.67-8.87h-19.71c.7,32.72,24.12,59.93,55.08,66.47-35.72-10.6-50.27-47.78-51.04-57.6Z"/><path class="j" d="M123.69,68.39v-17.89c-1.03-.07-2.07-.12-3.11-.14v22.09c1.2-.26,2.41-.4,3.62-.4,4.9,0,9.31,2.08,12.42,5.39-2.68-3.63-12.93-9.04-12.93-9.04Z"/><path class="j" d="M123.98,112.59c-.56-3.64,3.41-6.66,3.41-6.66h0c-1.03,.19-2.1,.3-3.18,.3-1.21,0-2.43-.13-3.62-.4v12.45h5.8c-1.83-1.38-2.06-3.52-2.4-5.7Z"/><path class="e" d="M164.14,118.29h24.39c-.41-19.1-8.57-36.3-21.44-48.63,11.63,12.14,18.91,28.47,19.29,46.48h-24.39c-.5,0-.96,.25-1.24,.66-.28,.41-.33,.94-.15,1.4,.69,1.69,1.03,3.47,1.03,5.28,0,7.77-6.32,14.1-14.1,14.1-3.34,0-6.41-1.17-8.83-3.12,2.59,3.21,6.54,5.27,10.97,5.27,7.77,0,14.1-6.32,14.1-14.1,0-1.81-.35-3.59-1.03-5.28-.19-.46-.13-.99,.15-1.4,.28-.41,.74-.66,1.24-.66Z"/></g></g></svg>