<?xml version="1.0" encoding="UTF-8"?><svg xmlns="http://www.w3.org/2000/svg" viewBox="0 0 238.55 238.55"><defs><style>.c{fill:#f5f3ef;}.d,.e{fill:#fff;}.f{fill:#f2b440;}.g{fill:#ee8240;}.h,.i{fill:#541932;}.j,.i,.e{opacity:.25;}</style></defs><g id="a"/><g id="b"><g><circle class="c" cx="119.27" cy="119.27" r="119.27"/><g><path class="h" d="M175.66,85.82h-17.02v-4.26h4.99c.83,0,1.5-.67,1.5-1.5v-17.5c0-.83-.67-1.5-1.5-1.5H74.92c-.83,0-1.5,.67-1.5,1.5v17.5c0,.83,.67,1.5,1.5,1.5h4.99v4.26h-17.02c-.83,0-1.5,.67-1.5,1.5v20.54c0,8.28,6.73,15.01,15.01,15.01h3.65c1.42,14.74,13.87,26.31,28.98,26.31h.91v12.65h-20.78c-.83,0-1.5,.67-1.5,1.5v12.66c0,.83,.67,1.5,1.5,1.5h60.21c.83,0,1.5-.67,1.5-1.5v-12.66c0-.83-.67-1.5-1.5-1.5h-21.38v-12.65h1.52c15.11,0,27.56-11.57,28.98-26.31h3.65c8.27,0,15.01-6.73,15.01-15.01v-20.54c0-.83-.67-1.5-1.5-1.5Z"/><polygon class="f" points="76.42 64.06 162.13 64.06 162.13 78.56 157.14 78.56 81.41 78.56 76.42 78.56 76.42 64.06"/><path class="g" d="M64.39,107.86v-19.04h15.52v31.05h-3.51c-6.62,0-12.01-5.39-12.01-12.01Z"/><polygon class="f" points="147.88 174.49 90.67 174.49 90.67 164.83 111.44 164.83 126.5 164.83 147.88 164.83 147.88 174.49"/><rect class="f" x="112.94" y="149.18" width="12.05" height="12.65"/><path class="f" d="M129.52,146.18h-20.49c-14.4,0-26.12-11.72-26.12-26.12v-38.5h72.73v38.5c0,14.4-11.72,26.12-26.12,26.12Z"/><path class="g" d="M174.16,107.86c0,6.62-5.39,12.01-12.01,12.01h-3.51v-31.05h15.52v19.04Z"/><path class="h" d="M134.64,103.06h-10.64l-3.29-10.13c-.2-.62-.78-1.04-1.43-1.04s-1.23,.42-1.43,1.04l-3.29,10.13h-10.65c-.65,0-1.23,.42-1.43,1.04-.2,.62,.02,1.3,.54,1.68l8.61,6.26-3.29,10.12c-.2,.62,.02,1.29,.54,1.68,.26,.19,.57,.29,.88,.29s.62-.1,.88-.29l8.61-6.26,8.61,6.26c.53,.38,1.24,.38,1.76,0,.53-.38,.75-1.06,.54-1.68l-3.29-10.12,8.61-6.26c.53-.38,.75-1.06,.54-1.68-.2-.62-.78-1.04-1.43-1.04Z"/><path class="g" d="M124.26,110.25c-.53,.38-.75,1.06-.54,1.68l2.2,6.77-5.76-4.18c-.26-.19-.57-.29-.88-.29s-.62,.1-.88,.29l-5.76,4.18,2.2-6.77c.2-.62-.02-1.3-.54-1.68l-5.76-4.18h7.12c.65,0,1.23-.42,1.43-1.04l2.2-6.77,2.2,6.77c.2,.62,.78,1.04,1.43,1.04h7.12l-5.76,4.18Z"/><polygon class="e" points="76.42 64.06 76.42 66.42 158.64 67.35 162.13 78.56 162.13 64.06 76.42 64.06"/><polygon class="e" points="64.39 88.82 64.39 91.82 76.91 91.82 76.91 119.87 79.91 119.87 79.91 88.82 64.39 88.82"/><path class="e" d="M82.91,81.56v3l67.76,2.38v5.76l1.96,30.36c0,6.44-2.35,12.34-6.22,16.9,5.64-4.79,9.22-11.93,9.22-19.9v-38.5H82.91Z"/><path class="e" d="M158.64,88.82v3h12.52v19.04c0,2.55-.8,4.9-2.16,6.85,3.11-2.17,5.16-5.77,5.16-9.85v-19.04h-15.52Z"/><polygon class="i" points="112.94 149.18 112.94 152.84 121.34 152.84 121.34 161.83 125 161.83 125 149.18 112.94 149.18"/><polygon class="e" points="126.5 164.83 111.44 164.83 90.67 164.83 90.67 166.91 109.36 166.91 124.42 166.91 145.8 166.91 145.8 174.49 147.88 174.49 147.88 164.83 126.5 164.83"/><polygon class="i" points="90.67 174.49 134.81 174.49 90.67 169.66 90.67 174.49"/><path class="i" d="M82.91,105.43v14.63c0,14.4,11.72,26.12,26.12,26.12h15.97c-35.21-2.33-42.09-40.75-42.09-40.75Z"/><path class="i" d="M64.39,98.26v9.61c0,5.43,3.62,10.02,8.58,11.5-6.73-5.19-8.58-21.11-8.58-21.11Z"/><path class="i" d="M158.64,119.87h3.51c.41,0,.82-.02,1.22-.06l-4.73-24.88v24.94Z"/><g class="j"><path class="d" d="M119.11,107.31c.2,.62,.78,1.04,1.43,1.04h6.34l3.14-2.28h-7.12c-.65,0-1.23-.42-1.43-1.04l-2.2-6.77-1.55,4.78,1.39,4.27Z"/><path class="d" d="M123.68,111.23l-1.78,1.3c-.53,.38-.75,1.06-.54,1.68l.5,1.53,4.07,2.96-2.2-6.77c-.07-.23-.07-.46-.04-.69Z"/></g><path class="i" d="M111.87,106.06h-3.34l5.76,4.18c.53,.38,.75,1.06,.54,1.68l-2.2,6.77,.87-.64,3.39-7.3-5.03-4.7Z"/></g></g></g></svg>