<?xml version="1.0" encoding="utf-8"?>
<!-- Generator: Adobe Illustrator 26.1.0, SVG Export Plug-In . SVG Version: 6.00 Build 0)  -->
<svg version="1.1" id="Layer_1" xmlns="http://www.w3.org/2000/svg" xmlns:xlink="http://www.w3.org/1999/xlink" x="0px" y="0px"
	 viewBox="0 0 1135.95 1143.36" style="enable-background:new 0 0 1135.95 1143.36;" xml:space="preserve">
<style type="text/css">
	.st0{opacity:0.61;}
	.st1{fill:#FBF0E5;}
	.st2{opacity:0.61;fill:#FBF0E5;}
	.st3{fill:#EE8240;}
	.st4{fill:#DBA675;}
	.st5{opacity:0.22;fill:#9A521C;}
	.st6{fill:#F2CCA9;}
	.st7{opacity:0.39;fill:#9A521C;}
	.st8{fill:#DFB68E;}
	.st9{fill:#8A8D91;}
	.st10{opacity:0.09;}
	.st11{fill:#E0AE80;}
	.st12{opacity:0.25;fill:#9A521C;}
	.st13{opacity:0.28;fill:#919FB2;}
	.st14{fill:#541932;}
	.st15{opacity:0.34;fill:#933616;}
	.st16{fill:#F5F6F8;}
	.st17{fill:#8B6578;}
	.st18{fill:#E6CBAE;}
	.st19{fill:#E87B59;}
	.st20{fill:#ECC0B3;}
	.st21{opacity:0.25;fill:#541932;}
	.st22{fill:#FFFFFF;}
	.st23{opacity:0.25;fill:#FFFFFF;}
	.st24{fill:url(#SVGID_1_);}
	.st25{fill:#7AEB90;}
	.st26{fill:#BAFB89;}
	.st27{fill:#F6F5FF;}
	.st28{fill:#549F56;}
	.st29{opacity:0.5;fill:#FFFFFF;}
	.st30{opacity:0.5;fill:#A1F6FD;}
	.st31{fill:#F7CDC6;}
	.st32{fill:#F8D34E;}
	.st33{fill:#5BC3EA;}
	.st34{fill:none;stroke:#541932;stroke-width:7;stroke-linecap:round;stroke-miterlimit:10;}
	.st35{opacity:0.2;fill:#541932;}
	.st36{fill:#D76730;}
	.st37{fill:url(#SVGID_00000179647329896676979010000000711931015313127815_);}
	.st38{fill:url(#SVGID_00000147181186030399129230000017838889318108621207_);}
	.st39{fill:url(#SVGID_00000067216131055291389190000017601119296659001477_);}
	.st40{fill:url(#SVGID_00000107581915072090299070000006191779412383448218_);}
	.st41{fill:url(#SVGID_00000163770227257442871620000005498169675821545623_);}
	.st42{fill:url(#SVGID_00000038408673890210447870000002229409121975265664_);}
	.st43{fill:url(#SVGID_00000015314413385651060700000014017240520449869984_);}
	.st44{fill:url(#SVGID_00000059294730570087599570000009510480847297920384_);}
	.st45{fill:url(#SVGID_00000174592696027521163340000007527542124717113764_);}
	.st46{fill:url(#SVGID_00000082359246307832453380000012970940742551862974_);}
	.st47{fill:url(#SVGID_00000127023263637227784050000014016383177730017425_);}
	.st48{fill:url(#SVGID_00000172442155755116145320000014889940874664166319_);}
	.st49{fill:url(#SVGID_00000022536368012713635760000012989092750304896681_);}
	.st50{fill:url(#SVGID_00000168802510064652167920000015245917177453716865_);}
	.st51{fill:url(#SVGID_00000104698404250557273050000014024984792010070688_);}
	.st52{fill:url(#SVGID_00000143577682008288001960000004147299417272702387_);}
	.st53{fill:url(#SVGID_00000105397988326416387930000005245591710283607434_);}
	.st54{fill:url(#SVGID_00000080893606445683125090000003293724287174753699_);}
	.st55{fill:url(#SVGID_00000035490025219821649840000001178754704512636546_);}
	.st56{opacity:0.1;fill:#541932;}
	.st57{opacity:0.25;fill:#549F56;}
	.st58{fill:url(#SVGID_00000099633267839946803500000003016607185310328223_);}
	.st59{fill:#666666;}
	.st60{opacity:0.25;}
	.st61{fill:url(#SVGID_00000104686210722155551520000013585280203191338909_);}
	.st62{fill:#212121;}
	.st63{fill:#DF6B33;}
	.st64{fill:#E06B33;}
	.st65{fill:#BCC0C4;}
	.st66{fill:#E4E4E4;}
	.st67{clip-path:url(#SVGID_00000161593028500614924400000014782761118571963539_);}
	.st68{fill-rule:evenodd;clip-rule:evenodd;fill:#FFFFFF;}
	.st69{fill-rule:evenodd;clip-rule:evenodd;}
	.st70{fill-rule:evenodd;clip-rule:evenodd;fill:url(#SVGID_00000017481287391598694090000003316284897580060810_);}
	.st71{fill-rule:evenodd;clip-rule:evenodd;fill:url(#SVGID_00000115515858457378896400000012388490156096205704_);}
	.st72{fill:#3F5963;}
	.st73{opacity:0.3;}
	.st74{fill:#1E2E34;}
	.st75{fill:url(#SVGID_00000006698400006903538290000013654358049610788781_);}
	.st76{fill:url(#SVGID_00000044874605481355397920000008994698789481193143_);}
	.st77{fill:url(#SVGID_00000013195046079948927750000012997570334443946375_);}
	.st78{fill:url(#SVGID_00000141421333647652053710000002361697955335268797_);}
	.st79{fill:url(#SVGID_00000173873908310765088210000006628191431186095509_);}
	.st80{fill:#C0CFF6;}
	.st81{fill:url(#SVGID_00000017504277480896930230000017633828607449181578_);}
	.st82{fill:url(#SVGID_00000072974110489607530760000000736557486691623342_);}
	.st83{fill:url(#SVGID_00000056386606913495685320000012683609344952185219_);}
	.st84{fill:url(#SVGID_00000067917460900475079030000001308568029891373497_);}
	.st85{fill:url(#SVGID_00000089542550979684873580000001017101210653711753_);}
	.st86{fill:url(#SVGID_00000002385724658496558800000015564574326933067677_);}
	.st87{fill:url(#SVGID_00000093885701980130960570000008401650753873398401_);}
	.st88{fill:#31A24C;}
	.st89{fill:#141414;}
	.st90{fill:#EDC2A1;}
	.st91{opacity:0.2;fill:#EDC2A1;}
	.st92{fill:#EA9A57;}
	.st93{fill:#E49C69;}
	.st94{fill:#E7AA7D;}
	.st95{fill:none;stroke:#541932;stroke-width:7;stroke-linecap:round;stroke-linejoin:round;stroke-miterlimit:10;}
	.st96{fill:none;stroke:#FFFFFF;stroke-width:7;stroke-linecap:round;stroke-linejoin:round;stroke-miterlimit:10;}
</style>
<g>
	<path class="st1" d="M39.72,758.81c0,0,137.71,250.58,394.03,355.07s339.87-94.32,447.05-199.14s214.3-129.69,246.19-306.54
		s-22.48-282.89-144.77-373.91S729.76,81.52,600.82,34.54s-235.73-58.27-304.87,45.3s-53.76,161.45-122.15,203.5
		S-67.49,545.53,39.72,758.81z"/>
	<path class="st14" d="M1094.44,1040.63l-79.37-17.8V116.46c0-0.74-0.33-1.45-0.9-1.94L883.96,3.95c-0.05-0.04-0.11-0.04-0.16-0.08
		c-0.26-0.19-0.56-0.33-0.88-0.41c-0.12-0.03-0.22-0.06-0.34-0.07c-0.09-0.01-0.17-0.05-0.26-0.05c-0.3,0-0.57,0.08-0.84,0.17
		c-0.03,0.01-0.06,0-0.09,0.01l-0.04,0.02c-0.01,0-0.02,0.01-0.03,0.01L542.43,136.83c-0.97,0.38-1.61,1.32-1.61,2.36V353.7
		L414.79,246.67c-0.05-0.04-0.11-0.04-0.16-0.08c-0.26-0.2-0.56-0.33-0.89-0.41c-0.11-0.03-0.21-0.05-0.33-0.07
		c-0.09-0.01-0.17-0.05-0.26-0.05c-0.3,0-0.57,0.08-0.84,0.17c-0.03,0.01-0.06,0-0.09,0.01l-0.04,0.02c-0.01,0-0.02,0.01-0.03,0.01
		L73.26,379.56c-0.97,0.38-1.61,1.32-1.61,2.36v427.97c0,0.59,0.23,1.1,0.56,1.53L3.1,795.92c-1.38-0.28-2.72,0.56-3.04,1.93
		c-0.3,1.37,0.56,2.73,1.93,3.04l184.21,41.31c0.32,0.28,0.68,0.51,1.12,0.61l105.01,23.33c0.18,0.04,0.37,0.06,0.55,0.06
		c0.07,0,0.14-0.03,0.21-0.04l363.39,81.48c0,0,0,0,0.01,0l0.51,0.11l436.33,97.84c0.19,0.04,0.37,0.06,0.56,0.06
		c1.16,0,2.21-0.8,2.48-1.99C1096.67,1042.3,1095.81,1040.94,1094.44,1040.63z"/>
	<path class="st3" d="M545.9,140.93L879.77,9.61V992.5l-115.19-25.83V831.58c0-26-17.72-48.1-43.1-53.74l-0.56,2.48l0.55-2.48
		c-16.38-3.64-33.29,0.29-46.38,10.8c-13.09,10.5-20.6,26.15-20.6,42.94v110.41l-108.6-24.35v-2.55v-555.9V140.93z"/>
	<polygon class="st21" points="1009.98,1021.7 884.86,993.64 884.86,11.38 1009.98,117.64 	"/>
	<path class="st35" d="M584.01,125.94v800.24l70.49,15.81V831.58c0-11.4,3.53-22.23,9.86-31.32V94.34L584.01,125.94z"/>
	<path class="st35" d="M762.15,55.87v759.52c1.56,5.13,2.43,10.56,2.43,16.18v135.09l77.91,17.47V24.28L762.15,55.87z"/>
	<path class="st3" d="M76.73,809.89V383.65l333.87-131.31v633.55c0,0.59,0.23,1.1,0.56,1.53l-115.75-25.95V726.74
		c0-25.99-17.72-48.09-43.11-53.74c-16.38-3.64-33.3,0.29-46.38,10.8c-13.09,10.5-20.6,26.15-20.6,42.93v110.05L75.34,812.12
		C76.16,811.7,76.73,810.88,76.73,809.89z"/>
	<path class="st35" d="M114.84,368.67v452.31l70.49,15.81V726.74c0-11.4,3.53-22.22,9.86-31.32V337.07L114.84,368.67z"/>
	<path class="st35" d="M295.42,861.47l77.91,17.47V267l-80.34,31.6v411.94c1.56,5.14,2.44,10.56,2.44,16.19V861.47z"/>
	<polygon class="st36" points="1009.98,1021.7 884.86,993.64 884.86,11.38 1009.98,117.64 	"/>
	<linearGradient id="SVGID_1_" gradientUnits="userSpaceOnUse" x1="659.5766" y1="873.4609" x2="759.5027" y2="873.4609">
		<stop  offset="0" style="stop-color:#5BC3EA"/>
		<stop  offset="1" style="stop-color:#4D71B8"/>
	</linearGradient>
	<path class="st24" d="M659.58,943.12V831.58c0-15.23,6.81-29.44,18.7-38.97c11.88-9.53,27.22-13.12,42.11-9.8
		c23.04,5.12,39.12,25.17,39.12,48.77v133.75L659.58,943.12z"/>
	<path class="st36" d="M540.81,915.09v1.41L414.3,888.13c0.82-0.42,1.39-1.25,1.39-2.23V254.1l125.13,106.26V915.09z"/>
	
		<linearGradient id="SVGID_00000167377101035175057140000002618240107325708471_" gradientUnits="userSpaceOnUse" x1="190.4076" y1="768.5447" x2="290.3387" y2="768.5447">
		<stop  offset="0" style="stop-color:#5BC3EA"/>
		<stop  offset="1" style="stop-color:#4D71B8"/>
	</linearGradient>
	<path style="fill:url(#SVGID_00000167377101035175057140000002618240107325708471_);" d="M190.41,837.92V726.74
		c0-15.23,6.81-29.44,18.7-38.97c11.89-9.53,27.22-13.11,42.11-9.8c23.04,5.12,39.13,25.18,39.13,48.77v133.59L190.41,837.92z"/>
	<path class="st14" d="M586.55,325.42c0.31,0,0.63-0.06,0.93-0.17l252.57-99.02c0.97-0.38,1.61-1.32,1.61-2.37V99.26
		c0-0.84-0.42-1.63-1.11-2.1c-0.69-0.48-1.58-0.56-2.36-0.27L648.7,171.19c0,0,0,0,0,0l-63.08,24.73c-0.97,0.38-1.61,1.32-1.61,2.37
		v124.59c0,0.84,0.42,1.63,1.11,2.1C585.55,325.27,586.05,325.42,586.55,325.42z"/>
	
		<linearGradient id="SVGID_00000155825340577575153970000002212808109938336682_" gradientUnits="userSpaceOnUse" x1="652.2306" y1="223.4497" x2="710.2941" y2="223.4497">
		<stop  offset="0" style="stop-color:#5BC3EA"/>
		<stop  offset="1" style="stop-color:#4D71B8"/>
	</linearGradient>
	<polygon style="fill:url(#SVGID_00000155825340577575153970000002212808109938336682_);" points="710.29,271.63 652.23,294.4 
		652.23,175.27 710.29,152.5 	"/>
	
		<linearGradient id="SVGID_00000163039705171732768170000018037584426137525387_" gradientUnits="userSpaceOnUse" x1="715.3768" y1="198.6942" x2="773.4353" y2="198.6942">
		<stop  offset="0" style="stop-color:#5BC3EA"/>
		<stop  offset="1" style="stop-color:#4D71B8"/>
	</linearGradient>
	<polygon style="fill:url(#SVGID_00000163039705171732768170000018037584426137525387_);" points="715.38,150.51 773.44,127.75 
		773.44,246.88 715.38,269.64 	"/>
	
		<linearGradient id="SVGID_00000157997937302955687200000008643269621643797654_" gradientUnits="userSpaceOnUse" x1="778.518" y1="173.9386" x2="836.5815" y2="173.9386">
		<stop  offset="0" style="stop-color:#5BC3EA"/>
		<stop  offset="1" style="stop-color:#4D71B8"/>
	</linearGradient>
	<polygon style="fill:url(#SVGID_00000157997937302955687200000008643269621643797654_);" points="836.58,222.12 778.52,244.89 
		778.52,125.75 836.58,102.99 	"/>
	
		<linearGradient id="SVGID_00000148641577596295876210000003648840508653318280_" gradientUnits="userSpaceOnUse" x1="589.0894" y1="248.2053" x2="647.1479" y2="248.2053">
		<stop  offset="0" style="stop-color:#5BC3EA"/>
		<stop  offset="1" style="stop-color:#4D71B8"/>
	</linearGradient>
	<polygon style="fill:url(#SVGID_00000148641577596295876210000003648840508653318280_);" points="589.09,200.02 647.15,177.26 
		647.15,296.39 589.09,319.15 	"/>
	<path class="st14" d="M586.55,524.28c0.31,0,0.63-0.06,0.93-0.17l252.57-99.02c0.97-0.38,1.61-1.32,1.61-2.37V298.13
		c0-0.84-0.42-1.63-1.11-2.1c-0.69-0.48-1.57-0.57-2.36-0.27L775,320.54c0,0-0.01,0-0.02,0.01l-126.27,49.51
		c-0.01,0-0.01,0-0.02,0.01l-63.07,24.73c-0.97,0.38-1.61,1.32-1.61,2.37v124.59c0,0.84,0.42,1.63,1.11,2.1
		C585.55,524.13,586.05,524.28,586.55,524.28z"/>
	
		<linearGradient id="SVGID_00000028327634205708258120000000870482769224279699_" gradientUnits="userSpaceOnUse" x1="652.2306" y1="422.3103" x2="710.2941" y2="422.3103">
		<stop  offset="0" style="stop-color:#5BC3EA"/>
		<stop  offset="1" style="stop-color:#4D71B8"/>
	</linearGradient>
	<polygon style="fill:url(#SVGID_00000028327634205708258120000000870482769224279699_);" points="710.29,470.49 652.23,493.26 
		652.23,374.13 710.29,351.36 	"/>
	
		<linearGradient id="SVGID_00000109012069198739020530000012396490732163676310_" gradientUnits="userSpaceOnUse" x1="715.3768" y1="397.5552" x2="773.4353" y2="397.5552">
		<stop  offset="0" style="stop-color:#5BC3EA"/>
		<stop  offset="1" style="stop-color:#4D71B8"/>
	</linearGradient>
	<polygon style="fill:url(#SVGID_00000109012069198739020530000012396490732163676310_);" points="715.38,349.37 773.44,326.61 
		773.44,445.74 715.38,468.5 	"/>
	
		<linearGradient id="SVGID_00000009567804735963042730000015808502164410248579_" gradientUnits="userSpaceOnUse" x1="778.518" y1="372.8005" x2="836.5815" y2="372.8005">
		<stop  offset="0" style="stop-color:#5BC3EA"/>
		<stop  offset="1" style="stop-color:#4D71B8"/>
	</linearGradient>
	<polygon style="fill:url(#SVGID_00000009567804735963042730000015808502164410248579_);" points="836.58,420.98 778.52,443.75 
		778.52,324.62 836.58,301.85 	"/>
	
		<linearGradient id="SVGID_00000129902232608407362460000001800862665291187391_" gradientUnits="userSpaceOnUse" x1="589.0894" y1="447.0653" x2="647.1479" y2="447.0653">
		<stop  offset="0" style="stop-color:#5BC3EA"/>
		<stop  offset="1" style="stop-color:#4D71B8"/>
	</linearGradient>
	<polygon style="fill:url(#SVGID_00000129902232608407362460000001800862665291187391_);" points="589.09,398.88 647.15,376.12 
		647.15,495.25 589.09,518.01 	"/>
	<path class="st14" d="M586.55,723.14c0.31,0,0.63-0.06,0.93-0.17l252.57-99.03c0.97-0.38,1.61-1.32,1.61-2.37V496.99
		c0-0.84-0.42-1.63-1.11-2.1c-0.69-0.47-1.57-0.57-2.36-0.27L775,519.39c0,0-0.01,0-0.02,0.01l-189.36,74.24
		c-0.97,0.38-1.61,1.32-1.61,2.37V720.6c0,0.84,0.42,1.63,1.11,2.1C585.55,723,586.05,723.14,586.55,723.14z"/>
	
		<linearGradient id="SVGID_00000049180976861701520620000007923732488196371612_" gradientUnits="userSpaceOnUse" x1="652.2306" y1="621.1716" x2="710.2941" y2="621.1716">
		<stop  offset="0" style="stop-color:#5BC3EA"/>
		<stop  offset="1" style="stop-color:#4D71B8"/>
	</linearGradient>
	<polygon style="fill:url(#SVGID_00000049180976861701520620000007923732488196371612_);" points="710.29,669.36 652.23,692.12 
		652.23,572.99 710.29,550.22 	"/>
	
		<linearGradient id="SVGID_00000047043802767209217390000002276971084765418921_" gradientUnits="userSpaceOnUse" x1="715.3768" y1="596.4159" x2="773.4353" y2="596.4159">
		<stop  offset="0" style="stop-color:#5BC3EA"/>
		<stop  offset="1" style="stop-color:#4D71B8"/>
	</linearGradient>
	<polygon style="fill:url(#SVGID_00000047043802767209217390000002276971084765418921_);" points="715.38,548.23 773.44,525.47 
		773.44,644.6 715.38,667.36 	"/>
	
		<linearGradient id="SVGID_00000035498457419740247760000013813241648396791196_" gradientUnits="userSpaceOnUse" x1="778.518" y1="571.6602" x2="836.5815" y2="571.6602">
		<stop  offset="0" style="stop-color:#5BC3EA"/>
		<stop  offset="1" style="stop-color:#4D71B8"/>
	</linearGradient>
	<polygon style="fill:url(#SVGID_00000035498457419740247760000013813241648396791196_);" points="836.58,619.84 778.52,642.61 
		778.52,523.48 836.58,500.71 	"/>
	
		<linearGradient id="SVGID_00000168795091124866590940000002779016027796027583_" gradientUnits="userSpaceOnUse" x1="589.0894" y1="645.9272" x2="647.1479" y2="645.9272">
		<stop  offset="0" style="stop-color:#5BC3EA"/>
		<stop  offset="1" style="stop-color:#4D71B8"/>
	</linearGradient>
	<polygon style="fill:url(#SVGID_00000168795091124866590940000002779016027796027583_);" points="589.09,597.74 647.15,574.98 
		647.15,694.11 589.09,716.88 	"/>
	<path class="st14" d="M244.65,518.44C244.65,518.44,244.66,518.44,244.65,518.44l63.15-24.76c0,0,0,0,0,0l63.08-24.73
		c0.97-0.38,1.61-1.32,1.61-2.37V341.99c0-0.84-0.42-1.63-1.11-2.1c-0.69-0.48-1.58-0.56-2.36-0.27l-126.34,49.54c0,0,0,0-0.01,0
		l-126.22,49.49c-0.97,0.38-1.61,1.32-1.61,2.37v124.59c0,0.84,0.42,1.63,1.11,2.1c0.43,0.29,0.93,0.44,1.43,0.44
		c0.31,0,0.63-0.06,0.93-0.17L244.65,518.44z"/>
	
		<linearGradient id="SVGID_00000052064363404172332750000007213013605734811027_" gradientUnits="userSpaceOnUse" x1="183.0666" y1="466.1756" x2="241.1251" y2="466.1756">
		<stop  offset="0" style="stop-color:#5BC3EA"/>
		<stop  offset="1" style="stop-color:#4D71B8"/>
	</linearGradient>
	<polygon style="fill:url(#SVGID_00000052064363404172332750000007213013605734811027_);" points="241.13,514.36 183.07,537.12 
		183.07,417.99 241.13,395.23 	"/>
	
		<linearGradient id="SVGID_00000031182104290751670140000015809110249403068592_" gradientUnits="userSpaceOnUse" x1="246.2078" y1="441.4193" x2="304.2713" y2="441.4193">
		<stop  offset="0" style="stop-color:#5BC3EA"/>
		<stop  offset="1" style="stop-color:#4D71B8"/>
	</linearGradient>
	<polygon style="fill:url(#SVGID_00000031182104290751670140000015809110249403068592_);" points="246.21,393.24 304.27,370.47 
		304.27,489.6 246.21,512.37 	"/>
	
		<linearGradient id="SVGID_00000003826390077300198930000004337735382799048583_" gradientUnits="userSpaceOnUse" x1="309.354" y1="416.663" x2="367.4125" y2="416.663">
		<stop  offset="0" style="stop-color:#5BC3EA"/>
		<stop  offset="1" style="stop-color:#4D71B8"/>
	</linearGradient>
	<polygon style="fill:url(#SVGID_00000003826390077300198930000004337735382799048583_);" points="367.41,464.85 309.35,487.61 
		309.35,368.48 367.41,345.72 	"/>
	
		<linearGradient id="SVGID_00000138564842018088564260000006891914326073564301_" gradientUnits="userSpaceOnUse" x1="119.9204" y1="490.9319" x2="177.9839" y2="490.9319">
		<stop  offset="0" style="stop-color:#5BC3EA"/>
		<stop  offset="1" style="stop-color:#4D71B8"/>
	</linearGradient>
	<polygon style="fill:url(#SVGID_00000138564842018088564260000006891914326073564301_);" points="119.92,442.75 177.98,419.98 
		177.98,539.11 119.92,561.88 	"/>
	<g>
		<polygon class="st23" points="609.42,311.18 589.09,319.15 616.35,189.37 636.7,181.36 		"/>
		<polygon class="st23" points="619.88,307.04 616.7,308.24 643.96,178.45 647.15,177.26 		"/>
	</g>
	<g>
		<polygon class="st23" points="672.57,286.42 652.23,294.4 679.5,164.61 699.84,156.6 		"/>
		<polygon class="st23" points="683.03,282.29 679.84,283.48 707.1,153.69 710.29,152.5 		"/>
	</g>
	<g>
		<polygon class="st23" points="735.71,261.67 715.38,269.64 742.64,139.86 762.98,131.85 		"/>
		<polygon class="st23" points="746.17,257.53 742.98,258.72 770.25,128.94 773.44,127.75 		"/>
	</g>
	<g>
		<polygon class="st23" points="798.86,236.91 778.52,244.89 805.78,115.1 826.13,107.09 		"/>
		<polygon class="st23" points="809.32,232.78 806.13,233.97 833.39,104.18 836.58,102.99 		"/>
	</g>
	<g>
		<polygon class="st23" points="609.43,510.04 589.09,518.01 616.35,388.23 636.7,380.22 		"/>
		<polygon class="st23" points="619.89,505.91 616.7,507.1 643.96,377.31 647.15,376.12 		"/>
	</g>
	<g>
		<polygon class="st23" points="672.57,485.29 652.23,493.26 679.5,363.47 699.84,355.46 		"/>
		<polygon class="st23" points="683.03,481.15 679.84,482.34 707.11,352.56 710.29,351.36 		"/>
	</g>
	<g>
		<polygon class="st23" points="735.71,460.53 715.38,468.5 742.64,338.72 762.98,330.71 		"/>
		<polygon class="st23" points="746.17,456.4 742.99,457.59 770.25,327.8 773.44,326.61 		"/>
	</g>
	<g>
		<polygon class="st23" points="798.86,435.77 778.52,443.75 805.79,313.96 826.13,305.95 		"/>
		<polygon class="st23" points="809.32,431.64 806.13,432.83 833.39,303.04 836.58,301.85 		"/>
	</g>
	<g>
		<polygon class="st23" points="140.26,553.91 119.92,561.88 147.19,432.09 167.53,424.08 		"/>
		<polygon class="st23" points="150.72,549.77 147.53,550.96 174.79,421.18 177.98,419.99 		"/>
	</g>
	<g>
		<polygon class="st23" points="203.4,529.15 183.07,537.12 210.33,407.34 230.67,399.33 		"/>
		<polygon class="st23" points="213.86,525.02 210.67,526.21 237.94,396.42 241.12,395.23 		"/>
	</g>
	<g>
		<polygon class="st23" points="266.54,504.4 246.21,512.37 273.47,382.58 293.82,374.57 		"/>
		<polygon class="st23" points="277,500.26 273.82,501.45 301.08,371.67 304.27,370.48 		"/>
	</g>
	<g>
		<polygon class="st23" points="329.69,479.64 309.35,487.61 336.62,357.83 356.96,349.82 		"/>
		<polygon class="st23" points="340.15,475.51 336.96,476.7 364.22,346.91 367.41,345.72 		"/>
	</g>
	<g>
		<polygon class="st23" points="609.43,708.9 589.09,716.87 616.36,587.09 636.7,579.08 		"/>
		<polygon class="st23" points="619.89,704.77 616.7,705.96 643.96,576.17 647.15,574.98 		"/>
	</g>
	<g>
		<polygon class="st23" points="672.57,684.15 652.24,692.12 679.5,562.33 699.84,554.32 		"/>
		<polygon class="st23" points="683.03,680.01 679.84,681.2 707.11,551.42 710.29,550.23 		"/>
	</g>
	<g>
		<polygon class="st23" points="735.71,659.39 715.38,667.36 742.64,537.58 762.99,529.57 		"/>
		<polygon class="st23" points="746.17,655.26 742.99,656.45 770.25,526.66 773.44,525.47 		"/>
	</g>
	<g>
		<polygon class="st23" points="798.86,634.64 778.52,642.61 805.79,512.82 826.13,504.81 		"/>
		<polygon class="st23" points="809.32,630.5 806.13,631.69 833.39,501.91 836.58,500.72 		"/>
	</g>
	
		<linearGradient id="SVGID_00000048488073874787450610000008905351357741981829_" gradientUnits="userSpaceOnUse" x1="659.5766" y1="873.4609" x2="759.5027" y2="873.4609">
		<stop  offset="0" style="stop-color:#5BC3EA"/>
		<stop  offset="1" style="stop-color:#4D71B8"/>
	</linearGradient>
	<path style="fill:url(#SVGID_00000048488073874787450610000008905351357741981829_);" d="M659.58,943.12V831.58
		c0-15.23,6.81-29.44,18.7-38.97c11.88-9.53,27.22-13.12,42.11-9.8c23.04,5.12,39.12,25.17,39.12,48.77v133.75L659.58,943.12z"/>
	<path class="st21" d="M671.4,843.4c0-15.23,6.81-29.44,18.7-38.97c11.88-9.53,27.22-13.12,42.11-9.8c6.73,1.5,12.85,4.3,18.16,8.06
		c-6.95-9.83-17.42-17.09-29.98-19.88c-14.89-3.32-30.22,0.27-42.11,9.8c-11.88,9.53-18.7,23.74-18.7,38.97v111.55l11.82,2.63V843.4
		z"/>
	<path class="st21" d="M205.16,741.49c0-15.23,6.81-29.44,18.7-38.97c11.89-9.53,27.22-13.11,42.11-9.8c6,1.33,11.51,3.7,16.4,6.85
		c-6.91-10.71-17.86-18.65-31.15-21.61c-14.89-3.32-30.22,0.27-42.11,9.8c-11.88,9.53-18.7,23.74-18.7,38.97v111.19l14.76,3.31
		V741.49z"/>
	<path class="st56" d="M540.81,915.09v1.41L414.3,888.13c0.82-0.42,1.39-1.25,1.39-2.23V386.66c0-52.27,61.2-80.59,101.04-46.75
		l24.08,20.45V915.09z"/>
	<polygon class="st23" points="584.01,125.94 584.01,125.94 545.9,140.93 545.9,359.19 545.9,915.09 545.9,917.63 555.45,919.78 
		555.45,146.69 	"/>
	<path class="st56" d="M1009.98,1021.7l-118.56-28.06V126.65c0-45.45,46.65-70.08,81.29-40.66l37.26,31.64V1021.7z"/>
</g>
</svg>
