<svg width="76" height="80" viewBox="0 0 76 80" fill="none" xmlns="http://www.w3.org/2000/svg">
<g id="Calendar" clip-path="url(#clip0_476_1906)">
<path id="Vector" d="M54.8075 6.54516H49.1835V2.37571C49.1835 1.09719 48.1378 0.0773926 46.8614 0.0773926H41.1386C39.8652 0.0773926 38.8494 1.09419 38.8494 2.37571V6.54516H23.7393V2.37571C23.7393 1.09719 22.7266 0.0773926 21.4502 0.0773926H15.7273C14.4539 0.0773926 13.4382 1.09419 13.4382 2.37571V6.54516H7.81423C3.49963 6.54516 0 10.0558 0 14.3907V54.2532C0 58.5881 3.49963 62.1018 7.81723 62.1018H34.5348C34.5019 61.7077 34.5019 61.2805 34.5019 60.8533C34.5019 59.5056 34.6337 58.1609 34.8614 56.8463H7.81423C6.37603 56.8463 5.1985 55.6641 5.1985 54.2201V22.8951H57.4262V37.4069C57.5581 37.3738 57.7198 37.3738 57.8517 37.3738C59.4876 37.3738 61.0906 37.5393 62.6277 37.8672V14.3907C62.6277 10.0588 59.1281 6.54215 54.8105 6.54215L54.8075 6.54516Z" fill="#8D8D8D"/>
<path id="Vector_2" d="M49.0847 29.3298H42.5438C41.597 29.3298 40.812 30.1179 40.812 31.0685V35.7975C40.812 36.7482 41.597 37.5363 42.5438 37.5363H49.0847C50.0315 37.5363 50.8165 36.7482 50.8165 35.7975V31.0685C50.8495 30.1179 50.0644 29.3298 49.0847 29.3298Z" fill="#8D8D8D"/>
<path id="Vector_3" d="M34.5977 29.3298H28.0569C27.1101 29.3298 26.3251 30.1179 26.3251 31.0685V35.7975C26.3251 36.7482 27.1101 37.5363 28.0569 37.5363H34.5977C35.5445 37.5363 36.3296 36.7482 36.3296 35.7975V31.0685C36.3296 30.1179 35.5445 29.3298 34.5977 29.3298Z" fill="#8D8D8D"/>
<path id="Vector_4" d="M34.5977 42.2352H28.0569C27.1101 42.2352 26.3251 43.0233 26.3251 43.9739V48.7029C26.3251 49.6535 27.1101 50.4417 28.0569 50.4417H34.5977C35.5445 50.4417 36.3296 49.6535 36.3296 48.7029V43.9739C36.3296 43.0233 35.5445 42.2352 34.5977 42.2352Z" fill="#8D8D8D"/>
<path id="Vector_5" d="M20.078 29.3298H13.5042C12.5574 29.3298 11.7723 30.1179 11.7723 31.0685V35.7975C11.7723 36.7482 12.5574 37.5363 13.5042 37.5363H20.045C20.9918 37.5363 21.7768 36.7482 21.7768 35.7975V31.0685C21.8098 30.1179 21.0248 29.3298 20.075 29.3298H20.078Z" fill="#8D8D8D"/>
<path id="Vector_6" d="M20.078 42.2352H13.5042C12.5574 42.2352 11.7723 43.0233 11.7723 43.9739V48.7029C11.7723 49.6535 12.5574 50.4417 13.5042 50.4417H20.045C20.9918 50.4417 21.7768 49.6535 21.7768 48.7029V43.9739C21.8098 43.0233 21.0248 42.2352 20.075 42.2352H20.078Z" fill="#8D8D8D"/>
<path id="Vector_7" d="M57.8487 42.6293C47.8082 42.6293 39.6974 50.8057 39.6974 60.8533C39.6974 70.9009 47.8412 79.0774 57.8487 79.0774C67.8562 79.0774 76 70.9009 76 60.8533C76.033 50.7726 67.8891 42.6323 57.8487 42.6323V42.6293ZM65.3064 63.4765H57.8817C56.4435 63.4765 55.2659 62.2943 55.2659 60.8503V51.985C55.2659 50.541 56.4435 49.3588 57.8817 49.3588C59.3199 49.3588 60.4974 50.541 60.4974 51.985V58.2241H65.3363C66.7745 58.2241 67.9521 59.4064 67.9521 60.8503C67.9521 62.2943 66.7416 63.4765 65.3034 63.4765H65.3064Z" fill="#8D8D8D"/>
</g>
<defs>
<clipPath id="clip0_476_1906">
<rect width="76" height="79" fill="white" transform="translate(0 0.0773926)"/>
</clipPath>
</defs>
</svg>
