<svg width="80" height="80" viewBox="0 0 80 80" fill="none" xmlns="http://www.w3.org/2000/svg">
<g id="Call Us" clip-path="url(#clip0_476_1897)">
<path id="Vector" d="M44.7549 8.17696C51.9707 8.17696 58.7645 10.9928 63.883 16.1041C68.944 21.1579 71.815 28.1081 71.7574 35.1765C71.7415 37.2421 73.4039 38.9277 75.4725 38.9469H75.5044C77.5602 38.9469 79.2322 37.2899 79.2514 35.2371C79.3218 26.1766 75.6547 17.2758 69.1838 10.814C62.6457 4.2916 53.9721 0.696777 44.7549 0.696777C42.6863 0.696777 41.0079 2.36968 41.0079 4.43846C41.0079 6.50724 42.6863 8.18015 44.7549 8.18015V8.17696Z" fill="#8D8D8D"/>
<path id="Vector_2" d="M44.7357 22.4988C48.1534 22.4988 51.3537 23.8173 53.7547 26.2149C56.1525 28.6094 57.4729 31.8051 57.4729 35.218C57.4729 37.2836 59.1514 38.9597 61.2199 38.9597C63.2884 38.9597 64.9669 37.2868 64.9669 35.218C64.9669 29.8066 62.8664 24.7336 59.0523 20.9249C55.2382 17.1161 50.1548 15.0186 44.7389 15.0186C42.6704 15.0186 40.9919 16.6915 40.9919 18.7603C40.9919 20.8291 42.6704 22.502 44.7389 22.502L44.7357 22.4988Z" fill="#8D8D8D"/>
<path id="Vector_3" d="M40.5891 39.3428C41.6952 40.4474 43.1691 41.0572 44.7325 41.0572C46.2958 41.0572 47.7729 40.4442 48.8791 39.3428C49.9885 38.2349 50.5991 36.7664 50.5991 35.1988C50.5991 33.6313 49.9885 32.1659 48.8823 31.0613C46.6667 28.8456 42.7982 28.852 40.5891 31.0549C39.4797 32.1627 38.869 33.6313 38.869 35.1988C38.869 36.7664 39.4797 38.2318 40.5859 39.3396L40.5891 39.3428Z" fill="#8D8D8D"/>
<path id="Vector_4" d="M76.9495 57.4191L60.8043 49.0833C58.5247 47.9052 55.7305 48.5182 54.1511 50.5391L48.2269 58.1278C42.4594 55.0119 38.0762 52.0587 32.9896 46.9762C27.561 41.5552 24.6836 37.1016 21.7071 31.4954L29.2202 25.6371C31.244 24.06 31.8546 21.2697 30.6781 18.9934L22.3721 2.95391C20.911 0.13807 17.3207 -0.787774 14.6767 0.974522L4.39488 7.81938C2.00985 9.40608 0.66068 12.1453 0.852505 15.0026C1.05072 17.927 1.41519 21.6081 2.08658 24.1781C5.07905 35.6809 12.2789 47.5445 22.3465 57.601C32.4109 67.6512 44.2977 74.8441 55.8168 77.8355C58.4 78.5059 62.0959 78.8699 65.0404 79.0614C67.9402 79.2498 70.712 77.8547 72.285 75.4155L78.9829 65.0301C80.6837 62.3899 79.7406 58.8589 76.9495 57.4191Z" fill="#8D8D8D"/>
</g>
<defs>
<clipPath id="clip0_476_1897">
<rect width="79" height="79" fill="white" transform="translate(0.833313 0.0773926)"/>
</clipPath>
</defs>
</svg>
