<?xml version="1.0" encoding="utf-8"?>
<!-- Generator: Adobe Illustrator 26.1.0, SVG Export Plug-In . SVG Version: 6.00 Build 0)  -->
<svg version="1.1" id="Layer_1" xmlns="http://www.w3.org/2000/svg" xmlns:xlink="http://www.w3.org/1999/xlink" x="0px" y="0px"
	 viewBox="0 0 714.77 714.77" style="enable-background:new 0 0 714.77 714.77;" xml:space="preserve">
<style type="text/css">
	.st0{opacity:0.61;}
	.st1{fill:#FBF0E5;}
	.st2{opacity:0.61;fill:#FBF0E5;}
	.st3{fill:#EE8240;}
	.st4{fill:#DBA675;}
	.st5{opacity:0.22;fill:#9A521C;}
	.st6{fill:#F2CCA9;}
	.st7{opacity:0.39;fill:#9A521C;}
	.st8{fill:#DFB68E;}
	.st9{fill:#8A8D91;}
	.st10{opacity:0.09;}
	.st11{fill:#E0AE80;}
	.st12{opacity:0.25;fill:#9A521C;}
	.st13{opacity:0.28;fill:#919FB2;}
	.st14{fill:#541932;}
	.st15{opacity:0.34;fill:#933616;}
	.st16{fill:#F5F6F8;}
	.st17{fill:#8B6578;}
	.st18{fill:#E6CBAE;}
	.st19{fill:#E87B59;}
	.st20{fill:#ECC0B3;}
	.st21{opacity:0.25;fill:#541932;}
	.st22{fill:#FFFFFF;}
	.st23{opacity:0.25;fill:#FFFFFF;}
	.st24{fill:url(#SVGID_1_);}
	.st25{fill:#7AEB90;}
	.st26{fill:#BAFB89;}
	.st27{fill:#F6F5FF;}
	.st28{fill:#549F56;}
	.st29{opacity:0.5;fill:#FFFFFF;}
	.st30{opacity:0.5;fill:#A1F6FD;}
	.st31{fill:#F7CDC6;}
	.st32{fill:#F8D34E;}
	.st33{fill:#5BC3EA;}
	.st34{fill:none;stroke:#541932;stroke-width:7;stroke-linecap:round;stroke-miterlimit:10;}
	.st35{opacity:0.2;fill:#541932;}
	.st36{fill:#D76730;}
	.st37{fill:url(#SVGID_00000173123747762069830990000003415616010810639017_);}
	.st38{fill:url(#SVGID_00000000943968260091894960000010451633418499310728_);}
	.st39{fill:url(#SVGID_00000011031118864183226670000000381239776151769003_);}
	.st40{fill:url(#SVGID_00000026885228290413371030000014923358729330677182_);}
	.st41{fill:url(#SVGID_00000010283618218597055180000012225657275941883536_);}
	.st42{fill:url(#SVGID_00000158742176088625105710000005142660197455636876_);}
	.st43{fill:url(#SVGID_00000047749031681090513140000006620851960445918379_);}
	.st44{fill:url(#SVGID_00000168803532081221100470000015969310500688207498_);}
	.st45{fill:url(#SVGID_00000178183600115920128290000007832743537838244254_);}
	.st46{fill:url(#SVGID_00000116927136547725624010000009352672119183577988_);}
	.st47{fill:url(#SVGID_00000021822540581635076370000006000459330337547399_);}
	.st48{fill:url(#SVGID_00000161629273197756823620000000319422316202991523_);}
	.st49{fill:url(#SVGID_00000124883825500869104220000017616407189960757120_);}
	.st50{fill:url(#SVGID_00000171708041885708085520000008346675995355975073_);}
	.st51{fill:url(#SVGID_00000095333375388025354330000012747030067177551777_);}
	.st52{fill:url(#SVGID_00000013172593589596030840000017410883796737735359_);}
	.st53{fill:url(#SVGID_00000020382066378991922900000006162257555165685939_);}
	.st54{fill:url(#SVGID_00000130632310010901371670000012321268688513255325_);}
	.st55{fill:url(#SVGID_00000146501532320310429770000002790928541304798610_);}
	.st56{opacity:0.1;fill:#541932;}
	.st57{opacity:0.25;fill:#549F56;}
	.st58{fill:url(#SVGID_00000055677194352072209800000004595576227453098676_);}
	.st59{fill:#666666;}
	.st60{opacity:0.25;}
	.st61{fill:url(#SVGID_00000095324368075879302230000000641920504027504018_);}
	.st62{fill:#212121;}
	.st63{fill:#DF6B33;}
	.st64{fill:#E06B33;}
	.st65{fill:#BCC0C4;}
	.st66{fill:#E4E4E4;}
	.st67{clip-path:url(#SVGID_00000148659611167383766150000002600786571686336184_);}
	.st68{fill-rule:evenodd;clip-rule:evenodd;fill:#FFFFFF;}
	.st69{fill-rule:evenodd;clip-rule:evenodd;}
	.st70{fill-rule:evenodd;clip-rule:evenodd;fill:url(#SVGID_00000054262216667766278630000002954674879714933378_);}
	.st71{fill-rule:evenodd;clip-rule:evenodd;fill:url(#SVGID_00000084517315222572040740000016064928357860596362_);}
	.st72{fill:#3F5963;}
	.st73{opacity:0.3;}
	.st74{fill:#1E2E34;}
	.st75{fill:url(#SVGID_00000096029436724444914830000013547659658015022766_);}
	.st76{fill:url(#SVGID_00000173129981459187048750000015393744630987714454_);}
	.st77{fill:url(#SVGID_00000038392475620700708890000012623936131823612042_);}
	.st78{fill:url(#SVGID_00000014622491255154653410000016861636564852397974_);}
	.st79{fill:url(#SVGID_00000058575710593878951820000007761798379149800115_);}
	.st80{fill:#C0CFF6;}
	.st81{fill:url(#SVGID_00000090987173857933876260000012847916161094695344_);}
	.st82{fill:url(#SVGID_00000181070648113982337310000008377351423067399351_);}
	.st83{fill:url(#SVGID_00000114779483872943628590000014108922112943903370_);}
	.st84{fill:url(#SVGID_00000003816063279034969270000003511147833051031202_);}
	.st85{fill:url(#SVGID_00000057828252566566773970000002328550782406084530_);}
	.st86{fill:url(#SVGID_00000130608314280787023060000018216250144892411579_);}
	.st87{fill:url(#SVGID_00000072984745165881957190000003145247308443412876_);}
	.st88{fill:#31A24C;}
	.st89{fill:#141414;}
	.st90{fill:#EDC2A1;}
	.st91{opacity:0.2;fill:#EDC2A1;}
	.st92{fill:#EA9A57;}
	.st93{fill:#E49C69;}
	.st94{fill:#E7AA7D;}
	.st95{fill:none;stroke:#541932;stroke-width:7;stroke-linecap:round;stroke-linejoin:round;stroke-miterlimit:10;}
	.st96{fill:none;stroke:#FFFFFF;stroke-width:7;stroke-linecap:round;stroke-linejoin:round;stroke-miterlimit:10;}
</style>
<g>
	<circle class="st3" cx="357.39" cy="357.39" r="357.39"/>
	<circle class="st16" cx="357.39" cy="357.39" r="291.73"/>
	<g>
		<g>
			<path class="st14" d="M463.47,194.16H251.3c-8.6,0-15.6,7-15.6,15.6v295.25c0,8.6,7,15.6,15.6,15.6h212.17
				c8.6,0,15.6-7,15.6-15.6V209.76C479.07,201.16,472.07,194.16,463.47,194.16z"/>
			<path class="st1" d="M474.64,505.01c0,6.16-5.01,11.17-11.16,11.17H251.3c-6.16,0-11.17-5.01-11.17-11.17V209.76
				c0-6.16,5.01-11.16,11.17-11.16h212.17c6.16,0,11.16,5.01,11.16,11.16V505.01z"/>
			<path class="st14" d="M443.8,243.89H270.97c-1.22,0-2.22,0.99-2.22,2.22c0,1.22,0.99,2.22,2.22,2.22H443.8
				c1.22,0,2.22-0.99,2.22-2.22C446.02,244.88,445.03,243.89,443.8,243.89z"/>
			<path class="st14" d="M443.8,309.38H270.97c-1.22,0-2.22,0.99-2.22,2.22c0,1.22,0.99,2.22,2.22,2.22H443.8
				c1.22,0,2.22-0.99,2.22-2.22C446.02,310.37,445.03,309.38,443.8,309.38z"/>
			<path class="st14" d="M443.8,374.88H270.97c-1.22,0-2.22,0.99-2.22,2.22s0.99,2.22,2.22,2.22H443.8c1.22,0,2.22-0.99,2.22-2.22
				S445.03,374.88,443.8,374.88z"/>
			<path class="st21" d="M446.19,246.27H273.35c-1.22,0-2.22,0.99-2.22,2.22c0,1.22,0.99,2.22,2.22,2.22h172.84
				c1.22,0,2.22-0.99,2.22-2.22C448.4,247.26,447.41,246.27,446.19,246.27z"/>
			<path class="st21" d="M446.19,311.77H273.35c-1.22,0-2.22,0.99-2.22,2.22c0,1.22,0.99,2.22,2.22,2.22h172.84
				c1.22,0,2.22-0.99,2.22-2.22C448.4,312.76,447.41,311.77,446.19,311.77z"/>
			<path class="st21" d="M446.19,377.26H273.35c-1.22,0-2.22,0.99-2.22,2.22c0,1.22,0.99,2.22,2.22,2.22h172.84
				c1.22,0,2.22-0.99,2.22-2.22C448.4,378.25,447.41,377.26,446.19,377.26z"/>
			<path class="st14" d="M359.94,413.53c-20.77,0-37.67,16.9-37.67,37.67c0,20.77,16.9,37.67,37.67,37.67
				c20.77,0,37.67-16.9,37.67-37.67C397.61,430.43,380.71,413.53,359.94,413.53z"/>
			<path class="st21" d="M361.49,415.08c-20.77,0-37.67,16.9-37.67,37.67c0,20.77,16.9,37.67,37.67,37.67s37.67-16.9,37.67-37.67
				C399.16,431.98,382.26,415.08,361.49,415.08z"/>
			<path class="st27" d="M359.94,484.43c-18.33,0-33.23-14.91-33.23-33.24s14.91-33.23,33.23-33.23c18.33,0,33.23,14.91,33.23,33.23
				S378.27,484.43,359.94,484.43z"/>
			<path class="st28" d="M371.31,431.24l-15.77,21.43c-0.55,0.75-1.64,0.83-2.3,0.17l-4.2-4.2c-0.66-0.66-1.75-0.57-2.3,0.17
				l-5.48,7.47c-0.44,0.6-0.38,1.44,0.15,1.97l12.82,12.82c0.65,0.65,1.72,0.58,2.28-0.15l21.97-28.79c0.36-0.47,0.41-1.1,0.14-1.62
				l-4.75-9.07C373.36,430.44,371.98,430.33,371.31,431.24z"/>
		</g>
		<path class="st29" d="M314.93,221.5c101.42,18.21,148.55-22.91,148.55-22.91H251.3c-6.16,0-11.17,5.01-11.17,11.16v87.13
			C240.13,296.89,231.27,206.48,314.93,221.5z"/>
		<path class="st21" d="M397.61,501.25c-101.42-18.21-146.58,15.01-146.58,15.01H463.2c6.16,0,11.17-5.01,11.17-11.16v-87.13
			C474.37,417.96,481.27,516.27,397.61,501.25z"/>
	</g>
</g>
</svg>
