<?xml version="1.0" encoding="utf-8"?>
<!-- Generator: Adobe Illustrator 27.8.1, SVG Export Plug-In . SVG Version: 6.00 Build 0)  -->
<svg version="1.1" id="Layer_1" xmlns="http://www.w3.org/2000/svg" xmlns:xlink="http://www.w3.org/1999/xlink" x="0px" y="0px"
	 viewBox="0 0 60 61" style="enable-background:new 0 0 60 61;" xml:space="preserve">
<style type="text/css">
	.st0{fill:#FFFFFF;}
</style>
<path class="st0" d="M6,38.7h5.8c4.9,0,8.3-3.4,8.3-7.7v0c0-4.4-3.4-7.7-8.3-7.7H6V38.7z M11.8,25.7c3.3,0,5.4,2.2,5.4,5.3v0
	c0,3-2.1,5.2-5.4,5.2H8.7V25.7H11.8z"/>
<path class="st0" d="M21.7,38.7h2.8l1.6-3.7h7.4l1.6,3.7H38l-6.9-15.6h-2.5L21.7,38.7z M27.1,32.6l2.7-6.2l2.7,6.2H27.1z"/>
<path class="st0" d="M47.7,39c2.9,0,4.8-1,6.3-2.7l-1.8-1.8c-1.3,1.2-2.6,2-4.5,2c-3,0-5.2-2.5-5.2-5.5v0c0-3,2.2-5.4,5.1-5.4
	c1.8,0,3.1,0.8,4.4,1.9l1.8-2C52.4,24,50.6,23,47.7,23c-4.7,0-8,3.6-8,8v0C39.7,35.5,43.1,39,47.7,39z"/>
<path class="st0" d="M9.5,11.1h40.1v7.5H54v-12H5v12h4.5V11.1z"/>
<path class="st0" d="M49.6,51.1H9.5v-8.2H5v12.7h49V42.9h-4.5V51.1z"/>
</svg>
