<?xml version="1.0" encoding="UTF-8"?><svg xmlns="http://www.w3.org/2000/svg" viewBox="0 0 1577.75 1426.8"><defs><style>.cls-1{opacity:.7;}.cls-1,.cls-2,.cls-3,.cls-4,.cls-5,.cls-6,.cls-7,.cls-8,.cls-9,.cls-10{stroke-width:0px;}.cls-1,.cls-2,.cls-3,.cls-10{mix-blend-mode:overlay;}.cls-2,.cls-3{opacity:.2;}.cls-3,.cls-8{fill:#fff;}.cls-11{opacity:.5;}.cls-12{isolation:isolate;}.cls-4{fill:#96b2c8;}.cls-5{fill:#346dac;}.cls-6{fill:#5989bc;}.cls-7{fill:#1b75bb;}.cls-9{fill:#004ab6;}.cls-10{opacity:.3;}</style></defs><g class="cls-12"><g id="_1"><path class="cls-4" d="m516.06,617.98c-14.76-8.52-14.76-22.36.03-30.93l128.97-74.44c14.8-8.55,38.79-8.58,53.56-.04l334.25,192.99c14.78,8.52,14.76,22.38-.03,30.91l-128.97,74.46c-14.81,8.55-38.78,8.55-53.55.03l-334.25-192.99Zm107.03,324.16c14.78,8.52,38.73,8.52,53.54-.01l128.98-74.46c14.79-8.56,14.81-22.39.04-30.93l-396.77-229.08c-14.78-8.51-38.74-8.51-53.55.04l-128.97,74.46c-14.8,8.55-14.81,22.39-.04,30.91l396.77,229.07Zm-227.22,131.19c14.79,8.52,38.75,8.52,53.55-.03l128.97-74.46c14.81-8.54,14.84-22.39.03-30.9l-244.92-141.43c-14.78-8.54-38.75-8.51-53.55.03l-128.97,74.45c-14.8,8.56-14.8,22.39-.06,30.91l244.94,141.43Z"/><path class="cls-8" d="m855.46,282.51h0c0-5.6,3.72-11.21,11.13-15.47l128.96-74.46c14.8-8.54,38.77-8.55,53.56,0l128.82,74.37c7.43,4.3,11.12,9.94,11.06,15.58h0v520.62h0c-.01,5.59-3.72,11.14-11.09,15.42l-128.97,74.46c-14.81,8.55-38.78,8.55-53.55.03l-128.83-74.4c-7.42-4.26-11.1-9.89-11.08-15.51h0V282.51Z"/><path class="cls-4" d="m855.6,281.62c-.42,5.88,3.17,11.85,10.95,16.34l128.83,74.38c7.42,4.27,17.13,6.41,26.85,6.39v520.69c-9.72.01-19.42-2.11-26.85-6.37l-128.83-74.4c-7.42-4.26-11.1-9.89-11.08-15.51h0V282.51c0-.29.14-.59.14-.88Z"/><g class="cls-11"><path class="cls-4" d="m1048.93,372.32l128.97-74.46c7.35-4.24,11.04-9.78,11.09-15.35h0v520.63h0c-.01,5.59-3.72,11.14-11.09,15.42l-128.97,74.46c-7.38,4.25-17.04,6.39-26.7,6.4V378.73c9.66-.01,19.32-2.16,26.7-6.41Z"/></g><path class="cls-4" d="m1085.68,360.45c-9.83,5.65-17.78,19.42-17.75,30.73l-.03,333.89c0,11.33,7.96,15.91,17.78,10.25l103.31-59.66v-374.87l-103.31,59.67Z"/><path class="cls-9" d="m1022.12,902.91c-10.24,0-20.47-2.3-28.45-6.9l-128.83-74.4c-8.17-4.69-12.7-11.15-12.79-18.21,0-.08,0-.17,0-.26V282.51h0c.01-7.13,4.57-13.68,12.84-18.43l128.95-74.46c15.99-9.22,41.02-9.23,56.99,0l128.82,74.37c8.31,4.81,12.85,11.41,12.77,18.58v520.5c-.01,7.15-4.56,13.68-12.8,18.46l-128.98,74.47c-8,4.62-18.26,6.93-28.52,6.93Zm-163.24-100.01c0,.08,0,.17,0,.25-.02,4.6,3.31,9.05,9.37,12.53l128.83,74.4c13.81,7.97,36.3,7.96,50.13-.03l128.97-74.46c6.04-3.5,9.38-7.93,9.39-12.46V282.52c.05-4.63-3.27-9.1-9.35-12.62l-128.82-74.37c-13.82-7.98-36.31-7.98-50.15,0l-128.95,74.46c-6.07,3.49-9.41,7.93-9.42,12.51v520.39Z"/><path class="cls-7" d="m628.24,583.75h0c.02-5.6,3.72-11.19,11.11-15.47l128.98-74.44c14.8-8.56,38.77-8.58,53.54-.04l128.85,74.38c7.43,4.3,11.1,9.94,11.06,15.56h0v350.56h0c-.04,5.6-3.72,11.17-11.1,15.43l-128.96,74.46c-14.84,8.54-38.79,8.54-53.56.01l-128.84-74.37c-7.4-4.29-11.08-9.91-11.05-15.54h-.03v-350.56Z"/><path class="cls-10" d="m628.4,582.87c-.43,5.88,3.17,11.84,10.93,16.33l128.84,74.38c7.41,4.29,17.15,6.41,26.85,6.39v350.64c-9.71.03-19.44-2.1-26.85-6.39l-128.84-74.37c-7.4-4.29-11.08-9.91-11.05-15.54h-.03v-350.56c0-.31.12-.59.15-.88Z"/><path class="cls-2" d="m821.71,673.57l128.98-74.45c7.35-4.26,11.04-9.81,11.1-15.36h0v350.56h0c-.04,5.6-3.72,11.17-11.1,15.43l-128.96,74.46c-7.39,4.25-17.04,6.4-26.71,6.4v-350.64c9.67-.01,19.32-2.14,26.7-6.4Z"/><path class="cls-9" d="m794.91,1034.08c-10.25,0-20.48-2.3-28.46-6.9l-128.84-74.37c-8.07-4.67-12.58-11.05-12.75-18-.02-.16-.04-.33-.04-.5v-350.56h0c.02-7.12,4.58-13.66,12.81-18.43l128.99-74.44c15.97-9.25,41-9.26,56.96-.04l128.85,74.38c8.29,4.8,12.82,11.39,12.77,18.55v350.46c-.05,7.2-4.6,13.72-12.81,18.46l-128.96,74.46c-8.01,4.61-18.27,6.91-28.53,6.91Zm-163.24-100.22c.02.16.03.32.03.47-.03,4.59,3.29,9.05,9.34,12.56l128.83,74.37c13.8,7.96,36.3,7.96,50.15-.01l128.96-74.46c6.02-3.48,9.36-7.91,9.39-12.49v-350.53c.03-4.62-3.29-9.09-9.36-12.6l-128.84-74.38c-13.82-7.98-36.3-7.96-50.12.04l-128.99,74.44c-6.04,3.49-9.38,7.94-9.4,12.51v350.1Z"/><path class="cls-8" d="m401.04,900.55h0c0-5.59,3.72-11.18,11.11-15.44l128.98-74.48c14.8-8.54,38.77-8.55,53.55-.03l128.82,74.38c7.46,4.3,11.12,9.94,11.07,15.56h.01v164.95h0c-.03,5.57-3.73,11.14-11.12,15.4l-128.97,74.48c-14.8,8.55-38.74,8.55-53.55.03l-128.81-74.4c-7.43-4.29-11.11-9.91-11.09-15.51h0v-164.95Z"/><path class="cls-4" d="m401.19,899.67c-.43,5.89,3.15,11.85,10.94,16.32l128.84,74.4c7.41,4.28,17.13,6.4,26.85,6.4v164.99c-9.72.01-19.44-2.1-26.87-6.37l-128.81-74.4c-7.43-4.29-11.11-9.91-11.09-15.51h0v-164.95c0-.28.14-.57.15-.88Z"/><g class="cls-11"><path class="cls-4" d="m594.49,990.38l128.97-74.46c7.37-4.23,11.06-9.8,11.1-15.36h.01v164.95h0c-.03,5.57-3.73,11.14-11.12,15.4l-128.97,74.48c-7.37,4.25-17.02,6.39-26.68,6.4v-164.99c9.66-.04,19.31-2.16,26.68-6.41Z"/></g><path class="cls-9" d="m567.69,1165.26c-10.24,0-20.47-2.3-28.46-6.89l-128.82-74.4c-8.28-4.78-12.83-11.35-12.8-18.49v-164.93c0-7.1,4.55-13.64,12.82-18.41l128.97-74.48c15.99-9.22,41.01-9.23,56.97-.03l128.82,74.38c8.18,4.72,12.7,11.18,12.78,18.23,0,.1.01.2.01.3v164.85c-.03,7.19-4.59,13.71-12.83,18.46l-128.97,74.48c-7.99,4.61-18.25,6.92-28.51,6.92Zm.25-357.66c-9.09,0-18.18,2-25.11,5.99l-128.97,74.48c-6.07,3.5-9.4,7.93-9.4,12.48v164.95c-.02,4.59,3.31,9.05,9.38,12.55l128.82,74.4c13.83,7.96,36.32,7.95,50.13-.03l128.97-74.48c6.04-3.48,9.38-7.91,9.41-12.46v-164.64c-.01-.11-.01-.22-.01-.32.04-4.6-3.28-9.06-9.36-12.57l-128.82-74.38c-6.89-3.98-15.96-5.96-25.02-5.96Z"/><polygon class="cls-8" points="509.57 883 695.5 561.18 924.3 418.55 1069.33 167.58 1082.56 175.19 1121.5 158.59 1136.3 19.62 1108.24 3.42 995.17 85.76 1000.26 127.77 1013.48 135.38 879.35 367.54 650.53 510.16 453.72 850.77 509.57 883"/><path class="cls-4" d="m481.79,866.97l-28.07-16.19,196.8-340.62,228.82-142.62,134.13-232.16-13.22-7.61-5.09-42L1108.24,3.42l28.06,16.2-113.07,82.35,5.1,42,30.43-22.18-151.34,261.94-228.82,142.62-196.79,340.61Zm442.51-448.42l145.03-250.98,13.23,7.61,3.98-37.39-162.23,280.75Z"/><path class="cls-9" d="m509.56,886.42c-.58,0-1.17-.15-1.71-.46l-55.85-32.22c-.79-.45-1.36-1.2-1.59-2.08s-.11-1.81.34-2.6l196.8-340.62c.28-.48.68-.9,1.15-1.19l228.1-142.17,131.99-228.45-10.25-5.9c-.93-.54-1.56-1.48-1.69-2.55l-5.09-42c-.15-1.23.38-2.45,1.38-3.18L1106.22.65c1.09-.79,2.55-.87,3.72-.2l28.06,16.21c1.17.68,1.83,1.98,1.69,3.32l-14.8,138.96c-.13,1.23-.92,2.3-2.06,2.78l-38.94,16.61c-.99.42-2.12.36-3.05-.18l-10.27-5.91-143.32,248.02c-.28.49-.68.9-1.15,1.19l-228.08,142.17-185.5,321.08c-.64,1.1-1.78,1.71-2.96,1.71Zm-51.17-36.9l49.92,28.81,184.22-318.86c.28-.48.68-.9,1.15-1.19l228.08-142.17,144.6-250.24c.94-1.63,3.03-2.19,4.67-1.25l11.75,6.76,35.52-15.15,14.36-134.75-24.21-13.98-109.65,79.85,4.64,38.31,11.74,6.76c.79.45,1.36,1.2,1.6,2.08.24.88.11,1.81-.34,2.6l-134.13,232.16c-.28.48-.68.9-1.15,1.19l-228.1,142.17-194.67,336.92Z"/><path class="cls-8" d="m1136.3,766.11c0,11.33,7.96,15.91,17.78,10.25l203.35-117.42c9.83-5.68,17.77-19.45,17.75-30.76l.03-333.89c-.01-11.3-7.97-15.9-17.78-10.23l-203.35,117.44c-9.83,5.65-17.78,19.41-17.76,30.73l-.03,333.89Z"/><path class="cls-9" d="m1146.13,782.21c-2.28,0-4.42-.55-6.34-1.66-4.45-2.57-6.91-7.71-6.91-14.45h0l.03-333.89c-.03-12.6,8.52-27.4,19.47-33.69l203.35-117.44c5.84-3.38,11.51-3.82,15.98-1.24,4.46,2.57,6.92,7.7,6.93,14.44l-.03,333.89c.02,12.6-8.53,27.42-19.46,33.73l-203.35,117.41c-3.34,1.93-6.63,2.9-9.67,2.9Zm-6.41-16.11c0,4.14,1.27,7.25,3.49,8.53,2.22,1.28,5.56.83,9.16-1.24l203.35-117.41c8.71-5.03,16.06-17.76,16.04-27.8l.03-333.89c0-4.13-1.28-7.23-3.5-8.51-2.22-1.29-5.56-.83-9.14,1.24l-203.35,117.44c-8.72,5.01-16.07,17.72-16.05,27.76l-.03,333.89Z"/><path class="cls-7" d="m1340.6,584.46c-.01,2.72-1.92,6.04-4.27,7.37l-161.15,93.05c-2.36,1.38-4.27.28-4.27-2.45h0c0-2.71,1.92-6.01,4.27-7.37l161.15-93.05c2.35-1.35,4.25-.24,4.27,2.45h0Zm-29.64,56.45c0,2.73-1.9,6.01-4.26,7.39l-131.52,75.92c-2.36,1.38-4.27.29-4.26-2.47h0c-.01-2.67,1.9-5.98,4.26-7.37l131.54-75.93c2.35-1.36,4.25-.23,4.25,2.47h0Zm-29.62-2.56c.01-2.71-1.9-3.82-4.25-2.46l-101.92,58.82c-2.36,1.39-4.27,4.69-4.27,7.4h0c0,2.71,1.92,3.82,4.27,2.43l101.92-58.82c2.34-1.36,4.26-4.67,4.25-7.37h0Zm59.25-122.7c0,2.71-1.91,6.01-4.26,7.36l-161.17,93.07c-2.35,1.34-4.26.24-4.26-2.47h0c0-2.73,1.91-6.02,4.27-7.4l161.15-93.05c2.35-1.34,4.25-.23,4.26,2.49h0Zm-29.62,56.43c-.01,2.74-1.91,6.02-4.26,7.37l-131.55,75.96c-2.35,1.36-4.26.26-4.26-2.47h0c0-2.7,1.89-6.01,4.27-7.39l131.52-75.92c2.37-1.38,4.26-.25,4.28,2.45h0Zm-29.63-2.55c0-2.74-1.92-3.82-4.25-2.47l-101.92,58.82c-2.35,1.38-4.26,4.69-4.27,7.39h0c.03,2.72,1.91,3.82,4.27,2.47l101.92-58.86c2.35-1.33,4.25-4.64,4.25-7.35h0Zm-25.6-174.52c-29.87,17.29-54.08,59.18-54.09,93.62,0,34.45,24.22,48.4,54.1,31.15,29.87-17.25,54.08-59.15,54.08-93.61l-54.08,31.23v-62.4Z"/><path class="cls-4" d="m1267.59,374.52v62.37l54.08-31.21c.01-34.47-24.22-48.4-54.08-31.17Z"/><path class="cls-8" d="m625.28,211.8V63.27c35.51-20.52,67.66-22.5,90.95-9.14l29.7,17.15c23.31,13.41,37.74,42.22,37.74,83.25,0,82.04-57.64,181.8-128.77,222.87-35.49,20.51-67.65,22.48-90.95,9.14h0l-.11-.05h0s-29.62-17.11-29.62-17.11c-23.3-13.44-37.73-42.23-37.73-83.24l128.78-74.33Z"/><path class="cls-4" d="m625.28,211.8V63.27c35.51-20.52,67.66-22.5,90.95-9.14h0l29.72,17.17c-23.3-13.43-55.49-11.46-91.06,9.07v148.53l-128.8,74.33c.01,41.07,14.49,69.91,37.85,83.29h0s-29.72-17.15-29.72-17.15c-23.3-13.44-37.73-42.23-37.73-83.24l128.78-74.33Z"/><path class="cls-9" d="m597.34,398.47c-12.78,0-24.62-2.98-35.09-8.98-.05-.03-.1-.06-.15-.09l-29.58-17.08c-25.43-14.67-39.44-45.28-39.44-86.2,0-1.22.65-2.35,1.71-2.96l127.07-73.34V63.27c-.01-1.22.64-2.35,1.7-2.96,35.45-20.47,68.96-23.72,94.38-9.14l29.71,17.15c25.44,14.64,39.45,45.25,39.45,86.21,0,82.98-58.53,184.29-130.48,225.83-20.84,12.04-41.01,18.12-59.27,18.12Zm-31.64-14.89c23.22,13.28,54.29,10.03,87.5-9.15,70.06-40.45,127.06-139.1,127.06-219.91,0-38.41-12.79-66.92-36.03-80.28l-29.7-17.15c-22.8-13.08-53.23-10.17-85.83,8.16v146.54c.01,1.22-.64,2.35-1.7,2.96l-127.06,73.34c.43,37.38,13.18,65.14,36,78.31l29.62,17.1s.09.06.14.08Z"/><polygon class="cls-1" points="654.9 80.37 625.27 63.27 625.28 211.8 654.9 228.9 654.9 80.37"/><polygon class="cls-3" points="496.5 286.13 526.1 303.23 654.9 228.9 625.28 211.8 496.5 286.13"/><path class="cls-7" d="m601.6,49.63l29.62,17.09v148.51l-128.79,74.34-29.62-17.09c.01-82.01,57.66-181.79,128.78-222.86Z"/><path class="cls-10" d="m601.6,49.63l29.62,17.09c-71.14,41.08-128.77,140.85-128.79,222.86l-29.62-17.09c.01-82.01,57.66-181.79,128.78-222.86Z"/><path class="cls-9" d="m502.43,292.99c-.59,0-1.18-.15-1.71-.46l-29.62-17.09c-1.06-.61-1.71-1.74-1.71-2.96.01-82.98,58.55-184.28,130.49-225.82,1.06-.61,2.36-.61,3.42,0l29.62,17.09c1.06.61,1.71,1.74,1.71,2.96v148.51c0,1.22-.65,2.35-1.71,2.96l-128.79,74.34c-.53.3-1.12.46-1.71.46Zm-26.18-22.47l26.18,15.11,125.37-72.37V68.69l-26.19-15.11c-68.71,40.72-124.44,137.16-125.36,216.93Z"/><path class="cls-4" d="m404.37,677.9c-35.17-20.28-92.26-20.28-127.5.09-35.2,20.29-35.25,53.29-.04,73.57,35.16,20.33,92.26,20.33,127.49-.04,35.21-20.32,35.21-53.29.05-73.62Z"/><path class="cls-7" d="m364.3,660.5c-13.08-7.55-34.3-7.55-47.41.04-13.11,7.53-13.12,19.81-.03,27.36,13.08,7.56,34.32,7.56,47.42-.01,13.11-7.56,13.11-19.83.01-27.39Z"/><path class="cls-9" d="m340.55,697.04c-9.14,0-18.28-2.06-25.4-6.17-7.43-4.29-11.52-10.2-11.52-16.65,0-6.45,4.11-12.36,11.56-16.64,14.24-8.24,36.57-8.26,50.82-.04h0c7.44,4.3,11.53,10.21,11.53,16.66,0,6.45-4.1,12.36-11.54,16.66-7.13,4.12-16.29,6.18-25.44,6.18Zm.09-38.81c-7.98,0-15.96,1.76-22.04,5.28-5.24,3.01-8.13,6.82-8.13,10.72,0,3.9,2.87,7.7,8.1,10.72,12.13,7.01,31.86,7.01,44.01-.01,5.24-3.02,8.12-6.83,8.12-10.73s-2.88-7.71-8.11-10.73c-6.05-3.49-14-5.24-21.94-5.24Z"/><path class="cls-7" d="m372.8,636.7c-17.76-10.23-46.6-10.23-64.41.04-17.78,10.25-17.81,26.92-.03,37.16,17.77,10.28,46.61,10.28,64.42-.01,17.78-10.27,17.78-26.92.01-37.19Z"/><path class="cls-9" d="m340.55,684.96c-12.28,0-24.55-2.7-33.89-8.1-9.69-5.58-15.03-13.23-15.03-21.52s5.35-15.97,15.06-21.56c18.71-10.79,49.13-10.81,67.82-.04,0,0,0,0,0,0,9.7,5.6,15.03,13.26,15.03,21.56,0,8.3-5.35,15.95-15.05,21.56-9.36,5.41-21.66,8.11-33.95,8.11Zm.11-52.56c-11.06,0-22.13,2.43-30.55,7.29-7.51,4.33-11.64,9.88-11.64,15.64,0,5.75,4.12,11.29,11.61,15.6,16.81,9.72,44.17,9.72,61-.01,7.5-4.33,11.63-9.88,11.63-15.64s-4.12-11.3-11.61-15.63h0c-8.39-4.83-19.41-7.25-30.44-7.25Z"/><path class="cls-7" d="m372.8,617.81c-17.76-10.25-46.6-10.25-64.41.04-17.78,10.25-17.81,26.91-.03,37.15,17.77,10.27,46.61,10.27,64.42-.01,17.78-10.27,17.78-26.9.01-37.18Z"/><path class="cls-9" d="m340.55,666.06c-12.28,0-24.55-2.7-33.89-8.1-9.69-5.58-15.03-13.23-15.03-21.52s5.35-15.96,15.06-21.56c18.71-10.81,49.14-10.82,67.82-.04t0,0c9.7,5.6,15.03,13.26,15.03,21.55,0,8.29-5.35,15.95-15.05,21.55-9.36,5.41-21.66,8.11-33.95,8.11Zm.11-52.55c-11.06,0-22.13,2.43-30.55,7.3-7.51,4.33-11.64,9.88-11.64,15.63,0,5.74,4.12,11.28,11.61,15.6,16.8,9.72,44.17,9.71,61-.01,7.5-4.33,11.63-9.88,11.63-15.63s-4.12-11.3-11.62-15.63c-8.39-4.84-19.41-7.26-30.43-7.26Z"/><path class="cls-8" d="m340.58,400.7c-51.9,0-93.98,42.08-93.98,93.98,0,20.49,6.57,39.46,17.7,54.91,17.06,23.66,23.26,28.03,23.26,62.04h0v.03c.01,7.83,5.2,15.66,15.54,21.63,10.37,5.97,23.93,8.98,37.49,8.98s27.13-3.01,37.5-8.98c10.34-5.97,15.52-13.8,15.54-21.63h0v-.03c0-34.01,6.2-38.38,23.26-62.04,11.13-15.44,17.7-34.41,17.7-54.91,0-51.9-42.08-93.98-94-93.98Z"/><path class="cls-4" d="m430.74,521.12c-14.87,24.87-41.97,41.59-73.05,41.59-47.01,0-85.13-38.11-85.13-85.12,0-31.07,16.71-58.19,41.59-73.05-39.02,11.44-67.56,47.42-67.56,90.15,0,19.92,6.24,38.35,16.81,53.56,0-.01-.01-.03-.03-.04.32.45.6.93.92,1.39,17.06,23.66,23.26,28.03,23.26,62.04h0v.03c0,.3.07.59.08.87h0c.09,1.88.48,3.77,1.16,5.61.01.01.01.03.03.04.33.91.73,1.79,1.22,2.68.05.07.11.15.15.23.45.81.96,1.63,1.55,2.43.12.16.27.32.39.48.55.71,1.09,1.42,1.74,2.11.25.27.55.52.82.79.57.58,1.15,1.16,1.79,1.72.47.4,1.02.79,1.52,1.19.52.4.99.81,1.55,1.2,1.11.79,2.3,1.54,3.55,2.27,10.37,5.97,23.93,8.98,37.49,8.98s27.13-3.01,37.5-8.98c9.97-5.74,15.08-13.22,15.46-20.76-2.32,5.36-7.05,10.43-14.31,14.63-10.18,5.88-23.38,8.86-36.71,9.14,6.92-71.55,31.85-40.2,63.68-72.03,2.95-4.21,6.48-8.86,10.67-14.67.32-.45.6-.93.92-1.39-.07.09-.15.19-.21.28,5.76-8.26,10.26-17.46,13.16-27.36Z"/><path class="cls-9" d="m340.58,645.68c-14.71,0-28.63-3.35-39.19-9.43-11.11-6.42-17.23-15.15-17.25-24.59,0-29.3-4.41-35.3-17.51-53.09-1.58-2.15-3.28-4.46-5.1-6.98-12-16.66-18.35-36.33-18.35-56.91,0-53.71,43.7-97.4,97.4-97.4s97.42,43.69,97.42,97.4c0,20.57-6.34,40.25-18.35,56.9-1.82,2.53-3.52,4.84-5.1,6.99-13.1,17.79-17.51,23.78-17.51,53.05-.01,9.47-6.14,18.2-17.25,24.62-10.56,6.08-24.49,9.43-39.21,9.43Zm0-241.56c-49.94,0-90.56,40.63-90.56,90.56,0,19.13,5.9,37.42,17.05,52.91,1.81,2.51,3.5,4.8,5.06,6.93,13.32,18.1,18.84,25.59,18.84,57.11.01,6.92,4.92,13.55,13.83,18.69,9.54,5.49,22.24,8.52,35.78,8.52s26.25-3.03,35.79-8.52c8.9-5.14,13.81-11.77,13.82-18.67,0-31.53,5.51-39.03,18.84-57.13,1.57-2.13,3.26-4.42,5.07-6.93,11.16-15.48,17.06-33.78,17.06-52.9,0-49.94-40.63-90.56-90.58-90.56Z"/><path class="cls-4" d="m295.04,966.71c-1.13-5.68-3.71-11.18-7.59-16.37-13.76.66-27.87-2.05-38.37-8.1-10.5-6.06-15.18-14.21-14.05-22.13-4.45-1.12-9.03-2.11-13.85-2.85-4.83-.75-9.69-1.22-14.49-1.54-5.92,7.19-17.03,12.89-31.38,15.12-14.36,2.23-28.92.48-40.26-4.03-7.86,3.37-14.84,7.39-20.76,11.97,7.83,6.56,10.85,14.96,6.99,23.26-1.16,2.5-2.92,4.79-5.08,6.92-5.02,4.94-12.44,8.83-21.16,11.22,1.15,5.68,3.71,11.18,7.57,16.34,13.75-.64,27.87,2.05,38.39,8.12,10.49,6.07,15.15,14.19,14.03,22.13,4.47,1.11,9.06,2.11,13.88,2.86,4.84.75,9.66,1.2,14.48,1.54,5.92-7.2,17.02-12.91,31.38-15.14,14.37-2.23,28.92-.48,40.27,4.05,7.84-3.37,14.85-7.4,20.79-11.98-7.85-6.56-10.87-14.95-7.01-23.26,3.86-8.31,13.77-14.72,26.24-18.13Zm-53,13.99c-1.86,3.97-5.13,7.5-9.36,10.47-.17.12-.33.24-.51.35-.65.46-1.34.9-2.03,1.31-.23.14-.44.26-.67.39-.71.4-1.42.8-2.16,1.19-.33.17-.7.33-1.04.49-.05.03-.11.06-.16.08-.28.13-.56.28-.84.41-1.28.59-2.62,1.13-3.99,1.66-11.13,4.14-25.07,5.68-38.85,3.54-9.15-1.41-16.89-4.29-22.88-8,.72.44,1.39.94,2.16,1.35-.84-.45-1.56-.96-2.35-1.46-.41-.25-.85-.51-1.26-.78-.31-.21-.65-.41-.96-.63-.4-.29-.73-.61-1.12-.92-.95-.73-1.88-1.48-2.71-2.28-.07-.07-.16-.12-.23-.19.01,0,.03-.01.03-.03-6.36-6.25-8.58-13.89-5.06-21.47,6.97-14.99,33.66-23.9,59.62-19.89,25.96,4.01,41.36,19.41,34.39,34.4Z"/><path class="cls-6" d="m295.04,860.73c-1.13-5.68-3.71-11.18-7.59-16.36-13.76.65-27.87-2.05-38.37-8.1-10.5-6.06-15.18-14.21-14.05-22.13-4.45-1.12-9.03-2.11-13.85-2.85-4.83-.75-9.69-1.22-14.49-1.54-5.92,7.19-17.03,12.89-31.38,15.12-14.36,2.23-28.92.48-40.26-4.04-7.86,3.37-14.84,7.39-20.76,11.97v28.38c.69.59,1.3,1.19,1.91,1.8-5.02,4.94-12.44,8.83-21.16,11.22v28.38c1.15,5.68,3.71,11.19,7.57,16.35,13.75-.64,27.87,2.05,38.39,8.11,10.49,6.06,15.15,14.2,14.03,22.14,4.47,1.11,9.06,2.1,13.88,2.85,4.84.75,9.66,1.2,14.48,1.53,5.92-7.2,17.02-12.89,31.38-15.12,14.37-2.24,28.92-.49,40.27,4.04,7.84-3.37,14.85-7.39,20.79-11.98v-28.38c-.69-.59-1.31-1.2-1.92-1.8,5.02-4.94,12.44-8.82,21.15-11.21v-28.38Zm-141.97,20.98c10.79-10.69,32.92-16.35,54.59-13,12.85,1.98,23.11,6.76,29.35,12.9-10.81,10.69-32.93,16.35-54.59,13-12.86-1.99-23.11-6.77-29.35-12.9Z"/><path class="cls-10" d="m220.89,891.22c6.53-2.38,12.12-5.64,16.12-9.61-6.24-6.15-16.5-10.93-29.35-12.9-21.67-3.35-43.79,2.31-54.59,13,2.34,2.3,5.24,4.41,8.63,6.25-12.63-6.87-18.48-17.39-13.67-27.75,6.97-14.99,33.66-23.9,59.62-19.89,25.96,4.01,41.36,19.41,34.39,34.4-3.33,7.13-11.13,12.86-21.16,16.5Zm-6.12,18.84c-14.36,2.23-25.46,7.94-31.38,15.14-4.82-.33-9.64-.79-14.48-1.53-4.82-.75-9.4-1.75-13.88-2.86,1.12-7.94-3.54-16.06-14.03-22.13-10.53-6.08-24.65-8.76-38.39-8.12-3.86-5.16-6.43-10.66-7.57-16.34v28.38c1.15,5.68,3.71,11.19,7.57,16.35,13.75-.64,27.87,2.05,38.39,8.11,10.49,6.06,15.15,14.2,14.03,22.14,4.47,1.11,9.06,2.1,13.88,2.85,4.84.75,9.66,1.2,14.48,1.53,5.92-7.2,17.02-12.89,31.38-15.12,14.37-2.24,28.92-.49,40.27,4.04,7.84-3.37,14.85-7.39,20.79-11.98v-28.38c-5.93,4.58-12.95,8.62-20.79,11.98-11.34-4.53-25.89-6.28-40.27-4.05Zm80.28-49.32c-12.46,3.41-22.38,9.82-26.24,18.13-3.86,8.31-.84,16.7,7.01,23.26-.69-.59-1.31-1.2-1.92-1.8,5.02-4.94,12.44-8.82,21.15-11.21v-28.38Zm-173.78-4.66c3.86-8.3.84-16.7-6.99-23.26v28.38c.69.59,1.3,1.19,1.91,1.8,2.15-2.13,3.91-4.42,5.08-6.92Z"/><path class="cls-5" d="m183.39,956.98c-.08,0-.16,0-.24,0-5.68-.39-10.37-.89-14.77-1.57-4.48-.69-8.98-1.62-14.18-2.9-1.7-.42-2.81-2.06-2.56-3.8.96-6.79-3.54-13.6-12.35-18.7-9.55-5.5-22.87-8.31-36.52-7.65-1.11.05-2.22-.46-2.9-1.37-4.19-5.59-6.94-11.55-8.19-17.72-.05-.22-.07-.45-.07-.68v-28.38c0-1.54,1.03-2.89,2.52-3.3,6.87-1.88,12.72-4.67,17.13-8.13-.26-.49-.39-1.03-.39-1.59v-28.38c0-1.06.49-2.06,1.33-2.7,6.13-4.75,13.37-8.92,21.51-12.41.83-.36,1.77-.37,2.61-.03,11.26,4.49,25.27,5.88,38.47,3.83,12.98-2.02,23.64-7.09,29.26-13.92.7-.85,1.76-1.3,2.87-1.24,5.5.37,10.34.88,14.79,1.57,4.45.68,9.09,1.63,14.17,2.91,1.7.43,2.79,2.06,2.55,3.8-.96,6.78,3.55,13.59,12.38,18.69,9.55,5.5,22.83,8.28,36.49,7.64,1.14-.1,2.22.46,2.9,1.37,4.22,5.64,6.98,11.61,8.2,17.74.04.22.07.45.07.67v28.38c0,1.54-1.03,2.89-2.52,3.3-6.86,1.88-12.7,4.66-17.1,8.11.26.49.4,1.04.4,1.6v28.38c0,1.06-.49,2.06-1.33,2.7-6.11,4.73-13.36,8.91-21.53,12.42-.83.36-1.77.37-2.62.03-11.26-4.49-25.28-5.9-38.47-3.83-12.99,2.02-23.66,7.09-29.27,13.91-.65.79-1.62,1.25-2.64,1.25Zm-24.78-10.46c3.86.9,7.36,1.58,10.82,2.12,3.76.58,7.77,1.02,12.51,1.38,6.87-7.41,18.51-12.82,32.31-14.97,13.85-2.16,28.59-.8,40.71,3.72,6.54-2.9,12.4-6.25,17.45-9.99v-25.16c-.24-.23-.47-.46-.7-.68l-.19-.19c-.66-.64-1.03-1.52-1.03-2.44,0-.92.37-1.8,1.02-2.44,4.91-4.83,11.83-8.72,20.13-11.33v-25.47c-.95-4.51-2.92-8.95-5.88-13.22-14.3.33-28.16-2.74-38.37-8.62-10.14-5.86-15.8-13.91-15.93-22.45-3.8-.9-7.35-1.59-10.78-2.11-3.8-.59-7.91-1.05-12.53-1.39-6.88,7.41-18.52,12.83-32.31,14.97-13.85,2.15-28.59.79-40.71-3.72-6.51,2.89-12.36,6.24-17.42,9.98v25.17c.3.29.59.58.89.87.65.65,1.02,1.53,1.01,2.44,0,.91-.36,1.79-1.01,2.43-4.92,4.84-11.85,8.74-20.14,11.34v25.47c.97,4.54,2.94,8.98,5.86,13.22,14.29-.37,28.19,2.75,38.39,8.63,10.12,5.85,15.77,13.9,15.9,22.45Zm36.19-47.56c-4.29,0-8.63-.32-12.9-.98-13.12-2.03-24.21-6.95-31.22-13.85-.65-.64-1.02-1.52-1.02-2.43,0-.91.36-1.79,1.01-2.44,11.75-11.63,35.4-17.37,57.51-13.95,13.12,2.02,24.21,6.94,31.23,13.85.65.64,1.02,1.52,1.02,2.43,0,.92-.37,1.79-1.02,2.44-9.49,9.38-26.71,14.93-44.61,14.93Zm-36.53-17.27c6.03,4.64,14.64,7.98,24.67,9.54,18.43,2.85,37.81-1.08,48.86-9.62-6.03-4.64-14.63-7.98-24.67-9.53-18.44-2.84-37.82,1.08-48.86,9.61Z"/><path class="cls-4" d="m1379.06,1210.75c9.8-5.65,9.79-14.83-.03-20.5l-144.13-83.23c-9.81-5.67-25.72-5.67-35.52,0l-367.23,211.8c-9.78,5.65-9.78,14.83.03,20.51l144.15,83.21c9.81,5.68,25.72,5.65,35.51.01l367.23-211.81Z"/><path class="cls-7" d="m824.82,1219.56v-27.29c-.03-3.69,2.43-7.4,7.33-10.23l367.23-211.8c9.8-5.66,25.72-5.66,35.52,0l144.13,83.23c4.9,2.83,7.36,6.55,7.36,10.27v26.84h-.08c.24,3.9-2.15,7.79-7.25,10.76l-367.23,211.81c-9.78,5.62-25.7,5.65-35.52-.01l-144.13-83.23c-4.93-2.85-7.39-6.63-7.35-10.34h-.01Z"/><path class="cls-10" d="m1232.29,1004.58l-337.85,195.07c17.86-10.34-2.38-29.56-12.38-46.4l275.03-158.63c29.98,8.85,60.58,18.41,75.21,9.95Z"/><path class="cls-10" d="m832.15,1182.03c-9.78,5.65-9.78,14.83.03,20.51l144.15,83.22c9.81,5.68,25.72,5.65,35.51.01l367.23-211.81c4.89-2.83,7.33-6.53,7.33-10.23h0v26.85h-.08c.24,3.9-2.15,7.79-7.25,10.76l-367.23,211.81c-9.78,5.62-25.7,5.65-35.52-.01l-144.13-83.23c-4.93-2.85-7.39-6.63-7.35-10.34h-.01v-27.29c-.03-3.69,2.43-7.4,7.33-10.23Z"/><path class="cls-9" d="m994.08,1320.81c-7.01,0-14.02-1.58-19.48-4.73l-144.14-83.23c-5.68-3.28-8.96-7.99-9.06-12.99-.01-.1-.01-.21-.01-.32v-27.29c-.04-5.11,3.18-9.8,9.04-13.19l367.23-211.8c10.92-6.31,28.02-6.31,38.94,0l144.13,83.23c5.85,3.38,9.07,8.08,9.07,13.24v26.84c0,.23-.02.45-.06.66-.05,5.02-3.28,9.74-8.97,13.05l-367.24,211.82c-5.46,3.14-12.46,4.71-19.46,4.71Zm-165.85-101.55c.01.11.01.22.01.33-.03,2.58,2.03,5.26,5.64,7.34l144.13,83.23c8.69,5.02,23.39,5.02,32.11.01l367.23-211.81c3.74-2.18,5.72-4.87,5.55-7.57-.02-.33,0-.65.07-.95v-26.11c0-2.57-2.06-5.24-5.65-7.32l-144.13-83.22c-8.7-5.03-23.4-5.03-32.1,0l-367.23,211.8c-3.59,2.08-5.64,4.72-5.62,7.25v27.02Zm0,.29h.02-.02Z"/><path class="cls-4" d="m950.51,1090.32c18.92-10.9,31.9.39,56.33-13.72,28.15-16.26,28.15-67.49,56.3-83.76,7.72-4.46,13.32-4.01,17.98-1.36h0s.27.13.27.13c.04.01.08.06.11.06l17.12,9.9h-.03c.28.16.52.37.79.54-.03-.03-.07-.04-.11-.07,4.92,2.97,8.83,8.26,13.06,12.8-.76-.81-1.52-1.66-2.27-2.51,2.75-.26,5.85-1.26,9.38-3.31,28.15-16.25,36.54-61.23,56.3-72.62,4.06-2.34,7.51-2.19,10.58-.36l.03-.05,17.3,9.99v.06s-.02-.01-.02-.01c18.53,9.87,21.87,82.92,46.16,68.88l-337.87,195.07-17.77-10.26c28.19-16.26,28.17-93.1,56.35-109.37Z"/><path class="cls-1" d="m1193.52,946.64c-19.75,11.38-28.15,56.36-56.28,72.62-13.43,7.75-20.44.75-27.16-6.95,2.75-.26,5.85-1.26,9.38-3.31,28.15-16.25,36.54-61.23,56.3-72.62,4.06-2.34,7.51-2.19,10.58-.36l.03-.05,17.3,9.99v.06c-2.95-1.58-6.28-1.59-10.14.63Zm-299.35,253.05l17.77,10.26c28.17-16.27,28.17-93.1,56.33-109.36,18.93-10.93,31.93.36,56.35-13.73,28.15-16.27,28.13-67.5,56.3-83.75,8.02-4.65,13.72-3.93,18.48-1.01-.27-.16-.51-.37-.79-.54h.03l-17.12-9.9s-.07-.04-.11-.06l-.27-.15h0c-4.66-2.63-10.26-3.08-17.98,1.38-28.15,16.27-28.15,67.51-56.3,83.76-24.43,14.11-37.42,2.82-56.33,13.72-28.18,16.27-28.16,93.11-56.35,109.37Z"/><path class="cls-9" d="m911.93,1213.37c-.59,0-1.18-.15-1.71-.46l-17.77-10.26c-1.06-.61-1.71-1.74-1.71-2.96s.65-2.35,1.71-2.96c12.92-7.45,19.89-30.47,26.62-52.72,7.12-23.52,14.47-47.84,29.73-56.65t0,0c9.59-5.52,17.94-5.79,26.03-6.05,8.87-.29,18.04-.58,30.3-7.66,13.07-7.55,19.69-23.43,26.71-40.23,7.14-17.11,14.52-34.81,29.59-43.52,7.82-4.52,14.73-5.02,21.09-1.54.08.04.16.08.25.12l.2.11c.08.04.16.08.24.13l17.12,9.9c.14.08.27.17.39.26.1.07.2.14.3.21h0s.02.02.03.03c3.98,2.4,7.24,6,10.36,9.55,1.97-.43,4.09-1.3,6.32-2.6,14.5-8.37,23.87-25.54,32.13-40.68,7.37-13.51,14.34-26.27,24.18-31.95,4.7-2.71,9.22-2.94,13.43-.68.21.07.41.16.6.27l17.3,9.99c.15.09.3.19.43.3,8.65,5.12,13.72,20.32,19.09,36.4,4.78,14.33,10.19,30.57,17.12,33.2,1.14.43,3.01.8,6.09-.97h0c1.64-.95,3.72-.39,4.67,1.25.94,1.63.39,3.73-1.25,4.67-.01,0-.03.02-.04.03l-337.82,195.05c-.53.3-1.12.46-1.71.46Zm-11.49-14l11.49,6.63,325.35-187.85c-8.54-5.25-13.58-20.37-18.89-36.3-4.58-13.75-9.78-29.33-16.36-32.84-.2-.11-.39-.23-.56-.37l-16.29-9.41c-.21-.07-.41-.16-.6-.28-1.48-.89-3.63-1.63-7.12.39-8.17,4.71-14.69,16.65-21.59,29.3-8.7,15.94-18.56,34-34.7,43.32-1.83,1.07-3.64,1.92-5.41,2.54.1,1.02-.26,2.06-1.07,2.82-1.37,1.29-3.54,1.22-4.83-.16-.79-.84-1.58-1.71-2.35-2.6-.03-.03-.06-.07-.09-.1-.23-.26-.46-.53-.69-.79-3.01-3.42-5.85-6.64-9.05-8.62-.01,0-.02-.01-.03-.02-.06-.04-.12-.07-.18-.11-.03-.02-.06-.04-.08-.05-.13-.08-.25-.17-.37-.26-.13-.07-.26-.16-.37-.25l-16.72-9.67s-.07-.03-.1-.05c-.02-.01-.04-.02-.06-.03h0c-.11-.05-.21-.1-.31-.16-2.88-1.64-7.14-2.96-14.58,1.35-13.07,7.55-19.69,23.43-26.7,40.24-7.14,17.12-14.52,34.82-29.6,43.52-13.75,7.94-24.24,8.28-33.51,8.58-7.9.25-14.73.47-22.83,5.15-12.91,7.46-19.87,30.46-26.6,52.71-6.37,21.05-12.93,42.74-25.17,53.38Z"/><path class="cls-8" d="m968.27,1118.52c24.65-14.23,31.93,2.93,56.35-11.18,28.15-16.26,28.13-115.29,56.3-131.55,4.25-2.44,7.85-2.26,11.02-.24v-.03l17.22,9.95v.03c15.07,8.42,29.29,61.92,26.91,57.36.39-.19.76-.3,1.18-.53,28.13-16.26,28.13-53.83,56.28-70.08,5.32-3.07,9.62-2.89,13.32-.66l17.51,10.11c16.05,9.17,20.27,56.71,43.22,43.43l-337.85,195.07-17.78-10.26c28.17-16.27,28.19-75.17,56.33-91.43Z"/><path class="cls-1" d="m1211.3,982.51c-28.15,16.24-28.16,53.84-56.31,70.07-8.27,4.77-14.09-.44-18.93-9.71.39-.19.76-.3,1.18-.53,28.13-16.26,28.13-53.83,56.28-70.08,5.32-3.07,9.62-2.89,13.32-.66l17.54,10.14c-3.64-2.11-7.87-2.23-13.08.78Zm-299.37,227.44l17.78,10.26c28.17-16.26,28.17-75.17,56.35-91.42,24.62-14.23,31.89,2.91,56.31-11.2,28.18-16.26,28.16-115.3,56.31-131.55,4.01-2.31,7.43-2.24,10.46-.55v-.03s-17.21-9.95-17.21-9.95v.03c-3.17-2.02-6.77-2.2-11.02.24-28.16,16.26-28.15,115.29-56.3,131.55-24.42,14.11-31.7-3.05-56.35,11.18-28.15,16.26-28.16,75.16-56.33,91.43Z"/><path class="cls-9" d="m929.71,1223.63c-.59,0-1.18-.15-1.71-.46l-17.78-10.26c-1.06-.61-1.71-1.74-1.71-2.96s.65-2.35,1.71-2.96c13.03-7.52,19.97-26.05,26.69-43.97,7.14-19.04,14.51-38.72,29.65-47.46h0c13.29-7.67,22.35-6.82,30.34-6.07,7.59.72,14.77,1.39,26.01-5.11,12.81-7.4,19.78-35.97,26.53-63.61,7.41-30.38,14.42-59.08,29.77-67.94,6.17-3.54,11.05-2.26,14.17-.41.09.04.19.09.28.14l17.22,9.95c.14.08.27.17.4.27,12.42,7.57,23.77,40.58,27.31,54.67,11.21-7.71,17.32-19.41,23.77-31.74,7.14-13.67,14.53-27.8,29.47-36.43,6.03-3.49,11.69-3.7,16.79-.62l17.45,10.08c7.12,4.07,11.87,14.01,16.47,23.62,4.58,9.58,9.31,19.48,15.35,21.36,2.31.72,4.91.22,7.93-1.51l.06-.04c1.64-.94,3.73-.38,4.67,1.25.95,1.63.39,3.72-1.25,4.67-.01,0-.03.02-.04.03l-337.81,195.05c-.53.3-1.12.46-1.71.46Zm-11.4-13.94l11.4,6.57,323.8-186.96c-7.54-3.84-12.43-14.07-17.16-23.99-4.14-8.66-8.42-17.62-13.7-20.64l-17.52-10.12c-2.02-1.22-4.93-2.22-9.89.65-13.22,7.63-19.83,20.28-26.83,33.67-7.14,13.66-14.53,27.79-29.45,36.41-.01,0-.03.02-.05.03-.53.63-1.28,1.07-2.11,1.2-.58.09-2.57.21-3.76-2.07-.39-.74-.49-1.6-.29-2.41-1.6-8.11-13.89-47.2-25.27-53.55-.15-.08-.29-.18-.43-.28l-16.47-9.52c-.17-.07-.33-.16-.48-.26-1.53-.98-3.76-1.82-7.48.32-12.81,7.4-19.79,35.99-26.54,63.63-7.41,30.37-14.41,59.06-29.75,67.91-13.13,7.58-21.74,6.77-30.07,5.99-7.65-.72-14.87-1.4-26.28,5.19-13.01,7.51-19.95,26.03-26.66,43.94-6.36,16.98-12.92,34.47-25,44.27Z"/><path class="cls-4" d="m986.29,1151.58c24.63-14.23,31.88,4.98,56.31-9.13,28.16-16.26,19.02-46.02,47.16-62.28,28.16-16.29,41.47.01,65.47-14.1,27.99-16.48,23.46-26.94,43.3-38.49,28.09-16.36,41.13,13.82,69.28-2.47l41.46,23.95-337.87,195.07-41.48-23.95c28.2-16.24,28.19-52.38,56.36-68.61Z"/><path class="cls-1" d="m1239.99,1051.54c-19.84,11.54-15.31,22-43.31,38.49-23.99,14.09-37.3-2.18-65.46,14.09-28.15,16.26-19,46.02-47.16,62.27-24.44,14.11-31.69-5.1-56.31,9.11-28.17,16.26-28.16,52.4-56.35,68.65l-41.48-23.95c28.2-16.24,28.19-52.38,56.36-68.61,24.63-14.23,31.88,4.98,56.31-9.13,28.16-16.26,19.02-46.02,47.16-62.28,28.16-16.29,41.47.01,65.47-14.1,27.99-16.48,23.46-26.94,43.3-38.49,28.09-16.36,41.13,13.82,69.28-2.47l41.46,23.95c-28.13,16.27-41.2-13.91-69.28,2.46Z"/><path class="cls-9" d="m971.41,1247.57c-.59,0-1.18-.15-1.71-.46l-41.48-23.96c-1.06-.61-1.71-1.74-1.71-2.96,0-1.22.65-2.35,1.71-2.96,13.26-7.64,19.88-19.94,26.89-32.98,7.15-13.29,14.54-27.03,29.47-35.63,13.39-7.73,22.49-6.29,30.52-5.01,7.85,1.25,14.64,2.32,25.78-4.11,13.08-7.55,17.48-18.21,22.14-29.49,4.89-11.84,9.94-24.08,25.02-32.79,15.43-8.92,26.98-8.59,37.17-8.29,9.42.27,17.56.51,28.28-5.79,14.6-8.6,19.86-15.3,24.94-21.78,4.48-5.71,8.71-11.1,18.37-16.72,15.39-8.97,27.11-5.02,37.45-1.54,10.26,3.45,19.12,6.43,31.84-.93,1.06-.61,2.36-.61,3.42,0l41.46,23.95c1.06.61,1.71,1.74,1.71,2.96s-.65,2.35-1.71,2.96l-337.87,195.07c-.53.3-1.12.46-1.71.46Zm-34.94-27.55l34.94,20.18,331.03-191.12-34.66-20.02c-14.55,7.64-25.76,3.87-35.7.53-10.26-3.45-19.11-6.43-31.82.97-8.53,4.96-12.19,9.63-16.43,15.03-5.22,6.65-11.14,14.19-26.85,23.45-12.42,7.3-22.35,7.01-31.95,6.73-10.18-.3-19.8-.58-33.55,7.38-13.06,7.55-17.46,18.2-22.12,29.47-4.89,11.85-9.95,24.09-25.04,32.81-13.25,7.65-22.29,6.21-30.28,4.94-7.58-1.2-14.74-2.34-26.03,4.18t0,0c-13.24,7.63-19.86,19.93-26.86,32.95-6.34,11.78-12.87,23.92-24.67,32.53Zm49.83-68.44h.02-.02Z"/><polygon class="cls-8" points="1407.81 768.7 1482.72 811.94 1482.73 857.83 1415.01 896.93 1340.09 853.68 1340.09 807.79 1407.81 768.7"/><polygon class="cls-4" points="1415.01 896.93 1340.09 853.68 1340.09 807.79 1415 851.04 1415.01 896.93"/><g class="cls-11"><polygon class="cls-4" points="1482.73 857.83 1415.01 896.93 1415 851.04 1482.72 811.94 1482.73 857.83"/></g><path class="cls-9" d="m1415.01,900.35c-.59,0-1.18-.15-1.71-.46l-74.91-43.26c-1.06-.61-1.71-1.74-1.71-2.96v-45.89c0-1.22.65-2.35,1.71-2.96l67.72-39.09c1.06-.61,2.36-.61,3.42,0l74.9,43.24c1.06.61,1.71,1.74,1.71,2.96v45.89c0,1.22-.64,2.35-1.7,2.96l-67.72,39.1c-.53.3-1.12.46-1.71.46Zm-71.49-48.65l71.49,41.28,64.3-37.13v-41.94s-71.49-41.27-71.49-41.27l-64.3,37.12v41.94Z"/><polygon class="cls-8" points="588.32 1253.25 663.22 1296.49 663.22 1342.38 595.51 1381.48 520.59 1338.23 520.59 1292.34 588.32 1253.25"/><polygon class="cls-4" points="595.51 1381.48 520.59 1338.23 520.59 1292.34 595.51 1335.59 595.51 1381.48"/><g class="cls-11"><polygon class="cls-4" points="663.22 1342.38 595.51 1381.48 595.51 1335.59 663.22 1296.49 663.22 1342.38"/></g><path class="cls-9" d="m595.51,1384.9c-.59,0-1.18-.15-1.71-.46l-74.91-43.26c-1.06-.61-1.71-1.74-1.71-2.96v-45.89c0-1.22.65-2.35,1.71-2.96l67.73-39.09c1.05-.61,2.36-.61,3.42,0l74.9,43.24c1.06.61,1.71,1.74,1.71,2.96v45.89c0,1.22-.65,2.35-1.71,2.96l-67.72,39.1c-.53.3-1.12.46-1.71.46Zm-71.49-48.65l71.49,41.28,64.3-37.13v-41.94l-71.49-41.27-64.31,37.11v41.94Z"/><path class="cls-8" d="m293.45,1169.15c11.81-11.84,30.98-11.82,42.78,0,11.82,11.81,11.82,30.95,0,42.78-11.81,11.82-30.98,11.82-42.79,0-11.81-11.82-11.81-30.97,0-42.78Z"/><path class="cls-4" d="m326.3,1201.99c10.1-10.1,11.49-25.52,4.32-37.18,1.99,1.22,3.9,2.62,5.62,4.34,11.82,11.81,11.82,30.95,0,42.78-11.81,11.82-30.98,11.82-42.79,0-1.72-1.72-3.11-3.62-4.34-5.63,11.66,7.17,27.09,5.77,37.18-4.31Z"/><path class="cls-9" d="m314.85,1224.22c-9,0-17.45-3.5-23.82-9.87-13.12-13.14-13.12-34.49,0-47.61h0c6.35-6.37,14.81-9.87,23.8-9.88h0c9,0,17.45,3.51,23.82,9.88,13.12,13.11,13.13,34.47,0,47.61-6.36,6.36-14.82,9.87-23.81,9.87Zm0-60.51h0c-7.16,0-13.9,2.79-18.96,7.87h0c-10.45,10.46-10.45,27.47,0,37.94,5.07,5.07,11.81,7.87,18.98,7.87s13.91-2.79,18.97-7.87c10.46-10.47,10.46-27.49,0-37.94-5.07-5.08-11.81-7.87-18.98-7.87Zm-21.39,5.45h.02-.02Z"/><path class="cls-8" d="m1273.23,86.39c11.82-11.83,30.98-11.82,42.79,0,11.82,11.81,11.82,30.96,0,42.78-11.81,11.82-30.97,11.82-42.79,0-11.81-11.82-11.81-30.97,0-42.78Z"/><path class="cls-4" d="m1306.07,119.23c10.11-10.1,11.49-25.51,4.32-37.17,1.99,1.21,3.9,2.61,5.63,4.34,11.82,11.81,11.82,30.96,0,42.78-11.81,11.82-30.97,11.82-42.79,0-1.71-1.72-3.11-3.62-4.34-5.62,11.66,7.17,27.09,5.76,37.19-4.32Z"/><path class="cls-9" d="m1294.63,141.46c-9,0-17.45-3.5-23.81-9.87-13.12-13.13-13.12-34.49,0-47.61h0c6.36-6.36,14.82-9.87,23.82-9.87s17.45,3.51,23.81,9.87c6.36,6.36,9.86,14.81,9.86,23.8s-3.5,17.45-9.86,23.81c-6.36,6.36-14.81,9.87-23.81,9.87Zm0-60.51c-7.17,0-13.91,2.79-18.98,7.87h0c-10.45,10.46-10.45,27.48,0,37.94,5.07,5.07,11.81,7.87,18.98,7.87s13.91-2.79,18.97-7.87c5.07-5.07,7.86-11.81,7.86-18.97s-2.79-13.9-7.86-18.97c-5.07-5.07-11.81-7.87-18.98-7.87Zm-21.4,5.45h.02-.02Z"/></g></g></svg>