<?xml version="1.0" encoding="UTF-8"?><svg id="Layer_1" xmlns="http://www.w3.org/2000/svg" viewBox="0 0 113.17 118.35"><defs><style>.cls-1{fill:#5fc1a2;}.cls-1,.cls-2,.cls-3,.cls-4{stroke-width:0px;}.cls-2{fill:#191a5f;}.cls-3{fill:#b8a0f8;}.cls-4{fill:#8c73f6;}</style></defs><path class="cls-2" d="m56.16,30.71c-15.03.02-27.2,12.2-27.2,27.23h0c0,16.95,13.74,30.68,30.68,30.68h24.56v-33.69c-2.16.96-4.55,1.51-7.07,1.51-2.25,0-4.39-.44-6.36-1.22v20.07h-12.8c-8.61,0-15.59-6.98-15.59-15.59h0c0-8.61,6.98-15.59,15.59-15.59h2.52c-.49-1.61-.76-3.31-.76-5.08,0-3.02.77-5.86,2.13-8.34h-5.71Z"/><circle class="cls-1" cx="77.14" cy="39.04" r="8.29"/><path class="cls-3" d="m91.58,29.35c1.86,2.77,2.95,6.1,2.95,9.69,0,1.77-.27,3.47-.76,5.08h5.97v60.81h-40.38c-4.31,0-8.47-.61-12.42-1.71-.91,4.74-3.41,8.91-6.92,11.95,6.01,2.06,12.45,3.19,19.15,3.19h54V29.54l-21.59-.19Z"/><path class="cls-4" d="m18.33,79.63c-3.13-6.21-4.9-13.22-4.9-20.65h0c0-25.16,20.4-45.56,45.56-45.56h11.8v9.44c1.97-.78,4.11-1.22,6.36-1.22,2.52,0,4.91.55,7.07,1.51V0h-25.03C26.49,0,0,26.49,0,59.18h0c0,10.77,2.89,20.85,7.91,29.55,2.34-4.09,6.01-7.31,10.42-9.09Z"/><circle class="cls-1" cx="26.22" cy="99.21" r="11.85"/></svg>