<svg width="246" height="42" viewBox="0 0 246 42" fill="none" xmlns="http://www.w3.org/2000/svg">
<g id="Gewaer_Logo_White_Horizontal_Full 1" clip-path="url(#clip0_1_2113)">
<path id="Vector" d="M72.31 18.66V23.66H83.38C82.96 25.76 82.04 27.47 80.63 28.73C79.09 30.11 77.04 30.81 74.54 30.81C72.68 30.81 71 30.39 69.55 29.56C68.11 28.73 66.96 27.53 66.15 25.99C65.33 24.44 64.91 22.62 64.91 20.58C64.91 18.54 65.33 16.73 66.15 15.19C66.97 13.66 68.11 12.47 69.55 11.64C71 10.81 72.68 10.39 74.54 10.39C76.23 10.39 77.74 10.75 79.02 11.46C80.29 12.16 81.29 13.21 82.01 14.59L82.16 14.89H89.16L88.87 14.14C87.72 11.19 85.84 8.87003 83.28 7.26003C80.73 5.66003 77.79 4.84003 74.53 4.84003C71.68 4.84003 69.02 5.52003 66.62 6.86003C64.22 8.20003 62.29 10.09 60.89 12.48C59.49 14.87 58.78 17.59 58.78 20.59C58.78 23.59 59.49 26.32 60.89 28.7C62.29 31.09 64.21 32.97 66.6 34.32C68.98 35.66 71.65 36.34 74.53 36.34C77.21 36.34 79.68 35.73 81.88 34.54C84.07 33.35 85.88 31.73 87.25 29.72C87.4 29.5 87.55 29.27 87.69 29.04C89.13 26.68 89.8 23.93 89.81 21.16V18.67H72.32L72.31 18.66Z" fill="white"/>
<path id="Vector_2" d="M120.97 23.26H99.86C100.03 25.47 100.85 27.24 102.32 28.58C103.79 29.92 105.6 30.59 107.74 30.59C110.82 30.59 112.99 29.3 114.26 26.73H120.43C119.59 29.27 118.08 31.35 115.89 32.97C113.7 34.59 110.98 35.4 107.74 35.4C105.1 35.4 102.73 34.81 100.65 33.62C98.56 32.43 96.92 30.76 95.74 28.61C94.55 26.45 93.96 23.96 93.96 21.11C93.96 18.26 94.54 15.77 95.69 13.61C96.84 11.45 98.46 9.78999 100.55 8.61999C102.64 7.44999 105.04 6.85999 107.75 6.85999C110.46 6.85999 112.68 7.42999 114.72 8.55999C116.76 9.69999 118.35 11.29 119.48 13.35C120.62 15.41 121.18 17.77 121.18 20.44C121.18 21.48 121.11 22.41 120.98 23.25L120.97 23.26ZM115.2 18.65C115.17 16.54 114.41 14.86 112.94 13.59C111.47 12.32 109.65 11.68 107.47 11.68C105.5 11.68 103.81 12.31 102.41 13.56C101.01 14.81 100.17 16.51 99.9 18.65H115.19H115.2Z" fill="white"/>
<path id="Vector_3" d="M163.39 7.31L154.82 34.94H148.8L143.23 14.53L137.66 34.94H131.64L123.02 7.31H128.84L134.61 29.52L140.48 7.31H146.45L152.07 29.42L157.79 7.31H163.41H163.39Z" fill="white"/>
<path id="Vector_4" d="M166.98 13.63C168.13 11.49 169.7 9.82999 171.69 8.63999C173.68 7.44999 175.88 6.85999 178.28 6.85999C180.45 6.85999 182.35 7.28999 183.97 8.13999C185.59 8.98999 186.89 10.05 187.86 11.32V7.30999H193.63V34.94H187.86V30.83C186.89 32.13 185.57 33.22 183.9 34.09C182.23 34.96 180.32 35.39 178.18 35.39C175.81 35.39 173.63 34.78 171.66 33.56C169.69 32.34 168.12 30.64 166.97 28.45C165.82 26.26 165.24 23.78 165.24 21C165.24 18.22 165.82 15.77 166.97 13.63H166.98ZM186.69 16.14C185.9 14.74 184.88 13.67 183.61 12.93C182.34 12.2 180.97 11.83 179.5 11.83C178.03 11.83 176.66 12.19 175.39 12.91C174.12 13.63 173.09 14.68 172.31 16.07C171.52 17.46 171.13 19.1 171.13 21.01C171.13 22.92 171.52 24.59 172.31 26.02C173.1 27.46 174.13 28.55 175.42 29.3C176.71 30.05 178.07 30.43 179.51 30.43C180.95 30.43 182.35 30.06 183.62 29.33C184.89 28.6 185.92 27.52 186.7 26.1C187.49 24.68 187.88 23.02 187.88 21.11C187.88 19.2 187.49 17.55 186.7 16.15L186.69 16.14Z" fill="white"/>
<path id="Vector_5" d="M225.77 23.26H204.66C204.83 25.47 205.65 27.24 207.12 28.58C208.59 29.92 210.4 30.59 212.54 30.59C215.62 30.59 217.79 29.3 219.06 26.73H225.23C224.39 29.27 222.88 31.35 220.69 32.97C218.5 34.59 215.78 35.4 212.54 35.4C209.9 35.4 207.53 34.81 205.44 33.62C203.35 32.43 201.71 30.76 200.53 28.61C199.34 26.45 198.75 23.96 198.75 21.11C198.75 18.26 199.33 15.77 200.48 13.61C201.63 11.45 203.25 9.78999 205.34 8.61999C207.43 7.44999 209.83 6.85999 212.54 6.85999C215.25 6.85999 217.47 7.42999 219.51 8.55999C221.55 9.69999 223.14 11.29 224.27 13.35C225.41 15.41 225.97 17.77 225.97 20.44C225.97 21.48 225.9 22.41 225.77 23.25V23.26ZM220 18.65C219.97 16.54 219.21 14.86 217.74 13.59C216.27 12.32 214.45 11.68 212.27 11.68C210.3 11.68 208.61 12.31 207.21 13.56C205.81 14.81 204.97 16.51 204.7 18.65H219.99H220Z" fill="white"/>
<path id="Vector_6" d="M240.13 8.03999C241.52 7.24999 243.16 6.85999 245.07 6.85999V12.78H243.62C241.38 12.78 239.68 13.35 238.53 14.48C237.38 15.62 236.8 17.59 236.8 20.4V34.94H231.08V7.30999H236.8V11.32C237.64 9.91998 238.75 8.81999 240.13 8.03999Z" fill="white"/>
<path id="Vector_7" d="M19.5401 10.68C14.3101 10.68 10.0801 14.93 10.0801 20.15C10.0801 26.04 14.8601 30.82 20.7501 30.82H29.2901V19.1C28.5401 19.44 27.7101 19.63 26.8301 19.63C26.0501 19.63 25.3001 19.48 24.6201 19.21V26.19H20.1701C17.1801 26.19 14.7501 23.76 14.7501 20.77C14.7501 17.78 17.1801 15.35 20.1701 15.35H21.0501C20.8801 14.79 20.7901 14.2 20.7901 13.58C20.7901 12.53 21.0601 11.54 21.5301 10.68H19.5401Z" fill="white"/>
<path id="Vector_8" d="M26.83 16.46C28.4205 16.46 29.7099 15.1706 29.7099 13.58C29.7099 11.9894 28.4205 10.7 26.83 10.7C25.2394 10.7 23.95 11.9894 23.95 13.58C23.95 15.1706 25.2394 16.46 26.83 16.46Z" fill="white"/>
<path id="Vector_9" d="M31.8599 10.21C32.5099 11.17 32.8899 12.33 32.8899 13.58C32.8899 14.19 32.7999 14.79 32.6299 15.35H34.7099V36.5H20.6599C19.1599 36.5 17.7099 36.29 16.3399 35.9C16.0199 37.55 15.1499 39 13.9299 40.06C16.0199 40.78 18.2599 41.17 20.5899 41.17H39.3699V10.28L31.8599 10.21Z" fill="white"/>
<path id="Vector_10" d="M6.38 27.7C5.29 25.54 4.67 23.1 4.67 20.52C4.67 11.77 11.76 4.67 20.52 4.67H24.62V7.95C25.31 7.68 26.05 7.53 26.83 7.53C27.71 7.53 28.54 7.72 29.29 8.06V0H20.58C9.22 0 0 9.22 0 20.58C0 24.32 1 27.83 2.75 30.86C3.57 29.44 4.84 28.32 6.37 27.7H6.38Z" fill="white"/>
<path id="Vector_11" d="M9.12 38.63C11.3954 38.63 13.24 36.7854 13.24 34.51C13.24 32.2346 11.3954 30.39 9.12 30.39C6.84459 30.39 5 32.2346 5 34.51C5 36.7854 6.84459 38.63 9.12 38.63Z" fill="white"/>
</g>
<defs>
<clipPath id="clip0_1_2113">
<rect width="245.07" height="41.17" fill="white"/>
</clipPath>
</defs>
</svg>
