<?xml version="1.0" encoding="UTF-8"?><svg xmlns="http://www.w3.org/2000/svg" viewBox="0 0 1461.49 1426.8"><defs><style>.cls-1{opacity:.7;}.cls-1,.cls-2,.cls-3,.cls-4,.cls-5,.cls-6,.cls-7,.cls-8{stroke-width:0px;}.cls-1,.cls-2,.cls-8{mix-blend-mode:overlay;}.cls-2{opacity:.2;}.cls-9{isolation:isolate;}.cls-3{fill:#763af7;}.cls-4{fill:#c0a9fd;}.cls-5{fill:#906ffd;}.cls-6{fill:#fff;}.cls-7{fill:#e5ddff;}.cls-8{opacity:.3;}</style></defs><g class="cls-9"><g id="_1"><path class="cls-7" d="m991.47,1297.48c-14.79,8.53-38.77,8.52-53.56-.02L210.2,877.31c-14.82-8.56-14.82-22.4-.05-30.92l458.94-264.98c14.77-8.53,38.74-8.52,53.56.01l727.72,420.17c14.81,8.55,14.81,22.39.02,30.92l-458.93,264.97Z"/><path class="cls-5" d="m290.09,792.23c-.05-4.47-3.01-8.93-8.92-12.34-11.92-6.88-31.23-6.89-43.13-.01L12,910.37c-5.88,3.4-8.83,7.85-8.9,12.31h0v.08s-.01.07,0,.11v12.27s0,.07,0,.11v.19h.03c.11,4.43,3.06,8.84,8.91,12.21,11.92,6.88,31.22,6.88,43.12.02l226.05-130.51c6.04-3.49,8.98-8.09,8.88-12.66h.04v-12.28h-.03Z"/><path class="cls-8" d="m281.2,804.77l-226.05,130.51c-11.89,6.88-31.2,6.87-43.12-.01-5.94-3.42-8.92-7.91-8.94-12.4h0v12.27s0,.07,0,.11v.19h.03c.11,4.43,3.06,8.84,8.91,12.21,11.92,6.88,31.22,6.88,43.12.02l226.05-130.51c6.04-3.49,8.98-8.09,8.88-12.66h.04v-12.17c0,4.51-2.97,9.02-8.92,12.44Z"/><path class="cls-3" d="m33.62,955.95c-8.32,0-16.65-1.87-23.13-5.62-6.42-3.7-10.11-8.78-10.44-14.34-.03-.18-.05-.36-.05-.55v-.18s0-.08,0-.12v-12.27c0-.12,0-.24.01-.35.13-5.75,3.84-11.01,10.44-14.83l226.04-130.5c12.94-7.48,33.25-7.48,46.22.01,6.51,3.76,10.21,8.9,10.45,14.54.03.16.04.32.04.49v12.28c0,.16-.01.32-.04.48-.1,5.76-3.79,11.01-10.43,14.85l-226.05,130.52c-6.47,3.73-14.77,5.59-23.08,5.59Zm-27.43-20.93c.02.11.03.23.03.35.09,3.51,2.7,6.92,7.36,9.61,11.04,6.37,28.99,6.38,40.03.02l226.04-130.51c4.8-2.78,7.41-6.3,7.34-9.91,0-.18,0-.36.04-.54v-11.41c-.02-.12-.03-.24-.03-.36-.04-3.53-2.66-6.97-7.37-9.7-11.05-6.38-29.01-6.38-40.03-.01L13.55,913.05c-4.69,2.71-7.3,6.14-7.35,9.67,0,.07,0,.15-.01.22v12.07Z"/><path class="cls-5" d="m163.56,238.67h0c0-2.5-1.66-5-4.97-6.91-6.63-3.83-17.37-3.83-23.99-.01-3.31,1.91-4.96,4.42-4.96,6.93h0v618.9h0c.01,2.5,1.67,5.02,4.98,6.93,6.62,3.82,17.36,3.83,23.99,0,3.3-1.91,4.96-4.41,4.95-6.91h0V238.67Z"/><path class="cls-8" d="m158.61,245.59c-3.32,1.92-7.66,2.88-12.01,2.87v618.9c4.35.01,8.69-.94,12.01-2.87,3.3-1.91,4.96-4.41,4.95-6.91V238.7c0,2.5-1.65,4.99-4.95,6.89Z"/><path class="cls-3" d="m146.62,870.47c-4.87,0-9.74-1.1-13.54-3.29-4.13-2.38-6.51-5.88-6.53-9.59V238.67c0-3.72,2.37-7.22,6.51-9.61,7.59-4.38,19.49-4.38,27.08.01,4.2,2.42,6.51,5.82,6.52,9.59h0v618.92c0,3.7-2.36,7.2-6.5,9.59-3.79,2.19-8.66,3.29-13.54,3.29Zm-.04-638.49c-3.8,0-7.6.82-10.43,2.45-2.17,1.25-3.41,2.8-3.41,4.25v618.9c0,1.44,1.26,2.99,3.43,4.24,5.67,3.27,15.24,3.27,20.89,0,2.17-1.25,3.41-2.79,3.41-4.23V238.67c0-1.43-1.25-2.98-3.43-4.23-2.84-1.64-6.65-2.46-10.46-2.46Z"/><path class="cls-5" d="m173.46,53.37l-10.62,6.13s-.06.05-.09.05l-.02.03h0c-4.82,2.8-7.79,8.77-7.78,17.27v529.94c0,17.06,11.99,37.83,26.8,46.38l727.71,420.14c7.32,4.24,13.95,4.66,18.79,1.96v.02s.16-.09.16-.09c0,0,.01,0,.01-.02l10.64-6.13h.01c4.87-2.8,7.92-8.79,7.92-17.36v-529.95c-.01-17.06-12-37.82-26.81-46.37L192.46,55.24c-7.28-4.21-13.84-4.64-18.65-2.02l-.04-.02-.22.13s-.07.02-.1.05Z"/><path class="cls-8" d="m920.17,475.38L192.46,55.24c-7.28-4.21-13.84-4.64-18.65-2.02l-.04-.02-.22.13s-.07.02-.1.05l-10.6,6.12c4.85-2.75,11.51-2.33,18.87,1.92l727.73,420.14c14.81,8.57,26.8,29.33,26.8,46.38v529.95c0,8.47-2.96,14.43-7.76,17.25l10.55-6.08h.01c4.87-2.8,7.92-8.79,7.92-17.36v-529.95c-.01-17.06-12-37.82-26.81-46.37Z"/><path class="cls-2" d="m280.3,684.2l-124.92-72.13c-.24-1.78-.44-3.55-.44-5.28v-107.6l125.35,72.37c8.58,4.96,15.51,16.99,15.51,26.87v76.84c0,9.88-6.94,13.87-15.5,8.94Zm574.02-139.91c-8.88-5.12-16.06-.99-16.08,9.26v236.8c0,10.24,7.22,22.7,16.08,27.83l81.93,47.3v-273.88l-81.93-47.3Zm-420.24-110.24v-181.34c0-10.24-7.2-22.7-16.07-27.82L155.27,73.19c-.14,1.2-.33,2.34-.33,3.66v214.57l263.06,151.88c8.87,5.12,16.08.98,16.08-9.26Z"/><path class="cls-3" d="m921.4,1080.07c-4.22,0-8.81-1.37-13.5-4.09L180.19,655.84c-15.63-9.02-28.34-31.03-28.34-49.06V76.85c0-9.28,3.25-16.32,9.17-19.86.04-.03.08-.05.12-.08.05-.03.1-.06.14-.09l10.62-6.13h0s.1-.05.14-.08l.11-.07c.2-.12.4-.21.61-.28,5.95-3,13.46-2.2,21.23,2.29l727.71,420.14c15.62,9.02,28.35,31.02,28.36,49.05v529.95c0,9.35-3.31,16.42-9.34,19.95-.05.03-.09.06-.14.09l-10.44,6.01c-.06.04-.12.08-.18.12h0c-.14.09-.28.16-.43.22-2.47,1.33-5.22,1.99-8.15,1.99ZM164.47,62.13c-.06.04-.12.08-.19.12-4.03,2.35-6.25,7.53-6.25,14.6v529.94c0,16.06,11.33,35.66,25.25,43.7l727.71,420.14c6.07,3.52,11.66,4.21,15.74,1.94.06-.03.12-.06.18-.09l10.46-6.03s.09-.06.14-.08c4.1-2.35,6.36-7.56,6.36-14.66v-529.95c-.01-16.06-11.35-35.66-25.27-43.69L190.91,57.92c-6.03-3.49-11.57-4.19-15.62-1.98-.12.07-.25.13-.38.18l-10.44,6.02Zm8.99-8.76h.02-.02Z"/><path class="cls-6" d="m909.45,1055.02L181.74,634.85c-5.91-3.42-10.72-11.73-10.73-18.55V86.13c0-6.82,4.82-9.59,10.71-6.18l727.73,420.14c5.91,3.42,10.71,11.75,10.72,18.55v530.18c0,6.82-4.81,9.57-10.73,6.19Z"/><path class="cls-7" d="m434.08,434.05v-181.34c0-10.24-7.2-22.7-16.07-27.82L171.59,82.61c-.35,1.02-.59,2.16-.59,3.52v214.57l246.99,142.6c8.87,5.12,16.08.98,16.08-9.26Z"/><path class="cls-7" d="m854.32,544.29c-8.88-5.12-16.06-.99-16.08,9.26v236.8c0,10.24,7.22,22.7,16.08,27.83l65.86,38.02v-273.88l-65.86-38.02Z"/><path class="cls-7" d="m295.8,675.26v-76.84c0-9.88-6.93-21.9-15.51-26.87l-109.28-63.09v107.83c0,1.7.31,3.49.85,5.28l108.45,62.62c8.56,4.93,15.5.94,15.5-8.94Z"/><path class="cls-5" d="m1105.63,1263.08c-.05-4.47-3.02-8.93-8.93-12.34-11.91-6.88-31.21-6.88-43.12-.01l-226.04,130.5c-5.89,3.4-8.84,7.84-8.88,12.3h-.01v.1s0,.06-.01.11v12.27s.01.06,0,.1v.19h.04c.11,4.42,3.04,8.82,8.9,12.21,11.93,6.88,31.23,6.89,43.13.01l226.05-130.5c6.04-3.49,8.98-8.07,8.88-12.66h.03v-12.28s-.01,0-.01,0Z"/><path class="cls-8" d="m1096.74,1275.64l-226.05,130.5c-11.89,6.88-31.2,6.87-43.12-.01-5.95-3.42-8.91-7.91-8.95-12.39h0v12.27s.01.06,0,.1v.19h.04c.11,4.42,3.04,8.82,8.9,12.21,11.93,6.88,31.23,6.89,43.13.01l226.05-130.5c6.04-3.49,8.98-8.07,8.88-12.66h.03v-12.16c.01,4.5-2.96,9.01-8.91,12.44Z"/><path class="cls-3" d="m849.16,1426.8c-8.32,0-16.65-1.87-23.14-5.62-6.42-3.72-10.11-8.8-10.43-14.37-.02-.11-.03-.22-.04-.34-.02-.38.01-.95.12-1.31-.09.28-.13.56-.13.84v-12.27c-.01-.11,0-.22,0-.33,0-.04,0-.08.01-.11.14-5.72,3.84-10.95,10.43-14.75l226.04-130.5c12.96-7.47,33.26-7.47,46.21.01,6.53,3.76,10.23,8.91,10.47,14.55.02.15.04.31.04.47v12.28c-.01.13-.02.26-.04.38-.06,5.8-3.75,11.09-10.43,14.95l-226.05,130.5c-6.46,3.74-14.77,5.61-23.08,5.61Zm-27.43-20.9c.01.11.02.21.03.32.09,3.5,2.7,6.91,7.35,9.61,11.06,6.37,29.01,6.38,40.03,0l226.05-130.5c4.81-2.78,7.41-6.3,7.34-9.91,0-.16,0-.31.03-.46v-11.51c0-.11-.01-.23-.01-.34-.04-3.53-2.66-6.97-7.38-9.69-11.03-6.38-28.99-6.38-40.03-.01l-226.04,130.5c-4.69,2.71-7.3,6.14-7.34,9.66,0,.12,0,.24-.03.36v11.97Z"/><path class="cls-5" d="m979.11,709.53h0c-.01-2.52-1.67-5.02-4.98-6.93-6.62-3.82-17.37-3.83-23.99,0-3.31,1.9-4.96,4.41-4.96,6.93h0v618.9h0c0,2.5,1.67,5.01,4.97,6.91,6.64,3.83,17.38,3.85,23.99.01,3.31-1.91,4.97-4.42,4.97-6.93h0v-618.9Z"/><path class="cls-8" d="m974.13,702.61c6.62,3.83,6.62,10.02.01,13.85-3.31,1.91-7.65,2.87-12,2.87v618.9c4.35,0,8.69-.96,12-2.87,3.31-1.91,4.97-4.42,4.97-6.93v-618.9c-.01-2.52-1.67-5.02-4.98-6.93Z"/><path class="cls-3" d="m962.17,1341.33c-4.88,0-9.77-1.1-13.58-3.3-4.2-2.43-6.51-5.84-6.51-9.59v-618.9c0-3.74,2.37-7.24,6.51-9.61,7.57-4.38,19.47-4.38,27.08,0,4.19,2.42,6.51,5.82,6.53,9.59h0v618.92c0,3.72-2.38,7.22-6.52,9.61-3.78,2.19-8.64,3.29-13.51,3.29Zm-.05-638.5c-3.81,0-7.61.82-10.44,2.45-2.17,1.24-3.41,2.79-3.41,4.25v618.9c0,1.43,1.25,2.98,3.42,4.24,5.68,3.28,15.25,3.28,20.89.01,2.18-1.26,3.43-2.8,3.43-4.25v-618.9c0-1.44-1.26-2.99-3.43-4.24-2.84-1.64-6.65-2.45-10.46-2.45Z"/><path class="cls-6" d="m1052.63,351.57l.04.04c-3.53,2.04-6.7,4.71-9.4,8.01l52.61,69.33-30.85,5.05-21.76,12.55c12.4,29.49,34.03,56.79,58.67,71.02,19.28,11.13,36.71,12.16,49.33,4.83h0l21.7-12.52s.04-.03.06-.03v-.02h.01c12.58-7.31,20.38-22.94,20.37-45.17,0-44.52-31.21-98.65-69.72-120.88-19.27-11.12-36.65-12.07-49.26-4.74l-.02-.04-21.77,12.57Z"/><path class="cls-7" d="m1101.82,436.95l-30.52-3.98-6.29,1.02-21.76,12.55c12.38,29.45,33.97,56.71,58.55,70.95v-80.55Z"/><path class="cls-7" d="m1052.66,351.61c12.61-7.34,30-6.39,49.27,4.73,38.51,22.24,69.72,76.35,69.72,120.87,0,22.25-7.79,37.89-20.39,45.19h0l21.7-12.52s.04-.03.06-.03v-.02c12.6-7.31,20.39-22.94,20.38-45.17,0-44.52-31.21-98.65-69.72-120.88-19.27-11.12-36.65-12.07-49.26-4.74l-.02-.04-21.77,12.57.04.04Z"/><path class="cls-3" d="m1133.05,530.21c-10.08,0-21.2-3.34-32.67-9.96-24.39-14.09-46.81-41.19-59.98-72.5-.6-1.44-.04-3.1,1.31-3.88l21.76-12.55c.32-.19.68-.31,1.05-.37l25.78-4.22-49.5-65.24c-.87-1.14-.84-2.73.07-3.83,2.78-3.38,6.06-6.22,9.76-8.44.14-.12.29-.23.45-.32l21.77-12.57c.16-.1.34-.17.51-.24,14.12-7.93,32.51-6.16,51.87,5.02,39.3,22.68,71.27,78.11,71.27,123.56.01,22.57-7.72,39.53-21.78,47.77-.05.03-.09.06-.14.09-.08.05-.16.1-.24.13l-21.54,12.43c-5.9,3.42-12.56,5.12-19.76,5.12Zm-85.86-82.36c12.78,29.05,33.68,53.98,56.29,67.04,17.65,10.18,34.07,11.9,46.23,4.84l21.62-12.47c.05-.03.1-.07.15-.09,12.15-7.06,18.84-22.15,18.83-42.5,0-43.48-30.58-96.5-68.18-118.2-17.58-10.15-33.97-11.83-46.16-4.74-.16.09-.33.17-.51.24l-20.81,12.01c-.14.12-.29.22-.44.31-2.56,1.49-4.9,3.32-6.95,5.48l51.07,67.31c.66.86.81,2.01.41,3.02-.4,1.01-1.3,1.73-2.38,1.91l-30.29,4.96-18.88,10.89Z"/><path class="cls-5" d="m1022.27,455.37l66.61-10.87,13.05-7.54-66.6-87.79-13.06,7.53c-16.64,20.37-16.66,59.09,0,98.68Z"/><polygon class="cls-8" points="1088.88 444.5 1101.93 436.95 1035.33 349.16 1022.27 356.69 1088.88 444.5"/><path class="cls-3" d="m1022.27,458.47c-1.23,0-2.36-.73-2.85-1.89-17.09-40.61-16.91-80.58.45-101.84.24-.29.53-.54.85-.72l13.06-7.53c1.35-.78,3.07-.43,4.01.81l66.6,87.8c.54.71.74,1.61.57,2.48-.18.87-.72,1.62-1.48,2.07l-13.05,7.54c-.32.19-.68.31-1.05.37l-66.61,10.87c-.17.03-.33.04-.5.04Zm2.05-99.38c-15.27,19.24-15.29,55.39-.12,92.84l63.62-10.39,9.53-5.5-62.83-82.83-10.19,5.88Z"/><path class="cls-7" d="m367.85,631.94c0-8.2,5.39-16.37,16.2-22.62l36.46-21.05.09.14c.59-.36,1.01-.78,1.62-1.14,21.59-12.46,56.65-12.46,78.29.05,10.79,6.2,16.23,14.4,16.23,22.58,0,8.17-5.38,16.36-16.21,22.59l-37.67,21.75-.03-.04c-.18.11-.3.22-.47.33-21.6,12.49-56.64,12.51-78.3-.01-10.78-6.24-16.2-14.4-16.21-22.58Zm113.57,78.79c21.65,12.51,56.7,12.51,78.29.01.17-.11.29-.23.47-.32l.02.02,114.03-65.82c10.83-6.24,16.22-14.41,16.21-22.59,0-8.18-5.43-16.38-16.22-22.58-21.65-12.52-56.7-12.52-78.29-.05-.63.36-1.04.77-1.62,1.13l-.1-.16-112.81,65.14c-10.82,6.25-16.21,14.43-16.2,22.63.01,8.17,5.43,16.34,16.22,22.58Zm97.35,56.2c21.65,12.52,56.7,12.52,78.29.03.18-.11.3-.24.48-.35l.02.06,75.85-43.8c10.82-6.22,16.22-14.41,16.2-22.59,0-8.17-5.42-16.38-16.22-22.59-21.64-12.5-56.69-12.51-78.3-.05-.62.36-1.03.77-1.62,1.15l-.09-.16-74.65,43.09c-10.8,6.25-16.21,14.45-16.2,22.64.02,8.16,5.44,16.34,16.22,22.56Z"/><path class="cls-6" d="m367.85,563.63c-.01-8.2,5.37-16.39,16.2-22.64,21.59-12.45,56.65-12.46,78.3.05,10.81,6.22,16.2,14.4,16.2,22.58h.02v68.32h0c0,8.2-5.38,16.38-16.21,22.62-21.6,12.49-56.64,12.49-78.29-.02-10.82-6.26-16.23-14.46-16.22-22.64v-68.26Z"/><path class="cls-7" d="m384.08,586.19c21.65,12.51,56.69,12.52,78.29.04,10.83-6.24,16.22-14.42,16.19-22.61h.02v68.32h0c0,8.2-5.38,16.38-16.21,22.62-21.6,12.49-56.64,12.49-78.29-.02-10.82-6.26-16.23-14.46-16.22-22.64v-68.26c.01,8.17,5.42,16.34,16.22,22.56Z"/><path class="cls-3" d="m423.27,666.95c-14.75,0-29.5-3.25-40.74-9.74-11.46-6.64-17.78-15.63-17.77-25.32v-68.25c-.02-9.72,6.29-18.71,17.75-25.33,22.44-12.94,58.96-12.91,81.39.05,11.28,6.5,17.56,15.31,17.74,24.85.02.13.03.27.03.41v68.32c0,9.71-6.3,18.7-17.76,25.3-11.2,6.48-25.92,9.72-40.65,9.72Zm-.12-132.23c-13.6,0-27.19,2.98-37.54,8.95-9.46,5.46-14.67,12.55-14.66,19.96h0v68.27c0,7.39,5.21,14.48,14.68,19.96,20.75,11.99,54.48,12,75.19.02,9.46-5.45,14.67-12.53,14.66-19.93v-67.94c-.02-.12-.02-.25-.02-.38,0-7.39-5.2-14.46-14.65-19.9-10.38-6-24.03-9-37.66-9Z"/><path class="cls-5" d="m465.2,531.66c0-8.18,5.4-16.38,16.2-22.64,21.59-12.45,56.66-12.45,78.3.06,10.81,6.22,16.22,14.42,16.22,22.59h.01s0,156.48,0,156.48h-.01c.02,8.2-5.37,16.38-16.19,22.6-21.6,12.49-56.67,12.49-78.3-.01-10.83-6.27-16.23-14.47-16.21-22.64v-156.44Z"/><path class="cls-8" d="m481.42,554.24c21.64,12.51,56.7,12.51,78.31.04,10.82-6.24,16.21-14.43,16.19-22.61h.01s0,156.48,0,156.48h-.01c.02,8.2-5.37,16.38-16.19,22.6-21.6,12.49-56.67,12.49-78.3-.01-10.83-6.27-16.23-14.47-16.21-22.64v-156.44c0,8.18,5.41,16.36,16.21,22.58Z"/><path class="cls-3" d="m520.61,723.15c-14.75,0-29.49-3.24-40.73-9.73-11.47-6.64-17.78-15.64-17.76-25.32v-156.44s-.01,0-.01,0c0-9.69,6.29-18.69,17.75-25.32,22.45-12.94,58.96-12.92,81.4.06,11.33,6.53,17.63,15.39,17.76,24.97,0,.1.01.19.01.29v156.49c0,.09,0,.19-.01.28-.1,9.6-6.39,18.47-17.74,25-11.2,6.48-25.93,9.72-40.66,9.72Zm-.13-220.4c-13.59,0-27.18,2.98-37.53,8.95-9.45,5.48-14.66,12.57-14.65,19.96h0s.01,156.44.01,156.44c0,7.39,5.2,14.48,14.67,19.96,20.75,11.99,54.48,11.99,75.2.01,9.46-5.44,14.66-12.51,14.65-19.91,0-.09,0-.18.01-.28v-155.95c0-.09-.01-.18-.01-.27,0-7.39-5.21-14.46-14.67-19.91-10.38-6.01-24.04-9.01-37.68-9.01Z"/><path class="cls-6" d="m562.54,631.96c0-8.2,5.4-16.39,16.2-22.64,21.6-12.47,56.65-12.45,78.3.04,10.8,6.22,16.22,14.42,16.22,22.61v-.03,112.43c.01,8.17-5.38,16.36-16.19,22.59-21.6,12.49-56.67,12.49-78.3-.02-10.83-6.26-16.22-14.46-16.22-22.63v-112.35Z"/><path class="cls-7" d="m578.77,654.52c21.65,12.52,56.7,12.52,78.29.04,10.83-6.24,16.23-14.42,16.21-22.59v-.03,112.43c.01,8.17-5.38,16.36-16.19,22.59-21.6,12.49-56.67,12.49-78.3-.02-10.83-6.26-16.22-14.46-16.22-22.63v-112.35c0,8.16,5.43,16.34,16.21,22.56Z"/><path class="cls-3" d="m617.97,779.36c-14.75,0-29.5-3.25-40.74-9.74-11.46-6.62-17.77-15.61-17.77-25.31v-112.35s-.01,0-.01,0c0-9.7,6.29-18.7,17.75-25.32,22.41-12.95,58.92-12.93,81.4.04,11.44,6.59,17.75,15.56,17.77,25.24h0v112.42c.02,9.71-6.28,18.69-17.73,25.3-11.21,6.48-25.93,9.72-40.66,9.72Zm-.14-176.31c-13.6,0-27.19,2.98-37.53,8.96-9.46,5.47-14.66,12.56-14.66,19.96h0s.01,112.35.01,112.35c0,7.39,5.21,14.48,14.68,19.95,20.74,11.99,54.48,12,75.21.02,9.46-5.46,14.65-12.53,14.64-19.91v-112.41c0-7.4-5.21-14.47-14.67-19.92-10.4-6-24.04-8.99-37.68-8.99Z"/><path class="cls-6" d="m869.45,223.05L492.3,5.3c-8.87-5.11-16.08-.98-16.09,9.27v105.07c.02,10.25,7.21,22.7,16.1,27.84l377.13,217.75c8.86,5.11,16.07.98,16.07-9.26v-105.09c0-10.24-7.19-22.72-16.07-27.83Z"/><path class="cls-3" d="m876.63,370.53c-2.74,0-5.71-.88-8.73-2.62l-377.13-217.75c-9.87-5.7-17.62-19.11-17.65-30.51V14.57c0-6.11,2.23-10.75,6.26-13.07,4.03-2.33,9.17-1.93,14.46,1.12l377.15,217.76c9.88,5.67,17.62,19.08,17.62,30.51v105.09c0,6.1-2.22,10.74-6.25,13.06-1.73,1-3.67,1.5-5.74,1.5ZM485.12,6.21c-1,0-1.89.21-2.64.65-2.01,1.16-3.16,3.97-3.17,7.72v105.06c.02,9.09,6.69,20.61,14.56,25.16l377.13,217.75c3.25,1.88,6.27,2.28,8.28,1.12,2.01-1.16,3.16-3.97,3.16-7.7v-105.09c0-9.11-6.65-20.62-14.52-25.14,0,0,0,0,0,0L490.75,7.98c-2.03-1.17-3.97-1.77-5.64-1.77Z"/><path class="cls-7" d="m603.03,105.35c-2.13-1.23-3.86-.22-3.85,2.23v60.67c0,2.47,1.73,5.45,3.86,6.67h0c2.14,1.23,3.86.24,3.86-2.23v-60.67c0-2.44-1.73-5.45-3.87-6.68h0Zm30.86,30.2c-2.12-1.25-3.86-.24-3.86,2.2v35.95c0,2.46,1.74,5.45,3.86,6.68h0c2.12,1.23,3.87.24,3.87-2.22v-35.94c0-2.45-1.73-5.44-3.87-6.67h0Zm-15.43-2.73c-2.1-1.22-3.86-.23-3.86,2.22v23.57c0,2.47,1.73,5.45,3.86,6.69h0c2.14,1.22,3.86.22,3.86-2.24v-23.57c.01-2.44-1.71-5.44-3.86-6.67h0Zm30.87-.72c-2.14-1.23-3.86-.23-3.87,2.22v60.67c.01,2.44,1.73,5.43,3.86,6.67h0c2.14,1.23,3.87.23,3.87-2.23v-60.67c0-2.45-1.73-5.45-3.86-6.67h0Zm30.85,30.18c-2.13-1.23-3.84-.23-3.86,2.21v35.95c0,2.47,1.73,5.44,3.86,6.66h0c2.14,1.26,3.86.24,3.87-2.21v-35.94c0-2.45-1.73-5.44-3.87-6.67h0Zm-15.44,3.43c-2.12-1.22-3.86-.2-3.84,2.25v11.21c0,2.46,1.73,5.44,3.87,6.68h0c2.13,1.23,3.85.23,3.85-2.24v-11.21c0-2.45-1.73-5.45-3.87-6.7h0Zm30.87,17.83c-2.14-1.23-3.86-.23-3.86,2.22v11.2c0,2.48,1.73,5.48,3.86,6.7h0c2.13,1.22,3.86.23,3.86-2.24v-11.21c.01-2.46-1.73-5.44-3.86-6.68h0Zm30.86,11.64c-2.13-1.22-3.86-.24-3.86,2.21v23.59c0,2.46,1.73,5.44,3.86,6.67h0c2.13,1.23,3.86.24,3.87-2.21v-23.6c0-2.45-1.73-5.44-3.87-6.66h0Zm-15.43-2.73c-2.14-1.23-3.86-.22-3.86,2.22v11.21c0,2.48,1.73,5.46,3.84,6.7h0c2.14,1.23,3.87.23,3.87-2.25v-11.19c0-2.45-1.74-5.45-3.86-6.68h0Zm30.84-.73c-2.1-1.23-3.84-.23-3.83,2.22v48.31c0,2.45,1.73,5.44,3.84,6.67h0c2.12,1.22,3.87.23,3.86-2.22v-48.32c.01-2.44-1.7-5.45-3.87-6.67h0Zm30.87,36.35c-2.13-1.21-3.86-.21-3.86,2.25v11.19c0,2.48,1.73,5.46,3.86,6.7h0c2.13,1.23,3.86.24,3.86-2.24v-11.2c0-2.47-1.72-5.45-3.86-6.7h0Zm-15.42-21.25c-2.13-1.25-3.86-.24-3.86,2.21v35.94c0,2.48,1.73,5.46,3.86,6.67h0c2.14,1.24,3.87.24,3.86-2.21v-35.95c0-2.44-1.72-5.44-3.86-6.66h0Zm46.3,32.9c-2.13-1.22-3.87-.23-3.85,2.21v23.57c-.01,2.46,1.71,5.46,3.84,6.68h0c2.14,1.23,3.87.24,3.86-2.22v-23.57c.01-2.44-1.72-5.44-3.84-6.67h0Zm-15.44-27.46c-2.12-1.22-3.86-.23-3.84,2.24v60.67c-.01,2.47,1.72,5.45,3.84,6.67h0c2.14,1.22,3.86.23,3.86-2.22v-60.67c0-2.44-1.72-5.46-3.86-6.69h0Zm30.88,23.99c-2.14-1.23-3.87-.22-3.86,2.24v48.31c0,2.43,1.72,5.44,3.84,6.67h0c2.13,1.22,3.87.23,3.87-2.23v-48.31c0-2.44-1.74-5.44-3.86-6.69h0Zm30.82,24.01c-2.11-1.22-3.83-.23-3.82,2.21v35.95c-.02,2.48,1.71,5.45,3.84,6.69h0c2.13,1.22,3.86.24,3.87-2.21v-35.96c0-2.45-1.73-5.43-3.89-6.67h0Zm-15.41,3.46c-2.11-1.23-3.84-.23-3.84,2.24v11.2c0,2.46,1.72,5.45,3.86,6.68h0c2.13,1.23,3.85.23,3.86-2.23v-11.22c0-2.44-1.73-5.44-3.87-6.67h0Zm-296.79-196.08c-16.64-9.62-30.15-1.84-30.15,17.38-.03,19.21,13.5,42.57,30.16,52.2,16.65,9.61,30.13,1.84,30.16-17.37,0-19.22-13.5-42.59-30.17-52.21Zm14.29,45.17l-21.62,1.92c-.34.04-.7-.07-1.07-.28-.36-.23-.74-.54-1.08-.96-.64-.83-1.07-1.88-1.06-2.75v-28.82c0-.89.4-1.47,1.08-1.54.66-.07,1.47.41,2.14,1.24l21.64,26.91c.68.81,1.08,1.87,1.08,2.76s-.4,1.48-1.09,1.51Z"/><path class="cls-7" d="m231.14,1168.7c-8.86-5.11-8.85-13.42.03-18.54l130.42-75.31c8.87-5.13,23.27-5.13,32.14,0l332.29,191.64c8.85,5.11,8.85,13.42-.02,18.55l-130.43,75.3c-8.87,5.14-23.27,5.11-32.13.01l-332.29-191.66Z"/><path class="cls-4" d="m732.65,1176.67v-24.7c.02-3.34-2.2-6.7-6.64-9.26l-332.29-191.64c-8.87-5.12-23.27-5.12-32.14,0l-130.42,75.31c-4.44,2.56-6.66,5.92-6.66,9.3v24.28h.07c-.22,3.53,1.95,7.05,6.56,9.73l332.29,191.66c8.85,5.09,23.26,5.11,32.14-.01l130.42-75.31c4.46-2.58,6.68-6,6.65-9.36h.01Z"/><path class="cls-8" d="m363.95,982.15l305.71,176.51c-16.16-9.36,2.15-26.75,11.21-41.98l-248.86-143.53c-27.12,8-54.82,16.66-68.05,9.01Z"/><path class="cls-8" d="m726.01,1142.72c8.85,5.11,8.85,13.42-.02,18.55l-130.43,75.3c-8.87,5.14-23.27,5.11-32.13.01l-332.29-191.65c-4.42-2.56-6.64-5.91-6.64-9.26h0v24.3h.07c-.22,3.53,1.95,7.05,6.56,9.73l332.29,191.66c8.85,5.09,23.26,5.11,32.14-.01l130.42-75.31c4.46-2.58,6.68-6,6.65-9.36h.01v-24.7c.02-3.34-2.2-6.7-6.64-9.26Z"/><path class="cls-3" d="m579.49,1268.29c-6.33,0-12.66-1.42-17.6-4.26l-332.29-191.66c-5.17-3-8.09-7.28-8.13-11.83-.04-.19-.06-.38-.06-.58v-24.28c0-4.67,2.91-8.92,8.21-11.97l130.42-75.31c9.88-5.71,25.36-5.71,35.24,0l332.29,191.64c5.23,3.02,8.22,7.38,8.18,11.96v24.67c0,.1,0,.2-.01.29-.09,4.52-3.06,8.78-8.2,11.75l-130.42,75.31c-4.94,2.85-11.28,4.28-17.63,4.28Zm-351.89-208.96c.06.27.08.55.07.83-.15,2.45,1.64,4.88,5.03,6.85l332.28,191.65c7.88,4.53,21.19,4.52,29.05-.01l130.42-75.31c3.27-1.89,5.12-4.31,5.1-6.64,0-.1,0-.2.01-.3v-24.43c.02-2.31-1.84-4.7-5.09-6.58l-332.29-191.64c-7.87-4.54-21.17-4.55-29.05,0l-130.42,75.31c-3.25,1.88-5.12,4.29-5.12,6.62v23.66Z"/><path class="cls-7" d="m618.91,1059.73c-17.12-9.86-28.87.35-50.97-12.41-25.47-14.71-25.47-61.07-50.94-75.79-6.99-4.04-12.05-3.63-16.27-1.23h0s-.24.12-.24.12c-.03.01-.07.05-.1.05l-15.5,8.96h.02c-.25.14-.47.34-.72.48.04-.02.08-.03.1-.06-4.45,2.68-7.99,7.47-11.82,11.58.69-.74,1.38-1.5,2.06-2.27-2.49-.23-5.3-1.13-8.49-3-25.47-14.7-33.06-55.4-50.94-65.71-3.68-2.12-6.79-1.98-9.57-.33l-.03-.05-15.65,9.04v.05s.03-.01.03-.01c-16.76,8.93-19.8,75.03-41.78,62.33l305.72,176.51,16.08-9.28c-25.5-14.71-25.49-84.24-50.99-98.96Z"/><path class="cls-1" d="m389.87,929.16v-.05s15.64-9.04,15.64-9.04l.03.05c2.78-1.66,5.9-1.79,9.57.33,17.88,10.31,25.47,51.01,50.94,65.71,3.19,1.86,6,2.77,8.49,3-6.08,6.96-12.43,13.3-24.58,6.29-25.46-14.71-33.06-55.41-50.93-65.71-3.49-2.01-6.5-1.99-9.16-.57Zm229.04,130.57c-17.12-9.86-28.87.35-50.97-12.41-25.47-14.71-25.47-61.07-50.94-75.79-6.99-4.04-12.05-3.63-16.27-1.23h0s-.24.12-.24.12c-.03.01-.07.05-.1.05l-15.5,8.96h.02c-.25.14-.47.34-.72.48,4.3-2.63,9.47-3.29,16.72.92,25.48,14.7,25.47,61.06,50.94,75.78,22.1,12.75,33.86,2.54,50.99,12.43,25.48,14.71,25.48,84.23,50.97,98.95l16.08-9.28c-25.5-14.71-25.49-84.24-50.99-98.96Z"/><path class="cls-3" d="m653.82,1171.07c-.54,0-1.07-.14-1.55-.41l-305.72-176.51h0c-1.48-.86-1.99-2.75-1.13-4.23.86-1.48,2.75-1.99,4.23-1.13l.03.02c2.76,1.59,4.45,1.26,5.48.86,6.27-2.38,11.17-17.07,15.5-30.04,4.85-14.54,9.44-28.29,17.26-32.93.12-.1.25-.19.39-.27l15.65-9.04c.18-.1.37-.19.57-.25,3.8-2.03,7.88-1.82,12.12.63,8.91,5.14,15.21,16.68,21.88,28.91,7.48,13.71,15.96,29.24,29.06,36.8,2.03,1.18,3.95,1.97,5.73,2.36,2.81-3.19,5.74-6.43,9.31-8.6.13-.09.24-.17.35-.25.11-.09.23-.17.36-.24l15.5-8.96c.07-.04.14-.08.22-.11l.18-.1c.07-.04.14-.07.21-.1,5.77-3.16,12.02-2.71,19.1,1.38,13.64,7.88,20.32,23.9,26.78,39.38,6.34,15.21,12.33,29.57,24.16,36.41,11.1,6.41,19.39,6.67,27.42,6.93,7.31.24,14.87.48,23.55,5.48,0,0,0,0,0,0,13.81,7.97,20.46,29.98,26.9,51.26,6.09,20.14,12.39,40.96,24.08,47.71.96.55,1.55,1.57,1.55,2.68,0,1.11-.59,2.13-1.55,2.68l-16.08,9.28c-.48.28-1.01.41-1.55.41Zm-294.39-176.64l294.39,169.97,10.39-6c-11.08-9.63-17.01-29.26-22.78-48.3-6.09-20.13-12.39-40.95-24.07-47.69-7.33-4.22-13.51-4.43-20.66-4.66-8.38-.27-17.88-.58-30.31-7.76-13.64-7.88-20.32-23.89-26.78-39.38-6.34-15.21-12.33-29.57-24.16-36.41-6.74-3.89-10.59-2.7-13.2-1.22-.09.05-.18.09-.27.13h-.02s-.06.04-.09.05c-.02,0-.03.02-.05.03l-15.14,8.75c-.08.05-.16.11-.24.15-.15.11-.27.2-.38.28-.11.08-.21.14-.32.2-2.89,1.79-5.46,4.71-8.18,7.8-.2.22-.4.45-.6.68-.04.05-.07.09-.11.13-.7.79-1.4,1.57-2.11,2.33,0,0,0,0,0,0h0c-1.17,1.25-3.13,1.31-4.37.15-.73-.68-1.05-1.63-.97-2.55-1.6-.57-3.24-1.34-4.91-2.31-14.6-8.43-23.52-24.77-31.39-39.19-6.24-11.44-12.14-22.25-19.54-26.51-3.16-1.82-5.1-1.14-6.44-.35-.18.11-.37.2-.57.26l-14.69,8.49c-.2.17-.42.31-.67.43-5.89,3.32-10.55,17.29-14.67,29.64-4.81,14.42-9.37,28.1-17.1,32.84Z"/><path class="cls-6" d="m602.84,1085.25c-22.3-12.88-28.89,2.65-50.99-10.12-25.47-14.71-25.46-104.32-50.94-119.03-3.84-2.21-7.11-2.04-9.97-.22v-.02l-15.58,9.01v.02c-13.64,7.62-26.5,56.03-24.35,51.91-.35-.17-.69-.28-1.06-.48-25.46-14.71-25.46-48.7-50.93-63.41-4.81-2.78-8.71-2.61-12.05-.59l-15.84,9.15c-14.53,8.29-18.35,51.31-39.11,39.3l305.7,176.51,16.09-9.28c-25.49-14.72-25.51-68.02-50.97-82.73Z"/><path class="cls-7" d="m371.11,961.48l15.87-9.18c3.35-2.02,7.24-2.19,12.05.59,25.47,14.71,25.47,48.7,50.93,63.41.38.2.71.31,1.06.48-4.38,8.39-9.65,13.1-17.13,8.79-25.47-14.69-25.48-48.7-50.95-63.4-4.71-2.72-8.54-2.61-11.83-.7Zm231.74,123.77c-22.3-12.88-28.89,2.65-50.99-10.12-25.47-14.71-25.46-104.32-50.94-119.03-3.84-2.21-7.11-2.04-9.97-.22v-.02l-15.58,9.01v.02c2.76-1.54,5.85-1.6,9.47.5,25.47,14.7,25.46,104.32,50.95,119.03,22.1,12.77,28.67-2.74,50.95,10.13,25.49,14.7,25.49,68.01,50.99,82.72l16.09-9.28c-25.49-14.72-25.51-68.02-50.97-82.73Z"/><path class="cls-3" d="m637.73,1180.36c-.54,0-1.07-.14-1.55-.41l-305.65-176.48s-.04-.02-.06-.03c-1.48-.86-1.98-2.75-1.13-4.23.86-1.48,2.75-1.98,4.23-1.13h0s.03.02.03.02c2.74,1.58,5.09,2.03,7.2,1.38,5.47-1.69,9.75-10.65,13.89-19.32,4.16-8.7,8.45-17.69,14.92-21.38l15.82-9.14c4.57-2.75,9.68-2.56,15.15.59,13.51,7.81,20.2,20.59,26.66,32.96,5.83,11.14,11.36,21.72,21.51,28.72,3.2-12.76,13.48-42.66,24.73-49.48.11-.08.22-.16.34-.23l15.58-9.01c.08-.04.16-.09.24-.12,2.82-1.67,7.24-2.85,12.82.37,13.89,8.02,20.23,33.98,26.94,61.47,6.1,25.01,12.42,50.87,24,57.56,10.17,5.88,16.66,5.27,23.54,4.62,7.23-.67,15.43-1.45,27.45,5.5h0c13.69,7.91,20.37,25.72,26.82,42.94,6.08,16.21,12.36,32.98,24.15,39.79.96.55,1.55,1.57,1.55,2.68s-.59,2.13-1.55,2.68l-16.09,9.28c-.48.28-1.01.41-1.55.41Zm-292.99-175.83l292.99,169.17,10.31-5.95c-10.93-8.87-16.86-24.7-22.62-40.06-6.07-16.2-12.35-32.95-24.12-39.75-10.32-5.95-16.86-5.35-23.78-4.7-7.53.71-15.33,1.44-27.21-5.42-13.88-8.02-20.21-33.97-26.92-61.45-6.11-25.02-12.42-50.88-24.02-57.58-3.36-1.94-5.38-1.17-6.76-.29-.14.09-.28.17-.43.23l-14.93,8.63c-.12.09-.24.17-.37.24-10.29,5.74-21.41,41.13-22.86,48.46.18.73.09,1.5-.26,2.17-1.07,2.06-2.88,1.96-3.4,1.88-.75-.12-1.43-.52-1.91-1.09-13.56-7.85-20.24-20.62-26.69-32.97-6.33-12.12-12.32-23.56-24.28-30.47-4.5-2.6-7.13-1.7-8.91-.62l-15.88,9.18c-4.8,2.74-8.67,10.84-12.42,18.68-4.29,8.97-8.71,18.22-15.53,21.7Z"/><path class="cls-7" d="m586.54,1115.17c-22.29-12.88-28.84,4.51-50.95-8.26-25.48-14.71-17.21-41.64-42.67-56.35-25.48-14.74-37.52.01-59.24-12.75-25.32-14.92-21.22-24.38-39.18-34.83-25.42-14.81-37.22,12.5-62.69-2.24l-37.52,21.67,305.72,176.51,37.53-21.67c-25.52-14.7-25.5-47.4-51-62.08Z"/><path class="cls-1" d="m356.98,1024.64c17.95,10.44,13.85,19.91,39.19,34.82,21.71,12.75,33.75-1.97,59.23,12.75,25.47,14.71,17.19,41.64,42.67,56.34,22.11,12.76,28.67-4.62,50.95,8.24,25.49,14.71,25.48,47.41,50.99,62.12l37.53-21.67c-25.52-14.7-25.5-47.4-51-62.08-22.29-12.88-28.84,4.51-50.95-8.26-25.48-14.71-17.21-41.64-42.67-56.35-25.48-14.74-37.52.01-59.24-12.75-25.32-14.92-21.22-24.38-39.18-34.83-25.42-14.81-37.22,12.5-62.69-2.24l-37.52,21.67c25.46,14.72,37.28-12.58,62.69,2.22Z"/><path class="cls-3" d="m600.01,1202.02c-.54,0-1.07-.14-1.55-.41l-305.72-176.51c-.96-.55-1.55-1.57-1.55-2.68s.59-2.13,1.55-2.68l37.52-21.67c.96-.55,2.14-.55,3.1,0,11.52,6.66,19.53,3.96,28.81.84,9.36-3.15,19.96-6.71,33.89,1.4,8.74,5.08,12.57,9.96,16.62,15.13,4.6,5.86,9.36,11.92,22.57,19.71,9.7,5.7,17.06,5.49,25.59,5.24,9.22-.27,19.67-.57,33.63,7.5,13.63,7.88,18.21,18.96,22.63,29.67,4.22,10.21,8.2,19.86,20.03,26.69,10.09,5.82,16.22,4.84,23.33,3.72,7.27-1.15,15.5-2.46,27.62,4.54h0c13.51,7.78,20.2,20.22,26.67,32.25,6.34,11.79,12.33,22.93,24.33,29.84.96.55,1.55,1.57,1.55,2.68,0,1.11-.59,2.13-1.55,2.68l-37.53,21.67c-.48.28-1.01.41-1.55.41Zm-299.53-179.6l299.53,172.93,31.62-18.26c-10.68-7.78-16.59-18.77-22.32-29.43-6.34-11.78-12.33-22.91-24.31-29.81h0c-10.22-5.9-16.7-4.88-23.56-3.79-7.22,1.15-15.41,2.45-27.39-4.47-13.66-7.88-18.23-18.97-22.66-29.68-4.21-10.21-8.2-19.84-20.01-26.67-12.44-7.2-21.15-6.95-30.36-6.67-8.68.25-17.67.51-28.91-6.09-14.22-8.38-19.57-15.2-24.3-21.22-3.84-4.89-7.15-9.11-14.87-13.6-11.51-6.71-19.52-4.01-28.8-.88-8.99,3.03-19.13,6.44-32.29-.48l-31.37,18.12Z"/><path class="cls-6" d="m1243.81,1056.52c0,10.25-7.2,14.4-16.09,9.27l-184-106.24c-8.89-5.14-16.08-17.6-16.08-27.84v-302.11c0-10.23,7.2-14.39,16.08-9.26l184,106.26c8.9,5.11,16.09,17.57,16.06,27.8l.03,302.11Z"/><path class="cls-7" d="m1122.01,954.18l.02-236.8c0-10.24-7.2-22.7-16.1-27.82l-78.31-45.21v273.89s78.32,45.21,78.32,45.21c8.87,5.14,16.06.99,16.06-9.26Z"/><path class="cls-3" d="m1234.92,1071.09c-2.74,0-5.72-.88-8.74-2.62l-184-106.24c-9.88-5.71-17.62-19.11-17.62-30.52v-302.11c0-6.1,2.22-10.74,6.26-13.07,4.04-2.33,9.17-1.92,14.46,1.13l184,106.26c9.9,5.69,17.64,19.09,17.61,30.49l.03,302.11h0c0,6.1-2.22,10.75-6.25,13.08-1.73,1-3.67,1.5-5.74,1.5Zm-198.38-449.85c-.99,0-1.89.21-2.64.65-2.01,1.16-3.17,3.97-3.17,7.71v302.11c.01,9.09,6.67,20.61,14.54,25.16l184,106.24c3.26,1.88,6.28,2.29,8.29,1.12,2.01-1.16,3.16-3.97,3.16-7.72l-.03-302.11c.02-9.09-6.62-20.59-14.51-25.12l-184.01-106.27c-2.03-1.17-3.97-1.77-5.63-1.77Z"/><path class="cls-5" d="m1212.5,980.81c-.01,2.45-1.74,3.46-3.87,2.21l-145.82-84.18c-2.14-1.22-3.87-4.22-3.87-6.68h0c0-2.44,1.74-3.43,3.87-2.2l145.82,84.18c2.13,1.23,3.84,4.22,3.87,6.67h0Zm-26.82,20.11c0,2.47-1.71,3.46-3.86,2.24l-119.01-68.72c-2.14-1.22-3.87-4.21-3.86-6.69h0c0-2.44,1.72-3.43,3.86-2.22l119.02,68.72c2.13,1.22,3.84,4.23,3.84,6.67h0Zm-26.8-33.27c.01-2.44-1.72-5.44-3.84-6.66l-92.22-53.26c-2.14-1.22-3.87-.22-3.87,2.22h0c0,2.45,1.74,5.47,3.87,6.67l92.22,53.26c2.11,1.21,3.86.22,3.84-2.24h0Zm53.61-49.13c0,2.45-1.73,3.45-3.86,2.21l-145.83-84.18c-2.13-1.24-3.85-4.22-3.85-6.67h0c0-2.46,1.73-3.46,3.87-2.24l145.82,84.18c2.13,1.24,3.84,4.23,3.86,6.7h0Zm-26.8,20.12c-.01,2.47-1.73,3.46-3.86,2.22l-119.03-68.72c-2.13-1.22-3.85-4.22-3.85-6.67h0c0-2.45,1.72-3.46,3.87-2.22l119.01,68.72c2.14,1.22,3.86,4.22,3.87,6.67h0Zm-26.81-33.27c0-2.46-1.74-5.46-3.84-6.67l-92.22-53.26c-2.13-1.22-3.86-.21-3.87,2.21h0c.02,2.49,1.73,5.45,3.87,6.71l92.22,53.22c2.12,1.24,3.84.24,3.84-2.21h0Zm-23.16-184.65c-27.03-15.57-48.93-2.96-48.94,28.19,0,31.17,21.91,69.11,48.96,84.72,27.03,15.61,48.93,2.97,48.93-28.2l-48.93-28.24v-56.47Z"/><path class="cls-7" d="m1146.44,714.57v56.44l48.93,28.26c.01-31.17-21.91-69.1-48.93-84.7Z"/><path class="cls-6" d="m356.12,262.02c8.86,5.11,16.07,17.57,16.05,27.81v181.34c.01,10.24-7.19,14.39-16.06,9.26L42.06,299.12c-8.87-5.12-16.06-17.58-16.06-27.83V89.95c0-10.24,7.19-14.38,16.08-9.25l314.05,181.32Z"/><path class="cls-3" d="m363.3,485.75c-2.74,0-5.71-.88-8.74-2.63L40.51,301.8c-9.88-5.71-17.61-19.11-17.61-30.51V89.95c0-6.11,2.22-10.75,6.25-13.07,4.04-2.33,9.17-1.92,14.47,1.14l314.05,181.32h0c9.88,5.7,17.62,19.1,17.6,30.5v181.34c.01,6.1-2.21,10.74-6.24,13.07-1.73,1-3.67,1.5-5.73,1.5ZM34.87,81.6c-.99,0-1.88.21-2.63.64-2.01,1.16-3.16,3.97-3.16,7.71v181.34c.01,9.09,6.66,20.6,14.53,25.15l314.05,181.32c3.25,1.88,6.27,2.29,8.28,1.13,2.01-1.16,3.16-3.97,3.16-7.71v-181.34c0-9.08-6.64-20.59-14.52-25.13h0S40.52,83.38,40.52,83.38c-2.04-1.18-3.99-1.78-5.65-1.78Z"/><path class="cls-7" d="m84.77,207.56l-23.6-13.62c-2.14-1.23-3.86-.23-3.88,2.21l.02,71.2h0c0,2.48,1.73,5.45,3.86,6.69l23.61,13.62c2.12,1.23,3.86.24,3.86-2.24h0v-71.2c-.01-2.44-1.73-5.42-3.87-6.66Zm42.04-6.62l-23.61-13.65c-2.12-1.22-3.86-.23-3.86,2.23v102.12h0c.01,2.45,1.73,5.44,3.87,6.66l23.6,13.62c2.14,1.24,3.87.25,3.86-2.21h0v-102.1c0-2.45-1.74-5.46-3.86-6.67Zm42.05,86.09l-23.61-13.63c-2.14-1.22-3.86-.23-3.86,2.22v40.28h-.01c.01,2.47,1.73,5.45,3.87,6.67l23.61,13.64c2.11,1.23,3.84.24,3.84-2.23h0v-40.26c0-2.47-1.73-5.45-3.84-6.69Zm42.03-72.9l-23.6-13.62c-2.13-1.23-3.86-.24-3.86,2.21v137.46h0c0,2.45,1.72,5.44,3.86,6.67l23.6,13.62c2.13,1.23,3.86.24,3.84-2.22h0v-137.47c.01-2.44-1.71-5.44-3.84-6.66Zm45.88,97.22c.01-2.46-1.73-5.46-3.84-6.68l-23.62-13.63c-2.13-1.22-3.87-.23-3.84,2.21v71.2h0c0,2.48,1.72,5.45,3.86,6.69l23.61,13.63c2.12,1.23,3.86.23,3.84-2.22h0v-71.19Zm80.22,41.86l-23.6-13.64c-2.14-1.23-3.87-.23-3.87,2.22v71.19h0c.02,2.46,1.74,5.44,3.87,6.67l23.61,13.64c2.12,1.22,3.86.24,3.86-2.22h0v-71.19c0-2.45-1.74-5.44-3.87-6.67Zm-42.02-55.18l-23.62-13.63c-2.13-1.23-3.86-.23-3.85,2.24v102.08h0c0,2.49,1.72,5.47,3.86,6.69l23.6,13.62c2.14,1.23,3.87.23,3.86-2.22h0v-102.11c0-2.44-1.73-5.44-3.84-6.66Z"/><path class="cls-6" d="m1060.12,991.31c0,10.25-7.19,14.4-16.06,9.26l-251.62-145.26c-8.86-5.12-16.08-17.59-16.06-27.83v-236.8c0-10.25,7.18-14.38,16.06-9.26l251.61,145.26c8.9,5.12,16.1,17.59,16.1,27.83l-.03,236.8Z"/><path class="cls-3" d="m1051.25,1005.89c-2.75,0-5.72-.88-8.74-2.63l-251.62-145.26c-9.89-5.72-17.62-19.12-17.61-30.51v-236.8c0-6.11,2.22-10.75,6.24-13.07,4.03-2.32,9.16-1.92,14.46,1.13l251.61,145.26c9.9,5.7,17.65,19.1,17.65,30.51l-.03,236.8c0,6.11-2.22,10.76-6.25,13.08-1.73,1-3.65,1.49-5.71,1.49Zm-266.01-423.56c-.99,0-1.88.21-2.63.64-2,1.16-3.15,3.97-3.16,7.72v236.8c0,9.08,6.65,20.59,14.53,25.15l251.62,145.26c3.25,1.88,6.26,2.29,8.27,1.14,2.01-1.16,3.16-3.97,3.16-7.72h0l.03-236.8c0-9.09-6.66-20.6-14.55-25.14l-251.61-145.26c-2.04-1.18-3.99-1.78-5.65-1.78Z"/><path class="cls-7" d="m839.41,698.02l-27.85-16.08c-2.15-1.24-3.88-.23-3.87,2.2v32.14h-.01c.04,2.46,1.74,5.44,3.87,6.67l27.84,16.08c2.15,1.23,3.87.24,3.87-2.22h0v-32.12c0-2.45-1.73-5.46-3.84-6.67Zm46.27,26.73l-27.84-16.09c-2.15-1.22-3.87-.23-3.87,2.21v32.12h0c0,2.49,1.72,5.46,3.86,6.7l27.85,16.08c2.13,1.23,3.84.24,3.86-2.22h0v-32.13c0-2.45-1.73-5.44-3.86-6.66Zm46.29,26.73l-27.85-16.09c-2.13-1.23-3.86-.24-3.85,2.21v32.13h-.01c0,2.46,1.72,5.45,3.86,6.69l27.86,16.08c2.12,1.23,3.84.23,3.84-2.22h0v-32.13c0-2.45-1.73-5.44-3.86-6.66Zm-92.57-106.83l-27.84-16.08c-2.14-1.23-3.86-.24-3.87,2.21v32.14h-.01c.01,2.47,1.73,5.44,3.87,6.66l27.85,16.08c2.12,1.25,3.86.24,3.86-2.22h0v-32.12c.01-2.46-1.73-5.45-3.86-6.67Zm92.58,53.44l-27.85-16.08c-2.14-1.23-3.87-.24-3.87,2.21v32.14h-.01c.02,2.45,1.74,5.44,3.87,6.67l27.85,16.08c2.14,1.23,3.86.23,3.86-2.22h0v-32.13c0-2.45-1.73-5.44-3.84-6.67Zm-46.3,80.04l-27.85-16.08c-2.14-1.23-3.86-.24-3.87,2.22v32.12h.01c.01,2.47,1.72,5.43,3.86,6.67l27.85,16.08c2.14,1.23,3.86.25,3.86-2.22h0v-32.12c0-2.45-1.73-5.45-3.86-6.67Zm46.29,26.73l-27.85-16.08c-2.14-1.24-3.88-.24-3.86,2.2v32.13h0c.01,2.46,1.73,5.45,3.87,6.68l27.85,16.08c2.12,1.22,3.84.24,3.84-2.22h0v-32.12c0-2.45-1.72-5.45-3.86-6.67Zm-92.56-.07l-27.86-16.08c-2.13-1.23-3.86-.23-3.86,2.22v32.12h0c.01,2.48,1.73,5.45,3.86,6.69l27.85,16.08c2.13,1.22,3.86.24,3.86-2.22h0v-32.13c0-2.45-1.73-5.44-3.84-6.67Zm46.28,26.73l-27.86-16.08c-2.13-1.22-3.87-.23-3.86,2.2v32.14h-.01c.03,2.47,1.73,5.45,3.86,6.67l27.87,16.09c2.13,1.22,3.83.24,3.85-2.22h0v-32.14c0-2.44-1.72-5.43-3.85-6.66Zm92.56-106.7l-27.85-16.07c-2.13-1.23-3.86-.25-3.86,2.21v32.13h0c.01,2.47,1.73,5.45,3.87,6.67l27.86,16.09c2.12,1.22,3.83.23,3.83-2.23h0v-32.13c0-2.45-1.72-5.43-3.86-6.66Zm0,106.77l-27.84-16.09c-2.14-1.23-3.87-.23-3.87,2.21v32.13h.01c0,2.48,1.72,5.45,3.84,6.68l27.85,16.08c2.13,1.22,3.87.24,3.86-2.22h0v-32.13c0-2.45-1.73-5.45-3.86-6.66Zm0,53.38l-27.85-16.09c-2.13-1.22-3.86-.24-3.86,2.22v32.13h0c.01,2.47,1.73,5.44,3.86,6.67l27.86,16.08c2.13,1.23,3.84.23,3.84-2.22h0v-32.13c0-2.46-1.72-5.44-3.86-6.66Zm46.31-80.04l-27.86-16.08c-2.15-1.23-3.87-.24-3.86,2.21v32.13h0c0,2.47,1.72,5.44,3.84,6.67l27.86,16.1c2.13,1.21,3.84.22,3.86-2.24h0v-32.14c-.01-2.44-1.74-5.44-3.84-6.66Zm0-53.38l-27.86-16.09c-2.14-1.22-3.87-.23-3.87,2.21v32.13h0c0,2.48,1.73,5.45,3.87,6.7l27.85,16.06c2.13,1.23,3.84.24,3.84-2.22h0v-32.13c.01-2.46-1.72-5.44-3.83-6.66Zm-.02,106.76l-27.85-16.08c-2.13-1.23-3.86-.24-3.86,2.21v32.12h0c.01,2.48,1.73,5.46,3.87,6.7l27.85,16.08c2.13,1.22,3.84.24,3.86-2.24h0v-32.12c-.01-2.45-1.73-5.44-3.87-6.67Z"/><path class="cls-5" d="m885.68,671.37l-27.85-16.09c-2.14-1.22-3.86-.23-3.86,2.21v32.13h-.01c.03,2.47,1.74,5.45,3.88,6.67l27.85,16.09c2.12,1.22,3.85.24,3.85-2.22h0v-32.14c0-2.44-1.72-5.43-3.86-6.65Zm-46.3,80.03l-27.84-16.08c-2.13-1.23-3.86-.24-3.86,2.21v32.12h0c.01,2.48,1.73,5.45,3.85,6.68l27.88,16.09c2.1,1.22,3.83.24,3.83-2.24h0v-32.12c0-2.46-1.72-5.44-3.87-6.67Zm92.59,106.84l-27.85-16.09c-2.14-1.22-3.88-.23-3.89,2.22l.04,32.13h0c0,2.47,1.72,5.44,3.85,6.67l27.85,16.07c2.12,1.23,3.86.24,3.86-2.21h0v-32.14c-.01-2.44-1.73-5.44-3.84-6.66Zm46.29-80.06l-27.86-16.07c-2.14-1.23-3.84-.24-3.86,2.21v32.13h-.01c.02,2.47,1.73,5.45,3.88,6.67l27.86,16.09c2.1,1.22,3.83.23,3.84-2.22h0v-32.14c-.01-2.44-1.74-5.43-3.86-6.67Zm46.29,133.5l-27.85-16.08c-2.14-1.23-3.86-.24-3.87,2.21v32.13h0c0,2.48,1.73,5.45,3.87,6.67l27.86,16.09c2.1,1.22,3.83.24,3.84-2.22h0v-32.13c-.01-2.46-1.73-5.44-3.86-6.67Z"/><path class="cls-6" d="m25.37,591.99c0,9.86,6.94,21.88,15.51,26.84l177.54,102.5c8.56,4.93,15.5.94,15.5-8.94v-76.84c0-9.88-6.93-21.9-15.51-26.87l-177.52-102.48c-8.56-4.94-15.52-.94-15.51,8.96v76.83Z"/><path class="cls-3" d="m225.34,726.55c-2.66,0-5.54-.85-8.47-2.54l-177.54-102.5c-9.57-5.53-17.06-18.5-17.06-29.52v-76.83c0-5.93,2.15-10.45,6.08-12.72,3.93-2.27,8.93-1.89,14.07,1.08l177.52,102.48c9.56,5.53,17.05,18.51,17.05,29.54v76.84c0,5.92-2.16,10.44-6.08,12.7-1.69.97-3.57,1.46-5.58,1.46ZM33.95,507.19c-.94,0-1.79.2-2.5.61-1.9,1.1-2.99,3.78-2.99,7.36v76.83c0,8.72,6.39,19.79,13.96,24.16l177.53,102.5c3.1,1.79,5.97,2.19,7.87,1.08,1.9-1.1,2.99-3.77,2.99-7.34v-76.84c0-8.74-6.39-19.81-13.96-24.19l-177.52-102.48c-1.94-1.12-3.8-1.7-5.38-1.7Z"/><path class="cls-7" d="m203.7,639.36c0,2.37-1.67,3.34-3.72,2.14l-140.69-81.23c-2.04-1.2-3.71-4.04-3.71-6.43h0c0-2.38,1.68-3.35,3.72-2.15l140.68,81.2c2.04,1.19,3.72,4.1,3.72,6.46h0Zm-25.87,19.39c.01,2.4-1.67,3.32-3.72,2.16l-114.81-66.28c-2.05-1.2-3.71-4.07-3.72-6.45h0c.01-2.34,1.67-3.33,3.72-2.13l114.82,66.29c2.05,1.17,3.72,4.06,3.71,6.41h0Zm-25.85-32.08c-.01-2.38-1.68-5.26-3.7-6.42l-88.98-51.37c-2.07-1.23-3.73-.24-3.72,2.12h0c-.01,2.38,1.66,5.25,3.72,6.45l88.97,51.37c2.04,1.17,3.72.24,3.71-2.15h0Z"/><path class="cls-6" d="m1082.24,1105.77c10.69-10.7,28.04-10.68,38.72,0,10.69,10.7,10.69,28.02,0,38.71-10.68,10.7-28.03,10.7-38.72,0-10.69-10.69-10.69-28.01,0-38.71Z"/><path class="cls-7" d="m1111.95,1135.49c9.15-9.14,10.41-23.08,3.92-33.63,1.8,1.1,3.53,2.36,5.09,3.92,10.69,10.7,10.69,28.02,0,38.71-10.68,10.7-28.03,10.7-38.72,0-1.54-1.55-2.82-3.28-3.93-5.08,10.55,6.48,24.51,5.22,33.64-3.92Z"/><path class="cls-3" d="m1101.6,1155.6c-8.14,0-15.79-3.17-21.55-8.93-11.87-11.87-11.87-31.2,0-43.08h0c5.75-5.76,13.4-8.93,21.54-8.93h0c8.14,0,15.79,3.17,21.54,8.93,11.87,11.88,11.87,31.21,0,43.08-5.75,5.76-13.4,8.93-21.54,8.93h0Zm-17.17-47.64c-9.46,9.47-9.46,24.87,0,34.33,4.59,4.59,10.68,7.12,17.17,7.12h0c6.49,0,12.58-2.53,17.17-7.12,9.46-9.46,9.46-24.86,0-34.33-4.58-4.58-10.68-7.11-17.17-7.11h0c-6.49,0-12.58,2.53-17.16,7.11h0Z"/></g></g></svg>