<svg xmlns="http://www.w3.org/2000/svg" viewBox="0 0 250.06 42.77"><defs><style>.cls-1{fill:#f5f5f5;}.cls-2{fill:#22b4de;}</style></defs><title>logo-notag-FC</title><g id="Layer_2" data-name="Layer 2"><g id="Layer_1-2" data-name="Layer 1"><path class="cls-1" d="M56.5,41.58,37.15,21.38,56.5,1.19ZM42,21.38,53,32.89v-23Z"/><polygon class="cls-2" points="18.95 21.3 18.96 21.31 36.78 3.49 21.37 3.49 3.53 3.53 3.53 21.37 3.5 38.73 18.95 21.3"/><path class="cls-1" d="M23.88,21.37l0,0L45.21,0H21.37L0,0V21.37l0,21.4H45.21L23.85,21.4ZM3.53,3.53l17.84,0H36.78L19,21.31h0L3.5,38.73l0-17.36Z"/><path class="cls-1" d="M78.06.61V23.12h1.35a3,3,0,0,0,1.16-.19,2.42,2.42,0,0,0,.86-.78l7.46-9.21a3.49,3.49,0,0,1,1-.94,3.06,3.06,0,0,1,1.48-.32H98L88.68,22.82a7.7,7.7,0,0,1-2.16,2,5.6,5.6,0,0,1,1.09,1,15,15,0,0,1,.93,1.25l10,14.57H92a3.47,3.47,0,0,1-1.47-.28,2.21,2.21,0,0,1-1-1L81.87,29a2.21,2.21,0,0,0-.85-.87,3.17,3.17,0,0,0-1.32-.21H78.06V41.69H70.84V.61Z"/><path class="cls-1" d="M104.33,15.86a17.78,17.78,0,0,1,12.46-4.73,12,12,0,0,1,4.7.86,9.71,9.71,0,0,1,3.51,2.4,10,10,0,0,1,2.18,3.67,14,14,0,0,1,.75,4.68v19h-3.28a3.25,3.25,0,0,1-1.58-.31,2.09,2.09,0,0,1-.87-1.24L121.55,38a23.74,23.74,0,0,1-2.22,1.8,12.73,12.73,0,0,1-2.25,1.3,12.4,12.4,0,0,1-2.5.81,14.83,14.83,0,0,1-2.94.28,11.54,11.54,0,0,1-3.51-.52,7.75,7.75,0,0,1-2.78-1.53,6.85,6.85,0,0,1-1.81-2.55,9,9,0,0,1-.65-3.53,7.11,7.11,0,0,1,.38-2.27,6.66,6.66,0,0,1,1.25-2.15,10.27,10.27,0,0,1,2.23-1.93,14.57,14.57,0,0,1,3.38-1.58A29.84,29.84,0,0,1,114.8,25a47.26,47.26,0,0,1,6.08-.51V22.74a6.54,6.54,0,0,0-1.29-4.46,4.67,4.67,0,0,0-3.71-1.45,8.89,8.89,0,0,0-2.91.41,11.64,11.64,0,0,0-2,.92l-1.6.92a3.19,3.19,0,0,1-1.59.41,2.1,2.1,0,0,1-1.29-.39,3.56,3.56,0,0,1-.85-.93Zm16.55,13a40.65,40.65,0,0,0-5.26.54,13.88,13.88,0,0,0-3.43,1,4.59,4.59,0,0,0-1.84,1.43,3.58,3.58,0,0,0,.57,4.51,4.92,4.92,0,0,0,2.94.81,8.54,8.54,0,0,0,3.85-.8,11.49,11.49,0,0,0,3.17-2.44Z"/><path class="cls-1" d="M141.88,15.37a19.07,19.07,0,0,1,1.91-1.69,12.79,12.79,0,0,1,2.14-1.31,11.64,11.64,0,0,1,2.41-.85,12.4,12.4,0,0,1,2.81-.31,10.7,10.7,0,0,1,4.36.84,8.47,8.47,0,0,1,3.17,2.34A10.24,10.24,0,0,1,160.61,18a15.28,15.28,0,0,1,.66,4.61v19.1h-7.22V22.59a6.48,6.48,0,0,0-1.26-4.26,4.72,4.72,0,0,0-3.83-1.5,7.46,7.46,0,0,0-3.51.85,12.09,12.09,0,0,0-3.1,2.31v21.7h-7.23v-30h4.42A1.77,1.77,0,0,1,141.38,13Z"/><path class="cls-1" d="M195.46,11.68l-11.91,30H177l-11.9-30h6a2.35,2.35,0,0,1,1.36.38,1.78,1.78,0,0,1,.71,1l5.79,16c.32.94.59,1.86.82,2.75s.44,1.8.62,2.69c.19-.89.41-1.79.64-2.69s.52-1.81.85-2.75l5.91-16a2,2,0,0,1,.73-1,2.1,2.1,0,0,1,1.25-.38Z"/><path class="cls-1" d="M199.41,15.86a17.78,17.78,0,0,1,12.46-4.73,12,12,0,0,1,4.7.86,9.71,9.71,0,0,1,3.51,2.4,10,10,0,0,1,2.18,3.67,14,14,0,0,1,.75,4.68v19h-3.28a3.25,3.25,0,0,1-1.58-.31,2.09,2.09,0,0,1-.87-1.24L216.63,38a23.74,23.74,0,0,1-2.22,1.8,12.43,12.43,0,0,1-4.75,2.11,14.83,14.83,0,0,1-2.94.28,11.54,11.54,0,0,1-3.51-.52,7.75,7.75,0,0,1-2.78-1.53,6.85,6.85,0,0,1-1.81-2.55A9,9,0,0,1,198,34a7.11,7.11,0,0,1,.38-2.27,6.66,6.66,0,0,1,1.25-2.15,10.27,10.27,0,0,1,2.23-1.93,14.57,14.57,0,0,1,3.38-1.58,29.84,29.84,0,0,1,4.67-1.1,47.26,47.26,0,0,1,6.08-.51V22.74a6.54,6.54,0,0,0-1.29-4.46A4.68,4.68,0,0,0,211,16.83a8.89,8.89,0,0,0-2.91.41,11.64,11.64,0,0,0-2,.92l-1.6.92a3.19,3.19,0,0,1-1.59.41,2.1,2.1,0,0,1-1.29-.39,3.56,3.56,0,0,1-.85-.93Zm16.55,13a40.65,40.65,0,0,0-5.26.54,13.88,13.88,0,0,0-3.43,1,4.59,4.59,0,0,0-1.84,1.43,3.58,3.58,0,0,0,.57,4.51,4.92,4.92,0,0,0,2.94.81,8.57,8.57,0,0,0,3.85-.8A11.49,11.49,0,0,0,216,33.94Z"/><path class="cls-1" d="M248.1,17.53a2,2,0,0,1-.61.66,1.58,1.58,0,0,1-.82.19,2.67,2.67,0,0,1-1.13-.29c-.4-.2-.86-.42-1.39-.66a12,12,0,0,0-1.8-.66,8.75,8.75,0,0,0-2.38-.29,5.53,5.53,0,0,0-3.35.9,2.83,2.83,0,0,0-1.21,2.37,2.26,2.26,0,0,0,.63,1.63,5.59,5.59,0,0,0,1.66,1.15,16.43,16.43,0,0,0,2.36.89c.88.27,1.77.55,2.67.87s1.8.66,2.68,1.06a9.39,9.39,0,0,1,2.35,1.52,6.7,6.7,0,0,1,2.3,5.31,10.17,10.17,0,0,1-.77,4,8.65,8.65,0,0,1-2.3,3.16,10.82,10.82,0,0,1-3.76,2.08,16.21,16.21,0,0,1-5.16.75,16.91,16.91,0,0,1-3-.28,18.41,18.41,0,0,1-2.83-.78,15.36,15.36,0,0,1-2.52-1.17,11.87,11.87,0,0,1-2-1.46l1.66-2.75a2.42,2.42,0,0,1,.77-.76,2.17,2.17,0,0,1,1.11-.26,2.3,2.3,0,0,1,1.27.38c.4.25.86.52,1.39.82a13,13,0,0,0,1.85.82,8.34,8.34,0,0,0,2.71.38,7.18,7.18,0,0,0,2.21-.31,4.66,4.66,0,0,0,1.52-.81,3,3,0,0,0,.88-1.15,3.55,3.55,0,0,0,.27-1.36,2.48,2.48,0,0,0-.62-1.73A5.88,5.88,0,0,0,241,30.57a16.87,16.87,0,0,0-2.37-.89c-.89-.26-1.79-.55-2.72-.86a24.55,24.55,0,0,1-2.72-1.1,9.28,9.28,0,0,1-2.37-1.59,7.19,7.19,0,0,1-1.67-2.37,8.28,8.28,0,0,1-.62-3.39,8.59,8.59,0,0,1,.73-3.51A8.12,8.12,0,0,1,231.42,14,10.64,10.64,0,0,1,235,12a14.71,14.71,0,0,1,4.9-.75,14.88,14.88,0,0,1,5.65,1,12.78,12.78,0,0,1,4.24,2.69Z"/></g></g></svg>