<?xml version="1.0" encoding="UTF-8"?><svg xmlns="http://www.w3.org/2000/svg" viewBox="0 0 1577.75 1426.8"><defs><style>.cls-1,.cls-2{opacity:.2;}.cls-1,.cls-2,.cls-3,.cls-4,.cls-5,.cls-6,.cls-7,.cls-8{stroke-width:0px;}.cls-1,.cls-2,.cls-3,.cls-8{mix-blend-mode:overlay;}.cls-2,.cls-6{fill:#fff;}.cls-3{opacity:.1;}.cls-9{opacity:.5;}.cls-10{isolation:isolate;}.cls-4{fill:#19b3de;}.cls-5{fill:#31c5e3;}.cls-7{fill:#0086db;}.cls-8{opacity:.3;}</style></defs><g class="cls-10"><g id="_1"><path class="cls-4" d="m556.67,1102.79c-7.37,4.26-19.32,4.26-26.69,0l-64.29-37.12c-7.36-4.26-7.37-11.15-.01-15.41l166.6-96.2c7.37-4.26,19.32-4.25,26.7.01l64.29,37.12c7.38,4.26,7.38,11.15.01,15.41l-166.6,96.19Zm311.02-48.8c7.36-4.23,7.35-11.14-.02-15.4l-64.29-37.11c-7.38-4.28-19.32-4.28-26.69-.02l-197.77,114.18c-7.37,4.26-7.34,11.14.02,15.41l64.29,37.11c7.38,4.28,19.32,4.28,26.69.02l197.77-114.19Zm37.58,109.08c7.35-4.25,7.35-11.14-.02-15.41l-64.29-37.11c-7.37-4.26-19.32-4.26-26.69,0l-122.08,70.48c-7.38,4.25-7.36,11.15.02,15.41l64.28,37.11c7.38,4.26,19.33,4.26,26.69,0l122.09-70.48Z"/><path class="cls-6" d="m554.05,996.67h0c-.01-2.79-1.85-5.59-5.55-7.72l-64.28-37.12c-7.38-4.26-19.32-4.26-26.69,0l-64.21,37.07c-3.71,2.14-5.54,4.96-5.51,7.76h0v102.78h0c0,2.79,1.84,5.55,5.52,7.68l64.29,37.12c7.38,4.26,19.33,4.26,26.69,0l64.21-37.07c3.7-2.13,5.53-4.93,5.52-7.73h.01v-102.78Z"/><path class="cls-4" d="m553.98,996.22c.2,2.94-1.58,5.91-5.46,8.14l-64.21,37.08c-3.7,2.13-8.55,3.19-13.39,3.19v102.79c4.84.02,9.69-1.05,13.39-3.17l64.21-37.07c3.7-2.13,5.53-4.93,5.52-7.73h.01v-102.78c-.01-.16-.07-.3-.07-.44Z"/><g class="cls-9"><path class="cls-4" d="m457.62,1041.43l-64.29-37.12c-3.65-2.12-5.5-4.88-5.52-7.65h0v102.78h0c0,2.79,1.84,5.55,5.52,7.68l64.29,37.12c3.68,2.11,8.49,3.17,13.31,3.17v-102.79c-4.81-.02-9.63-1.09-13.31-3.2Z"/></g><path class="cls-7" d="m470.96,1150.36c-5.33,0-10.65-1.2-14.81-3.6l-64.29-37.12c-4.5-2.61-6.98-6.23-6.98-10.21v-102.78c-.05-3.94,2.49-7.7,6.97-10.29l64.21-37.07c8.3-4.79,21.3-4.79,29.61,0l64.28,37.12c4.5,2.59,7,6.23,7.01,10.23h0v102.79c0,.1,0,.19-.02.29-.11,3.9-2.57,7.43-6.98,9.97l-64.21,37.07c-4.15,2.4-9.47,3.6-14.8,3.6Zm-.09-198.8c-4.33,0-8.67.93-11.89,2.79l-64.21,37.07c-2.6,1.5-4.08,3.4-4.05,5.2v102.77c0,1.83,1.48,3.71,4.07,5.21l64.29,37.12c6.45,3.72,17.34,3.72,23.77,0l64.22-37.08c2.59-1.49,4.07-3.38,4.06-5.2,0-.09,0-.17.01-.26v-102.52c-.01-1.81-1.5-3.7-4.09-5.2l-64.28-37.12c-3.22-1.86-7.56-2.79-11.89-2.79Z"/><path class="cls-5" d="m667.3,990.07h0c0-2.78-1.85-5.57-5.53-7.69l-64.29-37.12c-7.38-4.25-19.33-4.27-26.69-.01l-64.22,37.08c-3.71,2.14-5.53,4.95-5.51,7.75h0v174.75h0c.01,2.79,1.85,5.55,5.54,7.68l64.27,37.11c7.39,4.28,19.33,4.28,26.69.02l64.22-37.09c3.69-2.13,5.52-4.93,5.51-7.73h.01v-174.75Z"/><path class="cls-8" d="m667.23,989.63c.2,2.95-1.58,5.92-5.45,8.15l-64.22,37.09c-3.69,2.13-8.55,3.19-13.38,3.19v174.76c4.83.02,9.69-1.05,13.38-3.17l64.22-37.09c3.69-2.13,5.52-4.93,5.51-7.73h.01v-174.75c0-.15-.06-.29-.07-.44Z"/><path class="cls-1" d="m570.86,1034.85l-64.27-37.12c-3.67-2.12-5.51-4.88-5.54-7.66h0v174.75h0c.01,2.79,1.85,5.55,5.54,7.68l64.27,37.11c3.69,2.13,8.49,3.2,13.32,3.2v-174.76c-4.83-.02-9.63-1.08-13.32-3.2Z"/><path class="cls-7" d="m584.24,1215.75c-5.34,0-10.68-1.21-14.84-3.62l-64.27-37.11c-4.49-2.59-6.97-6.21-6.99-10.19v-174.76c-.03-4.01,2.44-7.67,6.97-10.28l64.22-37.08c8.27-4.78,21.28-4.78,29.6.01l64.29,37.12c4.51,2.6,6.99,6.23,6.99,10.22v174.75c0,.1,0,.19-.01.29-.11,3.89-2.57,7.42-6.96,9.96l-64.22,37.09c-4.14,2.39-9.46,3.59-14.77,3.59Zm-.14-270.77c-4.33,0-8.65.93-11.86,2.78l-64.22,37.08c-2.59,1.49-4.07,3.39-4.05,5.21v174.73c0,1.86,1.46,3.69,4.08,5.21l64.28,37.11c6.45,3.74,17.34,3.74,23.78.03l64.23-37.09c2.58-1.49,4.06-3.38,4.05-5.19,0-.09,0-.17.01-.26v-174.5c0-1.79-1.49-3.68-4.08-5.17l-64.29-37.12c-3.24-1.86-7.58-2.8-11.92-2.8Z"/><path class="cls-6" d="m780.55,1147.99h0c0-2.79-1.85-5.57-5.53-7.7l-64.29-37.12c-7.38-4.26-19.33-4.27-26.69-.01l-64.21,37.06c-3.72,2.15-5.54,4.96-5.52,7.76h0v82.23h0c.01,2.77,1.85,5.55,5.54,7.66l64.28,37.13c7.38,4.26,19.32,4.26,26.69,0l64.21-37.06c3.7-2.15,5.54-4.95,5.52-7.73h0v-82.23Z"/><path class="cls-4" d="m780.48,1147.55c.2,2.94-1.57,5.91-5.45,8.15l-64.22,37.08c-3.69,2.13-8.54,3.18-13.38,3.18v82.24c4.84.01,9.69-1.03,13.39-3.19l64.21-37.06c3.7-2.15,5.54-4.95,5.52-7.73h0v-82.23c0-.14-.07-.28-.07-.44Z"/><g class="cls-9"><path class="cls-4" d="m684.12,1192.76l-64.28-37.11c-3.68-2.12-5.52-4.88-5.54-7.66h0v82.23c.01,2.77,1.85,5.55,5.54,7.66l64.28,37.13c3.68,2.12,8.49,3.19,13.31,3.19v-82.24c-4.82-.01-9.63-1.07-13.31-3.2Z"/></g><path class="cls-7" d="m697.47,1281.13c-5.33,0-10.65-1.2-14.8-3.59l-64.28-37.13c-4.43-2.53-6.99-6.24-7-10.17v-82.24c-.03-4,2.44-7.66,6.97-10.29l64.22-37.06c8.28-4.79,21.29-4.79,29.61.01l64.29,37.12c4.51,2.6,6.99,6.23,6.99,10.22v82.23c.03,3.97-2.45,7.62-6.97,10.25l-64.22,37.07c-4.15,2.39-9.48,3.59-14.81,3.59Zm-.11-178.23c-4.33,0-8.65.93-11.86,2.79l-64.22,37.06c-2.6,1.5-4.08,3.41-4.06,5.22v82.21c0,1.83,1.49,3.7,4.07,5.18l64.29,37.14c6.45,3.72,17.34,3.72,23.78,0l64.21-37.06c2.59-1.51,4.08-3.4,4.06-5.18v-82.25c0-1.79-1.49-3.68-4.08-5.17l-64.29-37.12c-3.23-1.86-7.57-2.8-11.91-2.8Z"/><path class="cls-4" d="m1567.27,976.84l-540.03-311.79c-13.93-8.04-13.94-21.08,0-29.12l8.96-5.2c13.93-8.02,13.92-21.06,0-29.11l-237.23-136.96c-13.93-8.04-36.52-8.05-50.44-.02l-8.99,5.22c-13.93,8.02-36.5,8.01-50.44-.03h0c-13.95-8.04-36.51-8.04-50.43-.02l-34.21,19.74-290.06,166.83c-13.93,8.05-13.9,21.08.04,29.13l878.19,507.02c13.95,8.03,36.51,8.05,50.45,0l290.04-166.83,34.22-19.74c13.91-8.04,13.9-21.08-.06-29.12Z"/><path class="cls-6" d="m295.5,111.53v543.94c0,16.08,11.28,35.64,25.23,43.67l878.18,507.03c6.98,4.01,13.29,4.39,17.85,1.76l40.28-23.24v-.02c4.62-2.61,7.48-8.27,7.47-16.36l.03-543.92-40.37,23.31L295.5,111.53Z"/><path class="cls-4" d="m881.7,505.46v170.76c.01,9.65-6.77,13.55-15.13,8.72l-295.74-170.74c-8.36-4.83-15.13-16.55-15.13-26.2v-170.77c0-9.65,6.77-13.55,15.14-8.71l295.73,170.75c8.35,4.81,15.13,16.55,15.12,26.19Zm180.77,353.97l-173.27-100.07c-8.36-4.83-15.13-.91-15.14,8.72v250.53s203.57,117.52,203.57,117.52l-.02-250.52c.03-9.64-6.74-21.37-15.12-26.18Zm-518.07-262.37c0-9.64-6.77-21.37-15.15-26.2l-233.75-134.95v219.55c0,16.08,11.29,35.64,25.24,43.67l221.8,128.06c1.14-1.79,1.85-4.15,1.85-7.14l.02-223Z"/><path class="cls-4" d="m1224.17,647.69l-.02,543.92c0,8-2.78,13.61-7.3,16.26l40.2-23.19v-.02c4.62-2.61,7.48-8.27,7.47-16.36l.03-543.92-40.37,23.31Z"/><path class="cls-7" d="m1210.2,1212.54c-3.97,0-8.3-1.29-12.74-3.84l-878.18-507.03c-14.72-8.47-26.7-29.2-26.7-46.19V111.53c.01-1.04.57-2,1.47-2.52s2.01-.52,2.91,0l927.21,535.32,38.92-22.47c.9-.52,2.01-.52,2.91,0,.9.52,1.46,1.48,1.46,2.52l-.03,543.92c.01,8.76-3.06,15.39-8.65,18.72-.09.06-.18.13-.28.18l-40.28,23.24c-2.41,1.39-5.12,2.08-8.02,2.08ZM298.42,116.58v538.89c0,15.14,10.66,33.6,23.77,41.14l878.18,507.03c5.81,3.35,11.12,3.97,14.93,1.76l40.01-23.09c.09-.07.19-.13.29-.19,3.87-2.19,6-7.1,5.99-13.82l.03-538.88-36,20.79c-.9.52-2.01.52-2.91,0L298.42,116.58Z"/><path class="cls-5" d="m303.15,55.61c-.16.09-.32.18-.47.27l-.45.26.05.08c-4.18,2.78-6.77,8.15-6.77,15.79v39.52l928.66,536.16,40.37-23.31v-39.52c-.02-16.08-11.3-35.62-25.25-43.65L361.12,34.17c-7.1-4.09-13.49-4.38-18.07-1.6l-39.91,23.03Z"/><path class="cls-8" d="m1264.54,584.87c-.02-16.08-11.29-35.62-25.24-43.65L361.12,34.17c-7.1-4.09-13.49-4.38-18.07-1.6l-39.75,22.94c4.53-2.38,10.66-1.93,17.44,1.96l878.18,507.06c13.95,8.02,25.23,27.58,25.25,43.64v39.52s40.38-23.31,40.38-23.31v-39.52Z"/><path class="cls-7" d="m1224.17,650.61c-.5,0-1.01-.13-1.46-.39L294.05,114.06c-.9-.52-1.46-1.48-1.46-2.52v-39.52c0-7.96,2.65-14.24,7.47-17.79.2-.23.43-.43.69-.59l.93-.54,39.91-23.03c5.69-3.46,13.16-2.91,20.98,1.6l878.18,507.04c14.95,8.61,26.68,28.89,26.7,46.17v39.52c0,1.04-.55,2-1.45,2.52l-40.37,23.31c-.45.26-.95.39-1.46.39ZM298.42,109.85l925.75,534.48,37.46-21.63v-37.84c-.02-15.13-10.69-33.59-23.79-41.13L359.66,36.7c-5.88-3.39-11.24-3.98-15.09-1.63l-39.96,23.07s0,0,0,0l-.28.16c-.13.13-.27.25-.43.36-3.53,2.35-5.47,7.09-5.47,13.36v37.84Z"/><path class="cls-6" d="m805.62,371.76c0,9.44-6.62,13.24-14.81,8.53L348.55,124.93c-8.18-4.72-14.81-16.2-14.81-25.62h0c0-9.45,6.64-13.26,14.82-8.54l442.26,255.35c8.2,4.73,14.82,16.19,14.81,25.63h0Zm320.84,179.58c-2.7-1.57-4.91-.3-4.89,2.81,0,3.12,2.18,6.94,4.91,8.49,2.7,1.58,4.91.3,4.89-2.82,0-3.1-2.2-6.93-4.91-8.48Zm32.19,24.22c-.01,3.12-2.21,4.39-4.9,2.83-2.73-1.55-4.94-5.37-4.92-8.5,0-3.12,2.18-4.37,4.9-2.8,2.71,1.56,4.91,5.35,4.92,8.47Zm27.25,15.75c0,3.12-2.19,4.38-4.9,2.82-2.72-1.56-4.91-5.36-4.91-8.5-.02-3.11,2.2-4.38,4.91-2.82,2.7,1.58,4.9,5.38,4.9,8.5Z"/><path class="cls-6" d="m661.35,170.69v.02c-4.62,2.6-7.46,8.25-7.46,16.33v10.39c0,1.8-.19,3.44-.46,5-1.49-.55-3.01-1.22-4.59-2.12l4.54,2.62c-2.33,11.95-12.52,16.08-24.73,9.04l25.24,14.57,287.67,166.09,25.24,14.56,20.19-11.65c-13.93-8.05-25.24-27.61-25.24-43.67v-10.4c0-16.06-11.29-35.62-25.24-43.66l-237.21-136.96c-6.98-4.02-13.29-4.4-17.85-1.76l-20.1,11.6Z"/><path class="cls-4" d="m961.75,351.87v-10.4c0-16.06-11.29-35.62-25.24-43.66l-237.21-136.96c-6.98-4.02-13.29-4.4-17.85-1.76l-20.1,11.6h0c4.55-2.58,10.83-2.19,17.76,1.82l237.21,136.95c13.94,8.05,25.23,27.61,25.23,43.68v10.39c0,16.07,11.32,35.63,25.25,43.66l20.19-11.65c-13.93-8.05-25.24-27.61-25.24-43.67Z"/><path class="cls-7" d="m966.8,410.1c-.5,0-1.01-.13-1.46-.39l-25.24-14.56-312.88-180.64s-.02-.01-.03-.02h0c-1.39-.81-1.87-2.59-1.07-3.98.8-1.4,2.59-1.87,3.98-1.07,5.38,3.1,10.4,3.87,14.15,2.16,2.71-1.24,4.68-3.72,5.76-7.25l-2.64-1.52c-1.39-.8-1.87-2.58-1.07-3.97.8-1.4,2.57-1.88,3.97-1.08.23.13.46.26.69.38,0-.24.01-.49.01-.73v-10.39c0-8.78,3.07-15.4,8.65-18.71.08-.06.17-.12.26-.17l20.1-11.6c5.7-3.3,13.08-2.67,20.77,1.76l237.21,136.96c14.72,8.49,26.69,29.21,26.69,46.18v10.4c0,15.11,10.67,33.57,23.78,41.15.9.52,1.46,1.48,1.46,2.52s-.56,2-1.46,2.52l-20.19,11.65c-.45.26-.95.39-1.46.39Zm-322.36-192.38l322.36,186.1,14.67-8.47c-12.8-9.65-22.63-28.11-22.63-43.49v-10.4c0-15.12-10.67-33.57-23.78-41.13l-237.21-136.96c-5.81-3.35-11.11-3.97-14.94-1.76l-19.83,11.45c-.09.07-.19.13-.29.19-3.86,2.17-5.98,7.06-5.98,13.79v10.39c0,1.76-.16,3.5-.51,5.5,0,.01,0,.02,0,.03,0,.18-.02.35-.06.53-1.25,6.42-4.65,11.18-9.56,13.42-.72.33-1.47.6-2.23.81Z"/><path class="cls-5" d="m838.51,290.45c-.01,2.3-1.63,3.25-3.64,2.09l-147.51-85.18c-1.99-1.16-3.62-3.96-3.62-6.28h0c0-2.31,1.61-3.26,3.62-2.08l147.51,85.17c2.01,1.15,3.64,3.96,3.64,6.28h0Zm-50.47-12.38c0-2.32-1.63-5.13-3.64-6.28l-97.03-56.03c-2-1.16-3.64-.22-3.64,2.1h0c0,2.32,1.61,5.12,3.62,6.29l97.04,56.01c2.02,1.18,3.63.23,3.64-2.08h0Zm117.66,59.56l4.96-2.86c1.43-.82,1.43-3.49.02-5.92-1.43-2.46-3.75-3.79-5.16-2.97l-4.97,2.85-4.95-8.59c-1.43-2.45-3.73-3.77-5.12-2.94-1.43.79-1.43,3.47,0,5.91l4.94,8.59-4.96,2.86c-1.41.82-1.42,3.46,0,5.93,1.42,2.45,3.72,3.77,5.14,2.95l4.96-2.85,4.95,8.59c1.43,2.45,3.72,3.77,5.14,2.96,1.42-.81,1.42-3.47,0-5.93l-4.96-8.57Z"/><path class="cls-5" d="m653.84,197.4v-10.39c0-16.08-11.3-35.63-25.24-43.68L391.4,6.38c-6.99-4.03-13.3-4.41-17.87-1.76l-20.08,11.59c4.56-2.57-7.48.31-7.48,16.38v10.38c0,16.07-11.3,22.57-25.24,14.53l25.24,14.57,287.67,166.11,25.25,14.56,20.19-11.65c-13.93-8.04-25.24-27.61-25.24-43.68Z"/><path class="cls-8" d="m653.84,197.4v-10.39c0-16.08-11.3-35.63-25.24-43.68L391.4,6.38c-6.99-4.03-13.3-4.41-17.87-1.76l-20.08,11.59c4.56-2.57,10.83-2.16,17.76,1.83l237.2,136.96c13.95,8.05,25.24,27.62,25.24,43.68v10.4c0,16.06,11.31,35.63,25.25,43.66l20.19-11.65c-13.93-8.04-25.24-27.61-25.24-43.68Z"/><path class="cls-7" d="m679.08,243.99c-.5,0-1-.13-1.46-.39-14.73-8.5-26.7-29.22-26.7-46.2v-10.38c0-15.12-10.67-33.58-23.78-41.16L389.94,8.9c-5.81-3.35-11.12-3.98-14.95-1.77l-19.95,11.51c-.05.03-.1.06-.16.09-.31.17-.63.28-.96.34-1.83,1.61-5.04,5.57-5.03,13.5v10.38c0,8.85-3.14,15.54-8.84,18.82-5.71,3.29-13.09,2.67-20.77-1.77-1.39-.8-1.87-2.59-1.07-3.98.8-1.4,2.59-1.87,3.98-1.07,5.81,3.35,11.11,3.98,14.94,1.77,3.82-2.21,5.92-7.1,5.92-13.78v-10.38c0-13.72,8.02-19.59,10.78-20.07.08-.01.15-.02.23-.03l18-10.39c5.7-3.3,13.08-2.67,20.78,1.76l237.21,136.96c14.72,8.51,26.69,29.24,26.69,46.21v10.38c0,15.12,10.67,33.58,23.79,41.15,1.39.8,1.87,2.59,1.07,3.98-.54.94-1.52,1.46-2.53,1.46Z"/><path class="cls-6" d="m530.59,135.99c0,2.32-1.63,3.24-3.63,2.1l-147.5-85.18c-2.02-1.16-3.65-3.97-3.64-6.28h0c-.01-2.31,1.62-3.27,3.64-2.09l147.5,85.17c2.01,1.16,3.64,3.98,3.63,6.29h0Zm-50.47-12.38c0-2.31-1.63-5.13-3.64-6.3l-97.03-56.03c-2.01-1.15-3.63-.22-3.63,2.1h0c0,2.32,1.62,5.13,3.63,6.28l97.03,56.04c2.03,1.17,3.64.23,3.65-2.09h0Zm117.65,59.56l4.97-2.86c1.42-.81,1.41-3.48,0-5.93-1.43-2.46-3.73-3.79-5.15-2.95l-4.96,2.83-4.96-8.58c-1.41-2.45-3.72-3.78-5.13-2.96-1.42.81-1.43,3.47,0,5.92l4.96,8.59-4.96,2.86c-1.41.8-1.42,3.45,0,5.92,1.41,2.46,3.72,3.78,5.13,2.97l4.96-2.87,4.95,8.59c1.43,2.46,3.73,3.8,5.14,2.98,1.42-.84,1.44-3.49.01-5.93l-4.97-8.58Z"/><path class="cls-6" d="m1042.65,1199.25c0,9.65-6.78,13.56-15.15,8.73l-173.27-100.04c-8.38-4.84-15.14-16.57-15.14-26.22v-284.49c0-9.63,6.78-13.55,15.13-8.72l173.28,100.07c8.38,4.81,15.15,16.54,15.12,26.18l.02,284.49Z"/><path class="cls-7" d="m1034.27,1212.97c-2.58,0-5.38-.83-8.23-2.47l-173.27-100.04c-9.31-5.38-16.6-18-16.6-28.74v-284.49c0-5.75,2.09-10.12,5.89-12.31,3.8-2.19,8.63-1.81,13.61,1.06l173.28,100.07c9.33,5.36,16.61,17.97,16.58,28.71l.02,284.48h0c0,5.75-2.09,10.12-5.89,12.32-1.63.94-3.45,1.41-5.4,1.41Zm-186.81-423.61c-.93,0-1.77.2-2.48.61-1.89,1.09-2.98,3.74-2.98,7.26v284.49c0,8.56,6.27,19.41,13.69,23.69l173.27,100.04c3.06,1.77,5.9,2.15,7.8,1.06,1.89-1.09,2.97-3.74,2.97-7.27l-.02-284.49c.03-8.56-6.23-19.38-13.66-23.65l-173.28-100.07c-1.91-1.11-3.74-1.67-5.31-1.67Z"/><path class="cls-5" d="m1013.16,1127.96c-.01,2.31-1.63,3.25-3.64,2.08l-137.31-79.27c-2.01-1.15-3.64-3.97-3.64-6.29h0c0-2.3,1.63-3.23,3.64-2.07l137.31,79.27c2.01,1.16,3.62,3.97,3.64,6.29h0Zm-25.25,18.94c0,2.32-1.62,3.26-3.63,2.11l-112.07-64.71c-2.01-1.15-3.64-3.96-3.63-6.29h0c-.01-2.3,1.62-3.23,3.63-2.1l112.08,64.71c2,1.15,3.62,3.99,3.62,6.28h0Zm-25.24-31.33c.01-2.3-1.61-5.12-3.61-6.27l-86.84-50.15c-2.02-1.15-3.64-.2-3.64,2.1h0c0,2.31,1.63,5.14,3.64,6.28l86.84,50.15c1.98,1.14,3.63.2,3.61-2.11h0Zm50.48-46.26c0,2.31-1.62,3.25-3.63,2.08l-137.33-79.27c-2-1.17-3.63-3.97-3.63-6.28h0c0-2.32,1.63-3.26,3.64-2.11l137.31,79.27c2,1.17,3.62,3.98,3.63,6.3h0Zm-25.24,18.94c0,2.32-1.62,3.25-3.62,2.09l-112.1-64.71c-2-1.15-3.63-3.97-3.63-6.28h0c0-2.31,1.62-3.26,3.64-2.1l112.07,64.71c2.01,1.15,3.63,3.97,3.64,6.28h0Zm-25.24-31.33c0-2.32-1.64-5.14-3.62-6.28l-86.84-50.15c-2.01-1.15-3.63-.19-3.64,2.08h0c.02,2.34,1.63,5.13,3.64,6.32l86.84,50.12c2,1.17,3.62.23,3.63-2.08h0Zm-21.81-173.89c-25.45-14.66-46.07-2.79-46.09,26.55,0,29.36,20.63,65.07,46.1,79.78,25.45,14.7,46.08,2.8,46.08-26.56l-46.08-26.59-.02-53.18Z"/><path class="cls-4" d="m950.96,877.25v53.15l46.08,26.61c0-29.36-20.64-65.07-46.08-79.76Z"/><path class="cls-6" d="m831.61,508.41c8.35,4.81,15.13,16.55,15.12,26.19v170.76c0,9.65-6.77,13.55-15.13,8.72l-295.74-170.74c-8.36-4.83-15.13-16.55-15.13-26.2v-170.77c0-9.65,6.77-13.55,15.14-8.71l295.73,170.75Z"/><path class="cls-7" d="m838.37,719.08c-2.59,0-5.39-.83-8.23-2.48l-295.74-170.73c-9.3-5.38-16.58-18-16.58-28.73v-170.77c0-5.75,2.08-10.12,5.88-12.31,3.8-2.19,8.64-1.81,13.63,1.07l295.73,170.75c9.3,5.36,16.58,17.97,16.58,28.72v170.76c0,5.75-2.08,10.12-5.88,12.31-1.63.94-3.45,1.41-5.39,1.41Zm-309.28-380.57c-.93,0-1.78.2-2.48.61-1.89,1.09-2.97,3.73-2.97,7.26v170.77c.01,8.55,6.27,19.39,13.68,23.68l295.74,170.74c3.06,1.77,5.9,2.17,7.79,1.07,1.89-1.09,2.97-3.74,2.97-7.26v-170.76c0-8.56-6.26-19.4-13.67-23.67,0,0,0,0,0,0l-295.73-170.75c-1.92-1.11-3.76-1.68-5.32-1.68Z"/><path class="cls-4" d="m576.08,457.12l-22.22-12.83c-2.01-1.17-3.63-.22-3.65,2.08l.02,67.05h0c0,2.33,1.63,5.13,3.63,6.29l22.23,12.83c1.99,1.16,3.63.22,3.63-2.11h0v-67.04c-.01-2.31-1.63-5.11-3.64-6.27Zm39.59-6.24l-22.23-12.85c-1.99-1.16-3.63-.22-3.63,2.09v96.16h0c.01,2.31,1.63,5.12,3.64,6.27l22.22,12.83c2.01,1.17,3.64.23,3.63-2.09h0v-96.14c0-2.31-1.64-5.14-3.63-6.28Zm39.6,81.07l-22.23-12.84c-2.01-1.15-3.63-.21-3.64,2.1v37.93h0c.01,2.32,1.63,5.13,3.64,6.28l22.23,12.84c2,1.17,3.63.23,3.63-2.09h0v-37.92c0-2.32-1.63-5.13-3.63-6.3Zm39.6-68.64l-22.23-12.83c-2-1.16-3.64-.23-3.63,2.08v129.45h0c0,2.32,1.62,5.13,3.63,6.28l22.23,12.83c2,1.16,3.63.22,3.62-2.09h0v-129.45c.01-2.31-1.62-5.12-3.62-6.27Zm39.59,85.26l-22.24-12.85c-2-1.14-3.64-.22-3.62,2.09v67.05h0c0,2.33,1.62,5.13,3.63,6.29l22.23,12.85c1.99,1.15,3.63.21,3.62-2.1h0v-67.03c.01-2.32-1.63-5.15-3.62-6.29Zm79.15,45.71l-22.22-12.84c-2.01-1.16-3.65-.21-3.64,2.1v67.03h0c.02,2.33,1.64,5.13,3.64,6.28l22.23,12.84c1.99,1.16,3.63.23,3.63-2.09h0v-67.04c0-2.32-1.63-5.12-3.64-6.29Zm-39.57-51.96l-22.24-12.84c-2.01-1.16-3.63-.21-3.62,2.11v96.13h0c0,2.35,1.62,5.15,3.64,6.3l22.22,12.83c2.01,1.16,3.64.22,3.63-2.09h0v-96.15c0-2.3-1.62-5.12-3.62-6.28Z"/><path class="cls-6" d="m509.41,849.2c0,9.65-6.77,13.56-15.13,8.72l-236.94-136.79c-8.35-4.82-15.14-16.56-15.13-26.2v-223c0-9.65,6.77-13.55,15.14-8.71l236.94,136.79c8.38,4.83,15.15,16.56,15.15,26.2l-.02,223Z"/><path class="cls-7" d="m501.06,862.92c-2.59,0-5.39-.83-8.24-2.48l-236.94-136.79c-9.31-5.38-16.6-17.99-16.59-28.72v-223c0-5.75,2.09-10.12,5.88-12.31,3.8-2.19,8.64-1.81,13.63,1.07l236.94,136.79c9.31,5.36,16.61,17.98,16.61,28.72l-.02,223c0,5.75-2.08,10.12-5.88,12.31-1.63.94-3.45,1.41-5.39,1.41Zm-250.5-398.86c-.93,0-1.77.2-2.47.61-1.89,1.09-2.97,3.73-2.97,7.26v223c0,8.55,6.26,19.39,13.68,23.67l236.94,136.79c3.06,1.77,5.91,2.17,7.8,1.07,1.89-1.09,2.97-3.74,2.97-7.26h0s.02-223,.02-223c0-8.56-6.27-19.4-13.69-23.67l-236.94-136.79c-1.92-1.11-3.76-1.68-5.32-1.68Z"/><path class="cls-5" d="m301.58,573.01l-26.23-15.13c-2.02-1.18-3.65-.22-3.64,2.07v30.26h0c.03,2.33,1.64,5.13,3.64,6.28l26.21,15.15c2.03,1.16,3.65.22,3.64-2.1h0v-30.24c0-2.31-1.63-5.14-3.61-6.28Zm43.58,25.17l-26.22-15.15c-2.03-1.14-3.64-.21-3.65,2.09v30.25h0c0,2.34,1.62,5.14,3.63,6.3l26.23,15.14c2,1.16,3.62.22,3.63-2.09h0v-30.26c0-2.31-1.62-5.12-3.63-6.27Zm43.58,25.17l-26.23-15.15c-2-1.16-3.63-.23-3.63,2.08v30.25h0c0,2.32,1.62,5.14,3.62,6.29l26.24,15.14c2,1.16,3.63.22,3.63-2.09h0v-30.26c0-2.3-1.63-5.12-3.64-6.27Zm-87.17-100.6l-26.22-15.15c-2.01-1.16-3.63-.22-3.64,2.08v30.27h0c0,2.32,1.63,5.12,3.64,6.27l26.23,15.14c1.99,1.17,3.63.23,3.63-2.09h0v-30.25c0-2.31-1.63-5.13-3.64-6.28Zm87.18,50.32l-26.22-15.15c-2.01-1.16-3.64-.22-3.64,2.08v30.27h-.01c.02,2.32,1.64,5.12,3.63,6.28l26.24,15.14c2.01,1.16,3.63.22,3.63-2.09h0v-30.26c0-2.31-1.63-5.13-3.63-6.28Zm-43.59,75.37l-26.23-15.13c-2.01-1.17-3.63-.23-3.64,2.09v30.24h.01c0,2.33,1.61,5.12,3.63,6.28l26.23,15.14c2.02,1.16,3.63.24,3.63-2.1h0v-30.24c0-2.31-1.62-5.13-3.63-6.29Zm43.59,25.17l-26.24-15.14c-2.01-1.17-3.64-.22-3.62,2.07v30.26h0c0,2.32,1.63,5.13,3.64,6.29l26.23,15.14c2,1.15,3.63.23,3.63-2.1h0v-30.25c0-2.3-1.62-5.13-3.63-6.28Zm-87.17-.07l-26.23-15.14c-2.01-1.16-3.64-.21-3.64,2.1v30.25h0c0,2.33,1.63,5.13,3.64,6.29l26.22,15.14c2.01,1.14,3.63.22,3.63-2.1h0v-30.26c0-2.31-1.62-5.12-3.62-6.28Zm43.59,25.16l-26.23-15.14c-2-1.15-3.64-.22-3.63,2.07v30.26h0c.03,2.33,1.63,5.14,3.63,6.29l26.24,15.15c2,1.15,3.62.23,3.62-2.1h0v-30.26c0-2.3-1.62-5.11-3.61-6.28Zm87.17-100.48l-26.24-15.14c-1.99-1.16-3.63-.23-3.62,2.08v30.26h0c0,2.33,1.63,5.14,3.64,6.28l26.23,15.15c1.99,1.15,3.61.22,3.62-2.1h0v-30.26c0-2.32-1.62-5.12-3.63-6.28Zm0,100.55l-26.22-15.15c-2.01-1.15-3.64-.22-3.64,2.08v30.26h0c0,2.33,1.62,5.13,3.62,6.29l26.24,15.14c2,1.15,3.64.23,3.63-2.09h0v-30.25c0-2.31-1.63-5.13-3.63-6.28Zm0,50.27l-26.23-15.15c-2-1.15-3.63-.23-3.63,2.09v30.25h0c0,2.33,1.62,5.13,3.62,6.28l26.24,15.14c2,1.17,3.63.22,3.63-2.09h0v-30.26c0-2.32-1.62-5.12-3.64-6.28Zm43.6-75.37l-26.23-15.15c-2.02-1.15-3.64-.23-3.63,2.09v30.25h0c0,2.32,1.62,5.12,3.62,6.28l26.24,15.16c2.01,1.14,3.63.2,3.63-2.1h0v-30.27c0-2.3-1.63-5.12-3.62-6.27Zm0-50.27l-26.23-15.16c-2.01-1.14-3.63-.22-3.63,2.09v30.25h0c0,2.33,1.63,5.14,3.64,6.31l26.23,15.13c2.01,1.16,3.63.23,3.63-2.1h0v-30.25c0-2.32-1.63-5.12-3.62-6.27Zm0,100.53l-26.24-15.14c-1.99-1.16-3.62-.23-3.62,2.09v30.24h0c.01,2.33,1.63,5.15,3.65,6.3l26.22,15.14c2,1.15,3.63.23,3.63-2.1h0v-30.24c-.01-2.31-1.62-5.13-3.63-6.29Z"/><path class="cls-4" d="m345.15,547.92l-26.23-15.15c-2.02-1.16-3.63-.22-3.63,2.08v30.25h0c.02,2.33,1.64,5.13,3.65,6.28l26.22,15.16c1.99,1.15,3.61.22,3.62-2.1h0v-30.27c0-2.3-1.62-5.11-3.63-6.25Zm-43.61,75.36l-26.21-15.14c-2-1.16-3.64-.22-3.63,2.08v30.25h0c.01,2.33,1.62,5.13,3.62,6.29l26.25,15.16c1.99,1.15,3.61.22,3.61-2.11h0v-30.24c0-2.32-1.62-5.12-3.65-6.29Zm87.19,100.6l-26.22-15.16c-2.02-1.14-3.65-.22-3.67,2.1l.02,30.26h0c.01,2.32,1.63,5.12,3.63,6.28l26.23,15.14c1.98,1.15,3.63.23,3.63-2.08h0v-30.27c-.02-2.3-1.63-5.12-3.63-6.27Zm43.59-75.39l-26.24-15.13c-2.01-1.15-3.62-.22-3.62,2.08l-.02,30.26h0c.03,2.33,1.63,5.14,3.66,6.28l26.23,15.16c1.99,1.14,3.62.22,3.63-2.1h0v-30.26c0-2.3-1.64-5.11-3.64-6.28Zm43.59,125.71l-26.23-15.14c-2.02-1.16-3.64-.22-3.64,2.08v30.25h0c0,2.33,1.63,5.14,3.65,6.29l26.23,15.15c1.99,1.15,3.62.23,3.63-2.1h0v-30.25c-.01-2.31-1.64-5.12-3.63-6.29Z"/><path class="cls-5" d="m1268.77,895.63v-126.55c-30.25-17.48-57.65-19.17-77.49-7.79l-25.3,14.61c-19.86,11.43-32.16,35.98-32.16,70.93,0,69.9,49.12,154.91,109.72,189.9,30.25,17.47,57.64,19.16,77.5,7.78h0s.09-.04.09-.04h0s25.23-14.58,25.23-14.58c19.85-11.45,32.14-35.98,32.14-70.93l-109.73-63.34Z"/><path class="cls-8" d="m1268.77,895.63v-126.55c-30.25-17.48-57.65-19.17-77.49-7.79h0l-25.32,14.63c19.85-11.44,47.28-9.77,77.58,7.73v126.55l109.74,63.33c-.01,34.99-12.35,59.57-32.25,70.97h0s25.33-14.62,25.33-14.62c19.85-11.45,32.14-35.98,32.14-70.93l-109.73-63.34Z"/><path class="cls-7" d="m1292.58,1054.69c-15.56,0-32.75-5.18-50.51-15.43-61.3-35.4-111.17-121.72-111.17-192.42,0-34.9,11.94-60.99,33.62-73.46l25.3-14.61c21.66-12.43,50.22-9.66,80.42,7.79.9.52,1.46,1.48,1.46,2.52v124.87s108.26,62.5,108.26,62.5c.9.52,1.46,1.48,1.46,2.52,0,34.87-11.93,60.95-33.6,73.45l-25.14,14.52s-.07.04-.11.07c-.05.03-.11.06-.16.08-8.9,5.08-18.96,7.61-29.82,7.61Zm-72.85-297.75c-9.89,0-19,2.28-27.01,6.88l-25.3,14.6c-19.8,11.39-30.7,35.68-30.7,68.41,0,68.85,48.57,152.91,108.26,187.38,28.32,16.35,54.81,19.11,74.59,7.78.04-.02.08-.04.12-.07l25.2-14.55c19.45-11.22,30.31-34.88,30.68-66.72l-108.27-62.49c-.9-.52-1.46-1.48-1.46-2.52v-124.86c-16.32-9.18-32.01-13.83-46.12-13.83Z"/><polygon class="cls-3" points="1243.53 783.65 1268.78 769.08 1268.77 895.63 1243.53 910.2 1243.53 783.65"/><polygon class="cls-2" points="1378.5 958.97 1353.27 973.53 1243.53 910.2 1268.77 895.63 1378.5 958.97"/><path class="cls-6" d="m1288.95,757.45l-25.23,14.56v126.54l109.73,63.35,25.23-14.56c-.01-69.88-49.13-154.9-109.73-189.89Z"/><path class="cls-4" d="m1288.95,757.45l-25.23,14.56c60.61,35,109.72,120.01,109.73,189.89l25.23-14.56c-.01-69.88-49.13-154.9-109.73-189.89Z"/><path class="cls-7" d="m1373.44,964.82c-.5,0-1.01-.13-1.46-.39l-109.73-63.35c-.9-.52-1.46-1.48-1.46-2.52v-126.54c0-1.04.56-2,1.46-2.52l25.23-14.56c.9-.52,2.01-.52,2.91,0,61.3,35.39,111.18,121.71,111.19,192.41,0,1.04-.56,2-1.46,2.52l-25.23,14.56c-.45.26-.95.39-1.46.39Zm-106.81-67.94l106.81,61.67,22.31-12.87c-.79-67.97-48.27-150.15-106.82-184.84l-22.31,12.87v123.18Z"/><path class="cls-4" d="m28.65,801.51c29.97-17.28,78.61-17.28,108.64.08,29.99,17.29,30.04,45.41.03,62.69-29.96,17.32-78.61,17.32-108.63-.03-30-17.31-30-45.41-.05-62.73Z"/><path class="cls-5" d="m62.79,786.69c11.15-6.43,29.23-6.43,40.4.03,11.17,6.42,11.18,16.88.02,23.31-11.14,6.44-29.23,6.44-40.4-.01-11.17-6.44-11.17-16.89-.01-23.34Z"/><path class="cls-7" d="m83.02,817.82c-7.8,0-15.6-1.76-21.68-5.27-6.34-3.66-9.83-8.7-9.83-14.19,0-5.49,3.49-10.53,9.82-14.19h0c12.15-7.01,31.17-7,43.31.04,6.34,3.64,9.83,8.68,9.84,14.18,0,5.49-3.49,10.53-9.83,14.18-6.06,3.51-13.85,5.26-21.63,5.26Zm-18.78-28.61c-4.46,2.57-6.91,5.82-6.91,9.14s2.46,6.57,6.92,9.14c10.35,5.98,27.16,5.98,37.49.01,4.46-2.57,6.91-5.81,6.91-9.13,0-3.32-2.46-6.57-6.92-9.13-10.34-5.99-27.15-6-37.49-.04h0Z"/><path class="cls-5" d="m55.55,766.41c15.13-8.72,39.7-8.72,54.88.03,15.15,8.73,15.17,22.94.02,31.67-15.14,8.75-39.71,8.75-54.88-.01-15.15-8.75-15.15-22.94,0-31.69Z"/><path class="cls-7" d="m83.03,807.53c-10.47,0-20.95-2.3-28.92-6.91-8.27-4.78-12.82-11.3-12.82-18.37,0-7.07,4.55-13.59,12.81-18.37t0,0c15.92-9.19,41.84-9.16,57.79.03,8.27,4.77,12.83,11.29,12.83,18.37s-4.55,13.58-12.81,18.34c-7.96,4.6-18.41,6.9-28.87,6.9Zm-26.02-38.6c-6.38,3.69-9.9,8.42-9.9,13.32,0,4.9,3.52,9.63,9.91,13.32,14.34,8.28,37.65,8.29,51.97.01,6.39-3.68,9.9-8.4,9.9-13.3,0-4.91-3.52-9.64-9.91-13.32-14.34-8.28-37.65-8.29-51.96-.03h0Z"/><path class="cls-5" d="m55.55,750.3c15.13-8.73,39.7-8.73,54.88.03,15.15,8.73,15.17,22.93.02,31.66-15.14,8.75-39.71,8.75-54.88-.01-15.15-8.75-15.15-22.93,0-31.68Z"/><path class="cls-7" d="m83.03,791.43c-10.47,0-20.95-2.3-28.93-6.91-8.27-4.77-12.82-11.3-12.82-18.36,0-7.07,4.55-13.59,12.81-18.37,0,0,0,0,0,0,15.92-9.19,41.85-9.17,57.79.03,8.27,4.77,12.83,11.29,12.83,18.37s-4.55,13.58-12.81,18.34c-7.95,4.6-18.41,6.9-28.87,6.9Zm-26.02-38.6c-6.38,3.69-9.9,8.42-9.9,13.32,0,4.9,3.52,9.63,9.91,13.32,14.34,8.28,37.66,8.29,51.97.01,6.39-3.68,9.9-8.4,9.9-13.3,0-4.91-3.52-9.64-9.91-13.32-14.34-8.28-37.65-8.3-51.96-.03h0Z"/><path class="cls-6" d="m83,565.32c44.23,0,80.08,35.86,80.08,80.08,0,17.46-5.6,33.63-15.08,46.79-14.54,20.16-19.81,23.88-19.81,52.86h0v.02c-.01,6.67-4.43,13.34-13.24,18.43-8.83,5.09-20.38,7.66-31.94,7.66s-23.11-2.56-31.95-7.66c-8.81-5.09-13.23-11.76-13.24-18.43h0v-.02c0-28.98-5.28-32.7-19.82-52.86-9.48-13.16-15.08-29.32-15.08-46.79,0-44.22,35.86-80.08,80.08-80.08Z"/><path class="cls-4" d="m6.18,667.93c12.67,21.19,35.77,35.43,62.24,35.43,40.06,0,72.53-32.48,72.53-72.53,0-26.48-14.24-49.58-35.43-62.24,33.25,9.74,57.56,40.41,57.56,76.81,0,16.97-5.31,32.68-14.32,45.64,0-.01.02-.02.03-.03-.27.39-.51.8-.79,1.18-14.54,20.16-19.81,23.88-19.81,52.86h0v.02c0,.25-.06.5-.07.74h0c-.08,1.61-.41,3.21-.99,4.78,0,.01-.01.02-.02.03-.29.77-.63,1.53-1.04,2.29-.04.06-.09.13-.12.19-.39.69-.82,1.39-1.32,2.07-.1.14-.23.27-.33.41-.47.6-.94,1.21-1.49,1.8-.21.23-.47.44-.69.67-.5.49-.98.99-1.52,1.47-.41.34-.87.67-1.3,1.01-.44.34-.85.7-1.32,1.03-.95.67-1.96,1.31-3.03,1.94-8.83,5.09-20.38,7.66-31.94,7.66s-23.11-2.56-31.95-7.66c-8.49-4.89-12.85-11.27-13.17-17.69,1.98,4.56,6.01,8.89,12.19,12.46,8.67,5.01,19.92,7.55,31.27,7.79-5.89-60.97-27.13-34.26-54.26-61.38-2.52-3.59-5.52-7.55-9.1-12.5-.27-.39-.51-.8-.79-1.18.06.08.13.16.18.24-4.91-7.03-8.74-14.88-11.21-23.31Z"/><path class="cls-7" d="m83,774.07c-12.54,0-24.4-2.86-33.4-8.05-9.47-5.47-14.69-12.91-14.7-20.95,0-24.97-3.76-30.07-14.92-45.23-1.35-1.83-2.8-3.8-4.35-5.95-10.23-14.19-15.63-30.96-15.63-48.49,0-45.76,37.23-82.99,83-82.99s82.99,37.23,82.99,82.99c0,17.53-5.41,34.3-15.63,48.49-1.55,2.15-3,4.12-4.34,5.94-11.16,15.16-14.92,20.27-14.92,45.21-.01,8.07-5.23,15.51-14.7,20.98-8.99,5.19-20.85,8.05-33.4,8.05Zm0-205.83c-42.55,0-77.17,34.61-77.17,77.16,0,16.3,5.02,31.89,14.53,45.08,1.54,2.14,2.98,4.09,4.32,5.91,11.35,15.42,16.05,21.8,16.05,48.66,0,5.9,4.19,11.54,11.78,15.93,8.13,4.69,18.95,7.26,30.49,7.26s22.36-2.58,30.48-7.26c7.59-4.38,11.78-10.03,11.79-15.91,0-26.88,4.7-33.26,16.05-48.68,1.34-1.82,2.77-3.76,4.31-5.9,9.51-13.19,14.53-28.78,14.53-45.08,0-42.55-34.62-77.16-77.16-77.16Z"/><path class="cls-4" d="m185.43,982.1c3.29,7.08.72,14.23-5.97,19.82,5.05,3.9,11.03,7.34,17.71,10.21,9.66-3.86,22.06-5.35,34.3-3.45,12.24,1.9,21.7,6.76,26.74,12.9,4.11-.28,8.22-.67,12.34-1.31,4.11-.64,8.01-1.49,11.83-2.43-.95-6.76,3.02-13.68,11.96-18.85,8.97-5.18,21-7.47,32.71-6.92,3.29-4.39,5.47-9.08,6.45-13.92-7.43-2.04-13.75-5.35-18.03-9.56-1.83-1.81-3.33-3.77-4.32-5.9-3.29-7.07-.72-14.23,5.95-19.82-5.04-3.9-11-7.33-17.69-10.2-9.66,3.85-22.07,5.34-34.3,3.44-12.23-1.9-21.7-6.76-26.74-12.89-4.11.27-8.24.67-12.35,1.31-4.12.63-8.02,1.47-11.81,2.42.96,6.75-3.02,13.69-11.97,18.86-8.95,5.16-20.97,7.46-32.69,6.9-3.3,4.42-5.5,9.11-6.46,13.94,10.62,2.9,19.07,8.37,22.36,15.45Zm52.1-32.84c22.12-3.42,44.86,4.18,50.8,16.95,3,6.45,1.1,12.97-4.31,18.29,0,.01.02.02.02.02-.06.06-.14.1-.19.16-.7.68-1.5,1.31-2.31,1.95-.33.26-.61.53-.96.78-.26.19-.55.35-.82.53-.34.23-.72.44-1.07.67-.67.42-1.29.85-2,1.24.66-.36,1.22-.77,1.84-1.16-5.11,3.17-11.7,5.62-19.49,6.83-11.74,1.82-23.63.51-33.1-3.02-1.18-.44-2.31-.91-3.41-1.41-.24-.11-.47-.23-.71-.35-.04-.02-.1-.04-.14-.07-.3-.14-.6-.28-.89-.43-.64-.32-1.24-.67-1.84-1.01-.19-.11-.38-.22-.57-.32-.6-.36-1.17-.73-1.73-1.12-.15-.1-.29-.2-.44-.3-3.61-2.54-6.4-5.54-7.97-8.92-5.95-12.77,7.18-25.9,29.29-29.31Z"/><path class="cls-5" d="m163.08,900.53c7.42,2.04,13.74,5.34,18.02,9.55-.53.51-1.05,1.04-1.64,1.54v24.18c5.05,3.91,11.03,7.34,17.71,10.21,9.66-3.86,22.06-5.35,34.3-3.44,12.24,1.9,21.7,6.75,26.74,12.89,4.11-.29,8.22-.67,12.34-1.31,4.11-.64,8.01-1.48,11.83-2.42-.95-6.76,3.02-13.69,11.96-18.86,8.97-5.17,21-7.46,32.71-6.91,3.29-4.39,5.47-9.1,6.45-13.93v-24.18c-7.43-2.04-13.75-5.35-18.03-9.56.52-.53,1.04-1.04,1.63-1.54v-24.18c-5.04-3.9-11-7.33-17.69-10.2-9.66,3.85-22.07,5.34-34.3,3.44-12.23-1.9-21.7-6.76-26.74-12.88-4.11.27-8.24.67-12.35,1.31-4.12.63-8.02,1.47-11.81,2.43.96,6.75-3.02,13.69-11.97,18.86-8.95,5.15-20.97,7.45-32.69,6.9-3.3,4.42-5.5,9.11-6.46,13.94v24.18Zm95.96,4.69c-18.46,2.86-37.31-1.97-46.52-11.08,5.32-5.24,14.06-9.31,25.01-11,18.46-2.86,37.31,1.97,46.51,11.08-5.31,5.23-14.05,9.3-25,11Z"/><path class="cls-8" d="m208.24,888.27c-5.95-12.77,7.18-25.9,29.29-29.31,22.12-3.41,44.86,4.18,50.8,16.95,4.1,8.82-.88,17.79-11.64,23.64,2.89-1.57,5.36-3.37,7.35-5.33-9.2-9.11-28.05-13.93-46.51-11.08-10.95,1.69-19.69,5.76-25.01,11,3.42,3.38,8.18,6.16,13.74,8.18-8.55-3.1-15.2-7.98-18.03-14.06Zm-11.06,33.56c-6.69-2.87-12.66-6.31-17.71-10.21v24.18c5.05,3.91,11.03,7.34,17.71,10.21,9.66-3.86,22.06-5.35,34.3-3.44,12.24,1.9,21.7,6.75,26.74,12.89,4.11-.29,8.22-.67,12.34-1.31,4.11-.64,8.01-1.48,11.83-2.42-.95-6.76,3.02-13.69,11.96-18.86,8.97-5.17,21-7.46,32.71-6.91,3.29-4.39,5.47-9.1,6.45-13.93v-24.18c-.98,4.84-3.16,9.53-6.45,13.92-11.71-.55-23.74,1.74-32.71,6.92-8.94,5.17-12.91,12.09-11.96,18.85-3.81.95-7.72,1.8-11.83,2.44-4.12.64-8.23,1.02-12.34,1.31-5.04-6.14-14.5-11-26.74-12.9-12.24-1.9-24.64-.41-34.3,3.45Zm-34.1-21.3c7.42,2.04,13.74,5.34,18.02,9.55-.53.51-1.05,1.04-1.64,1.54,6.69-5.59,9.26-12.74,5.97-19.82-3.29-7.08-11.74-12.55-22.36-15.45v24.18Zm152.39-22.25c.52-.53,1.04-1.04,1.63-1.54v-24.18c-6.67,5.59-9.24,12.75-5.95,19.82.99,2.13,2.49,4.09,4.32,5.9Z"/><path class="cls-7" d="m258.21,958.37c-.87,0-1.7-.39-2.25-1.06-4.78-5.82-13.87-10.14-24.94-11.86-11.24-1.76-23.19-.57-32.77,3.26-.72.29-1.52.28-2.23-.03-6.98-2.99-13.15-6.56-18.35-10.59-.71-.55-1.13-1.4-1.13-2.3v-24.18c0-.48.12-.95.34-1.36-3.75-2.94-8.73-5.31-14.58-6.91-1.27-.35-2.14-1.5-2.14-2.81v-24.18c0-.19.02-.38.06-.57,1.04-5.22,3.39-10.31,6.99-15.12.58-.77,1.47-1.21,2.47-1.16,11.63.54,22.96-1.82,31.1-6.51,7.52-4.34,11.36-10.15,10.54-15.93-.21-1.48.73-2.87,2.17-3.23,4.33-1.09,8.28-1.91,12.08-2.48,3.77-.58,7.9-1.02,12.59-1.34.96-.06,1.85.33,2.44,1.06,4.79,5.82,13.88,10.14,24.94,11.86,11.24,1.75,23.18.56,32.78-3.26.71-.29,1.51-.28,2.23.03,6.94,2.97,13.1,6.53,18.33,10.57.71.55,1.13,1.4,1.13,2.3v24.18c0,.48-.12.94-.34,1.36,3.76,2.95,8.74,5.32,14.59,6.93,1.27.35,2.14,1.5,2.14,2.81v24.18c0,.19-.02.39-.06.58-1.07,5.26-3.41,10.34-6.98,15.1-.58.77-1.46,1.21-2.47,1.16-11.63-.55-22.98,1.84-31.12,6.52-7.5,4.34-11.34,10.15-10.53,15.93.21,1.48-.74,2.88-2.18,3.23-4.44,1.1-8.28,1.88-12.08,2.47-3.72.57-7.72,1-12.58,1.34-.07,0-.14,0-.2,0Zm-37.47-19.54c3.74,0,7.5.28,11.18.86,11.75,1.82,21.67,6.44,27.53,12.75,4.06-.31,7.47-.69,10.66-1.18,2.94-.46,5.92-1.04,9.22-1.81.12-7.28,4.93-14.14,13.55-19.12,8.7-5.02,20.51-7.69,32.71-7.36,2.49-3.61,4.17-7.39,4.99-11.26v-21.7c-7.07-2.22-12.97-5.54-17.16-9.67-.55-.54-.87-1.29-.87-2.07,0-.78.31-1.52.85-2.07.26-.26.51-.51.78-.76v-21.44c-4.31-3.19-9.29-6.04-14.84-8.5-10.33,3.84-22.89,5-34.68,3.17-11.75-1.83-21.67-6.44-27.53-12.76-3.94.29-7.44.68-10.67,1.18-2.93.44-5.96,1.04-9.2,1.8-.11,7.28-4.93,14.14-13.57,19.13-8.7,5.01-20.54,7.66-32.7,7.34-2.52,3.65-4.2,7.43-5.01,11.27v21.7c7.06,2.22,12.96,5.54,17.15,9.65.56.55.87,1.3.87,2.09,0,.79-.32,1.54-.89,2.08l-.29.29c-.15.15-.31.3-.46.45v21.44c4.29,3.18,9.29,6.03,14.87,8.51,7.1-2.65,15.26-4.03,23.5-4.03Zm27.74-29.89c-15.26,0-29.93-4.73-38.01-12.72-.55-.55-.87-1.29-.87-2.07,0-.78.31-1.53.87-2.07,5.98-5.89,15.43-10.08,26.61-11.8,18.84-2.91,38.99,1.97,49,11.89.55.55.86,1.29.86,2.07,0,.78-.32,1.53-.87,2.07-5.98,5.88-15.43,10.07-26.6,11.8h0c-3.64.56-7.34.84-11,.84Zm10.55-3.72h.02-.02Zm-42.09-11.07c9.42,7.27,25.93,10.63,41.64,8.19,8.55-1.32,15.88-4.17,21.02-8.12-9.41-7.28-25.93-10.63-41.63-8.19-8.56,1.32-15.88,4.16-21.02,8.12Z"/><path class="cls-6" d="m1052.74,1414.94v-81.24c0-7.98-5.61-17.71-12.57-21.73l-132.36-76.4c-6.93-4.01-12.55-.76-12.57,7.23v81.24c.01,7.99,5.62,17.71,12.58,21.72l12.75,7.37c21.63,12.5,26.52,19.74,36.02,36.19l10.2,17.64c1.99,3.44,4.59,6.1,7.2,7.6,2.6,1.5,5.23,1.86,7.21.72l10.2-5.86c9.49-5.49,14.38-7.07,36.02,5.41l12.76,7.36c3.46,2,6.6,2.2,8.87.89,2.29-1.31,3.68-4.11,3.69-8.13Z"/><path class="cls-7" d="m1045.82,1426.8c-2.25,0-4.68-.71-7.1-2.1l-12.76-7.36c-21.26-12.26-24.97-10.11-33.1-5.41l-10.2,5.87c-2.84,1.62-6.52,1.36-10.12-.72-3.13-1.8-6.07-4.88-8.26-8.66l-10.2-17.64c-9.19-15.93-13.77-22.88-34.95-35.12l-12.75-7.37c-7.86-4.53-14.02-15.18-14.02-24.24v-81.24c0-4.95,1.82-8.73,5.14-10.64,3.31-1.91,7.5-1.6,11.79.89l132.35,76.4c7.86,4.54,14.02,15.2,14.02,24.25v81.24h0c-.02,4.98-1.85,8.76-5.16,10.66-1.4.81-2.98,1.21-4.68,1.21Zm-42.58-24.41c5.95,0,13.31,2.79,25.64,9.89l12.76,7.36c2.38,1.38,4.55,1.7,5.95.89,1.43-.82,2.22-2.81,2.23-5.61v-81.23c0-6.93-5.09-15.73-11.11-19.21l-132.36-76.4c-2.38-1.37-4.56-1.7-5.97-.88-1.41.81-2.23,2.85-2.23,5.59v81.23c.01,6.94,5.1,15.73,11.12,19.2l12.75,7.37c22.44,12.97,27.58,20.79,37.08,37.25l10.2,17.64c1.66,2.87,3.9,5.25,6.13,6.54,1.74,1,3.34,1.27,4.31.72l10.2-5.86c4.73-2.74,8.57-4.48,13.29-4.48Zm49.5,12.54h.02-.02Z"/><path class="cls-4" d="m945.26,1322.3c-1.8,1.05-4.3.91-7.06-.68-5.49-3.19-9.95-10.91-9.95-17.25,0-3.18,1.12-5.4,2.92-6.45,1.81-1.02,4.29-.87,7.04.72,5.5,3.17,9.95,10.88,9.95,17.23.01,3.18-1.11,5.4-2.9,6.43Zm39.57,14.74c-.01-6.36-4.46-14.06-9.95-17.23-2.77-1.59-5.25-1.75-7.06-.71-1.8,1.02-2.93,3.27-2.91,6.43,0,6.35,4.45,14.07,9.97,17.25,2.74,1.58,5.24,1.73,7.03.69,1.8-1.05,2.93-3.26,2.91-6.43Zm36.66,21.16c-.01-6.35-4.46-14.06-9.96-17.23-2.75-1.58-5.25-1.75-7.05-.72-1.8,1.03-2.91,3.28-2.93,6.45,0,6.33,4.46,14.06,9.97,17.24,2.74,1.58,5.24,1.73,7.03.68,1.81-1.05,2.94-3.26,2.93-6.43Z"/></g></g></svg>