<svg width="76" height="80" viewBox="0 0 76 80" fill="none" xmlns="http://www.w3.org/2000/svg">
<g id="Mail" clip-path="url(#clip0_476_1918)">
<path id="Vector" d="M26.6697 38.4063H68.6071C71.8262 38.4063 74.4449 35.7898 74.4449 32.5734V5.91034C74.4449 2.69392 71.8262 0.0773926 68.6071 0.0773926H26.6697C23.4506 0.0773926 20.8319 2.69392 20.8319 5.91034V32.5766C20.8319 35.793 23.4506 38.4095 26.6697 38.4095V38.4063ZM29.0425 10.4988C28.2441 9.82555 28.1419 8.62897 28.8189 7.83125C29.4928 7.03034 30.6935 6.93142 31.4887 7.60789L47.6384 21.2585L63.7881 7.60789C64.5832 6.92823 65.7808 7.03034 66.4578 7.83125C67.1349 8.62897 67.0359 9.82555 66.2343 10.4988L56.1491 19.0249L66.2694 28.0104C67.055 28.706 67.1221 29.9026 66.4291 30.6844C66.0555 31.1056 65.5349 31.3194 65.0112 31.3194C64.5641 31.3194 64.1138 31.163 63.7529 30.8439L53.2271 21.4946L48.8647 25.1833C48.5134 25.4832 48.0759 25.6332 47.6416 25.6332C47.2073 25.6332 46.7697 25.4864 46.4185 25.1833L42.0529 21.4946L31.527 30.8439C31.1662 31.163 30.7191 31.3194 30.2688 31.3194C29.745 31.3194 29.2245 31.1056 28.8509 30.6844C28.1579 29.9026 28.2249 28.7092 29.0105 28.0104L39.1308 19.0249L29.0457 10.4988H29.0425Z" fill="#707070"/>
<path id="Vector_2" d="M14.8121 25.78H7.74487C6.39081 25.78 5.29224 26.8776 5.29224 28.2306C5.29224 29.5835 6.38762 30.6812 7.74487 30.6812H14.8121C16.1662 30.6812 17.2648 29.5835 17.2648 28.2306C17.2648 26.8776 16.1662 25.78 14.8121 25.78Z" fill="#707070"/>
<path id="Vector_3" d="M3.34104 21.6925H14.8122C16.1662 21.6925 17.2648 20.5948 17.2648 19.2419C17.2648 17.8889 16.1662 16.7913 14.8122 16.7913H3.34104C1.98698 16.7913 0.891602 17.8889 0.891602 19.2419C0.891602 20.5948 1.98698 21.6925 3.34104 21.6925Z" fill="#707070"/>
<path id="Vector_4" d="M7.74487 12.7038H14.8121C16.1662 12.7038 17.2648 11.6061 17.2648 10.2532C17.2648 8.90022 16.1662 7.80255 14.8121 7.80255H7.74487C6.39081 7.80255 5.29224 8.90022 5.29224 10.2532C5.29224 11.6061 6.38762 12.7038 7.74487 12.7038Z" fill="#707070"/>
<path id="Vector_5" d="M69.8143 45.9911L56.8486 49.9254C56.8677 50.2445 56.855 50.5828 56.839 50.9178C56.6091 54.6065 53.8594 57.6538 50.2348 58.4004L49.7015 58.5089C44.8122 59.514 39.843 60.0884 34.8516 60.2288L30.9299 60.3405C30.3008 60.3628 29.6972 60.1331 29.2373 59.6991C28.7807 59.2652 28.5188 58.678 28.4964 58.0494C28.4805 57.4144 28.7104 56.8146 29.1383 56.3614C29.5758 55.902 30.1635 55.6403 30.7894 55.6212L34.9921 55.4967C39.5652 55.3627 44.1224 54.833 48.6029 53.914L49.2895 53.7704C50.8671 53.4514 52.0295 52.108 52.119 50.5062C52.1732 49.5585 51.8507 48.6459 51.212 47.9439C50.5573 47.2387 49.6823 46.8271 48.7402 46.7856L27.8961 45.889C25.6127 45.7868 23.3293 46.4665 21.4643 47.7843L0.878808 63.4835C0.00697498 64.1504 -0.0792503 65.4331 0.69997 66.2117L13.043 78.5445C13.6912 79.1923 14.7164 79.2593 15.4381 78.7009L20.832 74.5431C21.5984 73.9496 22.5692 73.6752 23.5305 73.7773L39.2618 75.4334C42.2797 75.7493 45.3072 74.8973 47.7183 73.0498L73.5443 53.2439C74.48 52.526 75.0517 51.4794 75.1507 50.302C75.2497 49.1245 74.8537 48.0013 74.0521 47.1366C72.995 45.9911 71.3089 45.5411 69.8143 45.9943V45.9911Z" fill="#707070"/>
</g>
<defs>
<clipPath id="clip0_476_1918">
<rect width="75" height="79" fill="white" transform="translate(0.166626 0.0773926)"/>
</clipPath>
</defs>
</svg>
