<svg width="150" height="29" viewBox="0 0 150 29" fill="none" xmlns="http://www.w3.org/2000/svg">
<g id="Logo" clip-path="url(#clip0_573_507)">
<path id="Vector" d="M41.9238 13.2891V23.2555H36.9836V14.0665C36.9836 11.2519 35.7489 9.95682 33.7534 9.95682C31.5366 9.95682 29.9851 11.4122 29.9851 14.5185V23.2555H25.0448V14.0665C25.0448 11.2519 23.8729 9.95682 21.8146 9.95682C19.6292 9.95682 18.0777 11.4122 18.0777 14.5185V23.2555H13.1375V5.84717H17.8565V7.85391C19.1225 6.36488 21.0239 5.58911 23.2093 5.58911C25.5845 5.58911 27.6114 6.52677 28.8147 8.43734C30.1765 6.6582 32.3932 5.58911 34.9582 5.58911C39.0121 5.58911 41.9254 7.98374 41.9254 13.2907L41.9238 13.2891Z" fill="white"/>
<path id="Vector_2" d="M44.8699 14.5521C44.8699 9.31088 48.828 5.58911 54.3707 5.58911C57.9492 5.58911 60.7683 7.17431 62.003 10.0225L58.1704 12.1255C57.2526 10.4745 55.8893 9.73082 54.3377 9.73082C51.8354 9.73082 49.8729 11.51 49.8729 14.5521C49.8729 17.5943 51.837 19.3734 54.3377 19.3734C55.8893 19.3734 57.251 18.6618 58.1704 16.9788L62.003 19.1138C60.7683 21.8963 57.9492 23.5152 54.3707 23.5152C48.828 23.5152 44.8699 19.7934 44.8699 14.5521Z" fill="white"/>
<path id="Vector_3" d="M76.888 22.4139C75.8745 23.1576 74.3857 23.5151 72.8655 23.5151C68.843 23.5151 66.4992 21.4121 66.4992 17.2704V10.1202H63.8699V6.23656H66.4992V1.99707H71.4394V6.23656H75.6831V10.1202H71.4394V17.2063C71.4394 18.6954 72.2317 19.5032 73.5621 19.5032C74.29 19.5032 75.0195 19.2772 75.5576 18.8556L76.888 22.4155V22.4139Z" fill="#F9A61E"/>
<path id="Vector_4" d="M95.9727 15.9753H83.0833C83.5586 18.144 85.3628 19.4695 87.9608 19.4695C89.7665 19.4695 91.0639 18.9197 92.2358 17.7865L94.8652 20.6989C93.2822 22.5437 90.907 23.5135 87.8337 23.5135C81.9427 23.5135 78.1101 19.7276 78.1101 14.5504C78.1101 9.37329 82.0055 5.5874 87.1999 5.5874C92.3943 5.5874 96.0684 9.01746 96.0684 14.6145C96.0684 15.0024 96.0057 15.5538 95.9727 15.9737V15.9753ZM83.019 13.0309H91.4122C91.0639 10.8303 89.448 9.40695 87.2313 9.40695C85.0145 9.40695 83.3672 10.7982 83.019 13.0309Z" fill="#F9A61E"/>
<path id="Vector_5" d="M106.195 16.4291L103.82 18.8237V23.2571H98.8799V1.97314H103.82V12.8355L111.041 5.84558H116.932L109.838 13.2234L117.566 23.2539H111.581L106.197 16.4259L106.195 16.4291Z" fill="#F9A61E"/>
<path id="Vector_6" d="M127.097 16.4291L124.721 18.8237V23.2571H119.781V1.97314H124.721V12.8355L131.943 5.84558H137.834L130.739 13.2234L138.468 23.2539H132.482L127.098 16.4259L127.097 16.4291Z" fill="#F9A61E"/>
<path id="Vector_7" d="M5.01867 14.5425C6.41022 14.9753 7.04402 15.8712 7.04402 18.003V22.9461C7.04402 24.3983 7.77039 25.2318 9.25136 25.2318H9.79574V29H8.04179C4.2625 29 2.32657 27.0237 2.32657 23.4702V17.8796C2.32657 16.8906 1.81199 16.4274 0.996203 16.4274H0V12.6592H0.997772C1.81356 12.6592 2.32814 12.1959 2.32814 11.207V5.61633C2.32814 2.06285 4.26406 0.0849609 8.04336 0.0849609H9.79731V3.85321H9.25293C7.77196 3.85321 7.04559 4.68669 7.04559 6.13885V11.082C7.04559 13.2137 6.41022 14.1097 5.02024 14.5425H5.01867Z" fill="white"/>
<path id="Vector_8" d="M144.98 14.4575C143.588 14.0248 142.954 13.1288 142.954 10.997V6.05389C142.954 4.60172 142.228 3.76825 140.747 3.76825H140.203V0H141.957C145.736 0 147.672 1.97629 147.672 5.52976V11.1204C147.672 12.1094 148.186 12.5726 149.002 12.5726H150V16.3408H149.002C148.186 16.3408 147.672 16.8041 147.672 17.793V23.3837C147.672 26.9356 145.737 28.9134 141.957 28.9134H140.203V25.1452H140.747C142.228 25.1452 142.954 24.3117 142.954 22.8596V17.9164C142.954 15.7847 143.59 14.8887 144.98 14.4559V14.4575Z" fill="white"/>
</g>
<defs>
<clipPath id="clip0_573_507">
<rect width="150" height="29" fill="white"/>
</clipPath>
</defs>
</svg>
