<?xml version="1.0" encoding="utf-8"?>
<!-- Generator: Adobe Illustrator 26.2.1, SVG Export Plug-In . SVG Version: 6.00 Build 0)  -->
<svg version="1.1" id="Layer_1" xmlns="http://www.w3.org/2000/svg" xmlns:xlink="http://www.w3.org/1999/xlink" x="0px" y="0px"
	 viewBox="0 0 837.17 1202.81" style="enable-background:new 0 0 837.17 1202.81;" xml:space="preserve">
<style type="text/css">
	.st0{fill:#FBF0E5;}
	.st1{opacity:0.61;}
	.st2{opacity:0.61;fill:#FBF0E5;}
	.st3{fill:#EE8240;}
	.st4{fill:#DBA675;}
	.st5{opacity:0.22;fill:#9A521C;}
	.st6{opacity:0.09;}
	.st7{fill:#F2CCA9;}
	.st8{opacity:0.39;fill:#9A521C;}
	.st9{fill:#DFB68E;}
	.st10{fill:#8A8D91;}
	.st11{fill:#541932;}
	.st12{fill:#E0AE80;}
	.st13{opacity:0.25;fill:#9A521C;}
	.st14{opacity:0.28;fill:#919FB2;}
	.st15{opacity:0.34;fill:#933616;}
	.st16{fill:#F5F6F8;}
	.st17{fill:#8B6578;}
	.st18{fill:#E6CBAE;}
	.st19{fill:#E87B59;}
	.st20{fill:#ECC0B3;}
	.st21{opacity:0.25;fill:#541932;}
	.st22{fill:#FFFFFF;}
	.st23{opacity:0.25;fill:#FFFFFF;}
	.st24{fill:url(#SVGID_1_);}
	.st25{fill:#7AEB90;}
	.st26{fill:#BAFB89;}
	.st27{fill:#F6F5FF;}
	.st28{fill:#549F56;}
	.st29{opacity:0.5;fill:#FFFFFF;}
	.st30{opacity:0.2;fill:#541932;}
	.st31{fill:#D76730;}
	.st32{fill:url(#SVGID_00000083083737800626901620000004815928189674748847_);}
	.st33{fill:url(#SVGID_00000083060408315903936820000010039948870659719296_);}
	.st34{fill:url(#SVGID_00000100367117952978442600000005416685216989555367_);}
	.st35{fill:url(#SVGID_00000150102751677857728850000013173275011899600818_);}
	.st36{fill:url(#SVGID_00000114766485519814882050000007837937610995332778_);}
	.st37{fill:url(#SVGID_00000067215853430327508030000008414784229081646513_);}
	.st38{fill:url(#SVGID_00000020361074638687287080000011684703468552529281_);}
	.st39{fill:url(#SVGID_00000099659126484105114410000005478707313203878530_);}
	.st40{fill:url(#SVGID_00000126291846825444355250000010250690187261272241_);}
	.st41{fill:url(#SVGID_00000032650249474755291640000004926123418311324565_);}
	.st42{fill:url(#SVGID_00000167356370942416745590000016713051277835666603_);}
	.st43{fill:url(#SVGID_00000168099673823834750260000008962333028727341968_);}
	.st44{fill:url(#SVGID_00000127035780509007185920000001884690324900144524_);}
	.st45{fill:url(#SVGID_00000143597063975338672380000010436619963521521027_);}
	.st46{fill:url(#SVGID_00000069359690848235997540000008491186065387726504_);}
	.st47{fill:url(#SVGID_00000090260769368394173130000003314337961022288303_);}
	.st48{fill:url(#SVGID_00000121263903131442000380000010643306981499199872_);}
	.st49{fill:url(#SVGID_00000004542631332922082220000005050033163620692617_);}
	.st50{fill:url(#SVGID_00000098930832093528728030000016205998770497590400_);}
	.st51{opacity:0.1;fill:#541932;}
	.st52{fill:#141414;}
	.st53{fill:#DF6B33;}
	.st54{fill:#212121;}
	.st55{fill:#666666;}
	.st56{fill:#EDC2A1;}
	.st57{opacity:0.2;fill:#EDC2A1;}
	.st58{fill:#EA9A57;}
	.st59{fill:#E49C69;}
	.st60{fill:#BCC0C4;}
	.st61{fill:#E4E4E4;}
	.st62{fill:#E7AA7D;}
	.st63{fill:none;stroke:#541932;stroke-width:7;stroke-linecap:round;stroke-linejoin:round;stroke-miterlimit:10;}
	.st64{fill:none;stroke:#FFFFFF;stroke-width:7;stroke-linecap:round;stroke-linejoin:round;stroke-miterlimit:10;}
	.st65{fill:#31A24C;}
	.st66{fill:#E06B33;}
	.st67{clip-path:url(#SVGID_00000146501544710763007910000015050988511540204946_);}
	.st68{fill-rule:evenodd;clip-rule:evenodd;fill:#FFFFFF;}
	.st69{fill-rule:evenodd;clip-rule:evenodd;}
	.st70{fill-rule:evenodd;clip-rule:evenodd;fill:url(#SVGID_00000153680366309485378540000015110580962141575079_);}
	.st71{fill-rule:evenodd;clip-rule:evenodd;fill:url(#SVGID_00000088824116111144638700000007537389318406506666_);}
	.st72{fill:#DB5B14;}
	.st73{fill:#3F5963;}
	.st74{opacity:0.3;}
	.st75{fill:#1E2E34;}
	.st76{fill:url(#SVGID_00000053533577493961860030000018179953143674079396_);}
	.st77{fill:url(#SVGID_00000035523834292355771450000008132198664124981130_);}
	.st78{fill:url(#SVGID_00000072998190846369729160000003493664756977767614_);}
	.st79{fill:url(#SVGID_00000134226190856222155270000001127551144463510970_);}
	.st80{fill:url(#SVGID_00000076574533946985450510000006023145379168383651_);}
	.st81{fill:#C0CFF6;}
	.st82{fill:url(#SVGID_00000144334011238964151710000017826021489119152286_);}
	.st83{fill:url(#SVGID_00000077313075751999410180000009707029541836184732_);}
	.st84{fill:url(#SVGID_00000027596163855698247460000012779003361199174316_);}
	.st85{fill:url(#SVGID_00000137134079533709696310000017184028328632240029_);}
	.st86{fill:url(#SVGID_00000076574678399647180490000004252142741687367359_);}
	.st87{fill:url(#SVGID_00000149363884235284196890000007244601930024037263_);}
	.st88{fill:url(#SVGID_00000113327559812899785770000012917384054473470622_);}
	.st89{fill:none;stroke:#541932;stroke-width:10;stroke-miterlimit:10;}
	.st90{fill:none;stroke:#541932;stroke-width:10;stroke-linecap:round;stroke-linejoin:round;stroke-miterlimit:10;}
	.st91{fill:#F7CDC6;}
	.st92{fill:none;stroke:#541932;stroke-width:7;stroke-linecap:round;stroke-miterlimit:10;}
	.st93{fill:#FFD140;}
	.st94{opacity:0.25;fill:#6A1A36;}
	.st95{opacity:0.5;fill:#A1F6FD;}
	.st96{fill:#541932;stroke:#541932;stroke-width:11;stroke-miterlimit:10;}
	.st97{fill:#F8D34E;}
	.st98{fill:#5BC3EA;}
	.st99{opacity:0.25;fill:#549F56;}
	.st100{fill:url(#SVGID_00000165940125222517120520000014324649769298506410_);}
	.st101{opacity:0.25;}
	.st102{fill:url(#SVGID_00000040557293069124668860000003272719801918118590_);}
	.st103{fill:#492222;}
</style>
<g>
	<g>
		<path class="st95" d="M215.46,1197.16c0,0,217.52,39.42,427-90s152.05-302.09,159.46-439.42c7.42-137.34,57.97-229.82-18.47-352.3
			S617.32,173.42,495.15,212.09s-233.24,99.53-335.61,167.77S-12.69,520.08,1.93,628.82s55.06,129.88,36.92,203.6
			S36.3,1156.28,215.46,1197.16z"/>
		<path class="st96" d="M831.21,984.49c-20.28-168.15-182.84-343.23-198.9-360.15c45.73-48.88,73.8-114.47,73.8-186.53
			c0-150.72-122.62-273.34-273.34-273.34S159.43,287.08,159.43,437.8c0,74.31,29.84,141.75,78.13,191.07
			c-8.93,5.37-49.87,31.63-91.83,85.05c-43.51,55.4-97.08,152.2-105.19,298.78c-1.46,26.51,14.05,51.22,38.61,61.49
			c46.78,19.57,155.95,52.4,361.61,52.4c215.07,0,320.6-51.84,364.35-82.75C824.01,1030.5,834.02,1007.75,831.21,984.49z"/>
		<circle class="st91" cx="432.77" cy="437.8" r="268.26"/>
		<path class="st97" d="M608.24,649.98L464.31,939.66L265.59,656.84c44.8,38.38,103.39,61.72,167.48,61.72
			C500.89,718.57,562.56,692.43,608.24,649.98z"/>
		<path class="st98" d="M802.17,1039.7c-43.27,30.56-147.75,81.81-361.42,81.81c-204.77,0-313.22-32.58-359.64-52
			c-22.58-9.45-36.85-32.16-35.5-56.53C60.1,751.15,220.17,645.45,239.9,633.4l224.69,326.83c0.51,0.75,1.36,1.16,2.28,1.1
			c0.9-0.07,1.7-0.61,2.09-1.42L629.8,629.07c10.05,10.67,48.8,52.86,89.05,110.73c42.9,61.68,96.34,154.31,107.32,245.29
			C828.75,1006.5,819.55,1027.43,802.17,1039.7z"/>
		<path class="st21" d="M45.6,1012.98c-1.35,24.37,12.92,47.08,35.5,56.53c46.42,19.42,154.87,52,359.64,52
			c213.67,0,318.15-51.26,361.42-81.81c0.95-0.67,1.78-1.46,2.68-2.19c-4.05,0.99-8.03,1.97-12.15,2.98
			C262.5,1170.94,96.91,889.27,250,648.09l-10.1-14.7C220.17,645.45,60.1,751.15,45.6,1012.98z"/>
		
			<ellipse transform="matrix(0.9196 -0.3929 0.3929 0.9196 -287.336 337.1581)" class="st23" cx="679.92" cy="870.47" rx="70.13" ry="129.91"/>
		<path class="st21" d="M214.83,387.48c0-61.16,20.61-117.56,55.2-162.74c-64.09,49.07-105.52,126.3-105.52,213.06
			c0,147.92,120.34,268.26,268.26,268.26c86.76,0,164-41.44,213.06-105.52c-45.17,34.59-101.58,55.2-162.74,55.2
			C335.18,655.74,214.83,535.39,214.83,387.48z"/>
		
			<ellipse transform="matrix(0.0224 -0.9997 0.9997 0.0224 -65.5236 822.3543)" class="st11" cx="387.75" cy="444.68" rx="38.57" ry="25.13"/>
		
			<ellipse transform="matrix(0.9696 -0.2448 0.2448 0.9696 -78.3065 159.4656)" class="st11" cx="602.42" cy="394.78" rx="29.58" ry="45.4"/>
		<path class="st92" d="M554.8,446.51c-6.57,21.33-24.5,38.35-47.97,42.64c-22.92,4.19-45.2-4.86-58.98-21.7"/>
		<path class="st21" d="M603.1,654.54L603.1,654.54c-45.12,39.73-104.7,64.03-170.03,64.03c-55.08,0-106.06-17.27-147.76-46.48
			c-3.31-2.32-6.57-4.72-9.77-7.18c-0.12-0.09-0.24-0.18-0.36-0.27c-3.27-2.52-6.47-5.12-9.6-7.8l198.72,282.81L608.7,650.68
			l-0.47-0.7C606.56,651.54,604.82,653.03,603.1,654.54z M461.98,884.32c-22.74,0-175.59-206.8-175.59-206.8l0-0.01
			c25.24,28.09,92.52,63.55,163.62,63.55c73.32,0,120.07-43.69,151.01-82.28l0,0C601.01,658.77,484.72,884.32,461.98,884.32z"/>
		<path class="st23" d="M406.78,800.41c-7.52-6.4-15.53-13.63-17.03-23.28c-1.84-11.87,8.97-24.04,21.24-23.9
			c12.9,0.14,22.61,11.19,34.44,16.22c13.82,5.88,31.15,2.64,41.8-7.79c6.33-6.2,11.07-15.02,19.76-17.17
			c7.01-1.73,15.01,2.29,17.65,8.88c3.72,9.27-2.74,19.27-9.26,26.92c-9.88,11.58-20.7,22.38-32.33,32.27
			c-6.34,5.39-13.04,10.59-20.81,13.69C438.09,835.89,423.19,814.38,406.78,800.41z"/>
	</g>
	<g>
		<path class="st11" d="M718.62,211.04c-10.23-17.67-21.17-35.24-32.53-52.22c-10.84-16.21-22.81-33.09-39.44-45.85
			c-19.84-15.22-46.56-24.2-77.27-25.97c-16.49-0.95-32.91,0.11-49.1,1.91c15.3-23.79,26.58-60.25,15.91-84.83
			c-0.92-2.11-2.85-3.62-5.12-4c-2.27-0.38-4.58,0.42-6.14,2.12c-25.45,27.88-62.99,46.49-118.14,58.57
			c-15.37,3.37-31.23,6.13-46.57,8.81c-29.54,5.15-60.08,10.48-89.15,20.4c-51.7,17.65-80,44.57-95.31,66.72
			c0.86-18.62,4.91-37.07,12.02-54.35c4.64-11.27,10.99-26.72,1.95-38.95c-2.04-2.77-5.84-3.57-8.83-1.87
			c-50.82,28.83-76.72,93.82-61.72,149.84c-19.81-7.09-37.51-20.29-49.74-37.38c-1.54-2.16-4.2-3.22-6.8-2.72
			c-2.6,0.5-4.68,2.46-5.33,5.03c-3.26,13.06-0.64,27.62,7.18,39.95c7.82,12.33,19.88,20.91,33.08,23.52
			c4.99,0.99,9.96,1.22,14.76,1.44c2.07,0.09,4.1,0.19,6.07,0.34c-4.3,2.46-9.16,4.47-14.17,6.55c-3.06,1.27-6.23,2.58-9.3,4.02
			c-14.57,6.81-29.46,20.27-27.57,37.64c0.74,6.74,3.93,12.46,6.5,17.05c7.51,13.44,18.39,51.31,28.91,87.93
			c13.51,47,27.47,95.61,39.17,112.36c0.01,0.02,0.03,0.03,0.04,0.05c0.24,0.33,0.5,0.62,0.78,0.9c0.03,0.03,0.06,0.07,0.09,0.1
			c18.05,17.03,42.71,45.03,54.92,65.57c1.28,2.15,3.62,3.41,6.1,3.32c0.09,0,0.19-0.01,0.28-0.02c2.58-0.21,4.83-1.86,5.78-4.27
			c24.72-62.32,76.36-243.62,65.76-336.4l50.02,41.72c10.18,8.49,21.71,18.11,35.4,23.57c4.21,1.68,7.79,3.17,11.15,4.57
			c13.38,5.58,23.05,9.6,52.06,17.33c2.52,0.67,5.2-0.16,6.9-2.13c1.7-1.98,2.12-4.75,1.09-7.14c-6.99-16.15-11.5-33.16-13.48-50.47
			c1.28,1.32,2.54,2.64,3.8,3.95c11.73,12.26,23.87,24.93,40.84,31.12c24.93,9.09,43.99,4.16,68.21-3.79
			c14.57-4.79,22.68,0.51,36.11,9.3c2.61,1.71,5.31,3.47,8.25,5.28c35.19,21.62,78.96,48.51,126.98,46.68
			c0.08,0,0.17-0.01,0.25-0.01c2.69-0.11,5.06-1.79,6.05-4.3c0.99-2.5,0.41-5.36-1.49-7.27c-16.36-16.57-27.6-39.79-35.38-73.08
			c-2.58-11.02-4.66-22.43-6.68-33.47c-2.37-12.99-4.81-26.32-8.12-39.47c18.01,5.2,35.36,12.46,51.73,21.65
			c2.67,1.5,6.02,1.03,8.17-1.15C719.73,217.05,720.16,213.7,718.62,211.04z"/>
		<path class="st93" d="M649.58,182.54c-2.36-0.56-4.85,0.18-6.51,1.95c-1.67,1.77-2.27,4.29-1.57,6.62
			c4.81,16.1,7.92,33.1,10.93,49.54c2.05,11.2,4.17,22.78,6.82,34.12c6.69,28.62,15.94,50.51,28.66,67.55
			c-38.51-3.59-74.86-25.92-104.72-44.26c-2.77-1.7-5.39-3.41-7.92-5.07c-13.89-9.08-27-17.67-47.8-10.83
			c-22.94,7.54-38.38,11.56-59.3,3.94c-14-5.11-24.53-16.1-35.68-27.75c-4.71-4.92-9.58-9.96-14.8-14.65
			c-0.01-8.45,0.57-16.92,1.78-25.35c0.53-3.72-2.05-7.16-5.77-7.69c-3.71-0.53-7.16,2.05-7.69,5.77
			c-4.35,30.49-1.29,61.46,8.83,90.4c-18.43-5.29-26.65-8.71-37.31-13.15c-3.46-1.44-7.04-2.93-11.33-4.65
			c-11.68-4.66-21.87-13.16-31.73-21.39l-64.32-53.64c-2.27-1.89-5.49-2.1-7.99-0.53c-2.49,1.58-3.69,4.58-2.96,7.44
			c18.27,71.35-26.03,249.7-57.15,334.44c-13.98-19.97-34.11-42.14-49.26-56.51c-10.38-15.45-24.47-64.49-36.93-107.84
			c-11.23-39.08-21.84-76-30.11-90.81c-2.5-4.48-4.45-8.2-4.85-11.89c-1.12-10.24,9.97-19.24,19.81-23.84
			c2.81-1.31,5.7-2.51,8.76-3.78c10.56-4.38,21.48-8.91,29.3-18.36c1.36-1.64,1.87-3.82,1.38-5.9c-0.49-2.07-1.92-3.8-3.87-4.66
			c-7.69-3.4-15.63-3.77-23.32-4.12c-4.5-0.2-8.74-0.4-12.73-1.19c-9.57-1.9-18.4-8.26-24.24-17.46c-2.55-4.03-4.37-8.34-5.41-12.71
			c15.71,15.71,35.94,27.01,57.59,31.85c2.45,0.55,5.01-0.3,6.65-2.21c1.64-1.91,2.09-4.56,1.17-6.91
			c-9.88-25.22-9.92-54.35-0.11-82.01c8.83-24.89,24.59-45.68,44.83-59.34c0.16,5.79-2.8,12.98-5.5,19.54
			c-11.04,26.83-15.28,56.27-12.27,85.12c0.32,3.09,2.69,5.56,5.76,6.02c3.07,0.46,6.06-1.22,7.27-4.08
			c8.76-20.71,33.34-58.81,99.5-81.4c28.06-9.58,58.07-14.81,87.1-19.87c15.48-2.7,31.49-5.49,47.15-8.92
			c52.25-11.45,89.73-28.74,116.71-54.02c2.58,22.28-9.54,53.88-24.74,71.21c-4.01,0.55-8,1.11-11.97,1.68l-41.83,5.94
			c-3.72,0.53-6.3,3.97-5.78,7.69c0.53,3.72,3.95,6.3,7.69,5.78l41.83-5.95c25.26-3.59,51.38-7.3,76.98-5.82
			c27.98,1.62,52.11,9.63,69.78,23.19c14.98,11.49,26.21,27.35,36.42,42.62c6.91,10.32,13.66,20.87,20.18,31.53
			C680.37,191.4,665.18,186.24,649.58,182.54z"/>
		<path class="st23" d="M432.47,258.35c11.15,11.64,21.68,22.64,35.68,27.75c20.92,7.63,36.36,3.6,59.3-3.94
			c20.8-6.83,33.91,1.75,47.8,10.83c2.53,1.66,5.15,3.37,7.92,5.07c29.86,18.34,66.21,40.67,104.72,44.26
			c-12.72-17.04-21.96-38.93-28.66-67.55c-2.65-11.34-4.77-22.92-6.82-34.12c-3.01-16.44-6.12-33.45-10.93-49.54
			c-0.7-2.33-0.1-4.85,1.57-6.62c1.67-1.77,4.16-2.51,6.51-1.95c15.6,3.7,30.79,8.86,45.4,15.38c-5.77-9.42-11.72-18.74-17.79-27.91
			c-8.73,2.89-18.13,3.77-27.23,2.45c-9.06-1.32-19.13-4.54-26.76,0.53c-5.87,3.9-8.06,11.67-7.54,18.7
			c0.52,7.03,3.23,13.68,5.19,20.45c3.24,11.18,4.45,22.83,5.65,34.41c1.33,12.77,2.65,25.54,3.98,38.32
			c0.21,2.03,0.35,4.31-0.97,5.86c-1.2,1.41-3.21,1.76-5.06,1.88c-32.28,2.11-54.9-34.63-86.88-39.51
			c-23.22-3.54-47.44,10.5-69.77,3.23c-10.37-3.38-36.37-31.84-49.26-30.14c-0.57,5.84-0.86,11.68-0.86,17.52
			C422.89,248.39,427.77,253.43,432.47,258.35z"/>
		<path class="st23" d="M325.61,248.73c-7.85-8.85-14.45-18.85-23.19-26.83c-8.74-7.97-20.44-13.87-32.12-12.01
			c-0.4,1.16-0.71,2.34-0.99,3.53c0.28,0.17,0.55,0.36,0.81,0.57l64.32,53.64c9.86,8.22,20.05,16.72,31.73,21.39
			c4.29,1.71,7.87,3.21,11.33,4.65c10.66,4.44,18.88,7.86,37.31,13.15c-0.51-1.46-0.99-2.93-1.47-4.4
			C381.08,289.34,348.6,274.62,325.61,248.73z"/>
		<path class="st23" d="M263.45,261.99c-1.12,3.09-2.28,6.16-3.26,9.29c-3.39,10.92-4.42,22.39-6.18,33.69
			c-2.18,14.06-5.5,27.91-8.81,41.74c-4.3,17.97-8.6,35.93-12.9,53.9c-2.29,9.58-4.59,19.17-7.68,28.52
			c-3.75,11.34-8.66,22.27-13.11,33.36c-8.56,21.32-15.43,43.28-22.29,65.21c-3.06-5.1-9.14-7.34-15.1-6.89
			c9.93,10.98,19.93,23.11,27.91,34.52C228.23,484,263.76,346.33,263.45,261.99z"/>
		<path class="st94" d="M126.58,291.04c8.02-13.26,25.82-18.13,33.73-31.45c7.3-12.29,2.87-30.09-9.34-37.53
			c4.32-0.1,8.63-0.2,12.95-0.3c0.5-9.82,0.99-19.64,1.49-29.46c9.89,19.5,27.75,34.8,48.53,41.6c1.88-14.87,3.56-30.07,9.76-43.72
			c6.2-13.65,17.87-25.77,32.64-28.3c9.2-1.58,18.59,0.64,27.92,0.88c9.33,0.24,19.81-2.26,24.68-10.22
			c2.46-4.02,3.13-8.89,5.29-13.08c4.61-8.92,14.89-13.06,24.33-16.49c54.17-19.68,108.33-39.36,162.5-59.05
			c-2.95,6.97-7.2,13.36-12.38,18.87c-4.51,4.8-10.9,7.96-15.29,12.48l16.32-2.32c1.78-0.25,3.58-0.5,5.36-0.75
			c4.12-2.26,8.14-4.87,11.53-7.21c12.78-17.96,22.11-45.12,19.81-64.93c-26.98,25.27-64.46,42.57-116.71,54.02
			c-15.65,3.43-31.67,6.22-47.15,8.92c-29.02,5.06-59.03,10.29-87.1,19.87c-66.16,22.58-90.74,60.69-99.5,81.4
			c-1.21,2.86-4.2,4.53-7.27,4.08c-3.07-0.46-5.44-2.94-5.76-6.02c-3.01-28.86,1.24-58.29,12.27-85.12
			c2.7-6.56,5.66-13.75,5.5-19.54c-20.24,13.65-36.01,34.45-44.83,59.34c-9.81,27.66-9.77,56.78,0.11,82.01
			c0.92,2.34,0.47,5-1.17,6.91c-1.64,1.91-4.2,2.76-6.65,2.21c-21.65-4.84-41.88-16.14-57.59-31.85c1.04,4.37,2.86,8.68,5.41,12.71
			c5.84,9.2,14.67,15.57,24.24,17.46c3.99,0.79,8.24,0.98,12.73,1.19c7.68,0.35,15.63,0.71,23.32,4.12
			c1.95,0.86,3.38,2.59,3.87,4.66c0.49,2.07-0.02,4.25-1.38,5.9c-7.82,9.45-18.74,13.98-29.3,18.36c-3.06,1.27-5.95,2.47-8.76,3.78
			c-9.84,4.6-20.92,13.6-19.81,23.84c0.4,3.7,2.35,7.42,4.85,11.89c7.34,13.14,16.51,43.68,26.33,77.69
			c4.81-18.7,7.73-37.88,8.65-57.16C121.21,310.52,121.3,299.76,126.58,291.04z"/>
	</g>
</g>
</svg>
