<?xml version="1.0" encoding="utf-8"?>
<!-- Generator: Adobe Illustrator 26.2.1, SVG Export Plug-In . SVG Version: 6.00 Build 0)  -->
<svg version="1.1" id="Layer_1" xmlns="http://www.w3.org/2000/svg" xmlns:xlink="http://www.w3.org/1999/xlink" x="0px" y="0px"
	 viewBox="0 0 1295.67 1000.02" style="enable-background:new 0 0 1295.67 1000.02;" xml:space="preserve">
<style type="text/css">
	.st0{fill:#FBF0E5;}
	.st1{opacity:0.61;}
	.st2{opacity:0.61;fill:#FBF0E5;}
	.st3{fill:#EE8240;}
	.st4{fill:#DBA675;}
	.st5{opacity:0.22;fill:#9A521C;}
	.st6{opacity:0.09;}
	.st7{fill:#F2CCA9;}
	.st8{opacity:0.39;fill:#9A521C;}
	.st9{fill:#DFB68E;}
	.st10{fill:#8A8D91;}
	.st11{fill:#541932;}
	.st12{fill:#E0AE80;}
	.st13{opacity:0.25;fill:#9A521C;}
	.st14{opacity:0.28;fill:#919FB2;}
	.st15{opacity:0.34;fill:#933616;}
	.st16{fill:#F5F6F8;}
	.st17{fill:#8B6578;}
	.st18{fill:#E6CBAE;}
	.st19{fill:#E87B59;}
	.st20{fill:#ECC0B3;}
	.st21{opacity:0.25;fill:#541932;}
	.st22{fill:#FFFFFF;}
	.st23{opacity:0.25;fill:#FFFFFF;}
	.st24{fill:url(#SVGID_1_);}
	.st25{fill:#7AEB90;}
	.st26{fill:#BAFB89;}
	.st27{fill:#F6F5FF;}
	.st28{fill:#549F56;}
	.st29{opacity:0.5;fill:#FFFFFF;}
	.st30{opacity:0.2;fill:#541932;}
	.st31{fill:#D76730;}
	.st32{fill:url(#SVGID_00000164495274459099052160000001384816287934161842_);}
	.st33{fill:url(#SVGID_00000026149154941617328110000003655822913763003806_);}
	.st34{fill:url(#SVGID_00000085235582403089740460000006399625181772897933_);}
	.st35{fill:url(#SVGID_00000013887231325979743470000004649804536733987491_);}
	.st36{fill:url(#SVGID_00000127734298857777781850000008629033103276690853_);}
	.st37{fill:url(#SVGID_00000174574123361491206060000008306690421684912027_);}
	.st38{fill:url(#SVGID_00000088094542794241474860000007925735497485747626_);}
	.st39{fill:url(#SVGID_00000170266810789348600730000002169161030334253454_);}
	.st40{fill:url(#SVGID_00000075150037821505227260000006180218118373874621_);}
	.st41{fill:url(#SVGID_00000051352559854884382750000004869459007176885389_);}
	.st42{fill:url(#SVGID_00000085221324893688423800000002027092893281449653_);}
	.st43{fill:url(#SVGID_00000108310980468492555500000000299218950415383437_);}
	.st44{fill:url(#SVGID_00000113343844087727366090000014380047622555065745_);}
	.st45{fill:url(#SVGID_00000086679665455543873580000017633995929604020616_);}
	.st46{fill:url(#SVGID_00000091734428233952246740000017368954394030750129_);}
	.st47{fill:url(#SVGID_00000020375532815429967760000003671684214745644942_);}
	.st48{fill:url(#SVGID_00000098917734209324477840000015942832788031036564_);}
	.st49{fill:url(#SVGID_00000153698846608039841240000014502005726489520769_);}
	.st50{fill:url(#SVGID_00000154408923843750020050000010942543069830739636_);}
	.st51{opacity:0.1;fill:#541932;}
	.st52{fill:#141414;}
	.st53{fill:#DF6B33;}
	.st54{fill:#212121;}
	.st55{fill:#666666;}
	.st56{fill:#EDC2A1;}
	.st57{opacity:0.2;fill:#EDC2A1;}
	.st58{fill:#EA9A57;}
	.st59{fill:#E49C69;}
	.st60{fill:#BCC0C4;}
	.st61{fill:#E4E4E4;}
	.st62{fill:#E7AA7D;}
	.st63{fill:none;stroke:#541932;stroke-width:7;stroke-linecap:round;stroke-linejoin:round;stroke-miterlimit:10;}
	.st64{fill:none;stroke:#FFFFFF;stroke-width:7;stroke-linecap:round;stroke-linejoin:round;stroke-miterlimit:10;}
	.st65{fill:#31A24C;}
	.st66{fill:#E06B33;}
	.st67{clip-path:url(#SVGID_00000111880226552001555340000002096887001838302636_);}
	.st68{fill-rule:evenodd;clip-rule:evenodd;fill:#FFFFFF;}
	.st69{fill-rule:evenodd;clip-rule:evenodd;}
	.st70{fill-rule:evenodd;clip-rule:evenodd;fill:url(#SVGID_00000051380814367647608230000007538431574016668055_);}
	.st71{fill-rule:evenodd;clip-rule:evenodd;fill:url(#SVGID_00000029755775422675300210000015704053872399904910_);}
	.st72{fill:#DB5B14;}
	.st73{fill:#3F5963;}
	.st74{opacity:0.3;}
	.st75{fill:#1E2E34;}
	.st76{fill:url(#SVGID_00000107569460031437450650000003192564423253429382_);}
	.st77{fill:url(#SVGID_00000000936641926579976620000002175104923446294718_);}
	.st78{fill:url(#SVGID_00000016789660894529003910000009287445468680422069_);}
	.st79{fill:url(#SVGID_00000159442809571566829990000010583696030865068196_);}
	.st80{fill:url(#SVGID_00000150803343473182645970000011398880652079576992_);}
	.st81{fill:#C0CFF6;}
	.st82{fill:url(#SVGID_00000111890354676166791470000018413385673660451715_);}
	.st83{fill:url(#SVGID_00000174597339875949406410000005610521311890335889_);}
	.st84{fill:url(#SVGID_00000152230221848062351400000007443205420782904504_);}
	.st85{fill:url(#SVGID_00000060751015643660014890000004089406495043853963_);}
	.st86{fill:url(#SVGID_00000104688961634104908520000006072424577930721195_);}
	.st87{fill:url(#SVGID_00000029736146803418821610000002132743483216404625_);}
	.st88{fill:url(#SVGID_00000171681038017434130250000016290818682630635669_);}
	.st89{fill:none;stroke:#541932;stroke-width:10;stroke-miterlimit:10;}
	.st90{fill:none;stroke:#541932;stroke-width:10;stroke-linecap:round;stroke-linejoin:round;stroke-miterlimit:10;}
	.st91{fill:#F7CDC6;}
	.st92{fill:none;stroke:#541932;stroke-width:7;stroke-linecap:round;stroke-miterlimit:10;}
	.st93{fill:#FFD140;}
	.st94{opacity:0.25;fill:#6A1A36;}
	.st95{opacity:0.5;fill:#A1F6FD;}
	.st96{fill:#541932;stroke:#541932;stroke-width:11;stroke-miterlimit:10;}
	.st97{fill:#F8D34E;}
	.st98{fill:#5BC3EA;}
	.st99{opacity:0.25;fill:#549F56;}
	.st100{fill:url(#SVGID_00000118393175442564645070000018096188635591499187_);}
	.st101{opacity:0.25;}
	.st102{fill:url(#SVGID_00000173155357459920428770000012683583103601281421_);}
	.st103{fill:#492222;}
</style>
<g>
	<g>
		<path class="st99" d="M43.37,569.71c0,0,80.77,238.07,325.02,375.04s384.3-15.39,524.98-83.76s260.54-69.11,340.19-212.67
			c79.65-143.57,49.61-243.57-56.23-343.75S949.7,127.5,825.38,63.32S590.93-30.63,490.85,43.88s-98.81,126.39-182.13,149.01
			S-14.78,368.97,43.37,569.71z"/>
		<g>
			<path class="st54" d="M578.56,240.3c0,116.59-71.01,267.99-228.2,265.14c-169.06,0-233.28-134.44-233.28-251.03
				c-29.6-75.78,5.97-158.01,67.57-173.15C223.2,23.29,290.14,4.65,357.4,4.65C486.71,4.65,614.29,90.36,578.56,240.3z"/>
			<g>
				<path class="st11" d="M1293.13,847.89H2.54c-1.4,0-2.54-1.14-2.54-2.54c0-1.4,1.14-2.54,2.54-2.54h1290.59
					c1.4,0,2.54,1.14,2.54,2.54C1295.67,846.75,1294.53,847.89,1293.13,847.89z"/>
			</g>
			<g>
				<g>
					<path class="st11" d="M1231.8,845c-9.94-236.38-149.36-329.14-173.86-343.64c76.75-37.89,129.68-116.95,129.68-208.18
						c0-127.95-104.09-232.05-232.05-232.05c-109.33,0-201.19,76.03-225.62,177.99h-15.25c25.01-111.89,125.8-192.8,240.87-192.8
						c136.12,0,246.86,110.74,246.86,246.86c0,1.53,1.24,2.77,2.77,2.77c1.53,0,2.77-1.24,2.77-2.77
						c0-139.18-113.23-252.4-252.4-252.4c-118.12,0-221.55,83.4-246.6,198.51c-10.59,0.84-18.97,9.63-18.97,20.43v65.18
						c0,11.36,9.24,20.6,20.6,20.6h2.04v21.17c0,14.3,11.63,25.93,25.93,25.93h7.39c22.44,47.11,60.3,85.5,107.02,108.63
						c-26.41,13.96-173.62,102.68-173.62,343.88v2.77h552.56L1231.8,845z M738.57,387.06c-11.24,0-20.38-9.15-20.38-20.39V345.5
						h11.37c3.34,14.41,8,28.31,13.89,41.56H738.57z"/>
					<polygon class="st3" points="982.99,525.23 971.97,544.33 939.19,544.33 928.17,525.23 					"/>
					<path class="st3" d="M941.02,549.88h29.16c0.22,0.47,0.55,0.9,1.02,1.19l11.79,108.16l-27.42,64.51l-27.41-64.51L941.02,549.88
						z"/>
					<path class="st22" d="M987.43,648.78l-11.02-101.07l13.78-23.87c0.22-0.39,0.31-0.82,0.34-1.25
						c20.18-3.06,39.49-8.77,57.62-16.69L987.43,648.78z"/>
					<path class="st10" d="M695.55,324.9v-65.18c0-8.3,6.75-15.05,15.05-15.05h18.07c-3.34,15.65-5.14,31.87-5.14,48.51
						c0,16.02,1.63,31.66,4.74,46.77H710.6C702.3,339.96,695.55,333.2,695.55,324.9z"/>
					<radialGradient id="SVGID_1_" cx="955.5807" cy="86.6632" r="652.1677" gradientUnits="userSpaceOnUse">
						<stop  offset="3.497172e-03" style="stop-color:#FBECE1"/>
						<stop  offset="1" style="stop-color:#F4C09D"/>
					</radialGradient>
					<path class="st24" d="M752.13,392.61h96.12c1.38,10.56,10.34,18.77,21.27,18.77c11.88,0,21.55-9.67,21.55-21.55
						c0-11.88-9.67-21.55-21.55-21.55c-10.93,0-19.89,8.21-21.27,18.78h-98.71c-13.09-28.62-20.45-60.4-20.45-93.88
						c0-124.89,101.61-226.5,226.5-226.5c124.89,0,226.5,101.61,226.5,226.5c0,90.44-53.3,168.63-130.12,204.91l-0.4-0.2l-0.2,0.48
						c-29.11,13.64-61.56,21.31-95.78,21.31c-34.22,0-66.66-7.67-95.77-21.31l-0.15-0.35l-0.31,0.14
						C812.74,476.19,774.8,438.81,752.13,392.61z"/>
					<path class="st10" d="M853.51,389.84c0-8.82,7.18-16.01,16.01-16.01s16.01,7.18,16.01,16.01c0,8.82-7.18,16-16.01,16
						S853.51,398.66,853.51,389.84z"/>
					<path class="st22" d="M920.63,522.59c0.02,0.43,0.11,0.86,0.34,1.25l14.56,25.23l-11.73,99.88l-60.78-143.04
						C881.14,513.83,900.45,519.53,920.63,522.59z"/>
					<path class="st55" d="M684.91,842.34c1.13-240.39,150.46-325.84,171.89-336.86l98.77,232.44l98.72-232.29
						c20.96,12.18,160.87,102.2,171.84,336.7H684.91z"/>
					
						<ellipse transform="matrix(0.2245 -0.9745 0.9745 0.2245 362.793 1069.7783)" class="st11" cx="853.54" cy="306.95" rx="38.69" ry="25.21"/>
					
						<ellipse transform="matrix(0.9991 -0.0433 0.0433 0.9991 -12.0582 45.8811)" class="st11" cx="1054.09" cy="301.56" rx="29.68" ry="45.54"/>
					<g>
						<path class="st11" d="M952.71,368.12c-0.51,0-1.02,0-1.53-0.01c-23.49-0.55-44.85-13.84-55.73-34.68
							c-0.65-1.25-0.17-2.79,1.08-3.44c1.24-0.64,2.78-0.17,3.44,1.08c10.02,19.2,29.69,31.44,51.33,31.94
							c0.47,0.01,0.94,0.01,1.41,0.01c21.72,0,41.58-11.72,52.09-30.84c0.69-1.23,2.23-1.68,3.47-1.01
							c1.23,0.68,1.68,2.23,1.01,3.47C997.86,355.4,976.29,368.12,952.71,368.12z"/>
					</g>
					<g class="st101">
						<path class="st11" d="M953.4,371.35c-0.51,0-1.02,0-1.53-0.01c-23.49-0.55-44.85-13.84-55.73-34.68
							c-0.65-1.25-0.17-2.79,1.08-3.44c1.24-0.64,2.78-0.17,3.44,1.08c10.02,19.2,29.69,31.44,51.33,31.94
							c0.47,0.01,0.94,0.01,1.41,0.01c21.72,0,41.58-11.72,52.09-30.84c0.69-1.23,2.23-1.68,3.47-1.01
							c1.23,0.68,1.68,2.23,1.01,3.47C998.54,358.63,976.98,371.35,953.4,371.35z"/>
					</g>
					<g class="st101">
						<path class="st11" d="M749.54,349.33c-10.63-23.23-17.39-48.55-19.6-75.15c-0.52,6.27-0.86,12.6-0.86,19.01
							c0,33.48,7.36,65.25,20.45,93.88h21.87c-7.27-10.14-13.74-20.9-19.28-32.19L749.54,349.33z"/>
						<path class="st11" d="M1051.96,460.36l-0.4-0.2l-0.2,0.48c-29.11,13.64-61.56,21.31-95.78,21.31
							c-34.22,0-66.66-7.67-95.77-21.31l-0.15-0.35l-0.31,0.14c-33.1-15.6-61.8-39.02-83.8-67.81h-23.42
							c22.67,46.2,60.62,83.58,107.22,105.55l0.31-0.14l0.15,0.35c29.11,13.64,61.56,21.31,95.77,21.31
							c34.22,0,66.67-7.67,95.78-21.31l0.2-0.48l0.4,0.2c76.82-36.28,130.12-114.47,130.12-204.91c0-6.36-0.33-12.64-0.85-18.86
							C1174.4,356.66,1123.37,426.63,1051.96,460.36z"/>
					</g>
				</g>
				<path class="st21" d="M710.32,324.9v-65.18c0-8.3,6.75-15.05,15.05-15.05H710.6c-8.3,0-15.05,6.75-15.05,15.05v65.18
					c0,8.3,6.75,15.05,15.05,15.05h14.77C717.08,339.96,710.32,333.2,710.32,324.9z"/>
				<path class="st21" d="M874.97,394.93c-5.82,0-10.55-4.73-10.55-10.55c0-4.98,3.48-9.14,8.13-10.24c-0.99-0.19-2-0.31-3.04-0.31
					c-8.82,0-16.01,7.18-16.01,16.01c0,8.82,7.18,16,16.01,16s16.01-7.18,16.01-16c0-1.04-0.12-2.05-0.31-3.04
					C884.11,391.45,879.95,394.93,874.97,394.93z"/>
				<polygon class="st23" points="941.02,549.88 950.72,712.32 955.58,723.74 960.37,712.46 970.18,549.88 				"/>
				<polygon class="st21" points="977.04,604.65 977.04,604.65 973.04,652.53 976.42,662.57 964.39,703 964.39,703 982.99,659.23 
									"/>
				<polygon class="st21" points="934.11,604.65 934.11,604.65 938.12,652.53 934.74,662.57 946.77,703 946.77,703 928.17,659.23 
									"/>
				<path class="st21" d="M955.52,530.83c7.72,0,14.52,3.92,18.54,9.87l8.93-15.48h-54.82l8.88,15.39
					C941.07,534.71,947.84,530.83,955.52,530.83z"/>
				<path class="st23" d="M955.52,537.6c-5.97,0-11.28,2.63-14.99,6.73h29.97C966.8,540.23,961.49,537.6,955.52,537.6z"/>
				<path class="st21" d="M1224.78,821.57c-0.19-2.31-0.45-4.54-0.66-6.82c-0.42-4.43-0.83-8.85-1.34-13.17
					c-0.32-2.68-0.7-5.27-1.04-7.91c-0.5-3.79-1-7.59-1.57-11.3c-0.43-2.78-0.91-5.49-1.38-8.22c-0.59-3.43-1.17-6.86-1.82-10.22
					c-0.53-2.79-1.11-5.52-1.68-8.26c-0.66-3.17-1.33-6.33-2.04-9.43c-0.64-2.77-1.3-5.5-1.97-8.22c-0.72-2.92-1.46-5.82-2.23-8.67
					c-0.74-2.76-1.49-5.49-2.27-8.19c-0.77-2.68-1.56-5.31-2.36-7.93c-0.84-2.75-1.69-5.48-2.57-8.17c-0.79-2.41-1.6-4.78-2.42-7.14
					c-0.96-2.77-1.92-5.54-2.91-8.24c-0.77-2.09-1.57-4.13-2.35-6.17c-1.1-2.85-2.2-5.71-3.34-8.49c-0.68-1.65-1.38-3.24-2.07-4.87
					c-1.3-3.06-2.6-6.12-3.94-9.09c-0.38-0.83-0.77-1.62-1.14-2.44c-9.51-20.65-19.95-38.94-30.69-55
					c-0.01-0.01-0.02-0.03-0.03-0.04c0,0,0,0,0,0c-41.58-62.16-87.38-91.38-98.67-97.94l-98.72,232.29L856.8,505.48
					c-11.72,6.03-61.69,34.41-104.76,98.15l0,0l0,0c-2.19,3.24-4.36,6.57-6.51,10c-0.1,0.16-0.19,0.31-0.29,0.47
					c-2.09,3.35-4.16,6.77-6.2,10.3c-0.12,0.2-0.23,0.41-0.35,0.61c-2.04,3.55-4.06,7.16-6.04,10.89c-0.02,0.04-0.04,0.09-0.07,0.13
					c-7.71,14.55-14.87,30.52-21.21,47.98c-0.48,1.33-0.99,2.62-1.46,3.96c-1.04,2.95-2.01,6.01-3,9.04
					c-0.69,2.13-1.4,4.23-2.06,6.4c-0.86,2.81-1.67,5.69-2.48,8.56c-0.72,2.53-1.43,5.06-2.11,7.65c-0.73,2.76-1.41,5.58-2.09,8.4
					c-0.69,2.84-1.35,5.7-1.99,8.61c-0.61,2.76-1.19,5.55-1.75,8.37c-0.62,3.11-1.21,6.26-1.78,9.45c-0.49,2.77-0.98,5.55-1.43,8.38
					c-0.54,3.4-1.03,6.86-1.51,10.34c-0.38,2.76-0.76,5.5-1.1,8.31c-0.45,3.76-0.82,7.61-1.19,11.46c-0.26,2.66-0.54,5.3-0.76,8.01
					c-0.35,4.38-0.6,8.87-0.85,13.37c-0.13,2.31-0.3,4.57-0.4,6.91c-0.29,6.91-0.47,13.93-0.51,21.11h0.98h538.08h2.16
					C1225.8,835.28,1225.34,828.37,1224.78,821.57z M955.64,819.5c-121.36,0-176.31-39.05-199.39-83.96
					c-21.79-42.4-13.95-93.76,16.57-130.39c19.13-22.96,38.22-39.65,53.58-51.13c14.96-11.17,36.42-5.3,43.72,11.88l85.46,201.1
					l84.68-199.27c7.58-17.84,30.17-23.18,45.08-10.79c15.29,12.7,34.16,30.91,53.08,55.56c28.92,37.68,33.91,89.57,10.11,130.67
					C1124.44,784.78,1070.06,819.5,955.64,819.5z"/>
				
					<ellipse transform="matrix(0.9766 -0.2152 0.2152 0.9766 -127.6173 195.482)" class="st23" cx="834.06" cy="683.9" rx="51.15" ry="83.6"/>
				<g>
					<path class="st11" d="M630.61,845c-9.94-236.38-149.36-329.14-173.86-343.64c76.75-37.89,129.68-116.95,129.68-208.18
						c0-127.95-104.09-232.05-232.05-232.05c-109.33,0-201.19,76.03-225.62,177.99h-15.25c25.01-111.89,125.8-192.8,240.87-192.8
						c73.1,0,138.87,31.95,184.11,82.61c1.04-1.66,3.15-2.72,5.18-2.52c-46.28-52.48-113.98-85.64-189.28-85.64
						c-118.12,0-221.55,83.4-246.6,198.51c-10.59,0.84-18.97,9.63-18.97,20.44v65.18c0,11.36,9.24,20.6,20.6,20.6h2.04v21.17
						c0,14.3,11.63,25.93,25.93,25.93h7.4c22.44,47.11,60.3,85.5,107.02,108.63C225.37,515.2,78.16,603.92,78.16,845.11v2.77h552.56
						L630.61,845z M137.37,387.06c-11.24,0-20.38-9.15-20.38-20.39V345.5h11.37c3.33,14.41,8,28.31,13.89,41.56H137.37z"/>
					<polygon class="st3" points="381.79,525.23 370.77,544.33 338,544.33 326.97,525.23 					"/>
					<path class="st3" d="M339.82,549.88h29.16c0.22,0.47,0.55,0.9,1.02,1.19l11.79,108.16l-27.42,64.51l-27.41-64.51L339.82,549.88
						z"/>
					<path class="st22" d="M386.24,648.78l-11.02-101.07L389,523.84c0.22-0.39,0.31-0.82,0.34-1.25
						c20.18-3.06,39.49-8.77,57.62-16.69L386.24,648.78z"/>
					<path class="st10" d="M94.35,324.9v-65.18c0-8.3,6.75-15.05,15.05-15.05h18.07c-3.34,15.65-5.14,31.87-5.14,48.51
						c0,16.02,1.63,31.66,4.74,46.77h-17.67C101.11,339.96,94.35,333.2,94.35,324.9z"/>
					
						<radialGradient id="SVGID_00000147938476930944940140000009018841743588765621_" cx="354.3841" cy="86.6632" r="652.1677" gradientUnits="userSpaceOnUse">
						<stop  offset="3.497172e-03" style="stop-color:#FBECE1"/>
						<stop  offset="1" style="stop-color:#F4C09D"/>
					</radialGradient>
					<path style="fill:url(#SVGID_00000147938476930944940140000009018841743588765621_);" d="M150.93,392.61h96.12
						c1.38,10.56,10.34,18.77,21.27,18.77c11.88,0,21.55-9.67,21.55-21.55c0-11.88-9.67-21.55-21.55-21.55
						c-10.93,0-19.89,8.21-21.27,18.78h-98.71c-13.1-28.62-20.45-60.4-20.45-93.88c0-124.89,101.61-226.5,226.5-226.5
						c124.89,0,226.5,101.61,226.5,226.5c0,90.44-53.3,168.63-130.12,204.91l-0.4-0.2l-0.2,0.48
						c-29.11,13.64-61.56,21.31-95.78,21.31c-34.22,0-66.66-7.67-95.77-21.31l-0.15-0.35l-0.31,0.14
						C211.55,476.19,173.6,438.81,150.93,392.61z"/>
					<path class="st10" d="M252.31,389.84c0-8.82,7.18-16.01,16.01-16.01c8.82,0,16.01,7.18,16.01,16.01c0,8.82-7.18,16-16.01,16
						C259.5,405.84,252.31,398.66,252.31,389.84z"/>
					<path class="st22" d="M319.43,522.59c0.02,0.43,0.11,0.86,0.34,1.25l14.56,25.23l-11.73,99.88l-60.79-143.04
						C279.94,513.83,299.26,519.53,319.43,522.59z"/>
					<path class="st55" d="M83.71,842.34c1.13-240.39,150.46-325.84,171.89-336.86l98.77,232.44l98.72-232.29
						c20.96,12.18,160.87,102.2,171.84,336.7H83.71z"/>
					
						<ellipse transform="matrix(0.2245 -0.9745 0.9745 0.2245 -128.6478 489.7443)" class="st11" cx="243.38" cy="325.7" rx="42.09" ry="27.42"/>
					
						<ellipse transform="matrix(0.9991 -0.0433 0.0433 0.9991 -13.4038 20.2649)" class="st11" cx="461.54" cy="319.84" rx="32.28" ry="49.54"/>
					<g>
						<path class="st11" d="M351.26,392.25c-0.55,0-1.1-0.01-1.66-0.02c-25.55-0.6-48.78-15.05-60.62-37.73
							c-0.71-1.36-0.18-3.03,1.18-3.74c1.35-0.69,3.03-0.19,3.74,1.18c10.9,20.88,32.3,34.19,55.83,34.75
							c0.51,0.01,1.02,0.02,1.53,0.02c23.62,0,45.23-12.74,56.66-33.54c0.75-1.34,2.42-1.83,3.77-1.09
							c1.34,0.74,1.83,2.43,1.09,3.77C400.37,378.41,376.91,392.25,351.26,392.25z"/>
					</g>
					<g class="st101">
						<path class="st11" d="M352,395.75c-0.55,0-1.1-0.01-1.66-0.02c-25.55-0.6-48.78-15.05-60.62-37.73
							c-0.71-1.36-0.18-3.03,1.18-3.74c1.35-0.69,3.03-0.19,3.74,1.18c10.9,20.88,32.3,34.19,55.83,34.75
							c0.51,0.01,1.02,0.02,1.53,0.02c23.62,0,45.23-12.74,56.66-33.54c0.75-1.34,2.42-1.83,3.77-1.09
							c1.34,0.74,1.83,2.43,1.09,3.77C401.11,381.92,377.65,395.75,352,395.75z"/>
					</g>
					<g class="st101">
						<path class="st11" d="M148.34,349.33c-10.63-23.23-17.39-48.55-19.6-75.15c-0.52,6.27-0.86,12.6-0.86,19.01
							c0,33.48,7.36,65.25,20.45,93.88h21.87c-7.27-10.14-13.74-20.9-19.28-32.19L148.34,349.33z"/>
						<path class="st11" d="M450.76,460.36l-0.4-0.2l-0.2,0.48c-29.11,13.64-61.56,21.31-95.78,21.31
							c-34.22,0-66.66-7.67-95.77-21.31l-0.15-0.35l-0.31,0.14c-33.1-15.6-61.8-39.02-83.8-67.81h-23.42
							c22.67,46.2,60.62,83.58,107.22,105.55l0.31-0.14l0.15,0.35c29.11,13.64,61.56,21.31,95.77,21.31
							c34.22,0,66.67-7.67,95.78-21.31l0.2-0.48l0.4,0.2c76.82-36.28,130.12-114.47,130.12-204.91c0-6.36-0.33-12.64-0.85-18.86
							C573.2,356.66,522.18,426.63,450.76,460.36z"/>
					</g>
				</g>
				<path class="st21" d="M109.13,324.9v-65.18c0-8.3,6.75-15.05,15.05-15.05h-14.77c-8.3,0-15.05,6.75-15.05,15.05v65.18
					c0,8.3,6.75,15.05,15.05,15.05h14.77C115.88,339.96,109.13,333.2,109.13,324.9z"/>
				<path class="st21" d="M273.77,394.93c-5.82,0-10.55-4.73-10.55-10.55c0-4.98,3.48-9.14,8.13-10.24c-0.99-0.19-2-0.31-3.04-0.31
					c-8.82,0-16.01,7.18-16.01,16.01c0,8.82,7.18,16,16.01,16c8.82,0,16.01-7.18,16.01-16c0-1.04-0.12-2.05-0.31-3.04
					C282.92,391.45,278.75,394.93,273.77,394.93z"/>
				<polygon class="st23" points="339.82,549.88 349.53,712.32 354.38,723.74 359.17,712.46 368.98,549.88 				"/>
				<polygon class="st21" points="375.85,604.65 375.85,604.65 371.85,652.53 375.22,662.57 363.2,703 363.2,703 381.8,659.23 				
					"/>
				<polygon class="st21" points="332.92,604.65 332.92,604.65 336.92,652.53 333.55,662.57 345.57,703 345.57,703 326.97,659.23 
									"/>
				<path class="st21" d="M354.32,530.83c7.72,0,14.52,3.92,18.54,9.87l8.93-15.48h-54.82l8.88,15.39
					C339.87,534.71,346.64,530.83,354.32,530.83z"/>
				<path class="st23" d="M354.32,537.6c-5.97,0-11.28,2.63-14.99,6.73h29.97C365.6,540.23,360.29,537.6,354.32,537.6z"/>
				<path class="st21" d="M623.59,821.57c-0.19-2.31-0.45-4.54-0.66-6.82c-0.42-4.43-0.83-8.85-1.34-13.17
					c-0.32-2.68-0.7-5.27-1.04-7.91c-0.5-3.79-1-7.59-1.57-11.3c-0.43-2.78-0.91-5.49-1.38-8.22c-0.59-3.43-1.17-6.86-1.82-10.22
					c-0.53-2.79-1.11-5.52-1.68-8.26c-0.66-3.17-1.33-6.33-2.04-9.43c-0.64-2.77-1.3-5.5-1.97-8.22c-0.72-2.92-1.46-5.82-2.23-8.67
					c-0.74-2.76-1.49-5.49-2.27-8.19c-0.77-2.68-1.56-5.31-2.36-7.93c-0.84-2.75-1.69-5.48-2.57-8.17c-0.79-2.41-1.6-4.78-2.42-7.14
					c-0.96-2.77-1.92-5.54-2.91-8.24c-0.77-2.09-1.57-4.13-2.35-6.17c-1.1-2.85-2.2-5.71-3.34-8.49c-0.68-1.65-1.38-3.24-2.07-4.87
					c-1.3-3.06-2.6-6.12-3.94-9.09c-0.38-0.83-0.77-1.62-1.14-2.44c-9.51-20.65-19.95-38.94-30.69-55
					c-0.01-0.01-0.02-0.03-0.03-0.04c0,0,0,0,0,0c-41.58-62.16-87.38-91.38-98.67-97.94l-98.72,232.29l-98.77-232.44
					c-11.72,6.03-61.69,34.41-104.76,98.15l0,0l0,0c-2.19,3.24-4.36,6.57-6.51,10c-0.1,0.16-0.19,0.31-0.29,0.47
					c-2.09,3.35-4.16,6.77-6.2,10.3c-0.12,0.2-0.23,0.41-0.35,0.61c-2.04,3.55-4.06,7.16-6.04,10.89c-0.02,0.04-0.04,0.09-0.07,0.13
					c-7.71,14.55-14.87,30.52-21.21,47.98c-0.48,1.33-0.99,2.62-1.46,3.96c-1.04,2.95-2.01,6.01-3,9.04
					c-0.69,2.13-1.4,4.23-2.06,6.4c-0.86,2.81-1.67,5.69-2.48,8.56c-0.72,2.53-1.43,5.06-2.11,7.65c-0.73,2.76-1.41,5.58-2.09,8.4
					c-0.69,2.84-1.35,5.7-1.99,8.61c-0.61,2.76-1.19,5.55-1.75,8.37c-0.62,3.11-1.21,6.26-1.78,9.45c-0.49,2.77-0.98,5.55-1.43,8.38
					c-0.54,3.4-1.03,6.86-1.51,10.34c-0.38,2.76-0.76,5.5-1.1,8.31c-0.45,3.76-0.82,7.61-1.19,11.46c-0.26,2.66-0.54,5.3-0.76,8.01
					c-0.35,4.38-0.6,8.87-0.85,13.37c-0.13,2.31-0.3,4.57-0.4,6.91c-0.29,6.91-0.47,13.93-0.51,21.11h0.98h538.08h2.16
					C624.6,835.28,624.14,828.37,623.59,821.57z M354.44,819.5c-121.36,0-176.31-39.05-199.39-83.96
					c-21.79-42.4-13.95-93.76,16.57-130.39c19.13-22.96,38.22-39.65,53.58-51.13c14.96-11.17,36.42-5.3,43.72,11.88l85.46,201.1
					l84.68-199.27c7.58-17.84,30.17-23.18,45.08-10.79c15.29,12.7,34.16,30.91,53.08,55.56c28.92,37.68,33.91,89.57,10.11,130.67
					C523.24,784.78,468.86,819.5,354.44,819.5z"/>
				
					<ellipse transform="matrix(0.9766 -0.2152 0.2152 0.9766 -141.699 66.1242)" class="st23" cx="232.87" cy="683.9" rx="51.15" ry="83.6"/>
			</g>
			<path class="st54" d="M134.05,218.87c12.29-38.09,45.11-56.36,74.65-81.48c83.02,86.85,205.38,136.14,367.87,89.08l-7.48-29.69
				c0,0-19.59-78.44-19.59-81.24c0-2.8-64.29-56.59-64.29-56.59l-83.64-30.82h-86.13L246.78,45.5l-60.54,45.95l-38.18,68.92
				L134.05,218.87z"/>
		</g>
	</g>
	<path class="st103" d="M955.58,66.69c-124.89,0-226.5,101.61-226.5,226.5c0,12.39,1.01,24.54,2.95,36.39
		c0.05,0.04,0.11,0.08,0.16,0.12c-1.37-36.24,49.29-21.69,49.29-21.85c1.54-33.09,4.86-64.66,19.4-78.81
		c18.83-18.31,46.32-15.33,69.88-9.46c27.46,6.84,55.8,16.08,84.77,16.83c30.67,0.79,59.75-10.19,89.15-17.15
		c22.82-5.4,47.63-7.79,65.7,9.78c14.54,14.15,17.87,45.69,19.4,78.78c0.98-0.18,47.56-8.58,48.81,21.88c0.2-0.13,0.4-0.25,0.6-0.37
		c1.9-11.77,2.89-23.84,2.89-36.14C1182.08,168.29,1080.47,66.69,955.58,66.69z"/>
</g>
</svg>
