<svg width="129" height="27" viewBox="0 0 129 27" fill="none" xmlns="http://www.w3.org/2000/svg">
<path d="M89.1756 13.5978C89.1756 13.9061 89.376 14.1605 89.7769 14.3609C90.1932 14.546 90.6942 14.7156 91.2801 14.8697C91.866 15.0085 92.4519 15.1935 93.0378 15.4248C93.6236 15.6406 94.117 16.0107 94.5179 16.5349C94.9342 17.0591 95.1423 17.7143 95.1423 18.5006C95.1423 19.6878 94.6952 20.6052 93.801 21.2527C92.9221 21.8849 91.8198 22.2009 90.4938 22.2009C88.1195 22.2009 86.5006 21.2836 85.6372 19.4488L88.2274 17.9919C88.5666 18.994 89.3221 19.4951 90.4938 19.4951C91.5577 19.4951 92.0896 19.1636 92.0896 18.5006C92.0896 18.1923 91.8814 17.9456 91.4651 17.7606C91.0643 17.5602 90.5709 17.3829 89.985 17.2287C89.3991 17.0745 88.8133 16.8818 88.2274 16.6505C87.6415 16.4192 87.1404 16.0569 86.7241 15.5635C86.3233 15.0548 86.1229 14.4226 86.1229 13.6671C86.1229 12.5262 86.5391 11.632 87.3717 10.9844C88.2197 10.3215 89.2681 9.99002 90.5169 9.99002C91.4574 9.99002 92.3131 10.2058 93.084 10.6375C93.8549 11.0538 94.4639 11.6551 94.911 12.4414L92.3671 13.829C91.9971 13.0427 91.3803 12.6496 90.5169 12.6496C90.1315 12.6496 89.8077 12.7344 89.5456 12.904C89.2989 13.0736 89.1756 13.3048 89.1756 13.5978ZM98.9721 13.5978C98.9721 13.9061 99.1725 14.1605 99.5734 14.3609C99.9897 14.546 100.491 14.7156 101.077 14.8697C101.662 15.0085 102.248 15.1935 102.834 15.4248C103.42 15.6406 103.913 16.0107 104.314 16.5349C104.731 17.0591 104.939 17.7143 104.939 18.5006C104.939 19.6878 104.492 20.6052 103.597 21.2527C102.719 21.8849 101.616 22.2009 100.29 22.2009C97.916 22.2009 96.2971 21.2836 95.4337 19.4488L98.0239 17.9919C98.3631 18.994 99.1186 19.4951 100.29 19.4951C101.354 19.4951 101.886 19.1636 101.886 18.5006C101.886 18.1923 101.678 17.9456 101.262 17.7606C100.861 17.5602 100.367 17.3829 99.7815 17.2287C99.1957 17.0745 98.6098 16.8818 98.0239 16.6505C97.438 16.4192 96.937 16.0569 96.5207 15.5635C96.1198 15.0548 95.9194 14.4226 95.9194 13.6671C95.9194 12.5262 96.3356 11.632 97.1682 10.9844C98.0162 10.3215 99.0646 9.99002 100.313 9.99002C101.254 9.99002 102.11 10.2058 102.88 10.6375C103.651 11.0538 104.26 11.6551 104.707 12.4414L102.164 13.829C101.793 13.0427 101.177 12.6496 100.313 12.6496C99.928 12.6496 99.6042 12.7344 99.3421 12.904C99.0955 13.0736 98.9721 13.3048 98.9721 13.5978ZM108.106 8.92618C107.613 8.92618 107.181 8.74888 106.811 8.39427C106.457 8.02424 106.279 7.59254 106.279 7.09916C106.279 6.60579 106.457 6.17409 106.811 5.80406C107.181 5.43403 107.613 5.24902 108.106 5.24902C108.615 5.24902 109.047 5.43403 109.401 5.80406C109.771 6.17409 109.956 6.60579 109.956 7.09916C109.956 7.59254 109.771 8.02424 109.401 8.39427C109.047 8.74888 108.615 8.92618 108.106 8.92618ZM106.626 21.8772V10.3138H109.61V21.8772H106.626ZM114.771 13.5978C114.771 13.9061 114.971 14.1605 115.372 14.3609C115.788 14.546 116.289 14.7156 116.875 14.8697C117.461 15.0085 118.047 15.1935 118.633 15.4248C119.219 15.6406 119.712 16.0107 120.113 16.5349C120.529 17.0591 120.737 17.7143 120.737 18.5006C120.737 19.6878 120.29 20.6052 119.396 21.2527C118.517 21.8849 117.415 22.2009 116.089 22.2009C113.715 22.2009 112.096 21.2836 111.232 19.4488L113.823 17.9919C114.162 18.994 114.917 19.4951 116.089 19.4951C117.153 19.4951 117.685 19.1636 117.685 18.5006C117.685 18.1923 117.477 17.9456 117.06 17.7606C116.659 17.5602 116.166 17.3829 115.58 17.2287C114.994 17.0745 114.408 16.8818 113.823 16.6505C113.237 16.4192 112.736 16.0569 112.319 15.5635C111.918 15.0548 111.718 14.4226 111.718 13.6671C111.718 12.5262 112.134 11.632 112.967 10.9844C113.815 10.3215 114.863 9.99002 116.112 9.99002C117.053 9.99002 117.908 10.2058 118.679 10.6375C119.45 11.0538 120.059 11.6551 120.506 12.4414L117.962 13.829C117.592 13.0427 116.975 12.6496 116.112 12.6496C115.727 12.6496 115.403 12.7344 115.141 12.904C114.894 13.0736 114.771 13.3048 114.771 13.5978ZM128.7 13.1815H126.087V17.9919C126.087 18.3927 126.187 18.6857 126.387 18.8707C126.588 19.0557 126.881 19.1636 127.266 19.1945C127.652 19.2099 128.13 19.2022 128.7 19.1713V21.8772C126.649 22.1084 125.2 21.9157 124.352 21.299C123.52 20.6823 123.103 19.5799 123.103 17.9919V13.1815H121.091V10.3138H123.103V7.97798L126.087 7.07604V10.3138H128.7V13.1815Z" fill="white"/>
<path d="M7.06007 22.2005C5.45661 22.2005 4.10754 21.8459 3.01287 21.1367C1.9182 20.4121 1.14731 19.433 0.700195 18.1996L3.42916 16.6038C4.06129 18.2536 5.30243 19.0784 7.15257 19.0784C8.04681 19.0784 8.70207 18.9165 9.11835 18.5928C9.53464 18.269 9.74278 17.8604 9.74278 17.367C9.74278 16.7966 9.48838 16.3572 8.97959 16.0488C8.4708 15.725 7.56115 15.3781 6.25063 15.0081C5.52599 14.7922 4.90927 14.5764 4.40048 14.3605C3.90711 14.1447 3.40603 13.8595 2.89724 13.5049C2.40387 13.1348 2.02613 12.6723 1.76403 12.1172C1.50192 11.5622 1.37087 10.9147 1.37087 10.1746C1.37087 8.70985 1.88737 7.5458 2.92037 6.6824C3.96878 5.80358 5.22534 5.36417 6.69004 5.36417C8.00056 5.36417 9.14919 5.68795 10.136 6.3355C11.1381 6.96763 11.9167 7.85416 12.4718 8.99508L9.78903 10.5446C9.14148 9.15697 8.10848 8.46317 6.69004 8.46317C6.02707 8.46317 5.50286 8.61735 5.11741 8.9257C4.74739 9.21864 4.56237 9.60409 4.56237 10.0821C4.56237 10.5909 4.77051 11.0072 5.18679 11.3309C5.6185 11.6393 6.43564 11.9785 7.63824 12.3485C8.13161 12.5027 8.50164 12.626 8.74832 12.7185C9.01043 12.7956 9.35733 12.9267 9.78903 13.1117C10.2362 13.2813 10.5754 13.4432 10.8066 13.5974C11.0533 13.7515 11.3308 13.9597 11.6392 14.2218C11.9476 14.4839 12.1788 14.7537 12.333 15.0312C12.5026 15.3087 12.6414 15.6479 12.7493 16.0488C12.8726 16.4343 12.9343 16.8582 12.9343 17.3208C12.9343 18.8163 12.387 20.0035 11.2923 20.8823C10.213 21.7611 8.80229 22.2005 7.06007 22.2005ZM23.7502 10.3134H26.7336V21.8768H23.7502V20.5123C22.856 21.6378 21.5995 22.2005 19.9806 22.2005C18.4388 22.2005 17.1129 21.6147 16.0028 20.4429C14.9081 19.2557 14.3608 17.8064 14.3608 16.0951C14.3608 14.3837 14.9081 12.9421 16.0028 11.7703C17.1129 10.5832 18.4388 9.98954 19.9806 9.98954C21.5995 9.98954 22.856 10.5523 23.7502 11.6778V10.3134ZM18.2461 18.454C18.8474 19.0553 19.6105 19.3559 20.5356 19.3559C21.4607 19.3559 22.2239 19.0553 22.8252 18.454C23.4419 17.8373 23.7502 17.051 23.7502 16.0951C23.7502 15.1391 23.4419 14.3605 22.8252 13.7592C22.2239 13.1425 21.4607 12.8342 20.5356 12.8342C19.6105 12.8342 18.8474 13.1425 18.2461 13.7592C17.6448 14.3605 17.3441 15.1391 17.3441 16.0951C17.3441 17.051 17.6448 17.8373 18.2461 18.454ZM29.2076 21.8768V4.99414H32.191V21.8768H29.2076ZM37.2111 17.3208C37.612 18.7701 38.699 19.4947 40.472 19.4947C41.6129 19.4947 42.4763 19.1093 43.0622 18.3384L45.4674 19.726C44.3265 21.3757 42.6459 22.2005 40.4258 22.2005C38.5139 22.2005 36.9799 21.6224 35.8235 20.466C34.6672 19.3097 34.089 17.8527 34.089 16.0951C34.089 14.3528 34.6595 12.9036 35.8004 11.7472C36.9413 10.5755 38.406 9.98954 40.1945 9.98954C41.8905 9.98954 43.2858 10.5755 44.3804 11.7472C45.4905 12.919 46.0456 14.3683 46.0456 16.0951C46.0456 16.4805 46.007 16.8891 45.9299 17.3208H37.2111ZM37.1649 15.0081H43.0622C42.8926 14.2218 42.538 13.6359 41.9984 13.2505C41.4742 12.865 40.8729 12.6723 40.1945 12.6723C39.3928 12.6723 38.7298 12.8804 38.2056 13.2967C37.6814 13.6976 37.3345 14.268 37.1649 15.0081ZM50.1974 13.5974C50.1974 13.9057 50.3978 14.1601 50.7987 14.3605C51.215 14.5456 51.716 14.7152 52.3019 14.8693C52.8878 15.0081 53.4737 15.1931 54.0596 15.4244C54.6454 15.6402 55.1388 16.0103 55.5397 16.5345C55.956 17.0587 56.1641 17.7139 56.1641 18.5002C56.1641 19.6874 55.717 20.6048 54.8227 21.2523C53.9439 21.8845 52.8415 22.2005 51.5156 22.2005C49.1413 22.2005 47.5224 21.2832 46.659 19.4484L49.2492 17.9915C49.5884 18.9936 50.3439 19.4947 51.5156 19.4947C52.5794 19.4947 53.1114 19.1632 53.1114 18.5002C53.1114 18.1919 52.9032 17.9452 52.4869 17.7602C52.0861 17.5598 51.5927 17.3825 51.0068 17.2283C50.4209 17.0741 49.8351 16.8814 49.2492 16.6501C48.6633 16.4188 48.1622 16.0565 47.7459 15.5631C47.3451 15.0544 47.1446 14.4222 47.1446 13.6667C47.1446 12.5258 47.5609 11.6316 48.3935 10.984C49.2415 10.3211 50.2899 9.98954 51.5387 9.98954C52.4792 9.98954 53.3349 10.2054 54.1058 10.6371C54.8767 11.0534 55.4857 11.6547 55.9328 12.441L53.3889 13.8286C53.0189 13.0423 52.4021 12.6492 51.5387 12.6492C51.1533 12.6492 50.8295 12.734 50.5674 12.9036C50.3207 13.0732 50.1974 13.3044 50.1974 13.5974Z" fill="white"/>
<path fill-rule="evenodd" clip-rule="evenodd" d="M80.9206 15.1132C85.2052 9.23877 84.3626 2.0063 83.3412 0.985198C82.3205 -0.0359048 74.2004 -1.04086 68.2688 3.94864C62.3373 8.93812 58.9134 13.3647 59.3879 13.8392C59.4204 13.8717 59.6568 13.7255 60.049 13.4832C61.9746 12.2933 67.6543 8.78371 71.3647 12.7052C75.103 16.6562 71.925 22.313 70.8914 24.1527C70.6902 24.5108 70.5703 24.7242 70.5984 24.7524C71.1575 25.3114 76.6363 20.9875 80.9206 15.1132ZM78.8053 11.4585C80.7934 8.8275 81.017 5.62474 79.7758 4.38394C78.5347 3.14313 75.2001 3.3429 72.3265 5.75834C69.7651 7.91137 70.0009 7.87837 70.1985 7.85078C70.2227 7.84738 70.2462 7.84415 70.2641 7.84484C70.636 7.86072 72.4597 8.19228 74.2266 9.93319C75.9936 11.6742 76.3517 14.0894 76.3517 14.0894C76.3517 14.0894 76.8167 14.0894 78.8053 11.4585Z" fill="white"/>
<path fill-rule="evenodd" clip-rule="evenodd" d="M65.7177 12.4928C65.928 13.5115 66.5099 14.6658 66.145 16.1635C66.0411 16.5898 65.8204 17.1547 65.3252 17.7517C64.7951 18.391 63.9564 19.0463 63.6726 19.5819C63.1475 20.5731 63.091 21.6169 63.091 21.6169C63.091 21.6169 61.8359 21.5579 60.9913 20.6833C59.1737 18.8011 60.7101 16.6184 60.9899 16.3482C61.9086 15.461 63.2622 14.1539 65.1715 12.3101C65.2305 12.2531 65.6581 12.2041 65.7177 12.4928Z" fill="url(#paint0_linear_32_16)"/>
<path fill-rule="evenodd" clip-rule="evenodd" d="M64.5829 25.882C64.3726 24.8633 63.7907 23.7091 64.1557 22.2113C64.2595 21.785 64.4802 21.2201 64.9753 20.623C65.5055 19.9838 66.3442 19.3285 66.628 18.7929C67.1531 17.8017 67.2096 16.7578 67.2096 16.7578C67.2096 16.7578 68.4648 16.817 69.3093 17.6915C71.127 19.5738 69.5905 21.7565 69.3107 22.0266C68.392 22.9137 67.0384 24.2209 65.1291 26.0648C65.0701 26.1217 64.6426 26.1708 64.5829 25.882Z" fill="url(#paint1_linear_32_16)"/>
<defs>
<linearGradient id="paint0_linear_32_16" x1="62.9345" y1="21.53" x2="60.9153" y2="13.6398" gradientUnits="userSpaceOnUse">
<stop stop-color="#FAD961"/>
<stop offset="1" stop-color="#FF660E"/>
</linearGradient>
<linearGradient id="paint1_linear_32_16" x1="64.8616" y1="25.4618" x2="65.2569" y2="18.6807" gradientUnits="userSpaceOnUse">
<stop stop-color="#FAD961"/>
<stop offset="1" stop-color="#FF650D"/>
</linearGradient>
</defs>
</svg>
