<?xml version="1.0" encoding="UTF-8"?><svg xmlns="http://www.w3.org/2000/svg" viewBox="0 0 162.81 171.48"><defs><style>.c{fill:#f2b440;}.d{fill:#ee8240;}.e{fill:#8a8d91;}.f,.g{fill:#541932;}.h{fill:#541832;}.i,.g,.j{opacity:.25;}.j{fill:#fff;}</style></defs><g id="a"/><g id="b"><g><g><path class="h" d="M154.53,54.37c-12.48-25.47-36.37-42.18-64.25-45.1,1.54-1.98,1.65-4.83,.09-6.94-.91-1.24-2.25-2.04-3.77-2.27-1.51-.23-3.03,.15-4.26,1.06l-11.91,8.81c-1.27,.94-2.11,2.39-2.29,3.96-.18,1.57,.31,3.17,1.33,4.37l9.49,11.14c.95,1.11,2.38,1.82,3.92,1.95,1.55,.13,3.06-.35,4.17-1.3,1.17-.99,1.88-2.38,2-3.91,.12-1.53-.36-3.01-1.35-4.18l-1.29-1.52c24.8,1.74,46.79,16.49,57.8,38.97,7.04,14.36,8.94,30.84,5.35,46.39-.35,1.49-.09,3.03,.72,4.33,.81,1.3,2.09,2.21,3.6,2.56,.42,.09,.85,.14,1.27,.14,2.69,0,4.99-1.83,5.59-4.45,4.18-18.11,1.97-37.3-6.23-54.02Z"/><path class="h" d="M26.75,138.26l4.47-13.94c.96-3.01-.7-6.25-3.72-7.22-1.46-.47-3.01-.34-4.37,.36-1.36,.7-2.37,1.89-2.84,3.35l-.61,1.9c-11.6-21.99-10.65-48.45,2.64-69.66,8.5-13.55,21.5-23.85,36.6-29,2.99-1.02,4.6-4.29,3.58-7.29-1.02-2.99-4.29-4.59-7.28-3.58C37.62,19.18,22.48,31.17,12.59,46.95-2.48,70.99-4.09,100.1,8.13,125.32c-.97-.1-1.96,.04-2.88,.44-1.41,.61-2.5,1.72-3.06,3.15-.57,1.43-.54,2.99,.06,4.39,.61,1.41,1.73,2.5,3.15,3.06l13.75,5.47c.68,.27,1.4,.41,2.13,.41,.84,0,1.69-.19,2.45-.55,1.43-.68,2.53-1.93,3.01-3.44Z"/><path class="h" d="M156.66,120.29c-.19-1.57-1.03-3.01-2.31-3.95-1.28-.94-2.91-1.3-4.46-1.01l-14.38,2.73c-1.51,.29-2.81,1.14-3.67,2.41-.86,1.27-1.18,2.79-.9,4.3,.28,1.51,1.14,2.81,2.4,3.67,1.27,.86,2.8,1.18,4.3,.9l1.95-.37c-13.79,20.68-37.5,32.48-62.48,30.9-15.96-1-31.22-7.52-42.95-18.34-2.32-2.14-5.96-1.99-8.1,.33-1.04,1.13-1.58,2.59-1.52,4.12,.06,1.53,.72,2.95,1.84,3.99,13.66,12.6,31.42,20.19,50.01,21.36,1.72,.11,3.47,.16,5.21,.16,26.15,0,50.55-12.53,65.79-33.64,.86,2.11,2.93,3.56,5.31,3.56,.24,0,.48-.01,.68-.04,1.52-.18,2.88-.94,3.83-2.15,.95-1.21,1.37-2.71,1.19-4.23l-1.75-14.7Z"/></g><g><path class="f" d="M48.85,48.34c-1.22-.53-2.65-.22-3.55,.76l-8,8.76c-.9,.98-1.07,2.43-.43,3.6l4.13,7.58c-1.88,3.61-3.27,7.44-4.13,11.43l-8.02,3.19c-1.24,.49-2.03,1.72-1.97,3.05l.54,11.85c.06,1.33,.96,2.48,2.24,2.86l8.28,2.44c1.22,3.9,2.95,7.59,5.16,11.01l-3.42,7.92c-.53,1.23-.23,2.65,.76,3.55l8.76,8c.99,.9,2.43,1.07,3.6,.44l7.58-4.13c3.61,1.88,7.44,3.27,11.43,4.13l3.19,8.02c.47,1.2,1.63,1.97,2.9,1.97,.05,0,.1,0,.15,0l11.85-.54c1.33-.06,2.48-.96,2.85-2.24l2.44-8.28c3.9-1.22,7.59-2.95,11.01-5.16l7.91,3.42c1.23,.53,2.66,.23,3.56-.76l8-8.76c.9-.99,1.07-2.44,.43-3.6l-4.13-7.58c1.88-3.61,3.27-7.44,4.13-11.43l8.03-3.19c1.24-.49,2.03-1.72,1.97-3.05l-.54-11.85c-.06-1.33-.96-2.48-2.24-2.86l-8.28-2.44c-1.22-3.9-2.95-7.59-5.16-11.01l3.42-7.92c.53-1.23,.23-2.65-.76-3.55l-8.76-7.99c-.99-.9-2.44-1.07-3.61-.44l-7.58,4.13c-3.61-1.88-7.44-3.27-11.43-4.13l-3.18-8.02c-.49-1.25-1.71-2.05-3.05-1.97l-11.86,.54c-1.33,.06-2.48,.96-2.85,2.24l-2.44,8.28c-3.9,1.22-7.59,2.95-11.01,5.16l-7.92-3.42Z"/><path class="d" d="M58.32,56.29c3.66-2.51,7.68-4.39,11.96-5.6l1.23-.35,2.85-9.68,9.71-.44,3.72,9.38,1.26,.23c4.38,.82,8.56,2.33,12.42,4.49l1.12,.62,8.86-4.83,7.18,6.55-4,9.26,.72,1.05c2.51,3.65,4.39,7.68,5.6,11.96l.35,1.23,9.68,2.85,.45,9.71-9.38,3.72-.23,1.26c-.81,4.37-2.32,8.55-4.49,12.42l-.62,1.12,4.83,8.86-6.55,7.18-9.26-4-1.05,.72c-3.66,2.51-7.68,4.39-11.96,5.6l-1.23,.35-2.85,9.68-9.71,.44-3.72-9.38-1.26-.24c-4.37-.82-8.55-2.33-12.42-4.49l-1.12-.62-8.86,4.83-7.18-6.55,4-9.26-.72-1.05c-2.51-3.65-4.39-7.68-5.6-11.96l-.35-1.23-9.68-2.85-.45-9.71,9.38-3.72,.23-1.26c.82-4.37,2.33-8.55,4.49-12.42l.62-1.12-4.83-8.86,6.55-7.18,9.26,4,1.05-.72Z"/><path class="f" d="M81.49,114.32c13.33,0,24.17-10.84,24.17-24.17s-10.84-24.17-24.17-24.17-24.17,10.84-24.17,24.17,10.84,24.17,24.17,24.17Z"/><path class="c" d="M81.49,70.61c10.77,0,19.54,8.77,19.54,19.54s-8.76,19.54-19.54,19.54-19.54-8.76-19.54-19.54,8.76-19.54,19.54-19.54Z"/><path class="d" d="M151.45,55.87c-13.32-27.19-40.66-43.9-70.6-43.63l6.27-4.64c1.03-.76,1.25-2.21,.48-3.24-.76-1.03-2.21-1.25-3.24-.49l-11.91,8.81c-.52,.38-.85,.96-.92,1.6s.12,1.28,.54,1.77l9.49,11.14c.46,.54,1.11,.81,1.76,.81,.53,0,1.06-.18,1.5-.55,.97-.83,1.09-2.29,.26-3.26l-6.2-7.28c28.94-1.04,55.57,14.83,68.4,41.01,7.38,15.07,9.38,32.35,5.61,48.67-.29,1.25,.49,2.49,1.73,2.78,.18,.04,.35,.06,.52,.06,1.05,0,2.01-.72,2.25-1.8,4-17.35,1.88-35.73-5.96-51.75Z"/><path class="e" d="M26.45,120.36c-1.22-.39-2.52,.28-2.91,1.5l-2.92,9.11c-16.14-24.04-16.69-55.04-1.21-79.74,8.91-14.22,22.55-25.02,38.4-30.42,1.21-.41,1.86-1.73,1.44-2.94-.41-1.21-1.73-1.85-2.94-1.44-16.85,5.74-31.35,17.23-40.83,32.35C-.59,74.43-.39,106.47,15.63,131.76l-7.25-2.88c-1.19-.47-2.53,.11-3.01,1.29-.47,1.19,.11,2.54,1.3,3.01l13.76,5.47c.28,.11,.57,.16,.86,.16,.34,0,.68-.07,.99-.22,.58-.27,1.02-.78,1.22-1.39l4.46-13.94c.39-1.22-.28-2.52-1.5-2.91Z"/><path class="c" d="M153.26,120.69c-.08-.64-.41-1.21-.93-1.59-.52-.38-1.17-.53-1.8-.41l-14.38,2.73c-1.26,.24-2.08,1.45-1.84,2.71,.24,1.26,1.45,2.08,2.71,1.84l9.4-1.78c-13.43,25.65-40.42,40.92-69.51,39.1-16.75-1.05-32.75-7.89-45.06-19.24-.94-.86-2.4-.81-3.27,.13-.87,.94-.81,2.4,.13,3.27,13.09,12.07,30.1,19.34,47.9,20.46,1.67,.11,3.34,.16,4.99,.16,28.29,0,54.1-15.16,67.89-39.85l.92,7.74c.14,1.18,1.14,2.04,2.3,2.04,.09,0,.18,0,.28-.02,1.27-.15,2.18-1.3,2.02-2.57l-1.75-14.7Z"/><g class="i"><path class="f" d="M45.66,70.17c-1.85,3.31-3.19,6.85-4.06,10.54l4.1-1.63,.23-1.26c.82-4.37,2.33-8.55,4.49-12.42l.62-1.12-4.83-8.86,2.09-2.29-.3-.13-6.55,7.18,4.83,8.86-.62,1.12Z"/><path class="f" d="M110.49,118.52l-1.05,.72c-3.66,2.51-7.68,4.39-11.96,5.6l-1.23,.35-1.06,3.61c3.36-1.19,6.55-2.78,9.49-4.8l1.05-.72,9.26,4,4.46-4.89-8.96-3.87Z"/><path class="f" d="M83.68,135.33l-3.72-9.38-1.26-.24c-4.37-.82-8.55-2.33-12.42-4.49l-1.12-.62-8.86,4.83-7.18-6.55,4-9.26-.72-1.05c-2.51-3.65-4.39-7.68-5.6-11.96l-.35-1.23-9.68-2.85-.32-6.89-4.89,1.94,.45,9.71,9.68,2.85,.35,1.23c1.21,4.28,3.1,8.31,5.6,11.96l.72,1.05-4,9.26,7.18,6.55,8.86-4.83,1.12,.62c3.87,2.16,8.05,3.67,12.42,4.49l1.26,.24,3.72,9.38,9.71-.44,1.36-4.61-6.3,.29Z"/></g><path class="j" d="M82.16,42.12l3.72,9.38,1.26,.23c4.38,.82,8.56,2.33,12.42,4.49l1.12,.62,8.86-4.83,7.18,6.55-4,9.26,.72,1.05c2.51,3.65,4.39,7.68,5.6,11.96l.35,1.23,9.68,2.85,.39,8.58,1.96-.78-.45-9.71-9.68-2.85-.35-1.23c-1.21-4.28-3.1-8.31-5.6-11.96l-.72-1.05,4-9.26-7.18-6.55-8.86,4.83-1.12-.62c-3.87-2.16-8.05-3.67-12.42-4.49l-1.26-.23-3.72-9.38-9.71,.44-.54,1.85,8.34-.38Z"/></g><path class="j" d="M81.49,70.61c-6.57,0-12.37,3.27-15.92,8.25,3.19-2.27,7.08-3.62,11.29-3.62,10.77,0,19.54,8.77,19.54,19.54,0,4.21-1.35,8.1-3.62,11.29,4.98-3.54,8.25-9.35,8.25-15.92,0-10.77-8.76-19.54-19.54-19.54Z"/><path class="g" d="M62.09,90.01s-.09,0-.13,0c0,.04,0,.09,0,.13,0,10.77,8.76,19.54,19.54,19.54,.04,0,.09,0,.13,0,0-.04,0-.09,0-.13,0-10.77-8.76-19.54-19.54-19.54Z"/></g></g></svg>