<?xml version="1.0" encoding="UTF-8"?><svg xmlns="http://www.w3.org/2000/svg" viewBox="0 0 237.26 139.39"><defs><style>.c{fill:#ecc0b3;}.d{fill:#f2b440;}.e{fill:#ee8240;}.f{fill:#fbf0e5;}.g{fill:#8a8d91;}.h{fill:#666;}.i,.j{fill:#541932;}.k{fill:#353535;}.j,.l{opacity:.25;}.l{fill:#fff;}</style></defs><g id="a"/><g id="b"><g><g><path class="i" d="M183.55,108.35c4.87,0,8.83-3.96,8.83-8.83V8.83c0-4.87-3.96-8.83-8.83-8.83H46.79c-4.87,0-8.83,3.96-8.83,8.83V99.52c0,4.87,3.96,8.83,8.83,8.83h50.51l-3.04,27.98h-11.95c-.84,0-1.53,.69-1.53,1.53s.69,1.53,1.53,1.53h64.34c.84,0,1.53-.69,1.53-1.53s-.69-1.53-1.53-1.53h-10.65l-3.04-27.98h50.59Z"/><path class="d" d="M46.79,4.06H183.55c2.63,0,4.76,2.14,4.76,4.76V80.09H42.03V8.83c0-2.62,2.14-4.76,4.76-4.76Z"/><polygon class="g" points="131.8 135.33 98.46 135.33 101.28 109.35 128.98 109.35 131.8 135.33"/><path class="h" d="M183.55,104.28H46.79c-2.63,0-4.76-2.14-4.76-4.76v-14.36H188.31v14.36c0,2.63-2.14,4.76-4.76,4.76Z"/></g><polygon class="l" points="103.38 4.06 63.65 80.09 89.73 80.09 129.46 4.06 103.38 4.06"/><polygon class="l" points="137.86 4.06 98.13 80.09 124.21 80.09 163.94 4.06 137.86 4.06"/><path class="l" d="M184.34,85.16v10.39c0,2.63-2.14,4.76-4.76,4.76H42.82c-.25,0-.48-.04-.72-.07,.35,2.28,2.31,4.04,4.69,4.04H183.55c2.63,0,4.76-2.14,4.76-4.76v-14.36h-3.97Z"/><polygon class="j" points="101.28 116.76 128.98 116.76 131 135.33 131.8 135.33 128.98 109.35 101.28 109.35 98.46 135.33 99.26 135.33 101.28 116.76"/><g><path class="i" d="M9.65,25.86H55.75c5.33,0,9.65,4.33,9.65,9.65v94.23c0,5.33-4.33,9.65-9.65,9.65H9.65C4.33,139.39,0,135.07,0,129.74V35.51C0,30.18,4.32,25.86,9.65,25.86Z"/><g><path class="e" d="M55.75,29.92H9.65c-3.08,0-5.59,2.51-5.59,5.59v94.23c0,1.12,.34,2.16,.91,3.04L59.95,31.86c-1.03-1.18-2.52-1.94-4.2-1.94Z"/><path class="f" d="M4.97,132.78c1,1.53,2.72,2.55,4.68,2.55H55.75c3.08,0,5.59-2.51,5.59-5.59V35.51c0-1.4-.54-2.67-1.39-3.65L4.97,132.78Z"/></g><path class="i" d="M36.26,39.79c0-1.4-1.13-2.53-2.53-2.53h-14.03c-1.4,0-2.53,1.13-2.53,2.53s1.13,2.53,2.53,2.53h14.03c1.4,0,2.53-1.13,2.53-2.53Z"/><circle class="i" cx="33.73" cy="123.98" r="5.77"/><path class="i" d="M44.46,35.87c-2.16,0-3.92,1.75-3.92,3.92s1.75,3.92,3.92,3.92,3.92-1.75,3.92-3.92-1.75-3.92-3.92-3.92Z"/><polygon class="l" points="22.99 29.92 4.06 66.14 4.06 116.05 49.07 29.92 22.99 29.92"/><polygon class="l" points="61.34 52.09 17.84 135.33 43.92 135.33 61.34 102 61.34 52.09"/></g><g><path class="i" d="M237.17,95.49c.02-.57,.09-1.14,.09-1.72,0-24.75-20.13-44.88-44.88-44.88s-44.88,20.13-44.88,44.88c0,.64,.07,1.27,.1,1.9-.04,.2-.03,.4,.03,.59,1.31,23.58,20.85,42.38,44.76,42.38s43.36-18.71,44.75-42.22c.14-.3,.16-.63,.05-.94Z"/><path class="k" d="M192.38,52.5c22.24,0,40.37,17.69,41.2,39.73l-7.4-9.56c-.23-.3-.58-.47-.95-.47h-63.02c-.32,0-.63,.13-.86,.36l-10.21,10.37c.46-22.36,18.76-40.42,41.24-40.42Z"/><path class="c" d="M192.38,135.06c-21.92,0-39.86-17.19-41.15-38.79l11.49-11.66h61.92l8.9,11.5c-1.22,21.68-19.19,38.95-41.16,38.95Z"/><path class="i" d="M215.95,98.5c-.66,.03-1.18,.59-1.15,1.25,.48,11.92-8.83,22.01-20.76,22.49-5.78,.23-11.3-1.8-15.55-5.72-4.25-3.92-6.71-9.26-6.95-15.04-.03-.66-.59-1.14-1.25-1.15-.66,.03-1.18,.59-1.15,1.25,.26,6.42,3,12.35,7.72,16.71,4.48,4.13,10.23,6.38,16.29,6.38,.33,0,.66,0,.99-.02,13.25-.53,23.6-11.74,23.07-25-.03-.66-.58-1.1-1.25-1.15Z"/><path class="j" d="M216.94,99.57c-.66,.03-1.18,.59-1.15,1.25,.48,11.92-8.83,22.01-20.76,22.49-5.78,.23-11.3-1.8-15.55-5.72-4.25-3.92-6.71-9.26-6.95-15.04-.03-.66-.59-1.14-1.25-1.15-.66,.03-1.18,.59-1.15,1.25,.26,6.42,3,12.35,7.72,16.71,4.48,4.13,10.23,6.38,16.29,6.38,.33,0,.66,0,.99-.02,13.25-.53,23.6-11.74,23.07-25-.03-.66-.58-1.1-1.25-1.15Z"/><ellipse class="l" cx="207.98" cy="68.77" rx="5.91" ry="10.52" transform="translate(44.44 214.5) rotate(-60)"/><path class="l" d="M198.94,53.07c-2.14-.35-4.33-.57-6.56-.57-22.47,0-40.77,18.06-41.24,40.42,0,0,11.05-44.81,47.8-39.85Z"/><path class="j" d="M162.71,84.6l-11.49,11.66s10.75-10.71,15.23-10.71,50.71-.74,56.32,1.98c3.06,1.48,6.87,4.45,9.95,7.53l-8.09-10.46h-61.92Z"/></g></g></g></svg>