<?xml version="1.0" encoding="UTF-8"?><svg xmlns="http://www.w3.org/2000/svg" viewBox="0 0 160.09 151.89"><defs><style>.c,.d{fill:#fff;}.e{fill:#f2b440;}.f{fill:#ee8240;}.g,.h{fill:#fbf0e5;}.i,.j{fill:#541932;}.h{stroke:#541832;stroke-miterlimit:10;stroke-width:4px;}.k,.j,.d{opacity:.25;}</style></defs><g id="a"/><g id="b"><g><g><path class="i" d="M74.94,2C33.62,2,0,35.62,0,76.94s33.62,74.94,74.94,74.94,74.94-33.62,74.94-74.94S116.27,2,74.94,2Z"/><path class="f" d="M74.94,147.71c-39.02,0-70.77-31.75-70.77-70.77S35.92,6.18,74.94,6.18s70.77,31.74,70.77,70.76-31.75,70.77-70.77,70.77Z"/><path class="i" d="M74.94,16.13c-33.53,0-60.81,27.28-60.81,60.81s27.28,60.81,60.81,60.81,60.81-27.28,60.81-60.81-27.28-60.81-60.81-60.81Z"/><path class="e" d="M77.03,133.53v-6.59c0-1.15-.94-2.09-2.09-2.09s-2.09,.94-2.09,2.09v6.59c-29.57-1.08-53.41-24.92-54.49-54.49h6.59c1.15,0,2.09-.94,2.09-2.09s-.94-2.09-2.09-2.09h-6.59c1.08-29.57,24.92-53.41,54.49-54.49v6.59c0,1.15,.94,2.09,2.09,2.09s2.09-.94,2.09-2.09v-6.59c29.57,1.08,53.41,24.92,54.49,54.49h-6.59c-1.15,0-2.09,.94-2.09,2.09s.94,2.09,2.09,2.09h6.59c-1.08,29.57-24.92,53.42-54.49,54.49Z"/><path class="i" d="M109.4,74.85h-24.33c-.83-4.03-4.01-7.21-8.04-8.04v-26.65c0-1.15-.94-2.09-2.09-2.09s-2.09,.94-2.09,2.09v26.65c-4.7,.97-8.25,5.14-8.25,10.13,0,1.87,.51,3.63,1.38,5.14l-21.58,21.58c-.82,.82-.82,2.14,0,2.95,.41,.41,.94,.61,1.48,.61s1.07-.2,1.48-.61l21.4-21.4c1.73,1.29,3.86,2.07,6.18,2.07,4.99,0,9.16-3.55,10.13-8.25h24.33c1.15,0,2.09-.94,2.09-2.09s-.94-2.09-2.09-2.09Z"/><path class="g" d="M74.94,83.11c-3.4,0-6.16-2.76-6.16-6.16s2.76-6.16,6.16-6.16,6.16,2.76,6.16,6.16-2.76,6.16-6.16,6.16Z"/><path class="j" d="M81.9,124.48c-29.57-1.08-53.41-24.93-54.49-54.49v-4.18c.46-12.5,4.99-23.97,12.3-33.14-12.51,9.98-20.73,25.12-21.35,42.19h6.59c1.15,0,2.09,.94,2.09,2.09s-.94,2.09-2.09,2.09h-6.59c1.08,29.57,24.92,53.42,54.49,54.49v-6.59c0-1.15,.94-2.09,2.09-2.09s2.09,.94,2.09,2.09v6.59c17.07-.62,32.21-8.84,42.19-21.35-9.17,7.31-20.64,11.85-33.14,12.3h-4.18Z"/><g class="k"><path class="c" d="M131.13,74.85h.4c-1.08-29.57-24.92-53.41-54.49-54.49v3.76c26,5.72,46.77,25.37,54.1,50.73Z"/><path class="c" d="M61.35,22.41c3.92,0,7.76,.32,11.51,.92v-2.96c-4.6,.17-9.06,.89-13.31,2.09,.6-.01,1.2-.05,1.81-.05Z"/></g><path class="j" d="M81.11,141.55c-39.02,0-70.77-31.75-70.77-70.77,0-17.94,6.73-34.34,17.77-46.83C13.45,36.93,4.18,55.87,4.18,76.94c0,39.02,31.75,70.77,70.77,70.77,21.08,0,40.02-9.27,52.99-23.94-12.49,11.05-28.88,17.77-46.83,17.77Z"/></g><g><circle class="h" cx="130.46" cy="29.63" r="27.63"/><g><path class="i" d="M127.17,16.21c-1.01-2.11-.07-4.01,1.19-4.86,1.34-.91,3.12-.86,4.45,.19,1.4,1.1,1.73,2.74,.93,4.7,.15,.06,.3,.13,.45,.2,3.87,1.74,6.03,4.73,6.45,8.95,.19,1.94,.3,3.88,.48,5.82,.2,2.17,.99,4.12,2.28,5.87,.15,.2,.31,.4,.45,.61,.54,.77,.35,1.64-.53,1.96-1.54,.57-3.11,1.09-4.69,1.57-.8,.24-1.64,.37-2.46,.5-.3,.05-.41,.17-.48,.45-.86,3.72-5.07,5.39-8.24,3.27-1.17-.78-1.9-1.88-2.22-3.25-.07-.29-.16-.43-.49-.48-2.4-.37-4.72-1.04-6.96-1.98-1.09-.46-1.33-1.27-.6-2.19,1.89-2.36,2.65-5.09,2.78-8.07,.08-1.82,.17-3.65,.49-5.43,.67-3.67,2.82-6.23,6.28-7.65,.14-.06,.28-.12,.42-.18Zm13.74,21.73c-.01-.07-.01-.1-.03-.12-.05-.1-.11-.19-.17-.29-1.23-2-1.93-4.18-2.11-6.52-.15-2-.28-4-.49-5.98-.41-3.71-3.8-6.78-7.5-6.85-3.77-.07-7.1,2.59-7.68,6.3-.31,1.93-.39,3.9-.51,5.85-.16,2.61-.83,5.04-2.22,7.26-.06,.1-.11,.21-.18,.34,7,2.37,13.94,2.38,20.9,0Zm-13.03,4.25c.37,1.03,1.56,1.75,2.75,1.67,1.12-.07,2.23-.85,2.41-1.67h-5.16Zm2.58-28.98c-.68,0-1.23,.55-1.24,1.21,0,.67,.58,1.26,1.25,1.25,.67,0,1.23-.56,1.24-1.22,0-.68-.56-1.25-1.25-1.24Z"/><path class="e" d="M140.91,37.94c-6.95,2.37-13.9,2.36-20.9,0,.07-.13,.12-.24,.18-.34,1.39-2.22,2.06-4.66,2.22-7.26,.12-1.96,.2-3.92,.51-5.85,.59-3.71,3.92-6.37,7.68-6.3,3.7,.07,7.09,3.14,7.5,6.85,.22,1.99,.34,3.99,.49,5.98,.18,2.35,.88,4.52,2.11,6.52,.06,.1,.12,.19,.17,.29,.01,.02,.01,.05,.03,.12Z"/><path class="e" d="M127.88,42.19h5.16c-.18,.82-1.29,1.6-2.41,1.67-1.19,.08-2.38-.64-2.75-1.67Z"/><path class="e" d="M130.46,13.2c.7,0,1.26,.56,1.25,1.24,0,.66-.57,1.22-1.24,1.22-.68,0-1.26-.58-1.25-1.25,0-.67,.56-1.21,1.24-1.21Z"/><path class="d" d="M127.89,20.89c3.7,.07,7.09,3.14,7.5,6.85,.22,1.99,.34,3.99,.49,5.98,.14,1.84,.62,3.58,1.41,5.21,1.2-.27,2.41-.58,3.61-.99-.01-.07-.01-.1-.03-.12-.05-.1-.11-.19-.17-.29-1.23-2-1.93-4.18-2.11-6.52-.15-2-.28-4-.49-5.98-.41-3.71-3.8-6.78-7.5-6.85-2.84-.06-5.44,1.45-6.79,3.78,1.2-.71,2.6-1.1,4.08-1.07Z"/></g></g></g></g></svg>