<?xml version="1.0" encoding="UTF-8"?><svg xmlns="http://www.w3.org/2000/svg" viewBox="0 0 238.55 238.55"><defs><style>.c{fill:#f4dbae;}.d{fill:#f5f3ef;}.e,.f{fill:#fff;}.g{fill:#f2b440;}.h,.i{fill:#541932;}.j,.i,.f{opacity:.25;}</style></defs><g id="a"/><g id="b"><g><circle class="d" cx="119.27" cy="119.27" r="119.27"/><g><path class="h" d="M182.74,144.9l-20.17-19.75s-.02-.02-.03-.03c-.02-.02-.04-.04-.06-.06-.03-.03-.07-.05-.11-.08-.04-.03-.07-.06-.11-.08h-.02s-.07-.04-.11-.06c-.06-.02-.11-.05-.17-.07,0,0-.01,0-.02,0h-.05l-33.53-9.75c.78-.06,1.39-.7,1.39-1.49s-.67-1.5-1.5-1.5h-17.96c-.83,0-1.5,.67-1.5,1.5s.62,1.43,1.39,1.49l-33.53,9.73h-.05l-.02,.02c-.06,.02-.11,.04-.16,.06-.04,.02-.08,.03-.11,.05-.02,0-.03,.02-.05,.03-.02,.01-.04,.03-.06,.04-.04,.03-.09,.06-.13,.09-.02,.02-.04,.03-.05,.05-.01,.01-.03,.02-.04,.03l-20.17,19.75c-.38,.38-.54,.93-.4,1.45s.53,.93,1.05,1.07l19.07,5.29v18.68c0,.67,.45,1.26,1.09,1.44l42.25,11.94c.13,.04,.27,.06,.4,.06h.01c.13,0,.27-.02,.4-.06l42.25-11.94c.65-.18,1.09-.77,1.09-1.44v-18.68l19.07-5.29c.52-.14,.92-.55,1.05-1.07s-.02-1.07-.4-1.45Z"/><polygon class="c" points="119.27 136.6 82.48 126.2 119.27 115.52 156.07 126.2 119.27 136.6"/><polygon class="c" points="77.46 127.9 96.27 133.22 116.4 138.91 99.17 156.14 59.77 145.22 77.46 127.9"/><path class="c" d="M78.53,170.25v-16.71l20.69,5.73c.13,.04,.27,.05,.4,.05,.39,0,.78-.15,1.06-.44l17.1-17.1v39.55l-39.25-11.09Z"/><path class="c" d="M160.02,170.25l-39.25,11.09v-39.55l17.1,17.1c.29,.29,.67,.44,1.06,.44,.13,0,.27-.02,.4-.05l20.68-5.73v16.71Z"/><polygon class="c" points="139.38 156.14 122.14 138.91 138.76 134.22 161.09 127.9 178.78 145.22 139.38 156.14"/><path class="h" d="M107.1,106.08c-.83,0-1.5,.67-1.5,1.5s.67,1.5,1.5,1.5h24.36c.83,0,1.5-.67,1.5-1.5s-.67-1.5-1.5-1.5h-24.36Z"/><path class="h" d="M139.47,77.25c0-19.97-19.99-20.2-20.2-20.2s-20.2,.23-20.2,20.2c0,7.3,2.33,10.78,4.39,13.84,1.72,2.57,3.36,5.01,3.64,9.75h-.02c-.83,0-1.5,.67-1.5,1.5s.67,1.5,1.5,1.5h24.36c.83,0,1.5-.67,1.5-1.5s-.67-1.5-1.5-1.5h-.02c.29-4.74,1.92-7.18,3.64-9.75,2.06-3.07,4.39-6.54,4.39-13.84Z"/><path class="g" d="M128.43,100.85h-18.31c-.3-5.66-2.25-8.59-4.16-11.42-2-2.97-3.88-5.78-3.88-12.17,0-16.94,16.5-17.2,17.19-17.2,.7,0,17.2,.25,17.2,17.2,0,6.39-1.89,9.2-3.88,12.17-1.9,2.83-3.86,5.76-4.16,11.42Z"/><path class="h" d="M124.77,117.51c-.83,0-1.5,.67-1.5,1.5,0,2.2-1.79,4-4,4s-4-1.79-4-4c0-.83-.67-1.5-1.5-1.5s-1.5,.67-1.5,1.5c0,3.86,3.14,7,7,7s7-3.14,7-7c0-.83-.67-1.5-1.5-1.5Z"/><path class="h" d="M119.27,53.28c.83,0,1.5-.67,1.5-1.5v-10.78c0-.83-.67-1.5-1.5-1.5s-1.5,.67-1.5,1.5v10.78c0,.83,.67,1.5,1.5,1.5Z"/><path class="h" d="M149.23,82.4c0,.83,.67,1.5,1.5,1.5h10.78c.83,0,1.5-.67,1.5-1.5s-.67-1.5-1.5-1.5h-10.78c-.83,0-1.5,.67-1.5,1.5Z"/><path class="h" d="M77.88,84.73h10.78c.83,0,1.5-.67,1.5-1.5s-.67-1.5-1.5-1.5h-10.78c-.83,0-1.5,.67-1.5,1.5s.67,1.5,1.5,1.5Z"/><path class="h" d="M96.39,62.23c.29,.29,.68,.44,1.06,.44s.77-.15,1.06-.44c.59-.59,.59-1.54,0-2.12l-7.62-7.62c-.59-.59-1.54-.59-2.12,0s-.59,1.54,0,2.12l7.62,7.62Z"/><path class="h" d="M141.34,62.07c.38,0,.77-.15,1.06-.44l7.62-7.62c.59-.59,.59-1.54,0-2.12s-1.54-.59-2.12,0l-7.62,7.62c-.59,.59-.59,1.54,0,2.12,.29,.29,.68,.44,1.06,.44Z"/><polygon class="i" points="119.27 136.6 82.48 126.2 119.27 115.52 156.07 126.2 119.27 136.6"/><path class="i" d="M160.02,160.89v-7.36l-20.68,5.73c-.13,.04-.27,.05-.4,.05-.39,0-.78-.15-1.06-.44l-17.1-17.1v11.24l14.05,14.05,25.19-6.18Z"/><path class="i" d="M99.61,159.32c-.13,0-.27-.02-.4-.05l-20.69-5.73v4.13l25.95,6.72,13.29-15.94v-6.65l-17.1,17.1c-.29,.29-.67,.44-1.06,.44Z"/><polygon class="f" points="178.78 145.22 141.65 146.93 122.14 138.91 139.38 156.14 178.78 145.22"/><polygon class="f" points="116.4 138.91 94.67 151.07 59.77 145.22 99.17 156.14 116.4 138.91"/><path class="f" d="M119.27,62.4c-14.72,0-15.28,17.22-13.13,22.34,2.04,4.84,5.46,7.82,5.82,16.11h14.62c.36-8.3,3.78-11.27,5.82-16.11,2.15-5.12,1.59-22.34-13.13-22.34Z"/><g class="j"><path class="e" d="M121.3,100.85c0-5.86,4.8-15.72,6.14-18.91,1.34-3.18,.99-13.9-8.17-13.9-9.16,0-9.51,10.72-8.17,13.9,1.34,3.18,6.13,13.05,6.13,18.91"/></g></g></g></g></svg>