<?xml version="1.0" encoding="UTF-8"?><svg xmlns="http://www.w3.org/2000/svg" viewBox="0 0 238.55 238.55"><defs><style>.c{fill:#f5f3ef;}.d{fill:#fff;}.e{fill:#f2b440;}.f{fill:#ee8240;}.g,.h{fill:#541932;}.i,.h{opacity:.25;}</style></defs><g id="a"/><g id="b"><g><circle class="c" cx="119.27" cy="119.27" r="119.27"/><g><g><g><path class="g" d="M79.39,82.87c.59,.59,1.54,.59,2.12,0,.59-.59,.59-1.54,0-2.12l-8.79-8.79c-.59-.59-1.54-.59-2.12,0-.59,.59-.59,1.54,0,2.12l8.79,8.79Z"/><path class="g" d="M100.7,68.58c.11,.82,.86,1.4,1.68,1.29,.34-.04,.64-.2,.87-.43,.32-.32,.49-.77,.43-1.25l-1.68-12.87c-.11-.82-.86-1.4-1.68-1.29-.82,.11-1.4,.86-1.29,1.68l1.68,12.87Z"/><path class="g" d="M53.97,103.35l12.87,1.68c.48,.06,.94-.11,1.25-.43,.23-.23,.38-.52,.43-.87,.11-.82-.47-1.57-1.29-1.68l-12.87-1.68c-.82-.11-1.57,.47-1.68,1.29-.11,.82,.47,1.57,1.29,1.68Z"/></g><g><path class="g" d="M161.17,160.41c-.59-.59-1.54-.59-2.12,0-.59,.59-.59,1.54,0,2.12l8.79,8.79c.59,.59,1.54,.59,2.12,0,.59-.59,.59-1.54,0-2.12l-8.79-8.79Z"/><path class="g" d="M139.87,174.7c-.11-.82-.86-1.4-1.68-1.29-.34,.04-.64,.2-.87,.43-.32,.32-.49,.77-.43,1.25l1.68,12.87c.11,.82,.86,1.4,1.68,1.29,.82-.11,1.4-.86,1.29-1.68l-1.68-12.87Z"/><path class="g" d="M186.6,139.92l-12.87-1.68c-.48-.06-.94,.11-1.25,.43-.23,.23-.38,.52-.43,.87-.11,.82,.47,1.57,1.29,1.68l12.87,1.68c.82,.11,1.57-.47,1.68-1.29,.11-.82-.47-1.57-1.29-1.68Z"/></g></g><g><path class="g" d="M188.73,93.94l-13.39-13.39-1.06,1.06c-1.79,1.79-4.16,2.77-6.69,2.77s-4.9-.98-6.69-2.77-2.77-4.16-2.77-6.69,.98-4.9,2.77-6.69l1.06-1.06-13.39-13.39-12.43,12.43c-4.89-4.39-12.44-4.24-17.14,.46-4.7,4.7-4.85,12.25-.46,17.14l-12.43,12.43,11.33,11.33c-1.72,2.18-2.65,4.86-2.65,7.69,0,3.33,1.3,6.46,3.65,8.81,2.35,2.35,5.48,3.65,8.81,3.65,2.82,0,5.5-.93,7.69-2.65l11.33,11.33,12.48-12.48c4.88,3.83,12,3.5,16.5-1s4.83-11.61,1-16.5l12.48-12.48Z"/><path class="f" d="M173.13,120.79c-3.69,3.69-9.69,3.69-13.38,0l-1.06-1.06-12.42,12.42-11.27-11.27-1.06,1.06c-3.69,3.69-9.69,3.69-13.38,0-1.79-1.79-2.77-4.16-2.77-6.69s.98-4.9,2.77-6.69l1.06-1.06-11.27-11.27,12.53-12.53-1.23-1.05c-.18-.15-.36-.31-.53-.48-3.69-3.69-3.69-9.69,0-13.38,3.69-3.69,9.69-3.69,13.38,0,.17,.17,.32,.34,.48,.53l1.05,1.23,12.53-12.53,9.21,9.21c-1.72,2.18-2.65,4.86-2.65,7.69,0,3.33,1.3,6.46,3.65,8.81,2.35,2.35,5.48,3.65,8.81,3.65,2.82,0,5.5-.93,7.69-2.65l9.21,9.21-12.42,12.42,1.06,1.06c1.79,1.79,2.77,4.16,2.77,6.69s-.98,4.9-2.77,6.69Z"/><path class="g" d="M121.65,134.24l-1.06,1.06c-1.79,1.79-4.16,2.77-6.69,2.77s-4.9-.98-6.69-2.77-2.77-4.16-2.77-6.69,.98-4.9,2.77-6.69l1.06-1.06-13.39-13.39-12.43,12.43c-4.89-4.39-12.44-4.24-17.14,.46-4.7,4.7-4.85,12.25-.46,17.14l-12.43,12.43,40.16,40.16,12.48-12.48c4.88,3.83,12,3.5,16.5-1,4.5-4.5,4.83-11.61,1-16.5l12.48-12.48-13.39-13.39Z"/><path class="e" d="M119.44,161.1c3.69,3.69,3.69,9.69,0,13.38-3.69,3.69-9.69,3.69-13.38,0l-1.06-1.06-12.42,12.42-35.92-35.92,12.53-12.53-1.23-1.05c-.18-.15-.36-.31-.53-.48-3.69-3.69-3.69-9.69,0-13.38,3.69-3.69,9.69-3.69,13.38,0,.16,.16,.29,.32,.48,.54l1.05,1.22,12.53-12.53,9.21,9.21c-1.72,2.18-2.65,4.86-2.65,7.69,0,3.33,1.3,6.46,3.65,8.81,2.35,2.35,5.48,3.65,8.81,3.65,2.82,0,5.5-.93,7.69-2.65l9.21,9.21-12.42,12.42,1.06,1.06Z"/><g class="i"><path class="d" d="M139.81,69.81c.17,.17,.32,.34,.48,.53l1.05,1.23,10.39-10.39-3.16-3.16-10.46,10.46c.6,.37,1.17,.81,1.7,1.34Z"/><path class="d" d="M125.87,122.97c-1.79-1.79-2.77-4.16-2.77-6.69s.98-4.9,2.77-6.69l1.06-1.06-11.27-11.27,12.53-12.53-1.23-1.05c-.18-.15-.36-.31-.53-.48-3.69-3.69-3.69-9.69,0-13.38,1.61-1.61,3.66-2.52,5.77-2.72-3.57-1.86-8.08-1.3-11.07,1.69-3.69,3.69-3.69,9.69,0,13.38,.17,.17,.35,.32,.53,.48l1.23,1.05-12.53,12.53,11.27,11.27-1.06,1.06c-1.79,1.79-2.77,4.16-2.77,6.69s.98,4.9,2.77,6.69c2.08,2.08,4.89,2.99,7.61,2.72-.83-.43-1.61-1-2.31-1.7Z"/></g><g class="i"><path class="d" d="M86.12,123.51c.16,.16,.29,.32,.48,.54l1.05,1.22,10.39-10.39-3.16-3.16-10.46,10.46c.6,.37,1.17,.81,1.7,1.34Z"/><path class="d" d="M61.97,150.95l12.53-12.53-1.23-1.05c-.18-.15-.36-.31-.53-.48-3.69-3.69-3.69-9.69,0-13.38,1.61-1.61,3.66-2.52,5.77-2.72-3.57-1.86-8.08-1.3-11.07,1.69-3.69,3.69-3.69,9.69,0,13.38,.17,.17,.35,.32,.53,.48l1.23,1.05-12.53,12.53,35.92,35.92,2.14-2.14-32.75-32.75Z"/></g><path class="h" d="M119.44,174.48c3.69-3.69,3.69-9.69,0-13.38l-1.06-1.06,12.42-12.42-9.21-9.21s7.55,10.07,5.15,11.2c-2.4,1.13-11.73,6.64-10.18,13.99,.93,4.42-3.33,9.64-6.89,13.12,3.31,1.14,7.13,.4,9.77-2.24Z"/><path class="h" d="M173.13,120.79c1.79-1.79,2.77-4.16,2.77-6.69s-.98-4.9-2.77-6.69l-1.06-1.06,12.42-12.42-9.21-9.21c-.7,.55-1.45,1.01-2.24,1.39h0s11.31,8.35,5.13,10.87c-6.19,2.52-11.83,5.94-8.06,13.02,3.17,5.94-6.48,10.17-9.68,11.39,3.71,3.07,9.24,2.87,12.72-.6Z"/></g></g></g></g></svg>