<?xml version="1.0" encoding="UTF-8"?><svg xmlns="http://www.w3.org/2000/svg" viewBox="0 0 238.55 238.55"><defs><style>.c{fill:#f5f3ef;}.d{fill:#ee8240;}.e{fill:#fbf0e5;}.f,.g{fill:#541932;}.g{opacity:.25;}</style></defs><g id="a"/><g id="b"><g><circle class="c" cx="119.27" cy="119.27" r="119.27"/><g><path class="f" d="M201.07,117.14h-23.94c-1.1-30.23-25.48-54.61-55.72-55.72v-23.94c0-1.18-.96-2.14-2.14-2.14s-2.14,.96-2.14,2.14v23.94c-30.23,1.1-54.61,25.48-55.72,55.72h-23.94c-1.18,0-2.14,.96-2.14,2.14s.96,2.14,2.14,2.14h23.94c1.1,30.23,25.48,54.61,55.72,55.72v23.94c0,1.18,.96,2.14,2.14,2.14s2.14-.96,2.14-2.14v-23.94c30.23-1.1,54.61-25.48,55.72-55.72h23.94c1.18,0,2.14-.96,2.14-2.14s-.96-2.14-2.14-2.14Z"/><path class="e" d="M119.28,172.91c-29.57,0-53.63-24.06-53.63-53.63s24.06-53.63,53.63-53.63,53.63,24.06,53.63,53.63-24.06,53.63-53.63,53.63Z"/><path class="f" d="M119.28,84.45c-19.2,0-34.82,15.62-34.82,34.82s15.62,34.82,34.82,34.82,34.82-15.62,34.82-34.82-15.62-34.82-34.82-34.82Z"/><path class="d" d="M119.28,149.82c-16.84,0-30.55-13.7-30.55-30.55s13.7-30.55,30.55-30.55,30.55,13.7,30.55,30.55-13.7,30.55-30.55,30.55Z"/><path class="g" d="M126.15,142.95c-16.84,0-30.55-13.7-30.55-30.55,0-6.67,2.17-12.83,5.82-17.86-7.67,5.55-12.69,14.56-12.69,24.73,0,16.84,13.7,30.55,30.55,30.55,10.17,0,19.18-5.02,24.73-12.69-5.03,3.64-11.19,5.82-17.86,5.82Z"/><path class="g" d="M121.3,170.89c-29.57,0-53.63-24.06-53.63-53.63,0-14.27,5.62-27.25,14.74-36.87-10.31,9.78-16.76,23.59-16.76,38.89,0,29.57,24.06,53.63,53.63,53.63,15.3,0,29.11-6.45,38.89-16.76-9.62,9.12-22.6,14.74-36.87,14.74Z"/></g></g></g></svg>