<?xml version="1.0" encoding="UTF-8"?><svg xmlns="http://www.w3.org/2000/svg" viewBox="0 0 238.55 238.55"><defs><style>.c{fill:#f5f3ef;}.d{fill:#edc2a1;}.e{fill:#e0ae80;}.f,.g{fill:#541932;}.g,.h{opacity:.25;}.h{fill:#fff;}</style></defs><g id="a"/><g id="b"><g><circle class="c" cx="119.27" cy="119.27" r="119.27"/><g><g><path class="f" d="M190.02,155.32l-25.81-21.29c.94-2.39,1.04-5.04,.16-7.43-.73-1.98-2.02-3.43-3.74-4.21-.49-.22-1.02-.37-1.58-.48,1.21-1.43,2.3-3.23,2.61-5.28,.37-2.45-.4-4.79-2.28-6.95-1.62-1.85-3.4-3.01-5.31-3.46,.89-2.76,1.63-7.31-1.5-10.76-1.64-1.81-3.65-2.44-5.59-2.49,.71-3.22,.99-8.52-3.62-11.55-3.6-2.36-7.62-1.23-12.19,1.78-1.93-1.59-6.32-4.91-12.3-7.56-3.32-1.47-5.73-.79-7.17,.05-3,1.74-4.45,5.52-5.14,8.25l-1.51-1.21c-1.93-1.55-4.35-2.26-6.82-1.98-2.46,.27-4.67,1.49-6.22,3.42-1.55,1.93-2.26,4.36-1.98,6.82,.12,1.13,.45,2.2,.95,3.18-.13,0-.26,0-.38,.02-2.46,.27-4.67,1.49-6.23,3.42-2.34,2.93-2.62,6.85-1.03,9.99-.26,0-.53,.02-.79,.05-2.46,.27-4.67,1.49-6.22,3.42-1.55,1.93-2.26,4.36-1.98,6.82,.25,2.31,1.34,4.38,3.07,5.91-1.94,.46-3.75,1.54-5.09,3.21-1.55,1.93-2.26,4.36-1.98,6.82,.08,.71,.24,1.39,.47,2.05l-21.14,16.91,30.07,35.38,32.57-27.59c2.02,.81,6.59,2.19,13.05,1.45l31.14,26.03,33.55-32.75Z"/><path class="e" d="M113.47,78.76c1.07-.62,2.36-.58,3.95,.13,4.92,2.18,8.72,4.88,10.76,6.48-2.88,2.24-5.95,5.02-9.26,8.02l-.29,.26-8.99-7.21c.39-2.29,1.52-6.34,3.82-7.67Z"/><path class="e" d="M94.76,86.39c.96-1.2,2.32-1.95,3.85-2.11,.21-.02,.43-.03,.64-.03,1.3,0,2.55,.44,3.58,1.26l14.77,11.84c2.47,1.98,2.87,5.6,.89,8.06-.96,1.2-2.33,1.95-3.85,2.11-1.53,.16-3.02-.27-4.22-1.23l-14.77-11.84c-1.2-.96-1.95-2.33-2.11-3.85-.17-1.52,.27-3.02,1.23-4.22Z"/><path class="e" d="M87.12,99.83c.96-1.2,2.33-1.95,3.85-2.11,.21-.02,.43-.03,.64-.03,1.3,0,2.55,.44,3.58,1.26l10.95,8.78c1.2,.96,1.95,2.33,2.11,3.85,.17,1.52-.27,3.02-1.23,4.22-.96,1.2-2.33,1.95-3.85,2.11-1.53,.16-3.02-.27-4.22-1.23l-10.95-8.78c-1.2-.96-1.95-2.32-2.11-3.85-.17-1.52,.27-3.02,1.23-4.22Z"/><path class="e" d="M79.08,113.3c.96-1.2,2.32-1.95,3.85-2.11,.21-.02,.43-.03,.64-.03,1.3,0,2.55,.44,3.58,1.26l8.09,6.49c1.2,.96,1.95,2.32,2.11,3.85,.17,1.52-.27,3.02-1.23,4.22-.96,1.2-2.33,1.95-3.85,2.11-1.29,.14-2.53-.17-3.61-.83l-3.31-2.65c-.29-.23-.59-.44-.9-.63l-4.49-3.6c-1.2-.96-1.95-2.33-2.11-3.85-.17-1.52,.27-3.02,1.23-4.22Z"/><path class="e" d="M75.06,129.24c1.13-1.41,2.8-2.15,4.48-2.15,1,0,2.01,.27,2.91,.81l3.38,2.71c.22,.18,.46,.31,.7,.47l2.6,2.08c2.47,1.98,2.87,5.6,.89,8.07-1.98,2.47-5.6,2.87-8.06,.89l-6-4.81c-1.2-.96-1.95-2.32-2.11-3.85-.17-1.52,.27-3.02,1.23-4.22Z"/><path class="d" d="M112.85,156.96l-1.07-.59-31.66,26.82-25.41-29.91,17.89-14.31c.35,.39,.72,.76,1.14,1.09l6,4.81c1.66,1.33,3.69,2.04,5.79,2.04,.34,0,.69-.02,1.03-.06,2.46-.27,4.67-1.49,6.23-3.42h0c2.59-3.23,2.66-7.67,.48-10.95,2.22-.39,4.2-1.55,5.62-3.32,1.55-1.93,2.26-4.36,1.98-6.82-.04-.37-.11-.73-.19-1.08,.61,.13,1.23,.21,1.86,.21,.34,0,.69-.02,1.03-.06,2.46-.27,4.67-1.49,6.23-3.42,1.55-1.93,2.26-4.36,1.98-6.82-.01-.14-.04-.27-.06-.4,.74,.19,1.5,.32,2.28,.32,.34,0,.69-.02,1.03-.06,2.46-.27,4.67-1.49,6.23-3.42h0c2.76-3.45,2.65-8.27,0-11.59l.04-.04c8.52-7.72,15.88-14.39,20.11-11.61,3.46,2.27,2.36,7.2,1.76,9.13-2.08,.62-3.61,1.54-3.76,1.63-.83,.51-1.09,1.6-.58,2.43,.51,.83,1.6,1.09,2.43,.59,.03-.02,1.66-.99,3.61-1.43h.01c1.73-.4,3.72-.37,5.07,1.11,2.37,2.61,1.04,6.72,.35,8.39-3.33,.78-5.62,3.31-5.73,3.43-.65,.73-.58,1.84,.15,2.49,.73,.65,1.84,.59,2.5-.14,.02-.03,2.27-2.48,5.01-2.48h.04c1.55,.01,3.05,.84,4.47,2.47,1.18,1.35,1.65,2.69,1.45,4.08-.41,2.8-3.52,5.38-4.88,6.28-.68,.2-1.38,.42-2.12,.71-.91,.36-1.36,1.39-1,2.3,.36,.91,1.39,1.36,2.3,1,.73-.29,1.42-.52,2.07-.69h.01c1.96-.53,3.54-.56,4.64-.06,.85,.38,1.46,1.1,1.87,2.2,.91,2.49,.22,5.42-1.77,7.48-5.46,5.65-19.15,19.09-28.18,21.91-11.12,3.47-18.18-.21-18.24-.24Z"/><path class="e" d="M129.86,161.22c.74-.18,1.5-.39,2.28-.63,9.46-2.96,22.65-15.57,29.67-22.83,.2-.21,.37-.43,.55-.65l22.35,18.44-28.44,27.76-26.42-22.09Z"/><path class="f" d="M121.02,61.87c.98,0,1.77-.79,1.77-1.77v-14.68c0-.98-.79-1.77-1.77-1.77s-1.77,.79-1.77,1.77v14.68c0,.98,.79,1.77,1.77,1.77Z"/><g><path class="f" d="M173.92,96.7c.24,.33,.57,.55,.94,.65,.51,.15,1.08,.06,1.54-.28l12.31-9.12c.79-.58,.95-1.69,.37-2.48-.58-.79-1.69-.95-2.48-.37l-12.31,9.12c-.79,.58-.95,1.69-.37,2.48Z"/><path class="f" d="M68.13,96.7c-.24,.33-.57,.55-.94,.65-.51,.15-1.08,.06-1.54-.28l-12.31-9.12c-.79-.58-.95-1.69-.37-2.48,.58-.79,1.69-.95,2.48-.37l12.31,9.12c.79,.58,.95,1.69,.37,2.48Z"/></g><path class="g" d="M166.17,140.24h0l-3.8-3.13c-.18,.22-.35,.45-.55,.65-7.02,7.26-20.22,19.87-29.67,22.83-.78,.24-1.54,.45-2.28,.63l5.05,4.22c17.5-2.14,31.26-25.2,31.26-25.2Z"/><path class="g" d="M73.8,144.2s.96,5.46,10.86,5.46,13.86-10.11,12.51-13.27c-1.35-3.16,9.29-6.98,6.4-11.05,5.2,.15,11.68-6.33,9.88-11.36,7.74,0,13.73-6.73,12.05-13.49-1.62-6.53,7.32-14.01,7.94-14.52-3.54,2.26-7.68,6-12.14,10.05l-.04,.04c2.64,3.32,2.75,8.14,0,11.59h0c-1.55,1.93-3.76,3.15-6.23,3.42-.34,.04-.69,.06-1.03,.06-.78,0-1.54-.13-2.28-.32,.02,.14,.05,.27,.06,.4,.27,2.46-.43,4.89-1.98,6.82-1.55,1.93-3.76,3.15-6.23,3.42-.34,.04-.69,.06-1.03,.06-.63,0-1.25-.08-1.86-.21,.08,.35,.15,.71,.19,1.08,.27,2.46-.43,4.89-1.98,6.82-1.42,1.77-3.4,2.93-5.62,3.32,2.18,3.28,2.1,7.72-.48,10.95h0c-1.55,1.93-3.76,3.15-6.23,3.42-.34,.04-.69,.06-1.03,.06-2.1,0-4.12-.71-5.79-2.04l-6-4.81c-.41-.33-.79-.7-1.14-1.09l-17.89,14.31,1.56,1.83h0l17.54-10.92Z"/><path class="h" d="M148.5,97.85c2.37,2.61,1.04,6.72,.35,8.39-3.33,.78-5.62,3.31-5.73,3.43-.65,.73-.58,1.84,.15,2.49,.54,.49,1.31,.57,1.93,.28-.17-.07-.34-.15-.48-.28-.73-.65-.79-1.76-.15-2.49,.11-.13,2.4-2.65,5.73-3.43,.69-1.67,2.03-5.78-.35-8.39-1.09-1.2-2.59-1.44-4.04-1.28,.95,.12,1.86,.48,2.59,1.28Z"/><path class="h" d="M139.96,84.39c3.46,2.27,2.36,7.2,1.76,9.13-2.08,.62-3.61,1.54-3.76,1.63-.83,.51-1.09,1.6-.58,2.43,.47,.77,1.43,1.04,2.23,.69-.31-.14-.58-.37-.78-.69-.51-.83-.25-1.92,.58-2.43,.14-.09,1.68-1.01,3.76-1.63,.6-1.93,1.71-6.86-1.76-9.13-.87-.57-1.87-.73-2.99-.57,.55,.09,1.06,.26,1.54,.57Z"/><path class="h" d="M155.26,112.01c1.18,1.35,1.65,2.69,1.45,4.08-.41,2.8-3.52,5.38-4.88,6.28-.68,.2-1.38,.42-2.12,.71-.91,.36-1.36,1.39-1,2.3,.36,.91,1.39,1.36,2.3,1,.03-.01,.06-.02,.09-.03-.41-.18-.75-.52-.93-.97-.36-.91,.09-1.94,1-2.3,.73-.29,1.44-.52,2.12-.71,1.36-.89,4.47-3.48,4.88-6.28,.21-1.4-.27-2.73-1.45-4.08-1.42-1.62-2.92-2.45-4.47-2.47h-.04c-.24,0-.46,.04-.69,.07,1.29,.23,2.55,1.02,3.74,2.39Z"/><polygon class="h" points="110.33 156.38 79.51 182.48 80.12 183.2 111.21 156.86 110.33 156.38"/><path class="h" d="M161.04,127.82c-.4-1.09-1.01-1.81-1.87-2.2-.69-.31-1.6-.39-2.65-.29,.44,.05,.86,.14,1.2,.29,.85,.38,1.46,1.1,1.87,2.2,.91,2.49,.22,5.42-1.77,7.48-5.46,5.65-19.15,19.09-28.18,21.91-3.25,1.01-6.13,1.41-8.62,1.47,2.78,.08,6.16-.25,10.07-1.47,9.03-2.82,22.72-16.26,28.18-21.91,1.99-2.05,2.68-4.99,1.77-7.48Z"/><path class="g" d="M118.92,93.38c3.31-3,6.38-5.78,9.26-8.02,0,0-7.93-1.55-16.36,2.81l6.81,5.46,.29-.26Z"/><path class="h" d="M113.47,78.76c-1.9,1.1-3,4.06-3.54,6.34,.66-1.78,2.92-4.71,10.58-4.71-.97-.52-2-1.03-3.09-1.51-1.59-.7-2.88-.74-3.95-.13Z"/><path class="h" d="M117.6,97.34l-14.77-11.84c-1.03-.82-2.28-1.26-3.58-1.26-.21,0-.43,.01-.64,.03-1.16,.13-2.22,.59-3.09,1.33,.53-.23,1.08-.41,1.67-.47,.21-.02,.43-.03,.64-.03,1.3,0,2.55,.44,3.58,1.26l14.77,11.84c2.47,1.98,2.87,5.6,.89,8.06-.23,.29-.49,.55-.76,.78,.84-.37,1.59-.91,2.18-1.64,1.98-2.47,1.58-6.09-.89-8.06Z"/><path class="h" d="M108.25,111.57c-.17-1.52-.92-2.89-2.11-3.85l-10.95-8.78c-1.03-.82-2.28-1.26-3.58-1.26-.21,0-.42,.01-.64,.03-1.16,.13-2.22,.59-3.09,1.33,.53-.23,1.08-.41,1.67-.47,.21-.02,.43-.03,.64-.03,1.3,0,2.55,.44,3.58,1.26l10.95,8.78c1.2,.96,1.95,2.33,2.11,3.85,.17,1.52-.27,3.02-1.23,4.22-.23,.29-.49,.55-.76,.78,.84-.37,1.59-.91,2.18-1.64,.96-1.2,1.39-2.69,1.23-4.22Z"/><path class="h" d="M97.34,122.74c-.17-1.52-.92-2.89-2.11-3.85l-8.09-6.49c-1.03-.82-2.28-1.26-3.58-1.26-.21,0-.43,.01-.64,.03-1.16,.13-2.22,.59-3.09,1.33,.53-.23,1.08-.41,1.67-.47,.21-.02,.43-.03,.64-.03,1.3,0,2.55,.44,3.58,1.26l8.09,6.49c1.2,.96,1.95,2.32,2.11,3.85,.17,1.52-.27,3.02-1.23,4.22-.23,.29-.49,.55-.76,.78,.84-.37,1.59-.91,2.18-1.64,.96-1.2,1.39-2.69,1.23-4.22Z"/><path class="h" d="M89.13,133.16l-2.6-2.08c-.23-.15-.47-.29-.7-.47l-3.38-2.71c-.9-.54-1.91-.81-2.91-.81-1.31,0-2.62,.45-3.66,1.32,.71-.3,1.48-.46,2.25-.46,1,0,2.01,.27,2.91,.81l3.38,2.71c.22,.18,.46,.31,.7,.47l2.6,2.08c2.47,1.98,2.87,5.6,.89,8.07-.23,.29-.49,.55-.77,.78,.82-.36,1.58-.89,2.18-1.64,1.98-2.47,1.58-6.09-.89-8.07Z"/></g><path class="f" d="M82.13,190.22c-.5,0-1-.21-1.35-.62l-35.19-41.41c-.63-.75-.54-1.86,.2-2.5,.75-.63,1.87-.54,2.5,.2l35.19,41.41c.63,.75,.54,1.86-.2,2.5-.33,.28-.74,.42-1.15,.42Z"/><path class="f" d="M152.53,191.38c-.46,0-.92-.18-1.27-.53-.68-.7-.67-1.82,.03-2.5l39.07-38.13c.7-.68,1.82-.67,2.5,.03,.68,.7,.67,1.82-.03,2.5l-39.07,38.13c-.34,.34-.79,.5-1.24,.5Z"/><path class="f" d="M155.38,74.01c-.35,0-.7-.11-1-.34-.72-.55-.85-1.58-.3-2.3l10.94-14.21c.55-.72,1.58-.85,2.3-.3,.72,.55,.85,1.58,.3,2.3l-10.94,14.21c-.32,.42-.81,.64-1.3,.64Z"/><path class="f" d="M86.66,74.01c-.49,0-.98-.22-1.3-.64l-10.93-14.21c-.55-.72-.42-1.75,.3-2.3,.72-.55,1.75-.42,2.3,.3l10.93,14.21c.55,.72,.42,1.75-.3,2.3-.3,.23-.65,.34-1,.34Z"/></g></g></g></svg>