<?xml version="1.0" encoding="UTF-8"?><svg xmlns="http://www.w3.org/2000/svg" viewBox="0 0 238.55 238.55"><defs><style>.c{fill:#f5f3ef;}.d,.e{fill:#fff;}.f{fill:#edc2a1;}.g{fill:#ee8240;}.h{fill:#8a8d91;}.i,.j{fill:#541932;}.j,.e{opacity:.25;}</style></defs><g id="a"/><g id="b"><g><circle class="c" cx="119.27" cy="119.27" r="119.27"/><g><path class="i" d="M110.45,65.85h-25.95c-2.04,0-3.69,1.66-3.69,3.69v56.76c0,2.04,1.66,3.69,3.69,3.69h2.37v8.66c-9.72,.85-19.08,3.54-27.41,7.88-9.57,5-15.73,10.89-18.32,17.52-.2,.51-.32,1.04-.38,1.58-.03,.11-.05,.22-.05,.34,0,.05,0,.11,.02,.16-.04,1.32,.33,2.64,1.09,3.76,1.2,1.76,3.18,2.8,5.3,2.8h56.88c3.71,0,6.72-3.02,6.72-6.72v-24.31c0-1.59-1.13-2.93-2.64-3.24v-8.43h2.37c2.04,0,3.69-1.66,3.69-3.69v-56.76c0-2.04-1.66-3.69-3.69-3.69Z"/><polygon class="f" points="89.53 138.36 89.53 130.18 105.42 130.18 105.42 138.36 93.66 138.36 89.53 138.36"/><path class="g" d="M60.69,148.9c9.87-5.15,21.28-7.88,32.98-7.88h13.75c.35,0,.64,.29,.64,.64v22.98H43.78c2.44-5.86,8.12-11.15,16.91-15.74Z"/><path class="d" d="M104,170.03H47.11c-1.24,0-2.4-.61-3.1-1.64-.23-.34-.4-.71-.5-1.08H107.81c-.55,1.58-2.05,2.73-3.82,2.73Z"/><rect class="h" x="83.47" y="68.52" width="28.01" height="58.81" rx="1.03" ry="1.03"/><path class="i" d="M197.8,165.64c-.06-.53-.18-1.07-.38-1.58-2.59-6.63-8.75-12.52-18.32-17.52-8.33-4.35-17.69-7.03-27.41-7.88v-8.66h2.37c2.04,0,3.69-1.66,3.69-3.69v-56.76c0-2.04-1.66-3.69-3.69-3.69h-25.95c-2.04,0-3.69,1.66-3.69,3.69v56.76c0,2.04,1.66,3.69,3.69,3.69h2.37v8.43c-1.5,.31-2.64,1.64-2.64,3.24v24.31c0,3.71,3.02,6.72,6.72,6.72h56.88c2.12,0,4.1-1.05,5.3-2.8,.77-1.13,1.13-2.44,1.09-3.76,0-.05,.02-.1,.02-.16,0-.12-.02-.23-.05-.34Z"/><rect class="h" x="127.07" y="68.52" width="28.01" height="58.81" rx="1.03" ry="1.03"/><path class="g" d="M194.77,164.64h-64.27v-22.98c0-.35,.29-.64,.64-.64h13.75c11.7,0,23.1,2.72,32.98,7.88,8.79,4.59,14.47,9.88,16.91,15.74Z"/><polygon class="f" points="133.13 138.36 133.13 130.18 149.02 130.18 149.02 138.36 144.88 138.36 133.13 138.36"/><path class="d" d="M191.43,170.03h-56.88c-1.77,0-3.26-1.14-3.82-2.73h64.31c-.11,.38-.27,.74-.5,1.08-.7,1.03-1.86,1.64-3.1,1.64Z"/><path class="j" d="M108.06,154.54c-11.76,.43-31.11,2.46-51.9,10.1h51.9v-10.1Z"/><path class="e" d="M107.42,141.02h-13.75c-11.7,0-23.1,2.72-32.98,7.88-8.79,4.59-14.47,9.88-16.91,15.74h4c14.09-20.76,53.44-21.72,60.27-21.73v-1.24c0-.35-.29-.64-.64-.64Z"/><path class="j" d="M130.49,154.54c11.76,.43,31.11,2.46,51.9,10.1h-51.9v-10.1Z"/><path class="e" d="M131.13,141.02h13.75c11.7,0,23.1,2.72,32.98,7.88,8.79,4.59,14.47,9.88,16.91,15.74h-4c-14.09-20.76-53.44-21.72-60.27-21.73v-1.24c0-.35,.29-.64,.64-.64Z"/><path class="e" d="M155.08,126.3v-56.76c0-.57-.46-1.03-1.03-1.03h-25.95c-.38,0-.7,.22-.87,.52l-.15,.51s26.24-3.19,26.24,31.17c0,13.49,.15,21.67,.34,26.62h.4c.57,0,1.03-.46,1.03-1.03Z"/><path class="j" d="M127.07,82.04v44.27c0,.57,.46,1.03,1.03,1.03h15.68c.98-39.24-16.7-45.3-16.7-45.3Z"/><path class="e" d="M83.47,126.3v-56.76c0-.57,.46-1.03,1.03-1.03h25.95c.38,0,.7,.22,.87,.52l.15,.51s-26.24-3.19-26.24,31.17c0,13.49-.15,21.67-.34,26.62h-.4c-.57,0-1.03-.46-1.03-1.03Z"/><path class="j" d="M111.48,82.04v44.27c0,.57-.46,1.03-1.03,1.03h-15.68c-.98-39.24,16.7-45.3,16.7-45.3Z"/><path class="j" d="M133.13,130.18s13.83,.33,15.89,8.18v-8.18h-15.89Z"/><path class="j" d="M105.42,130.18s-13.83,.33-15.89,8.18v-8.18h15.89Z"/></g></g></g></svg>