<?xml version="1.0" encoding="UTF-8"?><svg xmlns="http://www.w3.org/2000/svg" viewBox="0 0 238.55 238.55"><defs><style>.c{fill:#f5f3ef;}.d,.e{fill:#fff;}.f{fill:#edc2a1;}.g{fill:#cea386;}.h{fill:#a58168;}.i{fill:#e0ae80;}.j,.k{fill:#541932;}.l,.k,.e{opacity:.25;}</style></defs><g id="a"/><g id="b"><g><circle class="c" cx="119.27" cy="119.27" r="119.27"/><g><path class="j" d="M172.65,95.29c2.64-3.7,6.71-8,8.52-9.86l3.26,3.26c.26,.26,.6,.39,.94,.39s.68-.13,.94-.39c.52-.52,.52-1.36,0-1.88l-4.21-4.21h0l-29.52-29.53c-.52-.52-1.36-.52-1.88,0s-.52,1.36,0,1.88l2.52,2.52c-2.25,2.36-10.19,10.27-16.4,11.37-10.7,1.89-15.99,6.39-16.21,6.59l-1.92,1.92c-7.6-6.8-11.09-7.66-17.97-8.84-2.28-.39-4.45-1.3-6.29-2.61-3.7-2.64-8-6.71-9.86-8.52l3.26-3.26c.52-.52,.52-1.36,0-1.88s-1.36-.52-1.88,0l-4.21,4.21h0l-29.52,29.53c-.52,.52-.52,1.36,0,1.88,.26,.26,.6,.39,.94,.39s.68-.13,.94-.39l2.52-2.52c2.36,2.25,10.27,10.2,11.37,16.4,1.89,10.7,6.39,15.99,6.59,16.21l1.77,1.78c-4.3,4.57-6.25,10.93-7.97,16.57-.62,2.04-1.21,3.96-1.85,5.56-1.81,4.53-8.03,8.61-10.32,10l-1.9-1.92c-.52-.53-1.36-.53-1.88-.01-.52,.52-.53,1.36-.01,1.88l33.07,33.48c.26,.26,.6,.4,.95,.4s.68-.13,.94-.38c.52-.52,.53-1.36,.01-1.88l-2.57-2.6c3.14-3.56,10.1-10.35,14.81-10.35,7.24,0,17.97-7.63,18.43-7.96l.09-.06,1.06-1.05c7.46,6.64,10.96,7.49,17.77,8.67,2.28,.39,4.46,1.3,6.29,2.61,3.7,2.64,8,6.71,9.86,8.52l-3.26,3.26c-.52,.52-.52,1.36,0,1.88,.26,.26,.6,.39,.94,.39s.68-.13,.94-.39l33.74-33.74c.52-.52,.52-1.36,0-1.88-.52-.52-1.36-.52-1.88,0l-2.52,2.52c-2.36-2.25-10.27-10.19-11.37-16.4-1.89-10.7-6.39-15.99-6.58-16.21l-1.52-1.52c6.38-7.21,7.23-10.53,8.44-17.52,.39-2.28,1.3-4.45,2.61-6.29Z"/><path class="h" d="M70.62,101.25c-1.24-7.02-9.51-15.35-12.11-17.82l24.18-24.18c1.89,1.85,6.29,6.01,10.2,8.81,2.16,1.55,4.72,2.61,7.39,3.07,6.77,1.17,9.64,1.94,16.53,8.1l-16.2,16.19-22.39,22.39-1.65-1.65c-.35-.43-4.27-5.4-5.95-14.9Z"/><path class="g" d="M99.62,167.78c-6.18,0-13.98,8.09-16.68,11.12l-24.81-25.11c2.85-1.77,8.88-5.98,10.87-10.96,.68-1.7,1.28-3.68,1.92-5.77,1.69-5.52,3.6-11.77,7.72-15.9l23.84-23.84c1.18-1.17,3.22-1.17,4.4,0l4.84,4.84-9.11,9.11c-.52,.52-.52,1.36,0,1.88,.26,.26,.6,.39,.94,.39s.68-.13,.94-.39l9.11-9.11h0l13.83-13.83c1.18-1.17,3.22-1.17,4.4,0l3.32,3.32-24.73,24.73c-.52,.52-.52,1.36,0,1.88,.26,.26,.6,.39,.94,.39s.68-.13,.94-.39l25.67-25.67,.82-.82c1.21-1.21,3.18-1.21,4.4,0l2.65,2.65c.59,.59,.91,1.37,.91,2.2s-.32,1.61-.91,2.2l-1.93,1.93-.94,.94-24.09,24.09c-.52,.52-.52,1.36,0,1.88,.26,.26,.6,.39,.94,.39s.68-.13,.94-.39l24.09-24.09,3.32,3.32c1.21,1.21,1.21,3.19,0,4.4l-.41,.41-.94,.94-20.33,20.33c-.52,.52-.52,1.36,0,1.88,.26,.26,.6,.39,.94,.39s.68-.13,.94-.39l20.33-20.33,3.87,3.87c.59,.59,.91,1.37,.91,2.21,0,.83-.33,1.62-.93,2.2h0l-36.16,35.67c-.99,.7-10.7,7.4-16.79,7.4Z"/><path class="f" d="M161.13,122.39c.35,.43,4.27,5.39,5.95,14.9,1.24,7.02,9.51,15.35,12.11,17.82l-24.18,24.18c-1.89-1.85-6.29-6.01-10.2-8.81-2.16-1.55-4.72-2.61-7.39-3.07-6.7-1.16-9.58-1.92-16.33-7.92l33.35-32.91h0c2.07-2.08,3.84-3.9,5.35-5.52l1.32,1.32Z"/><path class="i" d="M156.02,121.2c-.24-1.05-.76-2.02-1.54-2.79l-3.91-3.91c1.74-2.26,1.57-5.53-.5-7.6l-3.32-3.32,.99-.99c1.09-1.09,1.69-2.54,1.69-4.08s-.6-2.99-1.69-4.08l-2.65-2.65c-2.21-2.21-5.78-2.25-8.04-.12l-3.32-3.32c-1.09-1.09-2.54-1.69-4.08-1.69s-2.99,.6-4.08,1.69l-11.95,11.95-4.84-4.84c-.79-.79-1.77-1.32-2.84-1.55l16.45-16.45c.43-.35,5.4-4.27,14.9-5.95,7.02-1.24,15.35-9.51,17.82-12.11l24.18,24.18c-1.85,1.89-6.01,6.29-8.81,10.2-1.55,2.16-2.61,4.72-3.07,7.39-1.27,7.32-1.74,10.03-11.39,20.07Z"/><path class="k" d="M78.23,117.81l22.39-22.39,16.2-16.19c-1.18-1.05-2.23-1.94-3.22-2.71l-38.26,37.84c.65,1.06,1.12,1.66,1.24,1.79l1.65,1.65Z"/><path class="e" d="M84.1,65.98c3.21,3.21,13.81,4.57,13.81,4.57h0c-1.8-.57-3.51-1.41-5.02-2.49-3.91-2.79-8.3-6.96-10.2-8.81l-24.18,24.18s22.37-20.67,25.59-17.45Z"/><path class="k" d="M153.51,110.09c.68-2.72-3.4-5.96-4.17-6.74-.78-.78,1.68-.91,1.68-7.12s-9.59-9.84-11.14-8.29c-1.55,1.55-1.17,.91-6.61-2.72-5.44-3.63-8.22,.59-12.69,5.06-4.47,4.47-7.57,6.53-10.09,4.01-2.52-2.52,0-4.96,0-4.96l-4.54,4.54c1.07,.23,2.05,.76,2.84,1.55l4.84,4.84,11.95-11.95c1.09-1.09,2.54-1.69,4.08-1.69s2.99,.6,4.08,1.69l3.32,3.32c2.26-2.13,5.83-2.09,8.04,.12l2.65,2.65c1.09,1.09,1.69,2.54,1.69,4.08s-.6,2.99-1.69,4.08l-.99,.99,3.32,3.32c2.07,2.07,2.24,5.34,.5,7.6l3.91,3.91c.78,.78,1.3,1.75,1.54,2.79,.69-.72,1.34-1.4,1.94-2.05-1.11-1.08-2.37-2.24-3.56-3.16-3.08-2.42-1.58-3.17-.9-5.89Z"/><g class="l"><path class="d" d="M144.4,105.93l2.85,2.85c1.21,1.21,1.21,3.19,0,4.4l-.41,.41-.94,.94-20.33,20.33c-.52,.52-.52,1.36,0,1.88,.26,.26,.6,.39,.94,.39,.16,0,.32-.03,.47-.09-.17-.07-.33-.16-.47-.3-.52-.52-.52-1.36,0-1.88l20.33-20.33,.94-.94,.41-.41c1.21-1.21,1.21-3.18,0-4.4l-3.32-3.32-.47,.47Z"/><path class="d" d="M142.27,93.66l2.65,2.65c.59,.59,.91,1.37,.91,2.2s-.32,1.61-.91,2.2l-1.93,1.93-.94,.94-24.09,24.09c-.52,.52-.52,1.36,0,1.88,.26,.26,.6,.39,.94,.39,.16,0,.32-.03,.47-.09-.17-.07-.33-.16-.47-.3-.52-.52-.52-1.36,0-1.88l24.09-24.09,.94-.94,1.93-1.93c.59-.59,.91-1.37,.91-2.2s-.32-1.61-.91-2.2l-2.65-2.65c-.73-.73-1.73-1.01-2.67-.86,.63,.1,1.24,.38,1.73,.86Z"/><path class="d" d="M105.95,97.31l4.84,4.84-9.11,9.11c-.52,.52-.52,1.36,0,1.88,.26,.26,.6,.39,.94,.39,.16,0,.32-.03,.47-.09-.17-.07-.33-.16-.47-.3-.52-.52-.52-1.36,0-1.88l9.11-9.11-4.84-4.84c-.7-.7-1.72-.98-2.67-.84,.64,.09,1.26,.37,1.73,.84Z"/><path class="d" d="M152.59,120.29l-3.87-3.87-.47,.47,3.4,3.4c.59,.59,.91,1.37,.91,2.21,0,.83-.33,1.62-.93,2.2h0l-36.16,35.67c-.99,.7-10.7,7.4-16.79,7.4s-13.2,7.3-16.23,10.62l.49,.5c2.7-3.03,10.5-11.12,16.68-11.12s15.8-6.7,16.79-7.4l36.16-35.67h0c.59-.59,.92-1.37,.93-2.21s-.32-1.62-.91-2.21Z"/><path class="d" d="M130.91,90.21l3.32,3.32-24.73,24.73c-.52,.52-.52,1.36,0,1.88,.26,.26,.6,.39,.94,.39,.16,0,.32-.03,.47-.09-.17-.07-.33-.16-.47-.3-.52-.52-.52-1.36,0-1.88l24.73-24.73-3.32-3.32c-.7-.7-1.72-.98-2.67-.84,.64,.09,1.26,.37,1.73,.84Z"/></g><path class="k" d="M73.71,139.74c2.07-15.07,16-29.64,16.01-29.65l-11.06,11.06c-4.13,4.13-6.04,10.38-7.72,15.9-.64,2.09-1.24,4.07-1.92,5.77-1.99,4.98-8.02,9.19-10.87,10.96l24.81,25.11s-2.88-5.47-11.9-15.81c-9.01-10.34,.59-8.27,2.66-23.35Z"/><path class="k" d="M161.13,122.39l-1.32-1.32c-1.51,1.63-3.28,3.44-5.35,5.52h0l-33.35,32.91c.97,.86,1.85,1.61,2.69,2.27l39.04-36.8c-.87-1.54-1.55-2.41-1.69-2.57Z"/><path class="e" d="M179.19,155.12c-2.6-2.47-10.86-10.8-12.11-17.82-.83,8.58,8.48,16.38,5.33,19.53-2.81,2.81-15.07,13.11-18.47,21.44,.41,.39,.77,.74,1.07,1.03l24.18-24.18Z"/></g></g></g></svg>