<?xml version="1.0" encoding="utf-8"?>
<!-- Generator: Adobe Illustrator 28.0.0, SVG Export Plug-In . SVG Version: 6.00 Build 0)  -->
<svg version="1.1" id="Layer_1" xmlns="http://www.w3.org/2000/svg" xmlns:xlink="http://www.w3.org/1999/xlink" x="0px" y="0px"
	 viewBox="0 0 135 30" style="enable-background:new 0 0 135 30;" xml:space="preserve">
<style type="text/css">
	.st0{fill:#FFFFFF;}
</style>
<g>
	<g>
		<path class="st0" d="M42.3,0.5h-7.8c0.3,0.2,0.7,0.8,0.7,1.4v9.8c0,0.5-0.5,1.2-0.7,1.3H41c-0.2-0.1-0.7-0.7-0.7-1.3V8.4h2.5
			c1.6,0,4.6-0.6,4.6-4C47.4,1.8,45.6,0.5,42.3,0.5z M40.3,7.1V1.8c1.2,0,2.5,0,2.5,2.6S41.2,7.1,40.3,7.1L40.3,7.1z"/>
		<path class="st0" d="M55.8,0.2c-4.1,0-7.5,2.4-7.5,6.5c0,1.7,0.8,6.5,7.6,6.5c4,0,7.5-1.9,7.5-6.5C63.4,3,60.6,0.2,55.8,0.2
			L55.8,0.2z M55.9,11.8c-1.3,0-2.5-1.6-2.5-5.1c0-3.3,0.8-5.1,2.5-5.1c1.7,0,2.6,1.7,2.6,5.1C58.4,9.7,57.7,11.8,55.9,11.8
			L55.9,11.8z"/>
		<path class="st0" d="M72.1,0.5h-7.8C64.6,0.7,65,1.3,65,1.8v9.8c0,0.5-0.5,1.2-0.7,1.3h6.5c-0.2-0.1-0.7-0.7-0.7-1.3V8.4h2.5
			c1.6,0,4.6-0.6,4.6-4C77.1,1.8,75.3,0.5,72.1,0.5L72.1,0.5z M70.1,7.1V1.8c1.2,0,2.5,0,2.5,2.6S70.9,7.1,70.1,7.1L70.1,7.1z"/>
		<path class="st0" d="M102.3,11.1h-4V1.7c0-0.5,0.4-1.1,0.7-1.2h-6.5c0.3,0.2,0.7,0.9,0.7,1.4v9.8c0,0.5-0.5,1.2-0.7,1.3h10.9
			l1.2-2.8C104.2,10.7,103.6,11.1,102.3,11.1L102.3,11.1z"/>
		<path class="st0" d="M124.8,6.8l3.7,6.2h6.5c-0.5-0.2-1.4-1.6-1.8-2.1c-0.4-0.6-1.3-1.9-1.6-2.2c-0.7-1-1.1-1.4-1.5-1.6
			c0,0,0,0,0,0c1.6-0.4,2.4-1.7,2.4-3.3c0-1.6-1-3.2-4.1-3.2h-9.6c0.6,0.6,0.7,1,0.7,2v9.4c0,0.2,0,0.7-0.3,0.7
			c-0.2,0-0.3-0.1-0.5-0.3L114,0.5h-5.4c0.2,0.3,0.6,0.7,0.3,1.5l-3.9,9.3c-0.4,0.9-0.8,1.2-1.2,1.6h3.2c-0.1-0.2-0.2-0.9,0.1-1.7
			l0.5-1.5h4.7l0.6,1.5c0.2,0.5,0.2,1.2-0.2,1.6h12.6c-0.1-0.1-0.6-0.5-0.6-1.2L124.8,6.8L124.8,6.8z M124.8,1.9h0.8
			c1.9,0,2.1,1.2,2.1,2.2c0,1.4-0.8,2.3-2.2,2.3h-0.7V1.9z M108.3,8.2l1.8-4.7l1.8,4.7L108.3,8.2L108.3,8.2z"/>
		<path class="st0" d="M88.5,0.5c0.3,0.2,0.6,0.7,0.6,1.3l0,6.4c0,1.4-0.9,2.9-2.9,2.9c-1.6,0-2.9-1-2.9-2.9V1.9
			c0-0.4,0.1-1.1,0.7-1.4h-6.5c0.3,0.2,0.7,0.8,0.7,1.4v6.4c0,2.7,2.2,5,6.5,5c2.4,0,3.9-0.5,5-1.6c0.7-0.7,1.3-1.8,1.3-3.5l0-6.2
			c0-0.5,0.2-1,0.7-1.4L88.5,0.5L88.5,0.5z"/>
		<path class="st0" d="M41.7,24.5c-0.6,0-1.1,0.1-1.7,0.1c-0.6,0-1.3-0.1-1.9-0.1l1.9-4.5L41.7,24.5z M43.7,29.5
			c0.3,0,0.8-0.1,1.3-0.1s1.1,0.1,1.4,0.1c-0.8-1.8-2-4.5-2.7-6.1c-0.7-1.5-1.7-4.1-2.6-6.6c-0.2,0.1-0.4,0.1-0.6,0.1
			c-0.2,0-0.4,0-0.6-0.1c-0.4,1.5-1.5,3.8-3.3,7.9l-2.1,4.7c0.3,0,0.5-0.1,0.8-0.1c0.3,0,0.6,0.1,0.9,0.1c0.3-1,0.9-2.5,1.4-3.9
			c0.7,0,1.4-0.1,2.2-0.1c0.8,0,1.5,0,2.3,0.1l0.8,1.9L43.7,29.5L43.7,29.5z"/>
		<path class="st0" d="M49.7,18.5c-0.1,1.4-0.1,3.1-0.1,4.7c0,2.9,0,3.5,0.6,4.2c0.5,0.7,1.5,1.1,2.8,1.1c1.5,0,2.6-0.8,3-1.9
			c0.1-0.4,0.2-1,0.2-2.4c0-2.4,0-4.7-0.2-7.1c0.3,0,0.5,0.1,0.8,0.1c0.3,0,0.6-0.1,0.9-0.1l-0.1,0.9c-0.1,1.6-0.1,5.3-0.2,7.1
			c0,2.1-0.7,3.1-1.9,3.9c-0.9,0.5-2.1,0.8-3,0.8c-2.2,0-4.8-0.7-5.2-3.5c0-0.3,0-0.8,0-1v-4.9c0-0.9,0-2.3-0.1-3.3
			c0.4,0.1,0.9,0.1,1.3,0.1s0.8-0.1,1.2-0.1L49.7,18.5z"/>
		<path class="st0" d="M65.2,27c0,1.4,0.1,2,0.1,2.5c-0.5-0.1-1.1-0.1-1.3-0.1c-0.3,0-0.6,0-1.2,0.1c0.1-1.4,0.2-2.8,0.2-4.2l0-5.1
			c0-0.7,0-1.3,0-2H62c-0.2,0-1.9,0-2.8,0.1c0.1-0.2,0.1-0.5,0.1-0.7s0-0.5-0.1-0.7c1.4,0.1,3.4,0.1,4.8,0.1c1.5,0,3.1,0,4.8-0.1
			c-0.1,0.3-0.1,0.5-0.1,0.7c0,0.2,0,0.4,0.1,0.7c-1.1-0.1-2.4-0.1-3.6-0.1c0,0.7,0,1.3,0,2V27z"/>
		<path class="st0" d="M71.2,23.4c0-2.5,1.2-5.5,4.3-5.5c3.1,0,4.3,2.5,4.3,5.5c0,2.6-1.2,5.5-4.3,5.5
			C72.4,28.8,71.2,26.1,71.2,23.4z M75.5,16.9c-3.7,0-6.8,2-6.8,6.6c0,4,3,6.2,6.8,6.2c4,0,6.8-2.6,6.8-6.6
			C82.3,18.8,78.9,16.9,75.5,16.9L75.5,16.9z"/>
		<path class="st0" d="M86,26.1h0.6c0.4,0,0.6,0.1,0.6,0.4c0,0.4-0.2,0.5-0.6,0.5H86V26.1z M85.5,28.7H86v-1.3h0.4l0.8,1.3h0.5
			l-0.8-1.3c0.5,0,0.8-0.3,0.8-0.8c0-0.6-0.3-0.8-1-0.8h-1.1V28.7z M84,27.2c0,1.4,1.1,2.5,2.5,2.5c1.4,0,2.5-1.1,2.5-2.5
			s-1.1-2.5-2.5-2.5C85.1,24.7,84,25.8,84,27.2z M84.5,27.2c0-1.2,0.9-2.1,2-2.1c1.2,0,2,0.9,2,2.1c0,1.2-0.9,2.1-2,2.1
			C85.3,29.3,84.5,28.4,84.5,27.2z"/>
		<path class="st0" d="M0,0.5v29h29v-29H0z M6.4,21v-5.7C9,16.7,8.8,19.8,6.4,21z M6.4,14.3V8.9C8.7,9.9,9.1,12.9,6.4,14.3z
			 M7.9,14.8c0,0,1.3-0.8,1.6-2.4v4.8C9.2,15.7,8.1,14.9,7.9,14.8L7.9,14.8z M10.9,6c3.3,2.1,3.6,8.6,0,11V6z M14.5,13.4v12.8
			c-1.3,0-2.5-0.2-3.6-0.6v-7.1C11.7,18.1,13.9,16.6,14.5,13.4z M15.9,5.3c3.8,2.4,3.6,9.1,0,11.7V5.3L15.9,5.3z M19.5,13.9V25
			c-1.1,0.6-2.3,0.9-3.6,1.1v-7.6C16.8,18.1,18.6,16.6,19.5,13.9z M16.3,3.9c1.1,0.2,2.2,0.5,3.2,1v3C18.9,6.3,17.9,5,16.3,3.9z
			 M20.9,7c2.6,1.9,3,6.6,0,9.1V7L20.9,7z M14.5,9.7c-0.4-2.2-1.6-3.9-3.5-5.4c1.1-0.4,2.3-0.5,3.5-0.5V9.7z M9.5,4.9v5.9
			c-0.4-1.9-2.2-3-3.4-3.4C7.1,6.4,8.2,5.6,9.5,4.9z M5,9V21c-1.1-1.7-1.7-3.8-1.7-6C3.3,12.8,3.9,10.7,5,9z M6.2,22.5
			C6.2,22.5,6.2,22.5,6.2,22.5c0.2-0.1,0.2-0.1,0.2-0.1c1.5-0.5,2.8-1.9,3.1-3.8V25C8.2,24.4,7.1,23.5,6.2,22.5L6.2,22.5z
			 M20.9,24.2v-6.8l2.3,4.7C22.6,22.9,21.8,23.6,20.9,24.2z M24.1,20.7l-2-4c1-1,2.2-2.4,2.2-4.9c0-1.3-0.2-2.4-0.6-3.3
			c1.3,1.8,2,4,2,6.4C25.7,17.1,25.2,19,24.1,20.7L24.1,20.7z"/>
	</g>
</g>
</svg>
