<svg width="103" height="26" viewBox="0 0 103 26" fill="none" xmlns="http://www.w3.org/2000/svg">
<g clip-path="url(#clip0_4134_232)">
<path d="M101.161 9.82671C101.886 9.82671 102.5 9.21965 102.5 8.50221C102.5 7.78477 101.886 7.17771 101.161 7.17771C100.435 7.17771 99.8216 7.78477 99.8216 8.50221C99.7658 9.21965 100.38 9.82671 101.161 9.82671ZM100.045 8.50221C100.045 7.89515 100.547 7.39846 101.161 7.39846C101.775 7.39846 102.277 7.89515 102.277 8.50221C102.277 9.10927 101.775 9.60596 101.161 9.60596C100.547 9.60596 100.045 9.10927 100.045 8.50221Z" fill="#374151"/>
<path d="M100.882 8.39184V8.06071H101.217C101.384 8.06071 101.384 8.17108 101.384 8.22627C101.384 8.33665 101.328 8.39184 101.161 8.39184H100.882ZM100.603 9.10927H100.882V8.61259H101.161C101.384 8.61259 101.384 8.66777 101.384 8.83334C101.384 8.94371 101.384 9.05409 101.44 9.10927H101.719V9.05409C101.663 9.05409 101.663 8.9989 101.663 8.77815C101.663 8.5574 101.607 8.50221 101.496 8.44702C101.607 8.39184 101.719 8.28146 101.719 8.1159C101.719 8.00552 101.663 7.72958 101.328 7.72958H100.659V9.10927H100.603Z" fill="#374151"/>
<path d="M49.2681 25.1689H46.5897V7.12252H62.7713C64.8359 7.12252 66.454 8.06071 67.3468 9.82671C68.0722 11.2064 68.128 12.5861 68.128 12.9724C68.128 13.3587 68.0722 14.7936 67.3468 16.1181C66.454 17.8841 64.8359 18.8223 62.7713 18.8223H49.2681V25.1689ZM49.2681 16.1733H62.7713C63.8315 16.1733 64.5011 15.787 64.9475 14.904C65.3381 14.1865 65.3939 13.3587 65.3939 12.9724C65.3939 12.5861 65.2823 11.7583 64.9475 11.0408C64.5011 10.1578 63.7757 9.77153 62.7713 9.77153H49.2681V16.1733ZM19.7505 19.2086C19.6389 20.8642 19.36 21.4161 18.8578 21.9128C18.1324 22.6302 17.6302 22.851 11.6597 22.851C5.63348 22.851 4.8523 22.6302 4.18271 21.9128C3.45733 21.1954 3.23414 20.3124 3.23414 16.1733C3.23414 12.0342 3.45733 11.1512 4.18271 10.4338C4.9081 9.71634 5.63348 9.49559 11.6597 9.49559C17.6302 9.49559 18.1324 9.71634 18.8578 10.4338C19.36 10.9305 19.6389 11.4823 19.7505 13.138H22.4289C22.3173 10.9305 21.8709 9.66115 20.7549 8.5574C19.1926 7.01215 17.686 6.84658 11.6597 6.84658C5.52188 6.84658 3.84792 7.01215 2.22976 8.5574C0.667396 10.0475 0.5 11.9238 0.5 16.1181C0.5 20.3124 0.667396 22.1887 2.22976 23.734C3.79212 25.3344 5.52188 25.5 11.6597 25.5C17.7418 25.5 19.1926 25.3344 20.7549 23.7892C21.8709 22.6854 22.3173 21.3609 22.4289 19.2086H19.7505ZM96.9759 19.2086C96.8643 20.8642 96.5853 21.4161 96.0832 21.9128C95.3578 22.6302 94.8556 22.851 88.8851 22.851C82.8589 22.851 82.0777 22.6302 81.4081 21.9128C80.6827 21.1954 80.4595 20.3124 80.4595 16.1733C80.4595 12.0342 80.6827 11.1512 81.4081 10.4338C82.1335 9.71634 82.8589 9.49559 88.8851 9.49559C94.8556 9.49559 95.3578 9.71634 96.0832 10.4338C96.5853 10.9305 96.8643 11.4823 96.9759 13.138H99.6543C99.5427 10.9305 99.0963 9.66115 97.9803 8.5574C96.4179 7.01215 94.9114 6.84658 88.8851 6.84658C82.7473 6.84658 81.0733 7.01215 79.4551 8.5574C77.8928 10.1027 77.7254 11.979 77.7254 16.1733C77.7254 20.3676 77.8928 22.2439 79.4551 23.7892C81.0175 25.3344 82.7473 25.5 88.8851 25.5C94.9672 25.5 96.4179 25.3344 97.9803 23.7892C99.0963 22.6854 99.5427 21.3609 99.6543 19.2086H96.9759ZM34.4814 25.5C28.3435 25.5 26.6696 25.3344 25.0514 23.7892C23.4891 22.2439 23.3217 20.3676 23.3217 16.1733C23.3217 11.979 23.4891 10.1027 25.0514 8.5574C26.6138 7.01215 28.3435 6.84658 34.4814 6.84658C40.6193 6.84658 42.2932 7.01215 43.9114 8.5574C45.4737 10.1027 45.6411 11.979 45.6411 16.1733C45.6411 20.3676 45.4737 22.2439 43.9114 23.7892C42.349 25.3344 40.6193 25.5 34.4814 25.5ZM34.4814 9.4404C28.4551 9.4404 27.674 9.66115 27.0044 10.3786C26.279 11.096 26.0558 11.979 26.0558 16.1181C26.0558 20.2572 26.279 21.1402 27.0044 21.8576C27.7298 22.5751 28.4551 22.7958 34.4814 22.7958C40.5077 22.7958 41.2888 22.5751 41.9584 21.8576C42.6838 21.1402 42.907 20.2572 42.907 16.1181C42.907 11.979 42.6838 11.096 41.9584 10.3786C41.2888 9.66115 40.5077 9.4404 34.4814 9.4404ZM78.6182 0.500004C77.0558 0.500004 75.8282 1.71413 75.8282 3.25939C75.8282 4.80464 77.0558 6.01877 78.6182 6.01877C80.1805 6.01877 81.4081 4.80464 81.4081 3.25939C81.4081 1.71413 80.1805 0.500004 78.6182 0.500004ZM79.1203 7.12252H76.7768L66.2867 25.1137H68.6302L79.1203 7.12252ZM63.1061 25.1689H65.4497L75.9398 7.12252H73.5963L63.1061 25.1689Z" fill="#374151"/>
</g>
<defs>
<clipPath id="clip0_4134_232">
<rect width="102" height="25" fill="white" transform="translate(0.5 0.500004)"/>
</clipPath>
</defs>
</svg>
