<svg width="113" height="38" viewBox="0 0 113 38" fill="none" xmlns="http://www.w3.org/2000/svg">
<g clip-path="url(#clip0_4134_267)">
<path d="M44.7828 12.5439H46.9084L51.9818 24.0798H49.0832L48.0784 21.6363H43.5496L42.5764 24.0798H39.7446L44.7828 12.5439V12.5439ZM45.7701 15.9014L44.3542 19.4849H47.2036L45.7701 15.9014Z" fill="#374151"/>
<path d="M51.4231 16.1621H53.6963V17.2048H53.7279C54.1074 16.6348 55.063 15.9674 56.1803 15.9674C58.5518 15.9674 60.1153 17.6601 60.1153 20.0584C60.1153 22.2585 58.731 24.2779 56.4578 24.2779C55.4354 24.2779 54.4833 23.9998 53.9212 23.2352H53.8896V27.7953H51.4196V16.1621H51.4231ZM55.6708 22.1264C56.9076 22.1264 57.6454 21.3131 57.6454 20.1209C57.6454 18.9288 56.904 18.1154 55.6708 18.1154C54.4376 18.1154 53.6963 18.9288 53.6963 20.1209C53.6963 21.3131 54.4376 22.1264 55.6708 22.1264Z" fill="#374151"/>
<path d="M60.1083 16.1621H62.3814V17.2048H62.4131C62.7925 16.6348 63.7481 15.9674 64.8654 15.9674C67.2369 15.9674 68.8004 17.6601 68.8004 20.0584C68.8004 22.2585 67.4161 24.2779 65.143 24.2779C64.1206 24.2779 63.1684 23.9998 62.6063 23.2352H62.5747V27.7953H60.1048V16.1621H60.1083ZM64.356 22.1264C65.5927 22.1264 66.3305 21.3131 66.3305 20.1209C66.3305 18.9288 65.5892 18.1154 64.356 18.1154C63.1228 18.1154 62.3814 18.9288 62.3814 20.1209C62.3814 21.3131 63.1228 22.1264 64.356 22.1264Z" fill="#374151"/>
<path d="M39.2211 3.47572H70.6063V9.32883H74.1197V3.8147e-06H35.7077V9.32883H39.2211V3.47572Z" fill="#374151"/>
<path d="M70.6063 34.5243H39.2211V28.1533H35.7077V38H74.1197V28.1533H70.6063V34.5243Z" fill="#374151"/>
<path d="M76.4456 23.395C73.3994 23.395 71.5057 21.181 71.5057 18.3136C71.5057 15.4461 73.3994 13.2321 76.4456 13.2321C77.6155 13.2321 78.8487 13.7221 79.576 14.7961L80.4649 14.0628C79.4425 12.7767 78.0266 12.2554 76.4456 12.2554C72.89 12.2554 70.4166 14.7961 70.4166 18.317C70.4166 21.8379 72.8865 24.3787 76.4456 24.3787C78.1566 24.3787 79.6744 23.7774 80.7776 22.2759L79.8887 21.6085C79.0665 22.8459 77.6155 23.402 76.4456 23.402V23.395Z" fill="#374151"/>
<path d="M84.5474 16.3567C82.3235 16.3567 80.7424 18.0494 80.7424 20.2982C80.7424 22.547 82.2743 24.2744 84.5966 24.2744C85.9458 24.2744 87.1157 23.8017 87.8887 22.6617L87.1649 22.0604C86.6695 22.8737 85.6155 23.395 84.6107 23.395C82.3059 23.395 81.7297 21.3757 81.7297 20.5589H88.1206V19.8741C88.1206 18.1293 86.8838 16.3567 84.5474 16.3567V16.3567ZM81.7297 19.6795C81.7297 19.2902 82.3375 17.2361 84.4983 17.2361C85.9633 17.2361 87.1333 18.3448 87.1333 19.6795H81.7297Z" fill="#374151"/>
<path d="M92.6353 16.3567C91.3986 16.3567 90.4289 17.0414 90.0319 17.8721H89.9827C89.951 17.7262 89.9335 17.1075 89.9159 16.5514H88.9286C88.9286 16.9406 89.0095 18.1154 89.0095 18.6681V24.0763H89.9967V20.3121C89.9967 18.244 91.1667 17.2326 92.6318 17.2326C94.1952 17.2326 94.5431 18.4213 94.5431 19.6448V24.0763H95.5303V19.5961C95.5303 17.9521 95.0033 16.3532 92.6318 16.3532L92.6353 16.3567Z" fill="#374151"/>
<path d="M99.1245 23.395C98.4675 23.395 98.0705 23.0058 98.0705 22.335V17.4307H100.245V16.5514H98.0705V14.386H97.0832V16.5514H95.0841L95.7868 17.4307H97.0832V22.335C97.0832 23.409 97.6278 24.2744 99.0437 24.2744C99.4232 24.2744 99.9642 24.1458 100.33 24.0137L100.249 23.1344C99.9045 23.2804 99.5075 23.395 99.128 23.395H99.1245Z" fill="#374151"/>
<path d="M104.068 16.3567C101.844 16.3567 100.263 18.0494 100.263 20.2982C100.263 22.547 101.795 24.2744 104.117 24.2744C105.466 24.2744 106.636 23.8017 107.413 22.6617L106.689 22.0604C106.193 22.8737 105.139 23.395 104.135 23.395C101.83 23.395 101.254 21.3757 101.254 20.5589H107.644V19.8741C107.644 18.1293 106.408 16.3567 104.071 16.3567H104.068ZM101.25 19.6795C101.25 19.2902 101.858 17.2361 104.015 17.2361C105.48 17.2361 106.65 18.3448 106.65 19.6795H101.25Z" fill="#374151"/>
<path d="M111.924 16.3567C110.789 16.3567 109.998 16.9928 109.503 17.8721C109.471 17.7262 109.454 17.1075 109.436 16.5514H108.449C108.449 16.9406 108.53 18.1154 108.53 18.6681V24.0763H109.517V19.9715C109.517 18.5047 110.29 17.3334 112.005 17.3334C112.103 17.3334 112.237 17.3508 112.384 17.3994L112.5 16.4367C112.303 16.388 112.121 16.3567 111.924 16.3567Z" fill="#374151"/>
<path d="M10.4148 18.3135C10.4148 17.4655 10.1689 12.5473 4.10826 12.5473H0.5V24.0832H4.10826C8.09596 24.0832 9.56807 21.9526 10.1056 20.253C10.1126 19.6969 10.2145 19.1721 10.4007 18.7028C10.4113 18.536 10.4148 18.4039 10.4148 18.3135ZM3.82718 23.1031H1.58564V13.524H3.82718C6.92249 13.524 9.32916 15.0081 9.32916 18.3135C9.32916 21.619 6.926 23.1031 3.82718 23.1031Z" fill="#374151"/>
<path d="M13.9071 16.3567C12.2523 16.3567 10.9559 17.2952 10.4007 18.6994C10.2145 19.1686 10.1126 19.6934 10.1056 20.2495C10.1056 20.2669 10.1056 20.2808 10.1056 20.2982C10.1056 22.6269 11.6375 24.2744 13.9598 24.2744C15.309 24.2744 16.4789 23.8017 17.2519 22.6617L16.5281 22.0604C16.0327 22.8737 14.9787 23.395 13.9739 23.395C11.6691 23.395 11.0929 21.3757 11.0929 20.5589H17.4838V19.8741C17.4838 18.1293 16.247 16.3567 13.9106 16.3567H13.9071ZM11.0894 19.6795C11.0894 19.2902 11.6972 17.2361 13.8544 17.2361C15.3195 17.2361 16.4895 18.3448 16.4895 19.6795H11.0894V19.6795Z" fill="#374151"/>
<path d="M24.2611 19.0782C24.2611 17.1735 23.0771 16.3567 21.2325 16.3567C20.2453 16.3567 19.0578 16.7321 18.334 17.4168L18.9102 18.0842C19.5848 17.5141 20.3437 17.2361 21.2325 17.2361C22.4517 17.2361 23.3722 17.7574 23.3722 19.0608V19.5161H22.2198C20.7196 19.5161 18.0037 19.7455 18.0037 22.043C18.0037 23.6383 19.388 24.2744 20.688 24.2744C21.9879 24.2744 22.796 23.8191 23.3546 22.8563H23.3863C23.3863 23.2803 23.4179 23.7044 23.4846 24.0798H24.4051C24.2892 23.2178 24.2576 22.3836 24.2576 20.9203V19.0782H24.2611ZM23.3722 20.8056C23.3722 22.0604 22.8276 23.395 20.7196 23.395C19.8975 23.395 18.991 22.9223 18.991 21.9943C18.991 20.7083 20.6388 20.2982 22.2831 20.2982H23.3687V20.8022L23.3722 20.8056Z" fill="#374151"/>
<path d="M26.3797 11.7618H25.3924V24.0798H26.3797V11.7618Z" fill="#374151"/>
<path d="M31.2387 16.3567C29.0147 16.3567 27.4337 18.0494 27.4337 20.2982C27.4337 22.547 28.9655 24.2744 31.2879 24.2744C32.637 24.2744 33.807 23.8017 34.5799 22.6617L33.8562 22.0604C33.3608 22.8737 32.3068 23.395 31.3019 23.395C28.9971 23.395 28.4209 21.3757 28.4209 20.5589H34.8118V19.8741C34.8118 18.1293 33.5751 16.3567 31.2387 16.3567V16.3567ZM28.4209 19.6795C28.4209 19.2902 29.0288 17.2361 31.186 17.2361C32.6511 17.2361 33.821 18.3448 33.821 19.6795H28.4209Z" fill="#374151"/>
<path d="M39.4249 16.3567C38.2901 16.3567 37.4996 16.9928 37.0042 17.8721C36.9725 17.7262 36.955 17.1075 36.9374 16.5514H35.9501C35.9501 16.9406 36.031 18.1154 36.031 18.6681V24.0763H37.0182V19.9715C37.0182 18.5047 37.7912 17.3334 39.5057 17.3334C39.6041 17.3334 39.7376 17.3508 39.8852 17.3994L40.0011 16.4367C39.8043 16.388 39.6216 16.3567 39.4249 16.3567Z" fill="#374151"/>
</g>
<defs>
<clipPath id="clip0_4134_267">
<rect width="112" height="38" fill="white" transform="translate(0.5 3.8147e-06)"/>
</clipPath>
</defs>
</svg>
