<svg width="216" height="72" viewBox="0 0 216 72" fill="none" xmlns="http://www.w3.org/2000/svg">
<g clip-path="url(#clip0_1854_2431)">
<g clip-path="url(#clip1_1854_2431)">
<path d="M12.3586 48.9123L12.8104 53.4552C8.35623 56.1602 6.58746 57.1309 4.21188 57.1309C2.76587 57.1309 1.68137 56.6391 0.906725 55.6684C0.209544 54.8012 -1.89491 52.1609 4.3539 41.8068C5.52878 39.8654 6.8715 37.8593 8.35623 35.8273C9.35036 37.1863 10.3961 38.5452 11.5065 39.9172C7.51703 45.599 5.39967 50.0513 4.99944 52.0833C6.12267 51.8115 8.84684 51.0479 12.3586 48.9123ZM15.5475 29.4077L15.6121 29.4854L15.6637 29.563C16.2834 30.4173 16.9161 31.2715 17.5874 32.1386C17.7811 31.9186 17.9747 31.6856 18.1813 31.4527C19.7952 29.6019 21.5639 27.6993 23.4876 25.7708C29.0264 20.2184 35.0557 15.2614 40.4782 11.8057C45.2552 8.76419 48.0697 7.84527 49.2575 7.67701C49.1155 8.81596 48.2505 11.521 45.1777 16.258C42.6859 20.089 39.3421 24.3342 35.5076 28.5665C36.7341 29.6925 37.9348 30.8185 39.0838 31.9574C43.5768 27.0133 47.4113 22.0563 50.1355 17.6429C54.3444 10.7962 55.2739 6.31803 52.9629 3.94953C52.4207 3.39299 51.4136 2.71997 49.7223 2.70703C49.7094 2.70703 49.6965 2.70703 49.6836 2.70703C43.8996 2.70703 31.1566 11.1068 20.0146 22.2763C18.1426 24.153 16.3351 26.0944 14.618 28.0488C14.8891 28.4888 15.2118 28.9418 15.5475 29.4077Z" fill="#FA7642"/>
<path d="M38.2318 34.4116C36.5663 32.742 34.8621 31.1242 33.1321 29.584C33.2225 31.6936 33.2741 33.8292 33.2741 36.0035C33.2741 36.1459 33.2741 36.3012 33.2741 36.4436C33.7647 36.9225 34.2553 37.4013 34.7588 37.9061C48.1086 51.2888 53.4923 62.2124 53.7893 65.2281C51.3104 64.9951 43.5511 61.0994 32.4607 51.2759C32.2283 53.3079 31.9572 55.2493 31.6473 57.0871C36.5276 61.2158 41.3046 64.6715 45.3327 66.9753C49.0769 69.1109 51.9689 70.1722 54.1508 70.1722C55.5193 70.1722 56.6038 69.758 57.443 68.9426C58.0111 68.3861 58.6954 67.3636 58.7083 65.6293C58.7341 59.5592 49.9419 46.1506 38.2318 34.4116Z" fill="#FA7642"/>
<path d="M22.9195 49.0666C23.139 46.9569 23.2939 44.7567 23.4101 42.5046C19.7951 38.6736 16.4771 34.6873 13.7142 30.8304C9.05337 24.359 7.2846 20.1397 6.93601 18.3795C7.93014 18.5348 9.55689 19.1431 11.6613 20.2044C11.8679 18.4184 12.1132 16.7099 12.3844 15.0791C6.04517 12.2447 4.13438 13.759 3.41137 14.3285C0.196594 16.9041 2.31396 23.4272 9.71182 33.7166C13.2752 38.6607 17.6649 43.7989 22.4418 48.5877C22.5968 48.7559 22.7646 48.9112 22.9195 49.0666Z" fill="#FA7642"/>
<path d="M13.6109 25.5488C14.7083 10.7683 18.078 0 22.0545 0C24.598 0 26.8961 4.4005 28.497 11.4284C27.0639 12.5673 25.6308 13.771 24.2106 15.0264C24.159 14.7805 24.1203 14.5475 24.0686 14.3016C23.3973 10.9365 22.6743 8.60687 22.0416 7.05375C21.4219 8.60687 20.686 10.9495 20.0146 14.3016C19.679 15.9971 19.382 17.822 19.1367 19.7376C18.8527 20.0223 18.5686 20.307 18.2846 20.5918C16.6966 22.1708 15.1344 23.8404 13.6109 25.5488ZM30.2529 22.6496C28.7036 24.0216 27.1672 25.4711 25.6566 26.9596C25.8503 29.8846 25.9536 32.9261 25.9536 36.0065C25.9536 43.9274 25.2822 51.6412 24.0815 57.7113C23.4102 61.0764 22.6872 63.4061 22.0545 64.9592C21.4348 63.4061 20.6989 61.0635 20.0276 57.7113C19.4595 54.851 19.0076 51.6283 18.6977 48.1855C16.8386 46.2441 15.0569 44.2509 13.3656 42.2578C14.0886 59.1609 17.7036 72 22.0545 72C26.9219 72 30.8726 55.8864 30.8726 35.9935C30.8726 31.2824 30.6531 26.7784 30.2529 22.6496Z" fill="#FA7642"/>
<path d="M169.715 11.9715C170.335 10.5996 171.135 10.5996 172.555 10.5996C174.117 10.5996 175.886 11.1173 175.305 12.4504L173.756 15.8543C173.007 17.4074 172.077 17.3168 170.657 17.3168C169.108 17.3168 167.546 16.6956 168.127 15.4272L169.715 11.9715Z" fill="#FA7642"/>
<path d="M70.7412 48.9483C70.7412 50.3202 68.598 50.6697 67.1391 50.6697C65.5123 50.6697 64.686 50.4497 64.686 49.1166V21.9111C64.686 20.6168 65.4349 20.0215 67.1391 20.0215C68.7917 20.0215 70.7412 20.5392 70.7412 22.0923V48.9483ZM87.4477 44.9102C89.2294 46.6575 89.5134 47.4729 89.5134 48.3918C89.5134 49.9449 88.274 50.6697 87.1895 50.6697C85.666 50.6697 84.801 50.4497 83.3679 49.1166L74.0076 40.2509C72.2905 38.633 72.2001 37.4294 72.2001 35.6044V35.0867C72.2001 33.2359 72.2905 32.097 74.0076 30.4403L83.3679 21.5746C84.801 20.2415 85.666 20.0215 87.1895 20.0215C88.2611 20.0215 89.5134 20.7592 89.5134 22.2994C89.5134 23.2313 89.2294 24.0467 87.4477 25.781L78.2552 34.4784C77.8292 34.9055 77.8292 35.1256 77.8292 35.3197V35.3456C77.8292 35.5786 77.8292 35.7727 78.2552 36.2127L87.4477 44.9102Z" fill="#636569"/>
<path d="M141.053 20.2676C142.899 20.2676 142.938 20.8888 142.938 22.8949C142.938 25.4835 141.195 25.4835 140.614 25.4835H132.932V49.1168C132.932 50.5146 131.383 50.6699 129.924 50.6699C128.297 50.6699 126.877 50.4499 126.877 49.1168V25.4835H119.453C118.898 25.4835 117.259 25.2246 117.259 22.8949C117.259 20.6559 117.478 20.2676 119.014 20.2676H141.053V20.2676Z" fill="#636569"/>
<path d="M152.466 49.1207C152.466 50.5185 150.917 50.6739 149.458 50.6739C147.831 50.6739 146.411 50.4538 146.411 49.1207V21.9023C146.411 20.6081 147.78 20.0127 149.458 20.0127C151.111 20.0127 152.466 20.3621 152.466 21.9023V49.1207Z" fill="#636569"/>
<path d="M171.058 50.7127C158.78 50.7127 157.618 43.7625 157.618 35.4274V35.298C157.618 26.9888 158.78 20.0127 171.058 20.0127H171.225C183.504 20.0127 184.666 26.9888 184.666 35.298V35.4274C184.666 43.7366 183.504 50.7127 171.225 50.7127H171.058ZM171.019 25.3062C164.667 25.3062 163.673 28.0242 163.673 34.6897V36.0228C163.673 42.7012 164.654 45.4062 171.019 45.4062H171.277C177.629 45.4062 178.623 42.6882 178.623 36.0228V34.6897C178.623 28.0113 177.629 25.3062 171.277 25.3062H171.019Z" fill="#636569"/>
<path d="M216 49.1207C216 50.5185 215.058 50.6739 213.599 50.6739C212.333 50.6739 210.836 50.4409 210.229 49.729C210.203 49.7032 210.203 49.7032 210.203 49.6902L210.177 49.6643L196.066 31.221V48.9525C196.066 50.3244 193.923 50.6739 192.464 50.6739C190.837 50.6739 190.011 50.4538 190.011 49.1207V21.9023C190.011 20.6081 190.76 20.0127 192.464 20.0127C193.639 20.0127 194.917 20.2715 195.601 20.9575L195.691 20.9963L209.945 39.6596V22.9377C209.945 21.3458 211.662 20.0127 213.599 20.0127C215.251 20.0127 216 20.3621 216 21.9023V49.1207V49.1207Z" fill="#636569"/>
<path d="M120.267 46.5324L112.365 23.9345C110.997 19.9352 108.763 20.0129 106.659 20.0129H105.923C103.818 20.0129 101.585 19.9223 100.216 23.9345L92.315 46.5324C91.2175 49.6516 92.5732 50.6611 94.1612 50.6611C95.788 50.6611 96.8337 50.5834 97.6729 49.1856L105.665 25.9535C105.82 25.5264 105.897 25.2676 106.142 25.2676H106.439C106.672 25.2676 106.762 25.5264 106.917 25.9535L114.212 47.6066C115.128 50.5316 116.316 50.6611 118.421 50.6611C120.009 50.6611 121.351 49.6516 120.267 46.5324Z" fill="#636569"/>
</g>
</g>
<defs>
<clipPath id="clip0_1854_2431">
<rect width="216" height="72" fill="white"/>
</clipPath>
<clipPath id="clip1_1854_2431">
<rect width="216" height="72" fill="white"/>
</clipPath>
</defs>
</svg>
