<svg width="80" height="22" viewBox="0 0 80 22" fill="none" xmlns="http://www.w3.org/2000/svg">
<path fill-rule="evenodd" clip-rule="evenodd" d="M6.30482 0.500004L13.219 10.9178L13.2123 10.7419V0.500004H19.0482V21.5H13.6359L6.33591 10.4426V21.5H0.5V0.500004H6.30482ZM79.5 0.500004V6.03175H74.1936V21.4991H67.9963V6.03175H62.6915V0.500879H79.5V0.500004ZM47.905 0.500004L51.1844 5.89L54.6789 0.500004H61.0854L54.5696 10.8976L61.1964 21.4991H54.4041L51.0953 16.1616L47.8386 21.4991H41.2043L47.705 11.0901L41.1094 0.500879H47.905V0.500004ZM39.1764 0.500004L31.2007 16.1748H39.0083V21.4991H22.1351L29.967 5.79113H22.5671V0.500004H39.1764Z" fill="#374151"/>
</svg>
