<?xml version="1.0" encoding="UTF-8"?><svg id="Layer_1" xmlns="http://www.w3.org/2000/svg" viewBox="0 0 15 15"><defs><style>.cls-1{fill:#26c39f;}.cls-1,.cls-2,.cls-3,.cls-4{stroke-width:0px;}.cls-2{fill:#191863;}.cls-3{fill:#bc9cfd;}.cls-4{fill:#906ffd;}</style></defs><path class="cls-2" d="m7.47,5.11c-1.26,0-2.28,1.02-2.28,2.29h0c0,1.42,1.15,2.58,2.58,2.58h2.06v-2.83c-.18.08-.38.13-.59.13-.19,0-.37-.04-.53-.1v1.68h-1.07c-.72,0-1.31-.59-1.31-1.31h0c0-.72.59-1.31,1.31-1.31h.21c-.04-.13-.06-.28-.06-.43,0-.25.07-.49.18-.7h-.48,0Z"/><circle class="cls-1" cx="9.23" cy="5.81" r=".7"/><path class="cls-3" d="m10.44,5c.16.23.25.51.25.81,0,.15-.02.29-.06.43h.5v5.1h-3.39c-.36,0-.71-.05-1.04-.14-.08.4-.29.75-.58,1,.5.17,1.04.27,1.61.27h4.53v-7.45l-1.81-.02h0Z"/><path class="cls-4" d="m4.29,9.22c-.26-.52-.41-1.11-.41-1.73h0c0-2.11,1.71-3.82,3.82-3.82h.99v.79c.17-.07.35-.1.53-.1.21,0,.41.05.59.13v-1.94h-2.1c-2.74,0-4.97,2.22-4.97,4.97h0c0,.9.24,1.75.66,2.48.2-.34.5-.61.87-.76h0Z"/><circle class="cls-1" cx="4.95" cy="10.86" r="1"/></svg>