<?xml version="1.0" encoding="UTF-8"?><svg id="Layer_1" xmlns="http://www.w3.org/2000/svg" viewBox="0 0 15 15"><defs><style>.cls-1{fill:#3b566e;}.cls-1,.cls-2{stroke-width:0px;}.cls-2{fill:#22b4de;}</style></defs><g id="Layer_2"><g id="Layer_1-2"><path class="cls-1" d="m12.76,11.26l-3.61-3.76,3.61-3.76v7.51Zm-2.71-3.76l2.05,2.14v-4.28l-2.05,2.14Z"/><polygon class="cls-2" points="5.77 7.48 5.77 7.49 9.09 4.17 6.22 4.17 2.9 4.18 2.9 7.5 2.89 10.73 5.77 7.48"/><path class="cls-1" d="m6.69,7.5h0l3.97-3.98H2.25v7.96s8.41,0,8.41,0l-3.98-3.98h.01Zm-3.79-3.32h3.32s2.87,0,2.87,0l-3.32,3.32h0l-2.88,3.24v-3.23s0-3.32,0-3.32Z"/></g></g></svg>