<?xml version="1.0" encoding="UTF-8"?><svg id="Layer_1" xmlns="http://www.w3.org/2000/svg" viewBox="0 0 15 15"><defs><style>.cls-1,.cls-2{stroke-width:0px;}.cls-2{fill:#f9a61e;}</style></defs><path class="cls-2" d="m8.29,7.32v1.46h-.74v-1.35c0-.41-.18-.6-.48-.6-.33,0-.56.21-.56.67v1.28h-.74v-1.35c0-.41-.18-.6-.48-.6-.33,0-.56.21-.56.67v1.28h-.74v-2.55h.71v.29c.19-.22.47-.33.8-.33.36,0,.66.14.84.42.2-.26.54-.42.92-.42.61,0,1.04.35,1.04,1.13Z"/><path class="cls-2" d="m8.73,7.51c0-.77.59-1.31,1.42-1.31.54,0,.96.23,1.14.65l-.57.31c-.14-.24-.34-.35-.57-.35-.37,0-.67.26-.67.71s.29.71.67.71c.23,0,.44-.1.57-.35l.57.31c-.18.41-.61.64-1.14.64-.83,0-1.42-.54-1.42-1.31Z"/><path class="cls-1" d="m2.77,7.51c.21.06.3.19.3.51v.72c0,.21.11.33.33.33h.08v.55h-.26c-.57,0-.85-.29-.85-.81v-.82c0-.14-.08-.21-.2-.21h-.15v-.55h.15c.12,0,.2-.07.2-.21v-.82c0-.52.29-.81.85-.81h.26v.55h-.08c-.22,0-.33.12-.33.33v.72c0,.31-.09.44-.3.51Z"/><path class="cls-1" d="m12.23,7.49c-.21-.06-.3-.19-.3-.51v-.72c0-.21-.11-.33-.33-.33h-.08v-.55h.26c.57,0,.85.29.85.81v.82c0,.14.08.21.2.21h.15v.55h-.15c-.12,0-.2.07-.2.21v.82c0,.52-.29.81-.85.81h-.26v-.55h.08c.22,0,.33-.12.33-.33v-.72c0-.31.09-.44.3-.51Z"/></svg>