<?xml version="1.0" encoding="UTF-8"?><svg xmlns="http://www.w3.org/2000/svg" viewBox="0 0 616.29 612.01"><defs><style>.c{fill:#f79661;}.d{fill:#fff;}.e{fill:#ee8240;}.f{fill:#541932;}</style></defs><g id="a"/><g id="b"><g><circle class="e" cx="306.02" cy="306.01" r="247.47"/><g><g><path class="d" d="M298.56,457.9s-63.68,75.56-228.48,83.47c7.86-165.9,82.92-230,82.92-230l32.74-.3,110.51,111.25,2.31,35.58Z"/><path class="f" d="M70.09,545.49c-1.09,0-2.14-.43-2.92-1.21-.82-.82-1.26-1.95-1.2-3.11,1.81-38.15,7.33-74.09,16.42-106.84,7.29-26.25,16.87-50.52,28.47-72.14,19.88-37.02,38.68-53.3,39.47-53.97,.74-.63,1.67-.98,2.64-.99l32.74-.3c1.1-.01,2.18,.43,2.96,1.22l110.51,111.25c.7,.71,1.13,1.64,1.19,2.64l2.31,35.58c.07,1.06-.28,2.11-.96,2.93-.67,.8-16.84,19.71-53.62,39.73-21.47,11.69-45.59,21.33-71.67,28.67-32.53,9.15-68.24,14.71-106.14,16.53-.07,0-.13,0-.2,0Zm84.5-230.02c-6.98,6.42-22.19,23.94-36.71,51.1-11.26,21.06-20.56,44.73-27.65,70.34-8.5,30.74-13.81,64.4-15.79,100.09,35.59-2,69.12-7.38,99.75-15.99,25.49-7.17,49.03-16.58,69.96-27.97,30.25-16.47,46.1-32.24,50.18-36.61l-2.1-32.3-108.2-108.92-29.45,.27Z"/></g><g><path class="c" d="M190.75,351.92c-40.76,41.03-38.82,107.06-38.82,107.06,0,0,65.59,1.95,106.35-39.08l-67.53-67.98Z"/><path class="f" d="M153.47,463.12c-.97,0-1.54-.02-1.66-.02-2.18-.07-3.94-1.82-4-4-.02-.69-.45-17.25,4.21-39.12,4.32-20.28,14.04-49.06,35.8-70.96,.77-.78,1.83-1.22,2.93-1.22s2.15,.44,2.93,1.22l67.53,67.98c1.6,1.61,1.6,4.21,0,5.81-21.77,21.91-50.36,31.7-70.51,36.05-18.05,3.9-32.45,4.26-37.22,4.26Zm37.34-105.28c-18.3,20.02-26.77,45.44-30.67,63.65-3.17,14.78-3.9,27.24-4.05,33.34,6.07-.16,18.42-.9,33.08-4.08,18.09-3.93,43.35-12.47,63.24-30.91l-61.59-62.01Z"/></g><g><path class="c" d="M448.27,310.59c45.43,45.73-145.83,225.56-145.83,225.56l-6.19-113.83-110.51-111.25-113.07-6.23S251.3,112.3,296.73,158.03"/><path class="f" d="M302.44,540.27c-.52,0-1.04-.1-1.53-.3-1.49-.6-2.5-2-2.58-3.6l-6.1-112.26-108.29-109.01-111.49-6.14c-1.6-.09-3-1.09-3.6-2.57-.6-1.48-.29-3.18,.8-4.35,.36-.38,36.06-38.78,79.04-76.79,58.24-51.53,101.55-77.89,128.72-78.35,9.17-.16,16.68,2.61,22.26,8.24,1.61,1.62,1.6,4.23-.02,5.83-1.62,1.61-4.23,1.6-5.83-.02-4-4.02-9.32-5.92-16.27-5.8-24.79,.42-67.44,26.79-123.35,76.24-32.29,28.57-60.46,57.35-72.41,69.83l104.18,5.74c1.02,.06,1.98,.49,2.7,1.21l110.51,111.25c.71,.72,1.14,1.67,1.19,2.68l5.7,104.85c12.43-12.06,40.97-40.37,69.3-72.82,49.13-56.28,75.32-99.23,75.75-124.21,.12-7.02-1.77-12.39-5.77-16.42-1.61-1.62-1.6-4.23,.02-5.83,1.62-1.61,4.23-1.6,5.83,.02,5.58,5.62,8.33,13.15,8.17,22.38-.47,27.34-26.65,70.92-77.82,129.54-37.76,43.25-75.9,79.2-76.28,79.56-.78,.73-1.79,1.12-2.83,1.12Z"/></g><g><path class="d" d="M216.15,394.33c-82.93-83.48,46.63-206.03,46.63-206.03,37.29-37.54,232.89-151.73,270.82-113.54,37.93,38.18-75.5,235.09-112.79,272.63,0,0-121.74,130.42-204.67,46.94Z"/><path class="f" d="M281.03,426.36c-25.8,0-48.6-9.79-67.8-29.12h0c-19.59-19.73-29.32-43.22-28.91-69.84,.26-16.48,4.43-34.24,12.41-52.79,6.33-14.71,15.05-29.95,25.93-45.32,18.19-25.69,35.97-42.74,37.25-43.95,17.19-17.28,64.16-48.14,111.74-73.42,34.44-18.3,98.12-49,137.62-49,12.21,0,21.39,3,27.27,8.92,9.89,9.95,11.47,29.23,4.71,57.3-5.46,22.66-16.56,51.69-32.1,83.95-26.41,54.81-64.68,116.3-85.35,137.15-1.2,1.28-18.14,19.19-43.67,37.5-15.27,10.95-30.42,19.74-45.03,26.1-18.44,8.03-36.09,12.24-52.47,12.49-.53,0-1.07,.01-1.6,.01Zm-61.95-34.94c17.96,18.08,39.3,27.05,63.42,26.68,19.2-.3,50.89-6.97,92.82-37.05,25.26-18.13,42.32-36.3,42.49-36.48,.03-.03,.06-.06,.09-.09,17.55-17.67,54.58-74.29,83.81-134.96,15.29-31.74,26.19-60.2,31.51-82.3,5.96-24.75,5.08-41.88-2.54-49.56-4.28-4.31-11.48-6.49-21.42-6.49-14.77,0-34.99,4.76-60.09,14.14-21.79,8.15-47.26,19.87-73.66,33.89-46.98,24.96-93.16,55.24-109.8,72-.03,.03-.06,.06-.09,.09-.18,.17-18.32,17.44-36.33,42.91-29.81,42.16-36.43,74.03-36.72,93.34-.37,24.3,8.55,45.8,26.51,63.88h0Z"/></g><g><path class="c" d="M364.73,182.73c45.28-45.58,77.6-59.24,97.49-62.33,14.65-2.28,28.3,11.46,26.04,26.21-3.07,20.02-16.64,52.56-61.91,98.14h0c-25.65-14.56-47.14-36.2-61.61-62.02h0Z"/><path class="f" d="M426.34,248.88c-.7,0-1.4-.18-2.03-.54-26.43-15-48.27-36.99-63.17-63.59-.9-1.61-.63-3.62,.67-4.92,25.72-25.89,63.91-57.93,99.78-63.5,8.14-1.26,16.67,1.65,22.83,7.8,6.22,6.21,9.18,14.85,7.92,23.11-3.05,19.92-16.47,53.52-63.07,100.42-.79,.8-1.86,1.22-2.93,1.22Zm-56.46-65.46c13.58,23.17,32.77,42.49,55.77,56.16,43.22-44.12,55.71-75.19,58.53-93.59,.87-5.67-1.22-11.66-5.59-16.02-4.31-4.3-10.19-6.35-15.74-5.49-18.27,2.84-49.14,15.42-92.97,58.94Z"/></g><g><line class="d" x1="481.58" y1="127.12" x2="391.34" y2="217.97"/><path class="f" d="M391.34,222.09c-1.05,0-2.1-.4-2.91-1.2-1.62-1.61-1.62-4.22-.02-5.83l90.24-90.84c1.61-1.62,4.22-1.62,5.83-.02,1.62,1.61,1.62,4.22,.02,5.83l-90.24,90.84c-.81,.81-1.87,1.22-2.93,1.22Z"/></g><g><line class="d" x1="70.41" y1="353.49" x2="4.12" y2="420.22"/><path class="f" d="M4.12,424.34c-1.05,0-2.1-.4-2.91-1.2-1.62-1.61-1.62-4.22-.02-5.83l66.29-66.73c1.61-1.62,4.22-1.62,5.83-.02,1.62,1.61,1.62,4.22,.02,5.83L7.05,423.12c-.81,.81-1.87,1.22-2.93,1.22Z"/></g><g><line class="d" x1="132.19" y1="173.58" x2="26.46" y2="280.02"/><path class="f" d="M26.46,284.15c-1.05,0-2.1-.4-2.91-1.2-1.62-1.61-1.62-4.22-.02-5.83l105.73-106.44c1.61-1.62,4.22-1.62,5.83-.02,1.62,1.61,1.62,4.22,.02,5.83L29.38,282.93c-.81,.81-1.87,1.22-2.93,1.22Z"/></g><g><line class="d" x1="450.8" y1="4.12" x2="407.88" y2="47.38"/><path class="f" d="M407.88,51.5c-1.05,0-2.1-.4-2.91-1.2-1.62-1.6-1.63-4.22-.02-5.83L447.87,1.22c1.6-1.62,4.22-1.63,5.83-.02,1.62,1.6,1.63,4.22,.02,5.83l-42.91,43.25c-.81,.81-1.87,1.22-2.93,1.22Z"/></g><g><line class="d" x1="90.78" y1="153.32" x2="76.31" y2="167.88"/><path class="f" d="M76.31,172.01c-1.05,0-2.1-.4-2.91-1.2-1.62-1.61-1.62-4.22-.02-5.83l14.46-14.56c1.61-1.62,4.22-1.62,5.83-.02,1.62,1.61,1.62,4.22,.02,5.83l-14.46,14.56c-.81,.81-1.87,1.22-2.93,1.22Z"/></g><g><line class="d" x1="194.84" y1="48.56" x2="121.14" y2="122.76"/><path class="f" d="M121.14,126.88c-1.05,0-2.1-.4-2.91-1.2-1.62-1.61-1.62-4.22-.02-5.83L191.92,45.65c1.61-1.62,4.22-1.62,5.83-.02,1.62,1.61,1.62,4.22,.02,5.83L124.07,125.66c-.81,.81-1.87,1.22-2.93,1.22Z"/></g><g><line class="d" x1="306.46" y1="35.32" x2="230.32" y2="111.97"/><path class="f" d="M230.32,116.1c-1.05,0-2.1-.4-2.91-1.2-1.62-1.61-1.62-4.22-.02-5.83l76.14-76.65c1.61-1.62,4.22-1.62,5.83-.02,1.62,1.61,1.62,4.22,.02,5.83l-76.14,76.65c-.81,.81-1.87,1.22-2.93,1.22Z"/></g><g><line class="d" x1="329.1" y1="93.07" x2="317.18" y2="105.07"/><path class="f" d="M317.18,109.2c-1.05,0-2.1-.4-2.91-1.2-1.62-1.61-1.62-4.22-.02-5.83l11.92-12c1.61-1.62,4.22-1.63,5.83-.02,1.62,1.61,1.62,4.22,.02,5.83l-11.92,12c-.81,.81-1.87,1.22-2.93,1.22Z"/></g><g><line class="d" x1="256.83" y1="541.15" x2="190.55" y2="607.88"/><path class="f" d="M190.55,612.01c-1.05,0-2.1-.4-2.91-1.2-1.62-1.61-1.62-4.22-.02-5.83l66.29-66.73c1.61-1.62,4.22-1.62,5.83-.02s1.62,4.22,.02,5.83l-66.29,66.73c-.81,.81-1.87,1.22-2.93,1.22Z"/></g><g><line class="d" x1="435.54" y1="478.96" x2="329.81" y2="585.4"/><path class="f" d="M329.81,589.53c-1.05,0-2.1-.4-2.91-1.2-1.62-1.61-1.62-4.22-.02-5.83l105.73-106.44c1.61-1.62,4.22-1.62,5.83-.02,1.62,1.61,1.62,4.22,.02,5.83l-105.73,106.44c-.81,.81-1.87,1.22-2.93,1.22Z"/></g><g><line class="d" x1="612.17" y1="166.74" x2="569.26" y2="210"/><path class="f" d="M569.26,214.12c-1.05,0-2.1-.4-2.91-1.2-1.62-1.6-1.63-4.22-.02-5.83l42.91-43.25c1.6-1.62,4.22-1.63,5.83-.02,1.62,1.6,1.63,4.22,.02,5.83l-42.91,43.25c-.81,.81-1.87,1.22-2.93,1.22Z"/></g><g><line class="d" x1="455.67" y1="520.65" x2="441.21" y2="535.21"/><path class="f" d="M441.21,539.34c-1.05,0-2.1-.4-2.91-1.2-1.62-1.61-1.62-4.22-.02-5.83l14.46-14.56c1.61-1.62,4.22-1.62,5.83-.02,1.62,1.61,1.62,4.22,.02,5.83l-14.46,14.56c-.81,.81-1.87,1.22-2.93,1.22Z"/></g><g><line class="d" x1="559.74" y1="415.89" x2="486.03" y2="490.09"/><path class="f" d="M486.03,494.21c-1.05,0-2.1-.4-2.91-1.2-1.62-1.61-1.62-4.22-.02-5.83l73.7-74.2c1.61-1.62,4.22-1.62,5.83-.02,1.62,1.61,1.62,4.22,.02,5.83l-73.7,74.2c-.81,.81-1.87,1.22-2.93,1.22Z"/></g><g><line class="d" x1="572.89" y1="303.52" x2="496.75" y2="380.18"/><path class="f" d="M496.74,384.3c-1.05,0-2.1-.4-2.91-1.2-1.62-1.61-1.62-4.22-.02-5.83l76.14-76.65c1.61-1.62,4.22-1.62,5.83-.02,1.62,1.61,1.62,4.22,.02,5.83l-76.14,76.65c-.81,.81-1.87,1.22-2.93,1.22Z"/></g><g><line class="d" x1="515.52" y1="280.74" x2="503.6" y2="292.74"/><path class="f" d="M503.6,296.86c-1.05,0-2.1-.4-2.91-1.2-1.62-1.61-1.62-4.22-.02-5.83l11.92-12c1.61-1.62,4.22-1.62,5.83-.02,1.62,1.61,1.62,4.22,.02,5.83l-11.92,12c-.81,.81-1.87,1.22-2.93,1.22Z"/></g></g></g></g></svg>