<?xml version="1.0" encoding="UTF-8"?><svg xmlns="http://www.w3.org/2000/svg" viewBox="0 0 680.57 645.02"><defs><style>.c{fill:#fff;}.d{fill:#abc5ff;}.e{fill:#541932;}.f{fill:#6200ee;}</style></defs><g id="a"/><g id="b"><g><circle class="f" cx="313.37" cy="312.26" r="247.47"/><g><g><path class="c" d="M436.04,203.86c0,110.31-175.84,302.17-215.96,302.17S4.12,314.18,4.12,203.86,100.81,4.12,220.08,4.12s215.96,89.43,215.96,199.74Z"/><path class="e" d="M220.08,510.16c-13.76,0-36.64-17.81-53.41-32.75-23.2-20.67-49.07-48.56-72.84-78.53C65.62,363.31,0,273.1,0,203.86c0-27.56,5.84-54.3,17.34-79.46,11.1-24.28,27-46.09,47.23-64.8,20.21-18.69,43.74-33.37,69.94-43.62C161.62,5.38,190.41,0,220.08,0s58.46,5.38,85.56,15.98c26.2,10.25,49.73,24.92,69.94,43.62,20.24,18.72,36.13,40.52,47.23,64.8,11.51,25.17,17.34,51.9,17.34,79.46,0,69.23-65.62,159.44-93.83,195.02-23.77,29.98-49.64,57.87-72.84,78.53-16.77,14.94-39.65,32.75-53.41,32.75Zm0-501.91c-28.64,0-56.41,5.19-82.56,15.41-25.23,9.87-47.89,24-67.35,41.99-19.43,17.97-34.68,38.89-45.33,62.18-11.01,24.08-16.6,49.66-16.6,76.03s9.3,55.96,27.65,91.88c15.79,30.92,38.06,64.81,64.39,98.01,23.49,29.62,49.01,57.14,71.87,77.5,21.55,19.2,39.47,30.66,47.92,30.66s26.38-11.46,47.92-30.66c22.86-20.36,48.38-47.88,71.87-77.5,26.33-33.2,48.6-67.09,64.39-98.01,18.35-35.92,27.65-66.83,27.65-91.88,0-26.37-5.58-51.95-16.6-76.03-10.65-23.29-25.9-44.21-45.33-62.18-19.45-17.99-42.11-32.12-67.35-41.99-26.14-10.23-53.92-15.41-82.56-15.41Z"/></g><g><path class="c" d="M243.77,495.69c51.92-50.27,129.21-189.16,129.21-278.17,0-84.15-40.84-172.85-111.96-209.81l-78.75-.53C111.15,44.14,60.46,133.37,60.46,217.52c0,89.01,81.88,226.58,133.8,276.85,0,0,17.17,11.67,25.82,11.67s23.69-10.34,23.69-10.34Z"/><path class="e" d="M220.08,510.16c-9.64,0-26.28-11.11-28.14-12.38-.2-.13-.38-.28-.55-.45-27.51-26.64-60.91-74.52-87.16-124.95-30.88-59.34-47.89-114.34-47.89-154.86,0-86.66,52.16-176.66,124.04-214,.6-.31,1.25-.47,1.93-.46l78.75,.53c.65,0,1.29,.16,1.87,.46,34.65,18,63.84,48.77,84.42,88.99,19.19,37.49,29.76,81.7,29.76,124.48s-16.18,96.1-45.56,155.44c-25.51,51.52-58.04,99.68-84.9,125.69-.16,.16-.34,.31-.53,.44-1.65,1.13-16.38,11.07-26.03,11.07Zm-23.21-19.01c6.31,4.24,17.93,10.76,23.21,10.76s15.58-5.7,21.07-9.42c26.18-25.45,57.96-72.6,83-123.18,28.83-58.23,44.71-112.13,44.71-151.78s-10.25-84.37-28.86-120.72c-19.63-38.34-47.28-67.7-80.01-84.97l-76.72-.52c-33.19,17.51-63.35,47.8-85.01,85.4-21.72,37.72-33.68,80.63-33.68,120.81s16.68,92.86,46.96,151.05c25.79,49.55,58.45,96.47,85.32,122.58Zm46.91,4.54h0Z"/></g><g><path class="d" d="M211.43,504.01c-28.07-63.25-67.36-172.7-67.3-288.42,.04-77.62,23.21-164.54,69.69-211.16h15.36c46.49,46.62,60.1,133.55,60.13,211.16,.05,115.72-32.51,225.18-60.59,288.42h-17.3Z"/><path class="e" d="M228.73,508.13h-17.3c-1.63,0-3.11-.96-3.77-2.45-18.23-41.06-33.17-83.17-44.41-125.14-15.45-57.67-23.27-113.17-23.25-164.96,.02-40.55,6.11-81.5,17.61-118.43,12.51-40.16,30.94-73.23,53.28-95.64,.77-.78,1.82-1.21,2.92-1.21h15.36c1.1,0,2.15,.44,2.92,1.21,21.93,21.99,38.27,54.25,48.57,95.88,8.45,34.16,12.75,73.93,12.77,118.19,.02,53-6.66,108.46-19.85,164.83-10.45,44.63-25.04,89.12-41.09,125.27-.66,1.49-2.14,2.45-3.77,2.45Zm-14.62-8.25h11.93c15.42-35.25,29.41-78.22,39.51-121.35,13.05-55.76,19.66-110.58,19.64-162.95-.02-43.6-4.23-82.7-12.53-116.22-9.74-39.38-24.95-69.93-45.21-90.82h-11.91c-20.88,21.45-38.17,52.89-50.06,91.06-11.26,36.15-17.22,76.25-17.24,115.98-.02,51.07,7.7,105.85,22.96,162.82,10.91,40.73,25.34,81.58,42.9,121.48Z"/></g><g><path class="e" d="M189.14,561.37c-2.28,0-4.12-1.85-4.12-4.12v-66.69c0-2.28,1.85-4.12,4.12-4.12s4.12,1.85,4.12,4.12v66.69c0,2.28-1.85,4.12-4.12,4.12Z"/><path class="e" d="M248.89,561.37c-2.28,0-4.12-1.85-4.12-4.12v-65.12c0-2.28,1.85-4.12,4.12-4.12s4.12,1.85,4.12,4.12v65.12c0,2.28-1.85,4.12-4.12,4.12Z"/></g><g><rect class="d" x="170.79" y="552.98" width="96.46" height="87.92" rx="16.51" ry="16.51"/><path class="e" d="M258.62,645.02h-79.21c-7.03,0-12.75-5.72-12.75-12.75v-70.67c0-7.03,5.72-12.75,12.75-12.75h79.21c7.03,0,12.75,5.72,12.75,12.75v70.67c0,7.03-5.72,12.75-12.75,12.75Zm-79.21-87.92c-2.48,0-4.5,2.02-4.5,4.5v70.67c0,2.48,2.02,4.5,4.5,4.5h79.21c2.48,0,4.5-2.02,4.5-4.5v-70.67c0-2.48-2.02-4.5-4.5-4.5h-79.21Z"/></g><path class="e" d="M267.24,583.57h-96.46c-2.28,0-4.12-1.85-4.12-4.12s1.85-4.12,4.12-4.12h96.46c2.28,0,4.12,1.85,4.12,4.12s-1.85,4.12-4.12,4.12Z"/></g><g><g><path class="d" d="M538.76,537.7h19.42c27.43,0,49.66-22.23,49.66-49.66s-21.01-48.41-47.38-49.6c-2.4-35.19-31.69-62.99-67.48-62.99-31.43,0-57.85,21.44-65.45,50.48-4.48-2.74-9.74-4.35-15.38-4.35-16.32,0-29.56,13.23-29.56,29.56,0,.11,.02,.22,.02,.33-1.68-.2-3.39-.33-5.12-.33-23.9,0-43.28,19.38-43.28,43.28s19.38,43.28,43.28,43.28h161.28Z"/><path class="e" d="M558.18,541.83h-180.7c-26.14,0-47.41-21.27-47.41-47.41s21.27-47.41,47.41-47.41c.4,0,.81,0,1.23,.02,2.03-16.64,16.25-29.58,33.43-29.58,4.42,0,8.78,.88,12.85,2.57,9.79-28.92,37.06-48.7,67.99-48.7,18.31,0,35.74,6.9,49.09,19.42,12.41,11.64,20.2,27.1,22.18,43.86,27.04,3.01,47.73,25.83,47.73,53.44,0,29.66-24.13,53.79-53.79,53.79Zm-180.7-86.56c-21.59,0-39.16,17.57-39.16,39.16s17.57,39.16,39.16,39.16h180.7c25.11,0,45.54-20.43,45.54-45.54s-19.08-44.38-43.45-45.48c-2.1-.09-3.79-1.75-3.93-3.84-1.09-16.03-8.17-30.93-19.93-41.96-11.81-11.08-27.24-17.18-43.44-17.18-28.88,0-54.16,19.49-61.46,47.4-.33,1.26-1.24,2.29-2.45,2.78-1.21,.49-2.58,.37-3.69-.31-4.01-2.45-8.58-3.75-13.23-3.75-13.99,0-25.39,11.36-25.43,25.34,0,.14,.02,.26,.02,.38,.01,1.19-.49,2.32-1.37,3.11s-2.06,1.17-3.24,1.03c-1.72-.2-3.23-.3-4.64-.3Z"/></g><path class="e" d="M539.62,447.32c-2.15,0-3.96-1.67-4.11-3.84-1.57-23.05-20.92-41.1-44.05-41.1-2.28,0-4.12-1.85-4.12-4.12s1.85-4.12,4.12-4.12c27.45,0,50.41,21.43,52.28,48.79,.16,2.27-1.56,4.24-3.83,4.4-.1,0-.19,0-.29,0Z"/></g><g><g><path class="c" d="M522.89,271.79h-14.58c-20.59,0-37.28-16.69-37.28-37.28s15.78-36.34,35.57-37.24c1.8-26.41,23.79-47.28,50.66-47.28,23.6,0,43.43,16.09,49.13,37.9,3.37-2.06,7.31-3.27,11.54-3.27,12.25,0,22.19,9.93,22.19,22.19,0,.08-.01,.16-.01,.25,1.26-.15,2.54-.25,3.85-.25,17.94,0,32.49,14.55,32.49,32.49s-14.55,32.49-32.49,32.49h-121.07Z"/><path class="e" d="M643.95,275.91h-135.65c-22.83,0-41.4-18.57-41.4-41.4,0-20.98,15.52-38.37,35.94-41.04,3.6-26.96,26.85-47.6,54.42-47.6,23.3,0,43.88,14.67,51.65,36.24,2.88-1.06,5.94-1.61,9.02-1.61,13.11,0,24.01,9.63,25.99,22.19h.03c20.19,0,36.61,16.43,36.61,36.62s-16.43,36.62-36.61,36.62Zm-86.7-121.8c-24.44,0-44.88,19.08-46.54,43.44-.14,2.09-1.83,3.74-3.93,3.84-17.74,.8-31.63,15.35-31.63,33.12s14.87,33.16,33.16,33.16h135.65c15.64,0,28.37-12.72,28.37-28.37s-12.73-28.37-28.37-28.37c-1.01,0-2.11,.07-3.36,.22-1.18,.14-2.36-.23-3.24-1.03-.88-.79-1.38-1.92-1.37-3.11,0-.1,0-.21,.01-.31-.05-9.91-8.14-17.96-18.06-17.96-3.3,0-6.55,.92-9.39,2.66-1.11,.68-2.48,.79-3.69,.31-1.21-.49-2.12-1.52-2.45-2.78-5.36-20.5-23.93-34.82-45.14-34.82Z"/></g><path class="c" d="M489.16,234.75c0,13.06,10.62,23.68,23.68,23.68"/><g><path class="c" d="M558.39,167.1c-18.98,0-34.86,14.82-36.16,33.74"/><path class="e" d="M522.24,204.97c-.09,0-.19,0-.29,0-2.27-.16-3.99-2.12-3.83-4.4,1.44-21.08,19.13-37.58,40.27-37.58,2.28,0,4.12,1.85,4.12,4.12s-1.85,4.12-4.12,4.12c-16.82,0-30.9,13.13-32.04,29.9-.15,2.18-1.96,3.84-4.11,3.84Z"/></g></g></g></g></svg>