<?xml version="1.0" encoding="UTF-8"?><svg xmlns="http://www.w3.org/2000/svg" viewBox="0 0 523.05 728.54"><defs><style>.c{fill:#fff;}.d{fill:#f2b440;}.e{fill:#ffd592;}.f{fill:#541932;}</style></defs><g id="a"/><g id="b"><g><circle class="d" cx="279.82" cy="374.59" r="243.23"/><g><path class="f" d="M348.14,244.42c-2.1,0-4.12-.93-5.49-2.6l-17.32-21.07c-1.45-1.76-1.19-4.36,.57-5.81,1.76-1.45,4.36-1.19,5.81,.57l15.98,19.44,7.38-24.05c.67-2.18,2.98-3.4,5.15-2.73,2.18,.67,3.4,2.97,2.73,5.15l-8,26.08c-.77,2.51-2.85,4.38-5.42,4.89-.46,.09-.93,.14-1.38,.14Z"/><path class="f" d="M291.77,36.44c-.4,0-.81-.06-1.21-.18-2.18-.67-3.4-2.97-2.73-5.15l8-26.08c.77-2.51,2.85-4.38,5.42-4.89,2.57-.51,5.21,.43,6.87,2.46l17.32,21.07c1.45,1.76,1.19,4.36-.57,5.81-1.76,1.45-4.36,1.19-5.81-.57l-15.98-19.44-7.38,24.05c-.54,1.77-2.18,2.92-3.94,2.92Z"/><path class="f" d="M235.49,159.95c-.4,0-.81-.06-1.21-.18l-26.08-8c-2.51-.77-4.38-2.85-4.89-5.42-.51-2.57,.43-5.21,2.46-6.87l21.07-17.32c1.76-1.45,4.36-1.19,5.81,.57,1.45,1.76,1.19,4.36-.57,5.81l-19.44,15.98,24.05,7.38c2.18,.67,3.4,2.97,2.73,5.15-.54,1.77-2.18,2.92-3.94,2.92Z"/><path class="f" d="M421.31,123.2c-1.19,0-2.37-.51-3.19-1.51-1.45-1.76-1.19-4.36,.57-5.81l19.44-15.98-24.05-7.38c-2.18-.67-3.4-2.97-2.73-5.15,.67-2.18,2.98-3.4,5.15-2.73l26.08,8c2.51,.77,4.38,2.85,4.89,5.42,.51,2.57-.43,5.21-2.46,6.87l-21.07,17.32c-.77,.63-1.7,.94-2.62,.94Zm18.84-22.67h0Z"/><path class="f" d="M260.09,226.81c-1.38,0-2.76-.4-3.96-1.2-2.18-1.46-3.38-3.99-3.12-6.6l2.65-27.15c.22-2.27,2.24-3.92,4.51-3.7,2.27,.22,3.93,2.24,3.7,4.51l-2.45,25.04,22.22-11.79c2.01-1.07,4.51-.3,5.58,1.71,1.07,2.01,.3,4.51-1.71,5.58l-24.09,12.79c-1.05,.56-2.19,.83-3.33,.83Z"/><path class="f" d="M391,56.29c-.13,0-.27,0-.41-.02-2.27-.22-3.93-2.24-3.7-4.51l2.45-25.04-22.22,11.79c-2.01,1.07-4.51,.3-5.58-1.71-1.07-2.01-.3-4.51,1.71-5.58l24.09-12.79c2.32-1.23,5.11-1.09,7.29,.37,2.18,1.46,3.38,3.99,3.12,6.6l-2.65,27.15c-.21,2.13-2,3.72-4.1,3.72Z"/><path class="f" d="M238.05,86.54c-1.48,0-2.91-.8-3.65-2.19l-12.79-24.09c-1.23-2.32-1.09-5.11,.37-7.29,1.46-2.18,3.99-3.38,6.6-3.12l27.15,2.65c2.27,.22,3.93,2.24,3.7,4.51s-2.24,3.93-4.51,3.7l-25.04-2.45,11.79,22.22c1.07,2.01,.3,4.51-1.71,5.58-.62,.33-1.28,.48-1.93,.48Z"/><path class="f" d="M422.87,194.62c-.23,0-.46-.01-.7-.03l-27.15-2.65c-2.27-.22-3.93-2.24-3.7-4.51,.22-2.27,2.24-3.92,4.51-3.7l25.04,2.45-11.79-22.22c-1.07-2.01-.3-4.51,1.71-5.58,2.01-1.07,4.51-.3,5.58,1.71l12.79,24.09c1.23,2.32,1.09,5.11-.37,7.29-1.33,1.99-3.55,3.15-5.9,3.15Zm-1.01-6.58h0Z"/><g><circle class="e" cx="324.47" cy="121.7" r="70.83" transform="translate(8.98 265.08) rotate(-45)"/><path class="f" d="M324.45,196.66c-35.05,0-66.45-24.76-73.5-60.42-3.88-19.64,.11-39.62,11.25-56.25,11.14-16.63,28.09-27.93,47.73-31.82,40.54-8.02,80.05,18.44,88.07,58.99h0c8.02,40.54-18.44,80.05-58.99,88.07-4.89,.97-9.76,1.43-14.57,1.43Zm.05-141.67c-4.28,0-8.61,.41-12.96,1.27-17.48,3.46-32.56,13.51-42.48,28.32-9.91,14.8-13.47,32.58-10.01,50.06,7.14,36.08,42.3,59.63,78.38,52.49,36.08-7.14,59.63-42.3,52.49-78.38h0c-6.28-31.73-34.23-53.77-65.41-53.77Z"/></g></g><g><g><g><path class="e" d="M51.86,556.09L5.21,492.3c-1.37-1.87-1.44-4.36-.2-6.3l4.05-6.29c1.63-2.53,4.99-3.45,7.78-2.14l80.62,37.77"/><path class="f" d="M51.86,560.21c-1.27,0-2.52-.59-3.33-1.69L1.88,494.73c-2.38-3.26-2.52-7.56-.35-10.95l4.06-6.31c2.75-4.26,8.34-5.83,13-3.64l80.62,37.76c2.06,.97,2.95,3.42,1.99,5.48s-3.42,2.95-5.48,1.99L15.1,481.3c-.93-.44-2.05-.16-2.56,.64l-4.05,6.29c-.32,.5-.3,1.14,.06,1.63l46.64,63.79c1.34,1.84,.94,4.42-.89,5.76-.73,.54-1.59,.8-2.43,.8Z"/></g><g><path class="e" d="M129.41,558.9l9.27,85.39c.32,2.95-1.74,5.64-4.79,6.23l-7.59,1.45c-2.33,.44-4.76-.48-6.1-2.35l-46.74-63.96"/><path class="f" d="M125.14,656.2c-3.27,0-6.38-1.53-8.28-4.18l-46.72-63.92c-1.34-1.84-.94-4.42,.9-5.76,1.84-1.34,4.42-.94,5.76,.9l46.74,63.96c.42,.59,1.24,.87,2,.73l7.57-1.45c.92-.18,1.56-.92,1.47-1.72l-9.28-85.39c-.25-2.26,1.39-4.3,3.66-4.55,2.26-.25,4.3,1.39,4.55,3.66l9.27,85.39c.56,5.11-2.93,9.73-8.11,10.72l-7.59,1.45c-.65,.12-1.3,.18-1.94,.18Z"/></g><g><path class="e" d="M142.59,258.7l29.49-17.79c1.85-1.11,4.17-1.2,6.1-.22,3.52,1.79,9.19,5.37,13.68,11.52,3.89,5.33,5.68,10.04,6.5,13.19,.61,2.33-.36,4.78-2.43,6.16l-7.3,4.85"/><path class="f" d="M188.64,280.53c-1.33,0-2.64-.65-3.44-1.84-1.26-1.9-.75-4.46,1.15-5.72l7.3-4.85c.6-.4,.88-1.06,.72-1.68-.7-2.7-2.29-6.94-5.84-11.8-3.9-5.34-8.8-8.54-12.22-10.27-.65-.33-1.47-.3-2.1,.08l-29.49,17.79c-1.95,1.18-4.49,.55-5.66-1.4-1.18-1.95-.55-4.49,1.4-5.66l29.49-17.79c3.05-1.84,6.93-1.98,10.1-.37,4.22,2.15,10.27,6.1,15.14,12.76,4.32,5.91,6.28,11.2,7.17,14.59,1.05,4.02-.62,8.29-4.13,10.63l-7.3,4.85c-.7,.47-1.5,.69-2.28,.69Z"/></g><g><path class="e" d="M244.44,297.84l29.49-17.79c1.85-1.11,4.17-1.2,6.1-.22,3.52,1.79,9.19,5.37,13.68,11.52,3.89,5.33,5.68,10.04,6.5,13.19,.61,2.33-.36,4.78-2.43,6.16l-7.3,4.85"/><path class="f" d="M290.5,319.68c-1.33,0-2.64-.65-3.44-1.84-1.26-1.9-.75-4.46,1.15-5.72l7.3-4.85c.6-.4,.88-1.06,.72-1.68-.7-2.7-2.29-6.94-5.84-11.8-3.9-5.34-8.8-8.54-12.22-10.27-.65-.33-1.47-.3-2.1,.08l-29.49,17.79c-1.95,1.18-4.49,.55-5.66-1.4-1.18-1.95-.55-4.49,1.4-5.66l29.49-17.79c3.05-1.84,6.93-1.98,10.1-.37,4.22,2.15,10.27,6.1,15.14,12.76,4.32,5.91,6.28,11.2,7.17,14.59,1.05,4.02-.62,8.29-4.13,10.63l-7.3,4.85c-.7,.47-1.5,.69-2.28,.69Z"/></g><g><path class="c" d="M221.08,410.26l-17.5-23.88c-5.54-7.56-12.39-14.15-20.26-19.49L14.92,252.59c-1.21-.82-.92-2.61,.49-3.04l52.03-16.01c3.49-1.07,7.26-.95,10.66,.36l258.58,99.45"/><path class="f" d="M221.09,414.39c-1.27,0-2.52-.58-3.33-1.69l-17.5-23.88c-5.27-7.2-11.75-13.43-19.25-18.52L12.6,256c-1.88-1.27-2.84-3.45-2.5-5.67,.34-2.24,1.91-4.05,4.1-4.72l52.03-16.01c4.36-1.34,9.1-1.18,13.35,.45l258.58,99.45c2.13,.82,3.19,3.2,2.37,5.33-.82,2.13-3.2,3.19-5.33,2.37L76.62,237.75c-2.53-.97-5.36-1.07-7.97-.27l-47.24,14.54,164.21,111.46c8.29,5.62,15.44,12.51,21.28,20.47l17.5,23.88c1.35,1.84,.95,4.42-.89,5.76-.73,.54-1.59,.8-2.43,.8Z"/></g><g><path class="e" d="M396.93,606.72l27.69-20.25c1.73-1.27,2.63-3.32,2.33-5.39-.54-3.77-2.11-10.08-6.6-16.23-3.89-5.33-7.91-8.56-10.73-10.38-2.09-1.35-4.83-1.33-6.89,.05l-7.3,4.85"/><path class="f" d="M396.93,610.85c-1.27,0-2.52-.59-3.33-1.69-1.34-1.84-.94-4.42,.89-5.76l27.69-20.25c.51-.37,.76-.92,.68-1.47-.52-3.63-1.96-9.07-5.85-14.38-3.57-4.88-7.21-7.78-9.64-9.36-.71-.46-1.66-.45-2.37,.02l-7.3,4.85c-1.9,1.26-4.46,.75-5.72-1.15-1.26-1.9-.75-4.46,1.15-5.72l7.3-4.85c3.46-2.3,7.94-2.33,11.42-.07,3.01,1.95,7.51,5.52,11.82,11.41,4.89,6.68,6.69,13.52,7.35,18.07,.51,3.57-1.01,7.13-3.98,9.3l-27.69,20.25c-.73,.54-1.59,.8-2.43,.8Z"/></g><g><path class="e" d="M393.65,502l27.69-20.25c1.73-1.27,2.63-3.32,2.33-5.39-.54-3.77-2.11-10.08-6.6-16.23-3.89-5.33-7.91-8.56-10.73-10.38-2.09-1.35-4.83-1.33-6.89,.05l-7.3,4.85"/><path class="f" d="M393.65,506.12c-1.27,0-2.52-.59-3.33-1.69-1.34-1.84-.94-4.42,.89-5.76l27.69-20.25c.51-.37,.76-.92,.68-1.47-.52-3.63-1.96-9.07-5.85-14.38-3.57-4.88-7.21-7.78-9.64-9.36-.71-.46-1.66-.45-2.37,.02l-7.3,4.85c-1.9,1.26-4.46,.75-5.72-1.15-1.26-1.9-.75-4.46,1.15-5.72l7.3-4.85c3.46-2.3,7.94-2.33,11.42-.07,3.01,1.95,7.51,5.52,11.81,11.41,4.88,6.68,6.69,13.52,7.35,18.07,.51,3.57-1.01,7.13-3.98,9.3l-27.69,20.25c-.73,.54-1.59,.8-2.43,.8Z"/></g><g><path class="c" d="M275.13,483.97l17.44,24.1c5.43,7.51,9.49,15.85,12,24.65l54.23,190.42c.39,1.37,2.24,1.72,3.16,.61l33.73-41.05c2.26-2.75,3.44-6.17,3.33-9.67l-8.42-265.89"/><path class="f" d="M360.56,728.54c-.41,0-.82-.04-1.24-.13-2.17-.45-3.88-2.04-4.48-4.14l-54.23-190.42c-2.38-8.37-6.21-16.23-11.37-23.37l-17.44-24.1c-1.34-1.85-.92-4.42,.92-5.76,1.85-1.34,4.42-.92,5.76,.92l17.44,24.1c5.73,7.92,9.98,16.65,12.62,25.94l53.02,186.16,30.95-37.67c1.62-1.97,2.47-4.43,2.39-6.92l-8.42-265.89c-.07-2.28,1.72-4.18,3.99-4.25,2.28-.07,4.18,1.72,4.25,3.99l8.42,265.89c.14,4.49-1.37,8.9-4.26,12.42l-33.73,41.05c-1.14,1.39-2.83,2.17-4.59,2.17Z"/></g><g><path class="c" d="M28.42,593.6c3.79,5.24,10.36,7.72,15.76,5.8,22.66-8.06,69.73-38.52,114.41-50.47,20.17-5.38,38.87-14.19,55.83-25.47l219.72-146.18c9.01-5.99,30.68-26.44,48.27-47.93,17.62-21.45,31.16-43.94,23.82-53.98-14.64-20.03-107.14,17.4-125.12,29.36l-218.11,145.12c-17.35,11.54-32.85,25.62-45.34,42.29-27.7,37.1-74.11,67.99-89.5,85.6-3.63,4.15-3.46,10.74,.27,15.88h0Z"/><path class="f" d="M40.31,604.18c-5.69,0-11.47-2.97-15.23-8.16-4.91-6.78-4.92-15.42-.03-21.01,5.87-6.72,15.93-15.16,27.57-24.93,19.83-16.65,44.52-37.36,61.74-60.42,12.3-16.42,27.9-30.98,46.36-43.26l218.11-145.12c9.8-6.52,38.21-19,64.89-27.18,36.15-11.09,58.31-11.49,65.84-1.17,7.66,10.48-.4,30.34-23.97,59.03-17.23,21.06-39.34,42.21-49.17,48.75l-219.72,146.18c-18,11.97-37.19,20.73-57.05,26.03-28.03,7.49-57.14,22.45-80.54,34.47-13.45,6.91-25.07,12.88-33.55,15.9-1.7,.6-3.47,.9-5.25,.9Zm-8.55-13c2.75,3.8,7.39,5.63,11.03,4.33,7.97-2.84,19.36-8.69,32.55-15.46,23.74-12.2,53.29-27.38,82.18-35.1,18.99-5.06,37.37-13.45,54.61-24.92l219.72-146.18c7.9-5.26,29.31-25.06,47.36-47.11,9.48-11.54,16.65-22.07,20.76-30.47,4.24-8.69,5.28-15.24,2.93-18.47-1.85-2.53-11.42-9.72-56.77,4.19-27.98,8.59-54.85,20.92-62.74,26.16l-218.11,145.12c-17.68,11.76-32.59,25.67-44.33,41.33-17.79,23.83-42.88,44.88-63.04,61.8-11.38,9.55-21.2,17.8-26.66,24.04-2.31,2.64-2.1,7.16,.5,10.75h0Z"/></g><g><path class="c" d="M462.54,325.48s1.09-9.92-4.48-17.56c-5.58-7.63-15.72-10.09-15.72-10.09"/><path class="f" d="M462.54,329.6c-.15,0-.3,0-.46-.03-2.26-.25-3.89-2.28-3.65-4.54,.01-.12,.8-8.51-3.71-14.69-4.59-6.27-13.28-8.49-13.37-8.51-2.21-.55-3.56-2.78-3.02-4.99,.54-2.21,2.76-3.56,4.97-3.03,.47,.11,11.68,2.91,18.08,11.66,6.45,8.83,5.31,19.97,5.25,20.44-.23,2.11-2.02,3.67-4.09,3.67Z"/></g><g><path class="e" d="M195.21,374.96s10.9-18.54,1.36-24.51l-125.97-78.76c-9.37-5.86-31.51-2.7-31.51-2.7l156.12,105.97Z"/><path class="f" d="M195.21,379.09c-.82,0-1.63-.24-2.32-.71L36.78,272.41c-1.41-.96-2.09-2.68-1.7-4.34,.38-1.66,1.75-2.91,3.44-3.15,2.42-.34,23.93-3.18,34.28,3.29l125.97,78.76c10.22,6.39,4.82,21.92,.01,30.09-.58,.98-1.54,1.68-2.65,1.93-.3,.07-.6,.1-.91,.1ZM51.29,272.29l142.34,96.62c.67-1.51,1.37-3.32,1.9-5.21,.98-3.5,1.58-8.03-1.15-9.74l-125.97-78.76c-3.75-2.34-10.77-2.96-17.12-2.91Z"/></g><g><path class="e" d="M300.78,519.42h0c8.4-7.36,22-3.35,24.57,7.26l33.91,140.01c2.52,10.42-.57,21.35-8.23,29.14h0"/><path class="f" d="M351.02,699.95c-1.04,0-2.09-.39-2.89-1.18-1.62-1.6-1.65-4.21-.05-5.83,6.68-6.79,9.36-16.24,7.17-25.28l-33.91-140.01c-.84-3.45-3.47-6.18-7.04-7.32-3.82-1.21-7.86-.39-10.8,2.19-1.71,1.5-4.32,1.33-5.82-.38-1.5-1.71-1.33-4.32,.38-5.82,5.13-4.5,12.13-5.94,18.73-3.85,6.35,2.01,11.05,6.96,12.57,13.24l33.91,140.01c2.87,11.83-.61,24.17-9.3,33.01-.81,.82-1.87,1.23-2.94,1.23Z"/></g></g><g><line class="e" x1="351.02" y1="695.82" x2="300.78" y2="519.42"/><path class="f" d="M351.02,699.95c-1.8,0-3.45-1.18-3.96-3l-50.24-176.41c-.62-2.19,.65-4.47,2.84-5.1,2.19-.62,4.47,.65,5.1,2.84l50.24,176.41c.62,2.19-.65,4.47-2.84,5.1-.38,.11-.76,.16-1.13,.16Z"/></g></g></g></g></svg>